M48
;GenerationSoftware,Autodesk,EAGLE,9.4.2*%
;CreationDate,2019-06-20T01:11:01Z*%
FMAT,2
ICI,OFF
METRIC,TZ,000.000
T10C0.500
T9C0.813
T8C0.850
T7C0.900
T6C0.950
T5C1.118
T4C1.300
T3C2.200
T2C3.200
T1C3.302
%
G90
M71
T1
X5334Y19050
T2
X13970Y2540
X66040Y7620
X66040Y35560
X15240Y50800
T3
X3810Y44100
X3810Y32100
T4
X11430Y8052
X5436Y9576
X5436Y8052
X7671Y3810
X9195Y3810
X5436Y8814
X11430Y8814
X8433Y3810
X11430Y9576
T5
X20320Y19050
X21844Y41656
X20320Y21590
X20320Y16510
X11684Y41656
T6
X6520Y36850
X6520Y39350
X8520Y39350
X8520Y36850
T7
X55880Y50800
X38100Y2540
X40640Y2540
X43180Y2540
X45720Y2540
X19050Y50800
X21590Y50800
X24130Y50800
X26670Y50800
X29210Y50800
X31750Y50800
X34290Y50800
X36830Y50800
X39370Y50800
X41910Y50800
X45720Y50800
X48260Y50800
X50800Y50800
X53340Y50800
X58420Y50800
X60960Y50800
X63500Y50800
X62230Y20320
X59690Y20320
X57150Y20320
X54610Y20320
X52070Y20320
X49530Y20320
X46990Y20320
X44450Y20320
X41910Y20320
X39370Y20320
X36830Y20320
X34290Y20320
X31750Y20320
X29210Y20320
X29210Y12700
X31750Y12700
X34290Y12700
X36830Y12700
X39370Y12700
X41910Y12700
X44450Y12700
X46990Y12700
X49530Y12700
X52070Y12700
X54610Y12700
X57150Y12700
X59690Y12700
X62230Y12700
X50800Y2540
X53340Y2540
X55880Y2540
X58420Y2540
X60960Y2540
X63500Y2540
X27940Y2540
X30480Y2540
X33020Y2540
X35560Y2540
T8
X36830Y20320
X53340Y50800
X50800Y50800
X48260Y50800
X45720Y50800
X62230Y20320
X59690Y20320
X57150Y20320
X54610Y20320
X52070Y20320
X46990Y20320
X44450Y20320
X41910Y20320
X39370Y20320
X26670Y50800
X62230Y12700
X57150Y12700
X39370Y50800
X36830Y50800
X34290Y50800
X31750Y50800
X29210Y50800
X24130Y50800
X21590Y50800
X19050Y50800
X50800Y2540
X53340Y2540
X55880Y2540
X58420Y2540
X60960Y2540
X63500Y2540
X54610Y12700
X52070Y12700
X49530Y12700
X46990Y12700
X44450Y12700
X41910Y12700
X39370Y12700
X49530Y20320
X59690Y12700
X36830Y12700
X41910Y50800
X63500Y50800
X34290Y12700
X31750Y12700
X29210Y12700
X29210Y20320
X31750Y20320
X34290Y20320
X27940Y2540
X33020Y2540
X35560Y2540
X38100Y2540
X40640Y2540
X43180Y2540
X45720Y2540
X30480Y2540
X60960Y50800
X58420Y50800
X55880Y50800
T9
X49149Y35941
X28448Y44577
X15240Y25400
X30480Y24257
X20320Y24384
X22860Y24384
X44450Y9652
X46990Y9652
X47625Y31877
X55245Y31877
X54610Y27940
X62230Y27940
X12700Y27686
X20320Y27686
X6604Y27686
X4064Y27686
X33020Y24257
X38227Y29210
X38862Y35560
X38862Y33020
X42418Y35560
X42418Y33020
X62230Y24892
X54610Y24892
X12700Y38862
X20320Y38862
X17780Y7620
X17780Y9652
X35560Y35687
X20320Y30734
X12700Y30734
X9144Y51562
X9144Y49022
X20574Y47244
X12954Y47244
X3810Y51562
X3810Y49022
X13208Y44704
X20828Y44704
X15240Y36322
X17780Y36322
X35560Y33147
X43053Y29210
X22352Y12700
X22352Y5080
X46990Y23368
X44450Y23368
X30353Y28448
X25527Y28448
X25527Y24384
X28067Y24384
T10
X34544Y44069
X32766Y45720
M30