G75*
%MOIN*%
%OFA0B0*%
%FSLAX25Y25*%
%IPPOS*%
%LPD*%
%AMOC8*
5,1,8,0,0,1.08239X$1,22.5*
%
%ADD10C,0.13398*%
%ADD11C,0.04343*%
%ADD12C,0.02300*%
%ADD13C,0.06400*%
%ADD14C,0.07400*%
%ADD15C,0.13800*%
%ADD16OC8,0.06000*%
%ADD17C,0.06000*%
%ADD18C,0.07400*%
%ADD19C,0.06000*%
%ADD20OC8,0.16548*%
%ADD21C,0.08477*%
%ADD22OC8,0.07400*%
%ADD23C,0.13461*%
%ADD24C,0.08600*%
%ADD25C,0.04800*%
%ADD26C,0.07800*%
D10*
X0081461Y0011800D03*
X0286461Y0031800D03*
X0286461Y0141800D03*
X0086461Y0201800D03*
D11*
X0101461Y0201800D03*
X0111461Y0201800D03*
X0121461Y0201800D03*
X0131461Y0201800D03*
X0141461Y0201800D03*
X0151461Y0201800D03*
X0161461Y0201800D03*
X0171461Y0201800D03*
X0181461Y0201800D03*
X0191461Y0201800D03*
X0206461Y0201800D03*
X0216461Y0201800D03*
X0226461Y0201800D03*
X0236461Y0201800D03*
X0246461Y0201800D03*
X0256461Y0201800D03*
X0266461Y0201800D03*
X0276461Y0201800D03*
X0271461Y0081800D03*
X0261461Y0081800D03*
X0251461Y0081800D03*
X0241461Y0081800D03*
X0231461Y0081800D03*
X0221461Y0081800D03*
X0211461Y0081800D03*
X0201461Y0081800D03*
X0191461Y0081800D03*
X0181461Y0081800D03*
X0171461Y0081800D03*
X0161461Y0081800D03*
X0151461Y0081800D03*
X0141461Y0081800D03*
X0141461Y0051800D03*
X0151461Y0051800D03*
X0161461Y0051800D03*
X0171461Y0051800D03*
X0181461Y0051800D03*
X0191461Y0051800D03*
X0201461Y0051800D03*
X0211461Y0051800D03*
X0221461Y0051800D03*
X0231461Y0051800D03*
X0241461Y0051800D03*
X0251461Y0051800D03*
X0261461Y0051800D03*
X0271461Y0051800D03*
X0276461Y0011800D03*
X0266461Y0011800D03*
X0256461Y0011800D03*
X0246461Y0011800D03*
X0236461Y0011800D03*
X0226461Y0011800D03*
X0206461Y0011800D03*
X0196461Y0011800D03*
X0186461Y0011800D03*
X0176461Y0011800D03*
X0166461Y0011800D03*
X0156461Y0011800D03*
X0146461Y0011800D03*
X0136461Y0011800D03*
D12*
X0145211Y0114800D02*
X0151711Y0114800D01*
X0151711Y0117360D02*
X0145211Y0117360D01*
X0145211Y0119918D02*
X0151711Y0119918D01*
X0151711Y0122477D02*
X0145211Y0122477D01*
X0145211Y0125037D02*
X0151711Y0125037D01*
X0151711Y0127595D02*
X0145211Y0127595D01*
X0145211Y0130153D02*
X0151711Y0130153D01*
X0151711Y0132713D02*
X0145211Y0132713D01*
X0145211Y0135272D02*
X0151711Y0135272D01*
X0151711Y0137832D02*
X0145211Y0137832D01*
X0145211Y0140392D02*
X0151711Y0140392D01*
X0151711Y0142950D02*
X0145211Y0142950D01*
X0145211Y0145508D02*
X0151711Y0145508D01*
X0151711Y0148068D02*
X0145211Y0148068D01*
X0123711Y0148068D02*
X0117211Y0148068D01*
X0117211Y0145508D02*
X0123711Y0145508D01*
X0123711Y0142950D02*
X0117211Y0142950D01*
X0117211Y0140392D02*
X0123711Y0140392D01*
X0123711Y0137832D02*
X0117211Y0137832D01*
X0117211Y0135272D02*
X0123711Y0135272D01*
X0123711Y0132713D02*
X0117211Y0132713D01*
X0117211Y0130153D02*
X0123711Y0130153D01*
X0123711Y0127595D02*
X0117211Y0127595D01*
X0117211Y0125037D02*
X0123711Y0125037D01*
X0123711Y0122477D02*
X0117211Y0122477D01*
X0117211Y0119918D02*
X0123711Y0119918D01*
X0123711Y0117358D02*
X0117211Y0117358D01*
X0117211Y0114800D02*
X0123711Y0114800D01*
D13*
X0141461Y0084600D02*
X0141461Y0079000D01*
X0151461Y0079000D02*
X0151461Y0084600D01*
X0161461Y0084600D02*
X0161461Y0079000D01*
X0171461Y0079000D02*
X0171461Y0084600D01*
X0181461Y0084600D02*
X0181461Y0079000D01*
X0191461Y0079000D02*
X0191461Y0084600D01*
X0201461Y0084600D02*
X0201461Y0079000D01*
X0211461Y0079000D02*
X0211461Y0084600D01*
X0221461Y0084600D02*
X0221461Y0079000D01*
X0231461Y0079000D02*
X0231461Y0084600D01*
X0241461Y0084600D02*
X0241461Y0079000D01*
X0251461Y0079000D02*
X0251461Y0084600D01*
X0261461Y0084600D02*
X0261461Y0079000D01*
X0271461Y0079000D02*
X0271461Y0084600D01*
X0271461Y0054600D02*
X0271461Y0049000D01*
X0261461Y0049000D02*
X0261461Y0054600D01*
X0251461Y0054600D02*
X0251461Y0049000D01*
X0241461Y0049000D02*
X0241461Y0054600D01*
X0231461Y0054600D02*
X0231461Y0049000D01*
X0221461Y0049000D02*
X0221461Y0054600D01*
X0211461Y0054600D02*
X0211461Y0049000D01*
X0201461Y0049000D02*
X0201461Y0054600D01*
X0191461Y0054600D02*
X0191461Y0049000D01*
X0181461Y0049000D02*
X0181461Y0054600D01*
X0171461Y0054600D02*
X0171461Y0049000D01*
X0161461Y0049000D02*
X0161461Y0054600D01*
X0151461Y0054600D02*
X0151461Y0049000D01*
X0141461Y0049000D02*
X0141461Y0054600D01*
X0146461Y0014600D02*
X0146461Y0009000D01*
X0156461Y0009000D02*
X0156461Y0014600D01*
X0166461Y0014600D02*
X0166461Y0009000D01*
X0176461Y0009000D02*
X0176461Y0014600D01*
X0186461Y0014600D02*
X0186461Y0009000D01*
X0196461Y0009000D02*
X0196461Y0014600D01*
X0206461Y0014600D02*
X0206461Y0009000D01*
X0226461Y0009000D02*
X0226461Y0014600D01*
X0236461Y0014600D02*
X0236461Y0009000D01*
X0246461Y0009000D02*
X0246461Y0014600D01*
X0256461Y0014600D02*
X0256461Y0009000D01*
X0266461Y0009000D02*
X0266461Y0014600D01*
X0276461Y0014600D02*
X0276461Y0009000D01*
X0136461Y0009000D02*
X0136461Y0014600D01*
X0141461Y0199000D02*
X0141461Y0204600D01*
X0151461Y0204600D02*
X0151461Y0199000D01*
X0161461Y0199000D02*
X0161461Y0204600D01*
X0171461Y0204600D02*
X0171461Y0199000D01*
X0181461Y0199000D02*
X0181461Y0204600D01*
X0191461Y0204600D02*
X0191461Y0199000D01*
X0206461Y0199000D02*
X0206461Y0204600D01*
X0216461Y0204600D02*
X0216461Y0199000D01*
X0226461Y0199000D02*
X0226461Y0204600D01*
X0236461Y0204600D02*
X0236461Y0199000D01*
X0246461Y0199000D02*
X0246461Y0204600D01*
X0256461Y0204600D02*
X0256461Y0199000D01*
X0266461Y0199000D02*
X0266461Y0204600D01*
X0276461Y0204600D02*
X0276461Y0199000D01*
X0131461Y0199000D02*
X0131461Y0204600D01*
X0121461Y0204600D02*
X0121461Y0199000D01*
X0111461Y0199000D02*
X0111461Y0204600D01*
X0101461Y0204600D02*
X0101461Y0199000D01*
D14*
X0103161Y0086800D02*
X0109761Y0086800D01*
X0109761Y0076800D02*
X0103161Y0076800D01*
X0103161Y0066800D02*
X0109761Y0066800D01*
D15*
X0047461Y0076800D03*
D16*
X0052461Y0110800D03*
X0042461Y0110800D03*
X0076461Y0110800D03*
X0076461Y0122800D03*
X0076461Y0133800D03*
X0086461Y0143800D03*
X0096461Y0143800D03*
X0106461Y0133800D03*
X0106461Y0122800D03*
X0106461Y0110800D03*
X0106461Y0097800D03*
X0116461Y0097800D03*
X0164461Y0131800D03*
X0164461Y0141800D03*
X0179461Y0141800D03*
X0193461Y0141800D03*
X0193461Y0131800D03*
X0179461Y0131800D03*
X0218461Y0126800D03*
X0241461Y0111800D03*
X0241461Y0099800D03*
X0211461Y0093800D03*
X0201461Y0093800D03*
X0248461Y0126800D03*
X0271461Y0111800D03*
X0271461Y0099800D03*
X0211461Y0039800D03*
X0201461Y0039800D03*
X0096461Y0031800D03*
X0106461Y0154800D03*
X0076461Y0154800D03*
X0062461Y0194800D03*
X0062461Y0204800D03*
X0041461Y0204800D03*
X0041461Y0194800D03*
D17*
X0176961Y0116800D03*
X0195961Y0116800D03*
X0096461Y0039800D03*
D18*
X0112461Y0165800D03*
X0072461Y0165800D03*
D19*
X0075861Y0177800D02*
X0081061Y0177800D01*
X0105861Y0177800D02*
X0111061Y0177800D01*
X0114461Y0054400D02*
X0114461Y0049200D01*
X0114461Y0024400D02*
X0114461Y0019200D01*
D20*
X0071461Y0036500D03*
X0047861Y0036500D03*
X0059661Y0016800D03*
D21*
X0047861Y0033500D03*
X0047861Y0039500D03*
X0071461Y0039500D03*
X0071461Y0033500D03*
X0062661Y0016800D03*
X0056661Y0016800D03*
D22*
X0060004Y0146879D03*
X0052130Y0146879D03*
X0052130Y0156721D03*
X0060004Y0156721D03*
D23*
X0041461Y0175422D03*
X0041461Y0128178D03*
D24*
X0099992Y0011800D02*
X0099994Y0011888D01*
X0100000Y0011976D01*
X0100010Y0012064D01*
X0100024Y0012152D01*
X0100041Y0012238D01*
X0100063Y0012324D01*
X0100088Y0012408D01*
X0100118Y0012492D01*
X0100150Y0012574D01*
X0100187Y0012654D01*
X0100227Y0012733D01*
X0100271Y0012810D01*
X0100318Y0012885D01*
X0100368Y0012957D01*
X0100422Y0013028D01*
X0100478Y0013095D01*
X0100538Y0013161D01*
X0100600Y0013223D01*
X0100666Y0013283D01*
X0100733Y0013339D01*
X0100804Y0013393D01*
X0100876Y0013443D01*
X0100951Y0013490D01*
X0101028Y0013534D01*
X0101107Y0013574D01*
X0101187Y0013611D01*
X0101269Y0013643D01*
X0101353Y0013673D01*
X0101437Y0013698D01*
X0101523Y0013720D01*
X0101609Y0013737D01*
X0101697Y0013751D01*
X0101785Y0013761D01*
X0101873Y0013767D01*
X0101961Y0013769D01*
X0102049Y0013767D01*
X0102137Y0013761D01*
X0102225Y0013751D01*
X0102313Y0013737D01*
X0102399Y0013720D01*
X0102485Y0013698D01*
X0102569Y0013673D01*
X0102653Y0013643D01*
X0102735Y0013611D01*
X0102815Y0013574D01*
X0102894Y0013534D01*
X0102971Y0013490D01*
X0103046Y0013443D01*
X0103118Y0013393D01*
X0103189Y0013339D01*
X0103256Y0013283D01*
X0103322Y0013223D01*
X0103384Y0013161D01*
X0103444Y0013095D01*
X0103500Y0013028D01*
X0103554Y0012957D01*
X0103604Y0012885D01*
X0103651Y0012810D01*
X0103695Y0012733D01*
X0103735Y0012654D01*
X0103772Y0012574D01*
X0103804Y0012492D01*
X0103834Y0012408D01*
X0103859Y0012324D01*
X0103881Y0012238D01*
X0103898Y0012152D01*
X0103912Y0012064D01*
X0103922Y0011976D01*
X0103928Y0011888D01*
X0103930Y0011800D01*
X0103928Y0011712D01*
X0103922Y0011624D01*
X0103912Y0011536D01*
X0103898Y0011448D01*
X0103881Y0011362D01*
X0103859Y0011276D01*
X0103834Y0011192D01*
X0103804Y0011108D01*
X0103772Y0011026D01*
X0103735Y0010946D01*
X0103695Y0010867D01*
X0103651Y0010790D01*
X0103604Y0010715D01*
X0103554Y0010643D01*
X0103500Y0010572D01*
X0103444Y0010505D01*
X0103384Y0010439D01*
X0103322Y0010377D01*
X0103256Y0010317D01*
X0103189Y0010261D01*
X0103118Y0010207D01*
X0103046Y0010157D01*
X0102971Y0010110D01*
X0102894Y0010066D01*
X0102815Y0010026D01*
X0102735Y0009989D01*
X0102653Y0009957D01*
X0102569Y0009927D01*
X0102485Y0009902D01*
X0102399Y0009880D01*
X0102313Y0009863D01*
X0102225Y0009849D01*
X0102137Y0009839D01*
X0102049Y0009833D01*
X0101961Y0009831D01*
X0101873Y0009833D01*
X0101785Y0009839D01*
X0101697Y0009849D01*
X0101609Y0009863D01*
X0101523Y0009880D01*
X0101437Y0009902D01*
X0101353Y0009927D01*
X0101269Y0009957D01*
X0101187Y0009989D01*
X0101107Y0010026D01*
X0101028Y0010066D01*
X0100951Y0010110D01*
X0100876Y0010157D01*
X0100804Y0010207D01*
X0100733Y0010261D01*
X0100666Y0010317D01*
X0100600Y0010377D01*
X0100538Y0010439D01*
X0100478Y0010505D01*
X0100422Y0010572D01*
X0100368Y0010643D01*
X0100318Y0010715D01*
X0100271Y0010790D01*
X0100227Y0010867D01*
X0100187Y0010946D01*
X0100150Y0011026D01*
X0100118Y0011108D01*
X0100088Y0011192D01*
X0100063Y0011276D01*
X0100041Y0011362D01*
X0100024Y0011448D01*
X0100010Y0011536D01*
X0100000Y0011624D01*
X0099994Y0011712D01*
X0099992Y0011800D01*
X0258492Y0124800D02*
X0258494Y0124888D01*
X0258500Y0124976D01*
X0258510Y0125064D01*
X0258524Y0125152D01*
X0258541Y0125238D01*
X0258563Y0125324D01*
X0258588Y0125408D01*
X0258618Y0125492D01*
X0258650Y0125574D01*
X0258687Y0125654D01*
X0258727Y0125733D01*
X0258771Y0125810D01*
X0258818Y0125885D01*
X0258868Y0125957D01*
X0258922Y0126028D01*
X0258978Y0126095D01*
X0259038Y0126161D01*
X0259100Y0126223D01*
X0259166Y0126283D01*
X0259233Y0126339D01*
X0259304Y0126393D01*
X0259376Y0126443D01*
X0259451Y0126490D01*
X0259528Y0126534D01*
X0259607Y0126574D01*
X0259687Y0126611D01*
X0259769Y0126643D01*
X0259853Y0126673D01*
X0259937Y0126698D01*
X0260023Y0126720D01*
X0260109Y0126737D01*
X0260197Y0126751D01*
X0260285Y0126761D01*
X0260373Y0126767D01*
X0260461Y0126769D01*
X0260549Y0126767D01*
X0260637Y0126761D01*
X0260725Y0126751D01*
X0260813Y0126737D01*
X0260899Y0126720D01*
X0260985Y0126698D01*
X0261069Y0126673D01*
X0261153Y0126643D01*
X0261235Y0126611D01*
X0261315Y0126574D01*
X0261394Y0126534D01*
X0261471Y0126490D01*
X0261546Y0126443D01*
X0261618Y0126393D01*
X0261689Y0126339D01*
X0261756Y0126283D01*
X0261822Y0126223D01*
X0261884Y0126161D01*
X0261944Y0126095D01*
X0262000Y0126028D01*
X0262054Y0125957D01*
X0262104Y0125885D01*
X0262151Y0125810D01*
X0262195Y0125733D01*
X0262235Y0125654D01*
X0262272Y0125574D01*
X0262304Y0125492D01*
X0262334Y0125408D01*
X0262359Y0125324D01*
X0262381Y0125238D01*
X0262398Y0125152D01*
X0262412Y0125064D01*
X0262422Y0124976D01*
X0262428Y0124888D01*
X0262430Y0124800D01*
X0262428Y0124712D01*
X0262422Y0124624D01*
X0262412Y0124536D01*
X0262398Y0124448D01*
X0262381Y0124362D01*
X0262359Y0124276D01*
X0262334Y0124192D01*
X0262304Y0124108D01*
X0262272Y0124026D01*
X0262235Y0123946D01*
X0262195Y0123867D01*
X0262151Y0123790D01*
X0262104Y0123715D01*
X0262054Y0123643D01*
X0262000Y0123572D01*
X0261944Y0123505D01*
X0261884Y0123439D01*
X0261822Y0123377D01*
X0261756Y0123317D01*
X0261689Y0123261D01*
X0261618Y0123207D01*
X0261546Y0123157D01*
X0261471Y0123110D01*
X0261394Y0123066D01*
X0261315Y0123026D01*
X0261235Y0122989D01*
X0261153Y0122957D01*
X0261069Y0122927D01*
X0260985Y0122902D01*
X0260899Y0122880D01*
X0260813Y0122863D01*
X0260725Y0122849D01*
X0260637Y0122839D01*
X0260549Y0122833D01*
X0260461Y0122831D01*
X0260373Y0122833D01*
X0260285Y0122839D01*
X0260197Y0122849D01*
X0260109Y0122863D01*
X0260023Y0122880D01*
X0259937Y0122902D01*
X0259853Y0122927D01*
X0259769Y0122957D01*
X0259687Y0122989D01*
X0259607Y0123026D01*
X0259528Y0123066D01*
X0259451Y0123110D01*
X0259376Y0123157D01*
X0259304Y0123207D01*
X0259233Y0123261D01*
X0259166Y0123317D01*
X0259100Y0123377D01*
X0259038Y0123439D01*
X0258978Y0123505D01*
X0258922Y0123572D01*
X0258868Y0123643D01*
X0258818Y0123715D01*
X0258771Y0123790D01*
X0258727Y0123867D01*
X0258687Y0123946D01*
X0258650Y0124026D01*
X0258618Y0124108D01*
X0258588Y0124192D01*
X0258563Y0124276D01*
X0258541Y0124362D01*
X0258524Y0124448D01*
X0258510Y0124536D01*
X0258500Y0124624D01*
X0258494Y0124712D01*
X0258492Y0124800D01*
X0285492Y0044800D02*
X0285494Y0044888D01*
X0285500Y0044976D01*
X0285510Y0045064D01*
X0285524Y0045152D01*
X0285541Y0045238D01*
X0285563Y0045324D01*
X0285588Y0045408D01*
X0285618Y0045492D01*
X0285650Y0045574D01*
X0285687Y0045654D01*
X0285727Y0045733D01*
X0285771Y0045810D01*
X0285818Y0045885D01*
X0285868Y0045957D01*
X0285922Y0046028D01*
X0285978Y0046095D01*
X0286038Y0046161D01*
X0286100Y0046223D01*
X0286166Y0046283D01*
X0286233Y0046339D01*
X0286304Y0046393D01*
X0286376Y0046443D01*
X0286451Y0046490D01*
X0286528Y0046534D01*
X0286607Y0046574D01*
X0286687Y0046611D01*
X0286769Y0046643D01*
X0286853Y0046673D01*
X0286937Y0046698D01*
X0287023Y0046720D01*
X0287109Y0046737D01*
X0287197Y0046751D01*
X0287285Y0046761D01*
X0287373Y0046767D01*
X0287461Y0046769D01*
X0287549Y0046767D01*
X0287637Y0046761D01*
X0287725Y0046751D01*
X0287813Y0046737D01*
X0287899Y0046720D01*
X0287985Y0046698D01*
X0288069Y0046673D01*
X0288153Y0046643D01*
X0288235Y0046611D01*
X0288315Y0046574D01*
X0288394Y0046534D01*
X0288471Y0046490D01*
X0288546Y0046443D01*
X0288618Y0046393D01*
X0288689Y0046339D01*
X0288756Y0046283D01*
X0288822Y0046223D01*
X0288884Y0046161D01*
X0288944Y0046095D01*
X0289000Y0046028D01*
X0289054Y0045957D01*
X0289104Y0045885D01*
X0289151Y0045810D01*
X0289195Y0045733D01*
X0289235Y0045654D01*
X0289272Y0045574D01*
X0289304Y0045492D01*
X0289334Y0045408D01*
X0289359Y0045324D01*
X0289381Y0045238D01*
X0289398Y0045152D01*
X0289412Y0045064D01*
X0289422Y0044976D01*
X0289428Y0044888D01*
X0289430Y0044800D01*
X0289428Y0044712D01*
X0289422Y0044624D01*
X0289412Y0044536D01*
X0289398Y0044448D01*
X0289381Y0044362D01*
X0289359Y0044276D01*
X0289334Y0044192D01*
X0289304Y0044108D01*
X0289272Y0044026D01*
X0289235Y0043946D01*
X0289195Y0043867D01*
X0289151Y0043790D01*
X0289104Y0043715D01*
X0289054Y0043643D01*
X0289000Y0043572D01*
X0288944Y0043505D01*
X0288884Y0043439D01*
X0288822Y0043377D01*
X0288756Y0043317D01*
X0288689Y0043261D01*
X0288618Y0043207D01*
X0288546Y0043157D01*
X0288471Y0043110D01*
X0288394Y0043066D01*
X0288315Y0043026D01*
X0288235Y0042989D01*
X0288153Y0042957D01*
X0288069Y0042927D01*
X0287985Y0042902D01*
X0287899Y0042880D01*
X0287813Y0042863D01*
X0287725Y0042849D01*
X0287637Y0042839D01*
X0287549Y0042833D01*
X0287461Y0042831D01*
X0287373Y0042833D01*
X0287285Y0042839D01*
X0287197Y0042849D01*
X0287109Y0042863D01*
X0287023Y0042880D01*
X0286937Y0042902D01*
X0286853Y0042927D01*
X0286769Y0042957D01*
X0286687Y0042989D01*
X0286607Y0043026D01*
X0286528Y0043066D01*
X0286451Y0043110D01*
X0286376Y0043157D01*
X0286304Y0043207D01*
X0286233Y0043261D01*
X0286166Y0043317D01*
X0286100Y0043377D01*
X0286038Y0043439D01*
X0285978Y0043505D01*
X0285922Y0043572D01*
X0285868Y0043643D01*
X0285818Y0043715D01*
X0285771Y0043790D01*
X0285727Y0043867D01*
X0285687Y0043946D01*
X0285650Y0044026D01*
X0285618Y0044108D01*
X0285588Y0044192D01*
X0285563Y0044276D01*
X0285541Y0044362D01*
X0285524Y0044448D01*
X0285510Y0044536D01*
X0285500Y0044624D01*
X0285494Y0044712D01*
X0285492Y0044800D01*
D25*
X0287461Y0044800D03*
X0260461Y0124800D03*
X0101961Y0011800D03*
D26*
X0086461Y0101800D03*
X0157461Y0174800D03*
X0151461Y0181800D03*
X0134461Y0175300D03*
X0211461Y0139800D03*
M02*
