G75*
%MOIN*%
%OFA0B0*%
%FSLAX25Y25*%
%IPPOS*%
%LPD*%
%AMOC8*
5,1,8,0,0,1.08239X$1,22.5*
%
%ADD10C,0.01500*%
%ADD11C,0.05600*%
%ADD12C,0.06600*%
%ADD13OC8,0.05200*%
%ADD14C,0.05200*%
%ADD15C,0.06600*%
%ADD16C,0.05200*%
%ADD17OC8,0.15748*%
%ADD18C,0.07677*%
%ADD19OC8,0.06600*%
%ADD20C,0.12661*%
%ADD21C,0.04000*%
%ADD22C,0.01600*%
%ADD23C,0.07000*%
%ADD24C,0.03200*%
%ADD25C,0.01400*%
%ADD26C,0.01200*%
D10*
X0117211Y0114800D02*
X0123711Y0114800D01*
X0123711Y0117358D02*
X0117211Y0117358D01*
X0117211Y0119918D02*
X0123711Y0119918D01*
X0123711Y0122477D02*
X0117211Y0122477D01*
X0117211Y0125037D02*
X0123711Y0125037D01*
X0123711Y0127595D02*
X0117211Y0127595D01*
X0117211Y0130153D02*
X0123711Y0130153D01*
X0123711Y0132713D02*
X0117211Y0132713D01*
X0117211Y0135272D02*
X0123711Y0135272D01*
X0123711Y0137832D02*
X0117211Y0137832D01*
X0117211Y0140392D02*
X0123711Y0140392D01*
X0123711Y0142950D02*
X0117211Y0142950D01*
X0117211Y0145508D02*
X0123711Y0145508D01*
X0123711Y0148068D02*
X0117211Y0148068D01*
X0145211Y0148068D02*
X0151711Y0148068D01*
X0151711Y0145508D02*
X0145211Y0145508D01*
X0145211Y0142950D02*
X0151711Y0142950D01*
X0151711Y0140392D02*
X0145211Y0140392D01*
X0145211Y0137832D02*
X0151711Y0137832D01*
X0151711Y0135272D02*
X0145211Y0135272D01*
X0145211Y0132713D02*
X0151711Y0132713D01*
X0151711Y0130153D02*
X0145211Y0130153D01*
X0145211Y0127595D02*
X0151711Y0127595D01*
X0151711Y0125037D02*
X0145211Y0125037D01*
X0145211Y0122477D02*
X0151711Y0122477D01*
X0151711Y0119918D02*
X0145211Y0119918D01*
X0145211Y0117360D02*
X0151711Y0117360D01*
X0151711Y0114800D02*
X0145211Y0114800D01*
D11*
X0141461Y0084600D02*
X0141461Y0079000D01*
X0151461Y0079000D02*
X0151461Y0084600D01*
X0161461Y0084600D02*
X0161461Y0079000D01*
X0171461Y0079000D02*
X0171461Y0084600D01*
X0181461Y0084600D02*
X0181461Y0079000D01*
X0191461Y0079000D02*
X0191461Y0084600D01*
X0201461Y0084600D02*
X0201461Y0079000D01*
X0211461Y0079000D02*
X0211461Y0084600D01*
X0221461Y0084600D02*
X0221461Y0079000D01*
X0231461Y0079000D02*
X0231461Y0084600D01*
X0241461Y0084600D02*
X0241461Y0079000D01*
X0251461Y0079000D02*
X0251461Y0084600D01*
X0261461Y0084600D02*
X0261461Y0079000D01*
X0271461Y0079000D02*
X0271461Y0084600D01*
X0271461Y0054600D02*
X0271461Y0049000D01*
X0261461Y0049000D02*
X0261461Y0054600D01*
X0251461Y0054600D02*
X0251461Y0049000D01*
X0241461Y0049000D02*
X0241461Y0054600D01*
X0231461Y0054600D02*
X0231461Y0049000D01*
X0221461Y0049000D02*
X0221461Y0054600D01*
X0211461Y0054600D02*
X0211461Y0049000D01*
X0201461Y0049000D02*
X0201461Y0054600D01*
X0191461Y0054600D02*
X0191461Y0049000D01*
X0181461Y0049000D02*
X0181461Y0054600D01*
X0171461Y0054600D02*
X0171461Y0049000D01*
X0161461Y0049000D02*
X0161461Y0054600D01*
X0151461Y0054600D02*
X0151461Y0049000D01*
X0141461Y0049000D02*
X0141461Y0054600D01*
X0146461Y0014600D02*
X0146461Y0009000D01*
X0156461Y0009000D02*
X0156461Y0014600D01*
X0166461Y0014600D02*
X0166461Y0009000D01*
X0176461Y0009000D02*
X0176461Y0014600D01*
X0186461Y0014600D02*
X0186461Y0009000D01*
X0196461Y0009000D02*
X0196461Y0014600D01*
X0206461Y0014600D02*
X0206461Y0009000D01*
X0226461Y0009000D02*
X0226461Y0014600D01*
X0236461Y0014600D02*
X0236461Y0009000D01*
X0246461Y0009000D02*
X0246461Y0014600D01*
X0256461Y0014600D02*
X0256461Y0009000D01*
X0266461Y0009000D02*
X0266461Y0014600D01*
X0276461Y0014600D02*
X0276461Y0009000D01*
X0136461Y0009000D02*
X0136461Y0014600D01*
X0141461Y0199000D02*
X0141461Y0204600D01*
X0151461Y0204600D02*
X0151461Y0199000D01*
X0161461Y0199000D02*
X0161461Y0204600D01*
X0171461Y0204600D02*
X0171461Y0199000D01*
X0181461Y0199000D02*
X0181461Y0204600D01*
X0191461Y0204600D02*
X0191461Y0199000D01*
X0206461Y0199000D02*
X0206461Y0204600D01*
X0216461Y0204600D02*
X0216461Y0199000D01*
X0226461Y0199000D02*
X0226461Y0204600D01*
X0236461Y0204600D02*
X0236461Y0199000D01*
X0246461Y0199000D02*
X0246461Y0204600D01*
X0256461Y0204600D02*
X0256461Y0199000D01*
X0266461Y0199000D02*
X0266461Y0204600D01*
X0276461Y0204600D02*
X0276461Y0199000D01*
X0131461Y0199000D02*
X0131461Y0204600D01*
X0121461Y0204600D02*
X0121461Y0199000D01*
X0111461Y0199000D02*
X0111461Y0204600D01*
X0101461Y0204600D02*
X0101461Y0199000D01*
D12*
X0103161Y0086800D02*
X0109761Y0086800D01*
X0109761Y0076800D02*
X0103161Y0076800D01*
X0103161Y0066800D02*
X0109761Y0066800D01*
D13*
X0106461Y0097800D03*
X0116461Y0097800D03*
X0106461Y0110800D03*
X0106461Y0122800D03*
X0106461Y0133800D03*
X0096461Y0143800D03*
X0086461Y0143800D03*
X0076461Y0133800D03*
X0076461Y0122800D03*
X0076461Y0110800D03*
X0052461Y0110800D03*
X0042461Y0110800D03*
X0076461Y0154800D03*
X0106461Y0154800D03*
X0062461Y0194800D03*
X0062461Y0204800D03*
X0041461Y0204800D03*
X0041461Y0194800D03*
X0164461Y0141800D03*
X0164461Y0131800D03*
X0179461Y0131800D03*
X0193461Y0131800D03*
X0193461Y0141800D03*
X0179461Y0141800D03*
X0218461Y0126800D03*
X0241461Y0111800D03*
X0241461Y0099800D03*
X0211461Y0093800D03*
X0201461Y0093800D03*
X0248461Y0126800D03*
X0271461Y0111800D03*
X0271461Y0099800D03*
X0211461Y0039800D03*
X0201461Y0039800D03*
X0096461Y0031800D03*
D14*
X0096461Y0039800D03*
X0176961Y0116800D03*
X0195961Y0116800D03*
D15*
X0112461Y0165800D03*
X0072461Y0165800D03*
D16*
X0075861Y0177800D02*
X0081061Y0177800D01*
X0105861Y0177800D02*
X0111061Y0177800D01*
X0114461Y0054400D02*
X0114461Y0049200D01*
X0114461Y0024400D02*
X0114461Y0019200D01*
D17*
X0071461Y0036500D03*
X0047861Y0036500D03*
X0059661Y0016800D03*
D18*
X0062661Y0016800D03*
X0056661Y0016800D03*
X0047861Y0033500D03*
X0047861Y0039500D03*
X0071461Y0039500D03*
X0071461Y0033500D03*
D19*
X0060004Y0146879D03*
X0052130Y0146879D03*
X0052130Y0156721D03*
X0060004Y0156721D03*
D20*
X0041461Y0175422D03*
X0041461Y0128178D03*
D21*
X0101961Y0011800D03*
X0260461Y0124800D03*
X0287461Y0044800D03*
D22*
X0031861Y0007200D02*
X0031861Y0116743D01*
X0033195Y0115409D01*
X0034665Y0114800D01*
X0040238Y0114800D01*
X0038061Y0112623D01*
X0038061Y0110800D01*
X0038061Y0108977D01*
X0040638Y0106400D01*
X0042461Y0106400D01*
X0044283Y0106400D01*
X0046661Y0108777D01*
X0046661Y0108398D01*
X0050058Y0105000D01*
X0054863Y0105000D01*
X0056863Y0107000D01*
X0072058Y0107000D01*
X0074058Y0105000D01*
X0078863Y0105000D01*
X0082261Y0108398D01*
X0082261Y0112300D01*
X0099304Y0112300D01*
X0100661Y0110943D01*
X0100661Y0108398D01*
X0104058Y0105000D01*
X0108863Y0105000D01*
X0112261Y0108398D01*
X0112261Y0113202D01*
X0108863Y0116600D01*
X0106317Y0116600D01*
X0105917Y0117000D01*
X0108863Y0117000D01*
X0111135Y0119272D01*
X0111670Y0119494D01*
X0112767Y0120591D01*
X0114419Y0122243D01*
X0114717Y0121945D01*
X0114759Y0121733D01*
X0114951Y0121269D01*
X0114999Y0121198D01*
X0114951Y0121126D01*
X0114759Y0120662D01*
X0114716Y0120450D01*
X0113862Y0119595D01*
X0113261Y0118144D01*
X0113261Y0116572D01*
X0113465Y0116079D01*
X0113261Y0115586D01*
X0113261Y0114014D01*
X0113862Y0112562D01*
X0114973Y0111451D01*
X0116425Y0110850D01*
X0124496Y0110850D01*
X0125948Y0111451D01*
X0127059Y0112562D01*
X0127661Y0114014D01*
X0127661Y0115586D01*
X0127456Y0116079D01*
X0127661Y0116572D01*
X0127661Y0118144D01*
X0127059Y0119595D01*
X0126205Y0120450D01*
X0126163Y0120662D01*
X0125970Y0121126D01*
X0125923Y0121198D01*
X0125970Y0121269D01*
X0126163Y0121733D01*
X0126205Y0121945D01*
X0127059Y0122800D01*
X0127661Y0124251D01*
X0127661Y0125823D01*
X0127456Y0126316D01*
X0127661Y0126809D01*
X0127661Y0128381D01*
X0127456Y0128874D01*
X0127661Y0129367D01*
X0127661Y0130939D01*
X0127481Y0131372D01*
X0130764Y0131372D01*
X0132198Y0131966D01*
X0133295Y0133063D01*
X0133334Y0133158D01*
X0134670Y0134494D01*
X0135767Y0135591D01*
X0136361Y0137024D01*
X0136361Y0147500D01*
X0141261Y0147500D01*
X0141261Y0147282D01*
X0141465Y0146788D01*
X0141261Y0146294D01*
X0141261Y0144722D01*
X0141465Y0144229D01*
X0141261Y0143736D01*
X0141261Y0142164D01*
X0141465Y0141671D01*
X0141261Y0141178D01*
X0141261Y0139606D01*
X0141465Y0139112D01*
X0141261Y0138618D01*
X0141261Y0137046D01*
X0141465Y0136552D01*
X0141261Y0136058D01*
X0141261Y0134486D01*
X0141465Y0133993D01*
X0141261Y0133499D01*
X0141261Y0131927D01*
X0141862Y0130475D01*
X0142184Y0130154D01*
X0141862Y0129832D01*
X0141450Y0128837D01*
X0139442Y0128837D01*
X0138045Y0128258D01*
X0135808Y0126021D01*
X0134739Y0124953D01*
X0134161Y0123556D01*
X0134161Y0104544D01*
X0134739Y0103147D01*
X0143739Y0094147D01*
X0144808Y0093079D01*
X0146205Y0092500D01*
X0188216Y0092500D01*
X0189613Y0093079D01*
X0195035Y0098500D01*
X0207958Y0098500D01*
X0205661Y0096202D01*
X0205661Y0095823D01*
X0203283Y0098200D01*
X0201461Y0098200D01*
X0201461Y0093800D01*
X0201461Y0093800D01*
X0201461Y0089400D01*
X0203283Y0089400D01*
X0205661Y0091777D01*
X0205661Y0091398D01*
X0207717Y0089341D01*
X0206374Y0087999D01*
X0205841Y0086713D01*
X0205183Y0087371D01*
X0205112Y0087401D01*
X0204969Y0087597D01*
X0204457Y0088109D01*
X0203872Y0088534D01*
X0203226Y0088863D01*
X0202538Y0089087D01*
X0201823Y0089200D01*
X0201497Y0089200D01*
X0201497Y0088372D01*
X0201424Y0088372D01*
X0201424Y0089200D01*
X0201099Y0089200D01*
X0200383Y0089087D01*
X0199695Y0088863D01*
X0199050Y0088534D01*
X0198464Y0088109D01*
X0197952Y0087597D01*
X0197810Y0087401D01*
X0197738Y0087371D01*
X0197080Y0086713D01*
X0196547Y0087999D01*
X0194859Y0089687D01*
X0192654Y0090600D01*
X0190267Y0090600D01*
X0188062Y0089687D01*
X0186461Y0088085D01*
X0184859Y0089687D01*
X0182654Y0090600D01*
X0180267Y0090600D01*
X0178062Y0089687D01*
X0176461Y0088085D01*
X0174859Y0089687D01*
X0172654Y0090600D01*
X0170267Y0090600D01*
X0168062Y0089687D01*
X0166461Y0088085D01*
X0164859Y0089687D01*
X0162654Y0090600D01*
X0160267Y0090600D01*
X0158062Y0089687D01*
X0156461Y0088085D01*
X0154859Y0089687D01*
X0152654Y0090600D01*
X0150267Y0090600D01*
X0148062Y0089687D01*
X0146461Y0088085D01*
X0144859Y0089687D01*
X0142654Y0090600D01*
X0140267Y0090600D01*
X0138062Y0089687D01*
X0136374Y0087999D01*
X0135461Y0085793D01*
X0135461Y0084487D01*
X0134889Y0083107D01*
X0134889Y0080493D01*
X0135461Y0079113D01*
X0135461Y0077807D01*
X0136374Y0075601D01*
X0138062Y0073913D01*
X0140267Y0073000D01*
X0142654Y0073000D01*
X0144859Y0073913D01*
X0146461Y0075515D01*
X0148062Y0073913D01*
X0150267Y0073000D01*
X0152654Y0073000D01*
X0154859Y0073913D01*
X0156461Y0075515D01*
X0158062Y0073913D01*
X0160267Y0073000D01*
X0162654Y0073000D01*
X0164859Y0073913D01*
X0166461Y0075515D01*
X0168062Y0073913D01*
X0170267Y0073000D01*
X0172654Y0073000D01*
X0174859Y0073913D01*
X0176461Y0075515D01*
X0178062Y0073913D01*
X0180267Y0073000D01*
X0182654Y0073000D01*
X0184859Y0073913D01*
X0186461Y0075515D01*
X0188062Y0073913D01*
X0190267Y0073000D01*
X0192654Y0073000D01*
X0194859Y0073913D01*
X0196547Y0075601D01*
X0197080Y0076887D01*
X0197738Y0076229D01*
X0197810Y0076199D01*
X0197952Y0076003D01*
X0198464Y0075491D01*
X0199050Y0075066D01*
X0199695Y0074737D01*
X0200383Y0074513D01*
X0201099Y0074400D01*
X0201424Y0074400D01*
X0201424Y0075228D01*
X0201497Y0075228D01*
X0201497Y0074400D01*
X0201823Y0074400D01*
X0202538Y0074513D01*
X0203226Y0074737D01*
X0203872Y0075066D01*
X0204457Y0075491D01*
X0204969Y0076003D01*
X0205112Y0076199D01*
X0205183Y0076229D01*
X0205841Y0076887D01*
X0206374Y0075601D01*
X0208062Y0073913D01*
X0210267Y0073000D01*
X0212654Y0073000D01*
X0214859Y0073913D01*
X0216461Y0075515D01*
X0218062Y0073913D01*
X0220267Y0073000D01*
X0222654Y0073000D01*
X0224859Y0073913D01*
X0226461Y0075515D01*
X0228062Y0073913D01*
X0230267Y0073000D01*
X0232654Y0073000D01*
X0234859Y0073913D01*
X0236461Y0075515D01*
X0238062Y0073913D01*
X0240267Y0073000D01*
X0242654Y0073000D01*
X0244859Y0073913D01*
X0246461Y0075515D01*
X0248062Y0073913D01*
X0250267Y0073000D01*
X0252654Y0073000D01*
X0254859Y0073913D01*
X0256461Y0075515D01*
X0258062Y0073913D01*
X0260267Y0073000D01*
X0262654Y0073000D01*
X0264859Y0073913D01*
X0266461Y0075515D01*
X0268062Y0073913D01*
X0270267Y0073000D01*
X0272004Y0073000D01*
X0270804Y0071800D01*
X0188665Y0071800D01*
X0187195Y0071191D01*
X0186070Y0070066D01*
X0178070Y0062066D01*
X0177461Y0060596D01*
X0177461Y0059085D01*
X0176461Y0058085D01*
X0174859Y0059687D01*
X0172654Y0060600D01*
X0170267Y0060600D01*
X0168062Y0059687D01*
X0166461Y0058085D01*
X0164859Y0059687D01*
X0162654Y0060600D01*
X0160267Y0060600D01*
X0158062Y0059687D01*
X0156461Y0058085D01*
X0154859Y0059687D01*
X0152654Y0060600D01*
X0150267Y0060600D01*
X0148062Y0059687D01*
X0146461Y0058085D01*
X0144859Y0059687D01*
X0142654Y0060600D01*
X0140267Y0060600D01*
X0138062Y0059687D01*
X0136374Y0057999D01*
X0135461Y0055793D01*
X0135461Y0054487D01*
X0134889Y0053107D01*
X0134889Y0050493D01*
X0135461Y0049113D01*
X0135461Y0047807D01*
X0136374Y0045601D01*
X0138062Y0043913D01*
X0138819Y0043600D01*
X0121449Y0043600D01*
X0119261Y0045788D01*
X0119261Y0045798D01*
X0119378Y0045915D01*
X0120261Y0048046D01*
X0120261Y0055554D01*
X0119378Y0057685D01*
X0117746Y0059317D01*
X0115614Y0060200D01*
X0113307Y0060200D01*
X0111261Y0059352D01*
X0111261Y0060386D01*
X0113443Y0061290D01*
X0115271Y0063118D01*
X0116261Y0065507D01*
X0116261Y0068093D01*
X0115271Y0070482D01*
X0113443Y0072310D01*
X0112688Y0072623D01*
X0113083Y0072910D01*
X0113651Y0073478D01*
X0114123Y0074127D01*
X0114487Y0074842D01*
X0114735Y0075606D01*
X0114861Y0076399D01*
X0114861Y0076500D01*
X0106761Y0076500D01*
X0106761Y0077100D01*
X0114861Y0077100D01*
X0114861Y0077201D01*
X0114735Y0077994D01*
X0114487Y0078758D01*
X0114123Y0079473D01*
X0113651Y0080122D01*
X0113083Y0080690D01*
X0112688Y0080977D01*
X0113443Y0081290D01*
X0115271Y0083118D01*
X0116261Y0085507D01*
X0116261Y0088093D01*
X0115271Y0090482D01*
X0113443Y0092310D01*
X0111054Y0093300D01*
X0110163Y0093300D01*
X0112261Y0095398D01*
X0112261Y0095777D01*
X0114638Y0093400D01*
X0116461Y0093400D01*
X0118283Y0093400D01*
X0120861Y0095977D01*
X0120861Y0097800D01*
X0120861Y0099623D01*
X0118283Y0102200D01*
X0116461Y0102200D01*
X0116461Y0097800D01*
X0120861Y0097800D01*
X0116461Y0097800D01*
X0116461Y0097800D01*
X0116461Y0097800D01*
X0116461Y0093400D01*
X0116461Y0097800D01*
X0116461Y0097800D01*
X0116461Y0102200D01*
X0114638Y0102200D01*
X0112261Y0099823D01*
X0112261Y0100202D01*
X0108863Y0103600D01*
X0104058Y0103600D01*
X0100661Y0100202D01*
X0100661Y0095398D01*
X0102758Y0093300D01*
X0101868Y0093300D01*
X0099479Y0092310D01*
X0097650Y0090482D01*
X0096661Y0088093D01*
X0096661Y0085507D01*
X0097650Y0083118D01*
X0099479Y0081290D01*
X0100233Y0080977D01*
X0099838Y0080690D01*
X0099271Y0080122D01*
X0098799Y0079473D01*
X0098434Y0078758D01*
X0098186Y0077994D01*
X0098061Y0077201D01*
X0098061Y0077100D01*
X0106161Y0077100D01*
X0106161Y0076500D01*
X0098061Y0076500D01*
X0098061Y0076399D01*
X0098186Y0075606D01*
X0098434Y0074842D01*
X0098799Y0074127D01*
X0099271Y0073478D01*
X0099838Y0072910D01*
X0100233Y0072623D01*
X0099479Y0072310D01*
X0097650Y0070482D01*
X0096661Y0068093D01*
X0096661Y0065507D01*
X0097650Y0063118D01*
X0099479Y0061290D01*
X0101661Y0060386D01*
X0101661Y0051788D01*
X0095472Y0045600D01*
X0095307Y0045600D01*
X0093175Y0044717D01*
X0091544Y0043085D01*
X0090661Y0040954D01*
X0090661Y0038646D01*
X0091544Y0036515D01*
X0093175Y0034883D01*
X0093278Y0034840D01*
X0092061Y0033623D01*
X0092061Y0031800D01*
X0092061Y0030857D01*
X0090461Y0032457D01*
X0090461Y0096325D01*
X0092141Y0098005D01*
X0093161Y0100467D01*
X0093161Y0103133D01*
X0092141Y0105595D01*
X0090256Y0107480D01*
X0087793Y0108500D01*
X0085128Y0108500D01*
X0082665Y0107480D01*
X0080781Y0105595D01*
X0079761Y0103133D01*
X0079761Y0100467D01*
X0080781Y0098005D01*
X0082461Y0096325D01*
X0082461Y0041161D01*
X0076048Y0047574D01*
X0066874Y0047574D01*
X0060387Y0041087D01*
X0060387Y0031913D01*
X0066874Y0025426D01*
X0075746Y0025426D01*
X0078638Y0022534D01*
X0077176Y0022143D01*
X0074646Y0020682D01*
X0072579Y0018615D01*
X0071118Y0016084D01*
X0070361Y0013261D01*
X0070361Y0010339D01*
X0071118Y0007516D01*
X0071300Y0007200D01*
X0063742Y0007200D01*
X0069335Y0012793D01*
X0069335Y0014520D01*
X0069699Y0015400D01*
X0069699Y0018200D01*
X0069335Y0019080D01*
X0069335Y0020807D01*
X0063668Y0026474D01*
X0060140Y0026474D01*
X0060140Y0023374D01*
X0059661Y0023176D01*
X0059181Y0023374D01*
X0059181Y0026474D01*
X0055654Y0026474D01*
X0049987Y0020807D01*
X0049987Y0019080D01*
X0049622Y0018200D01*
X0049622Y0015400D01*
X0049987Y0014520D01*
X0049987Y0012793D01*
X0055580Y0007200D01*
X0031861Y0007200D01*
X0031861Y0008194D02*
X0054585Y0008194D01*
X0052987Y0009793D02*
X0031861Y0009793D01*
X0031861Y0011391D02*
X0051388Y0011391D01*
X0049987Y0012990D02*
X0031861Y0012990D01*
X0031861Y0014588D02*
X0049958Y0014588D01*
X0049622Y0016187D02*
X0031861Y0016187D01*
X0031861Y0017785D02*
X0049622Y0017785D01*
X0049987Y0019384D02*
X0031861Y0019384D01*
X0031861Y0020982D02*
X0050162Y0020982D01*
X0051760Y0022581D02*
X0031861Y0022581D01*
X0031861Y0024179D02*
X0053359Y0024179D01*
X0054957Y0025778D02*
X0031861Y0025778D01*
X0031861Y0027376D02*
X0043303Y0027376D01*
X0043854Y0026826D02*
X0038187Y0032493D01*
X0038187Y0036020D01*
X0041286Y0036020D01*
X0041485Y0036500D01*
X0041286Y0036980D01*
X0038187Y0036980D01*
X0038187Y0040507D01*
X0043854Y0046174D01*
X0045580Y0046174D01*
X0046461Y0046539D01*
X0049261Y0046539D01*
X0050141Y0046174D01*
X0051868Y0046174D01*
X0057535Y0040507D01*
X0057535Y0036980D01*
X0054435Y0036980D01*
X0054236Y0036500D01*
X0054435Y0036020D01*
X0057535Y0036020D01*
X0057535Y0032493D01*
X0051868Y0026826D01*
X0050141Y0026826D01*
X0049261Y0026461D01*
X0046461Y0026461D01*
X0045580Y0026826D01*
X0043854Y0026826D01*
X0041705Y0028975D02*
X0031861Y0028975D01*
X0031861Y0030573D02*
X0040106Y0030573D01*
X0038508Y0032172D02*
X0031861Y0032172D01*
X0031861Y0033770D02*
X0038187Y0033770D01*
X0038187Y0035369D02*
X0031861Y0035369D01*
X0031861Y0036967D02*
X0041291Y0036967D01*
X0038187Y0038566D02*
X0031861Y0038566D01*
X0031861Y0040164D02*
X0038187Y0040164D01*
X0039442Y0041763D02*
X0031861Y0041763D01*
X0031861Y0043361D02*
X0041041Y0043361D01*
X0042639Y0044960D02*
X0031861Y0044960D01*
X0031861Y0046558D02*
X0065858Y0046558D01*
X0064259Y0044960D02*
X0053082Y0044960D01*
X0054680Y0043361D02*
X0062661Y0043361D01*
X0061062Y0041763D02*
X0056279Y0041763D01*
X0057535Y0040164D02*
X0060387Y0040164D01*
X0060387Y0038566D02*
X0057535Y0038566D01*
X0060387Y0036967D02*
X0054430Y0036967D01*
X0057535Y0035369D02*
X0060387Y0035369D01*
X0060387Y0033770D02*
X0057535Y0033770D01*
X0057213Y0032172D02*
X0060387Y0032172D01*
X0061726Y0030573D02*
X0055615Y0030573D01*
X0054016Y0028975D02*
X0063325Y0028975D01*
X0064923Y0027376D02*
X0052418Y0027376D01*
X0059181Y0025778D02*
X0060140Y0025778D01*
X0060140Y0024179D02*
X0059181Y0024179D01*
X0064364Y0025778D02*
X0066522Y0025778D01*
X0065963Y0024179D02*
X0076993Y0024179D01*
X0078592Y0022581D02*
X0067561Y0022581D01*
X0069160Y0020982D02*
X0075166Y0020982D01*
X0073348Y0019384D02*
X0069335Y0019384D01*
X0069699Y0017785D02*
X0072100Y0017785D01*
X0071177Y0016187D02*
X0069699Y0016187D01*
X0069363Y0014588D02*
X0070717Y0014588D01*
X0070361Y0012990D02*
X0069335Y0012990D01*
X0070361Y0011391D02*
X0067933Y0011391D01*
X0066334Y0009793D02*
X0070508Y0009793D01*
X0070936Y0008194D02*
X0064736Y0008194D01*
X0091621Y0007200D02*
X0091803Y0007516D01*
X0092560Y0010339D01*
X0092560Y0013261D01*
X0091803Y0016084D01*
X0091275Y0017000D01*
X0094400Y0017000D01*
X0093317Y0015380D01*
X0092605Y0011800D01*
X0093317Y0008220D01*
X0093317Y0008220D01*
X0093999Y0007200D01*
X0091621Y0007200D01*
X0091985Y0008194D02*
X0093334Y0008194D01*
X0093004Y0009793D02*
X0092413Y0009793D01*
X0092560Y0011391D02*
X0092686Y0011391D01*
X0092605Y0011800D02*
X0092605Y0011800D01*
X0092560Y0012990D02*
X0092842Y0012990D01*
X0093160Y0014588D02*
X0092204Y0014588D01*
X0093317Y0015380D02*
X0093317Y0015380D01*
X0093856Y0016187D02*
X0091744Y0016187D01*
X0090461Y0026800D02*
X0086461Y0030800D01*
X0086461Y0101800D01*
X0080240Y0099309D02*
X0031861Y0099309D01*
X0031861Y0097711D02*
X0081075Y0097711D01*
X0082461Y0096112D02*
X0031861Y0096112D01*
X0031861Y0094514D02*
X0082461Y0094514D01*
X0082461Y0092915D02*
X0031861Y0092915D01*
X0031861Y0091317D02*
X0082461Y0091317D01*
X0082461Y0089718D02*
X0031861Y0089718D01*
X0031861Y0088120D02*
X0082461Y0088120D01*
X0082461Y0086521D02*
X0053223Y0086521D01*
X0054399Y0085842D02*
X0051822Y0087330D01*
X0048948Y0088100D01*
X0045973Y0088100D01*
X0043099Y0087330D01*
X0040522Y0085842D01*
X0038418Y0083738D01*
X0036931Y0081162D01*
X0036161Y0078288D01*
X0036161Y0075312D01*
X0036931Y0072438D01*
X0038418Y0069862D01*
X0040522Y0067758D01*
X0043099Y0066270D01*
X0045973Y0065500D01*
X0048948Y0065500D01*
X0051822Y0066270D01*
X0054399Y0067758D01*
X0056503Y0069862D01*
X0057991Y0072438D01*
X0058761Y0075312D01*
X0058761Y0078288D01*
X0057991Y0081162D01*
X0056503Y0083738D01*
X0054399Y0085842D01*
X0055319Y0084923D02*
X0082461Y0084923D01*
X0082461Y0083324D02*
X0056742Y0083324D01*
X0057665Y0081726D02*
X0082461Y0081726D01*
X0082461Y0080127D02*
X0058268Y0080127D01*
X0058696Y0078529D02*
X0082461Y0078529D01*
X0082461Y0076930D02*
X0058761Y0076930D01*
X0058761Y0075332D02*
X0082461Y0075332D01*
X0082461Y0073733D02*
X0058337Y0073733D01*
X0057815Y0072134D02*
X0082461Y0072134D01*
X0082461Y0070536D02*
X0056892Y0070536D01*
X0055579Y0068937D02*
X0082461Y0068937D01*
X0082461Y0067339D02*
X0053674Y0067339D01*
X0049846Y0065740D02*
X0082461Y0065740D01*
X0082461Y0064142D02*
X0031861Y0064142D01*
X0031861Y0065740D02*
X0045076Y0065740D01*
X0041248Y0067339D02*
X0031861Y0067339D01*
X0031861Y0068937D02*
X0039343Y0068937D01*
X0038029Y0070536D02*
X0031861Y0070536D01*
X0031861Y0072134D02*
X0037106Y0072134D01*
X0036584Y0073733D02*
X0031861Y0073733D01*
X0031861Y0075332D02*
X0036161Y0075332D01*
X0036161Y0076930D02*
X0031861Y0076930D01*
X0031861Y0078529D02*
X0036225Y0078529D01*
X0036654Y0080127D02*
X0031861Y0080127D01*
X0031861Y0081726D02*
X0037256Y0081726D01*
X0038179Y0083324D02*
X0031861Y0083324D01*
X0031861Y0084923D02*
X0039603Y0084923D01*
X0041698Y0086521D02*
X0031861Y0086521D01*
X0031861Y0100908D02*
X0079761Y0100908D01*
X0079761Y0102506D02*
X0031861Y0102506D01*
X0031861Y0104105D02*
X0080163Y0104105D01*
X0079566Y0105703D02*
X0080889Y0105703D01*
X0081165Y0107302D02*
X0082487Y0107302D01*
X0082261Y0108900D02*
X0100661Y0108900D01*
X0100661Y0110499D02*
X0082261Y0110499D01*
X0082261Y0112097D02*
X0099506Y0112097D01*
X0100961Y0116300D02*
X0058961Y0116300D01*
X0056461Y0118800D01*
X0035461Y0118800D01*
X0031961Y0122300D01*
X0031961Y0195300D01*
X0041461Y0204800D01*
X0062461Y0204800D01*
X0065461Y0204800D01*
X0070461Y0199800D01*
X0070461Y0192800D01*
X0074461Y0188800D01*
X0097461Y0188800D01*
X0108461Y0177800D01*
X0114461Y0177800D01*
X0121461Y0170800D01*
X0121461Y0154800D01*
X0125461Y0158700D02*
X0125461Y0162143D01*
X0128904Y0158700D01*
X0125461Y0158700D01*
X0125461Y0160053D02*
X0127551Y0160053D01*
X0125953Y0161651D02*
X0125461Y0161651D01*
X0132471Y0166447D02*
X0140157Y0166447D01*
X0138559Y0168045D02*
X0130872Y0168045D01*
X0130461Y0168457D02*
X0130461Y0175596D01*
X0129852Y0177066D01*
X0125461Y0181457D01*
X0125461Y0194515D01*
X0126547Y0195601D01*
X0127080Y0196887D01*
X0127738Y0196229D01*
X0127810Y0196199D01*
X0127952Y0196003D01*
X0128464Y0195491D01*
X0129050Y0195066D01*
X0129695Y0194737D01*
X0130383Y0194513D01*
X0131099Y0194400D01*
X0131424Y0194400D01*
X0131424Y0195228D01*
X0131497Y0195228D01*
X0131497Y0194400D01*
X0131823Y0194400D01*
X0132538Y0194513D01*
X0133226Y0194737D01*
X0133872Y0195066D01*
X0134457Y0195491D01*
X0134969Y0196003D01*
X0135112Y0196199D01*
X0135183Y0196229D01*
X0135841Y0196887D01*
X0136374Y0195601D01*
X0137461Y0194515D01*
X0137461Y0170004D01*
X0138070Y0168534D01*
X0146804Y0159800D01*
X0139117Y0159800D01*
X0130461Y0168457D01*
X0130461Y0169644D02*
X0137610Y0169644D01*
X0137461Y0171242D02*
X0130461Y0171242D01*
X0130461Y0172841D02*
X0137461Y0172841D01*
X0137461Y0174439D02*
X0130461Y0174439D01*
X0130278Y0176038D02*
X0137461Y0176038D01*
X0137461Y0177636D02*
X0129281Y0177636D01*
X0127683Y0179235D02*
X0137461Y0179235D01*
X0137461Y0180833D02*
X0126084Y0180833D01*
X0125461Y0182432D02*
X0137461Y0182432D01*
X0137461Y0184030D02*
X0125461Y0184030D01*
X0125461Y0185629D02*
X0137461Y0185629D01*
X0137461Y0187227D02*
X0125461Y0187227D01*
X0125461Y0188826D02*
X0137461Y0188826D01*
X0137461Y0190424D02*
X0125461Y0190424D01*
X0125461Y0192023D02*
X0137461Y0192023D01*
X0137461Y0193621D02*
X0125461Y0193621D01*
X0126166Y0195220D02*
X0128838Y0195220D01*
X0127149Y0196818D02*
X0127051Y0196818D01*
X0131424Y0195220D02*
X0131497Y0195220D01*
X0134084Y0195220D02*
X0136755Y0195220D01*
X0135870Y0196818D02*
X0135773Y0196818D01*
X0141461Y0201800D02*
X0141461Y0170800D01*
X0152461Y0159800D01*
X0236461Y0159800D01*
X0278461Y0117800D01*
X0278461Y0073800D01*
X0275461Y0070800D01*
X0272461Y0067800D01*
X0189461Y0067800D01*
X0181461Y0059800D01*
X0181461Y0051800D01*
X0177461Y0059346D02*
X0175199Y0059346D01*
X0177605Y0060945D02*
X0112611Y0060945D01*
X0114696Y0062543D02*
X0178547Y0062543D01*
X0180146Y0064142D02*
X0115695Y0064142D01*
X0116261Y0065740D02*
X0181744Y0065740D01*
X0183343Y0067339D02*
X0116261Y0067339D01*
X0115911Y0068937D02*
X0184941Y0068937D01*
X0186540Y0070536D02*
X0115217Y0070536D01*
X0113619Y0072134D02*
X0271138Y0072134D01*
X0268498Y0073733D02*
X0264424Y0073733D01*
X0266277Y0075332D02*
X0266644Y0075332D01*
X0258498Y0073733D02*
X0254424Y0073733D01*
X0256277Y0075332D02*
X0256644Y0075332D01*
X0248498Y0073733D02*
X0244424Y0073733D01*
X0246277Y0075332D02*
X0246644Y0075332D01*
X0238498Y0073733D02*
X0234424Y0073733D01*
X0236277Y0075332D02*
X0236644Y0075332D01*
X0228498Y0073733D02*
X0224424Y0073733D01*
X0226277Y0075332D02*
X0226644Y0075332D01*
X0218498Y0073733D02*
X0214424Y0073733D01*
X0216277Y0075332D02*
X0216644Y0075332D01*
X0208498Y0073733D02*
X0194424Y0073733D01*
X0196277Y0075332D02*
X0198684Y0075332D01*
X0201461Y0076800D02*
X0196961Y0072300D01*
X0172961Y0072300D01*
X0166461Y0065800D01*
X0166461Y0044300D01*
X0178461Y0032300D01*
X0203961Y0032300D01*
X0211461Y0039800D01*
X0215861Y0039800D01*
X0215861Y0041623D01*
X0213283Y0044200D01*
X0211461Y0044200D01*
X0211461Y0039800D01*
X0211461Y0039800D01*
X0215861Y0039800D01*
X0215861Y0037977D01*
X0213283Y0035400D01*
X0211461Y0035400D01*
X0211461Y0039800D01*
X0211461Y0039800D01*
X0211461Y0039800D01*
X0211461Y0051800D01*
X0215841Y0056713D02*
X0215183Y0057371D01*
X0215112Y0057401D01*
X0214969Y0057597D01*
X0214457Y0058109D01*
X0213872Y0058534D01*
X0213226Y0058863D01*
X0212538Y0059087D01*
X0211823Y0059200D01*
X0211497Y0059200D01*
X0211497Y0058372D01*
X0211424Y0058372D01*
X0211424Y0059200D01*
X0211099Y0059200D01*
X0210383Y0059087D01*
X0209695Y0058863D01*
X0209050Y0058534D01*
X0208464Y0058109D01*
X0207952Y0057597D01*
X0207810Y0057401D01*
X0207738Y0057371D01*
X0207080Y0056713D01*
X0206547Y0057999D01*
X0204859Y0059687D01*
X0202654Y0060600D01*
X0200267Y0060600D01*
X0198062Y0059687D01*
X0196461Y0058085D01*
X0194859Y0059687D01*
X0193547Y0060230D01*
X0194117Y0060800D01*
X0261804Y0060800D01*
X0261604Y0060600D01*
X0260267Y0060600D01*
X0258062Y0059687D01*
X0256461Y0058085D01*
X0254859Y0059687D01*
X0252654Y0060600D01*
X0250267Y0060600D01*
X0248062Y0059687D01*
X0246461Y0058085D01*
X0244859Y0059687D01*
X0242654Y0060600D01*
X0240267Y0060600D01*
X0238062Y0059687D01*
X0236461Y0058085D01*
X0234859Y0059687D01*
X0232654Y0060600D01*
X0230267Y0060600D01*
X0228062Y0059687D01*
X0226461Y0058085D01*
X0224859Y0059687D01*
X0222654Y0060600D01*
X0220267Y0060600D01*
X0218062Y0059687D01*
X0216374Y0057999D01*
X0215841Y0056713D01*
X0216270Y0057748D02*
X0214818Y0057748D01*
X0217722Y0059346D02*
X0205199Y0059346D01*
X0206651Y0057748D02*
X0208103Y0057748D01*
X0197722Y0059346D02*
X0195199Y0059346D01*
X0192461Y0064800D02*
X0279461Y0064800D01*
X0283461Y0068800D01*
X0283461Y0119800D01*
X0239461Y0163800D01*
X0156461Y0163800D01*
X0144961Y0175300D01*
X0144961Y0188300D01*
X0151461Y0194800D01*
X0151461Y0201800D01*
X0156461Y0195515D02*
X0155461Y0194515D01*
X0155461Y0194004D01*
X0154852Y0192534D01*
X0153726Y0191409D01*
X0150817Y0188500D01*
X0152793Y0188500D01*
X0155256Y0187480D01*
X0156936Y0185800D01*
X0234256Y0185800D01*
X0235726Y0185191D01*
X0236852Y0184066D01*
X0275846Y0145071D01*
X0276118Y0146084D01*
X0277579Y0148615D01*
X0279646Y0150682D01*
X0282176Y0152143D01*
X0284999Y0152899D01*
X0287725Y0152899D01*
X0283402Y0157222D01*
X0281883Y0158741D01*
X0281061Y0160726D01*
X0281061Y0195115D01*
X0279859Y0193913D01*
X0277654Y0193000D01*
X0275267Y0193000D01*
X0273062Y0193913D01*
X0271461Y0195515D01*
X0269859Y0193913D01*
X0267654Y0193000D01*
X0265267Y0193000D01*
X0263062Y0193913D01*
X0261461Y0195515D01*
X0259859Y0193913D01*
X0257654Y0193000D01*
X0255267Y0193000D01*
X0253062Y0193913D01*
X0251461Y0195515D01*
X0249859Y0193913D01*
X0247654Y0193000D01*
X0245267Y0193000D01*
X0243062Y0193913D01*
X0241461Y0195515D01*
X0239859Y0193913D01*
X0237654Y0193000D01*
X0235267Y0193000D01*
X0233062Y0193913D01*
X0231461Y0195515D01*
X0229859Y0193913D01*
X0227654Y0193000D01*
X0225267Y0193000D01*
X0223062Y0193913D01*
X0221461Y0195515D01*
X0219859Y0193913D01*
X0217654Y0193000D01*
X0215267Y0193000D01*
X0213062Y0193913D01*
X0211461Y0195515D01*
X0209859Y0193913D01*
X0207654Y0193000D01*
X0205267Y0193000D01*
X0203062Y0193913D01*
X0201374Y0195601D01*
X0200461Y0197807D01*
X0200461Y0199113D01*
X0199889Y0200493D01*
X0199889Y0203107D01*
X0200461Y0204487D01*
X0200461Y0205793D01*
X0200712Y0206400D01*
X0197209Y0206400D01*
X0197461Y0205793D01*
X0197461Y0204487D01*
X0198032Y0203107D01*
X0198032Y0200493D01*
X0197461Y0199113D01*
X0197461Y0197807D01*
X0196547Y0195601D01*
X0194859Y0193913D01*
X0192654Y0193000D01*
X0190267Y0193000D01*
X0188062Y0193913D01*
X0186461Y0195515D01*
X0184859Y0193913D01*
X0182654Y0193000D01*
X0180267Y0193000D01*
X0178062Y0193913D01*
X0176461Y0195515D01*
X0174859Y0193913D01*
X0172654Y0193000D01*
X0170267Y0193000D01*
X0168062Y0193913D01*
X0166461Y0195515D01*
X0164859Y0193913D01*
X0162654Y0193000D01*
X0160267Y0193000D01*
X0158062Y0193913D01*
X0156461Y0195515D01*
X0156755Y0195220D02*
X0156166Y0195220D01*
X0155302Y0193621D02*
X0158767Y0193621D01*
X0154340Y0192023D02*
X0281061Y0192023D01*
X0281061Y0193621D02*
X0279154Y0193621D01*
X0281061Y0190424D02*
X0152742Y0190424D01*
X0151143Y0188826D02*
X0281061Y0188826D01*
X0281061Y0187227D02*
X0155509Y0187227D01*
X0151461Y0181800D02*
X0233461Y0181800D01*
X0291461Y0123800D01*
X0291461Y0064800D01*
X0278461Y0051800D01*
X0271461Y0051800D01*
X0271461Y0039800D01*
X0276461Y0034800D01*
X0276461Y0011800D01*
X0282461Y0015437D02*
X0282461Y0015793D01*
X0281547Y0017999D01*
X0280461Y0019085D01*
X0280461Y0022448D01*
X0282176Y0021457D01*
X0284999Y0020701D01*
X0287725Y0020701D01*
X0282461Y0015437D01*
X0282298Y0016187D02*
X0283210Y0016187D01*
X0281636Y0017785D02*
X0284809Y0017785D01*
X0286408Y0019384D02*
X0280461Y0019384D01*
X0280461Y0020982D02*
X0283949Y0020982D01*
X0272461Y0020982D02*
X0270461Y0020982D01*
X0270461Y0019384D02*
X0272461Y0019384D01*
X0272461Y0019085D02*
X0272461Y0033143D01*
X0270461Y0035143D01*
X0270461Y0019085D01*
X0271461Y0018085D01*
X0272461Y0019085D01*
X0272461Y0022581D02*
X0270461Y0022581D01*
X0270461Y0024179D02*
X0272461Y0024179D01*
X0272461Y0025778D02*
X0270461Y0025778D01*
X0270461Y0027376D02*
X0272461Y0027376D01*
X0272461Y0028975D02*
X0270461Y0028975D01*
X0270461Y0030573D02*
X0272461Y0030573D01*
X0272461Y0032172D02*
X0270461Y0032172D01*
X0270461Y0033770D02*
X0271834Y0033770D01*
X0266461Y0034800D02*
X0261461Y0039800D01*
X0261461Y0051800D01*
X0261461Y0054800D01*
X0267461Y0060800D01*
X0282461Y0060800D01*
X0287461Y0065800D01*
X0287461Y0121800D01*
X0234461Y0174800D01*
X0157461Y0174800D01*
X0161780Y0169644D02*
X0233960Y0169644D01*
X0232804Y0170800D02*
X0235804Y0167800D01*
X0158117Y0167800D01*
X0157817Y0168100D01*
X0158793Y0168100D01*
X0161256Y0169120D01*
X0162936Y0170800D01*
X0232804Y0170800D01*
X0235559Y0168045D02*
X0157872Y0168045D01*
X0146551Y0160053D02*
X0138865Y0160053D01*
X0137266Y0161651D02*
X0144953Y0161651D01*
X0143354Y0163250D02*
X0135668Y0163250D01*
X0134069Y0164848D02*
X0141756Y0164848D01*
X0137461Y0155800D02*
X0126461Y0166800D01*
X0126461Y0174800D01*
X0121461Y0179800D01*
X0121461Y0201800D01*
X0116461Y0195515D02*
X0117461Y0194515D01*
X0117461Y0180457D01*
X0116726Y0181191D01*
X0115268Y0181795D01*
X0114346Y0182717D01*
X0112214Y0183600D01*
X0108317Y0183600D01*
X0099726Y0192191D01*
X0098256Y0192800D01*
X0093071Y0192800D01*
X0093276Y0192918D01*
X0095342Y0194985D01*
X0096092Y0196283D01*
X0096374Y0195601D01*
X0098062Y0193913D01*
X0100267Y0193000D01*
X0102654Y0193000D01*
X0104859Y0193913D01*
X0106461Y0195515D01*
X0108062Y0193913D01*
X0110267Y0193000D01*
X0112654Y0193000D01*
X0114859Y0193913D01*
X0116461Y0195515D01*
X0116755Y0195220D02*
X0116166Y0195220D01*
X0117461Y0193621D02*
X0114154Y0193621D01*
X0117461Y0192023D02*
X0099895Y0192023D01*
X0098767Y0193621D02*
X0093979Y0193621D01*
X0095478Y0195220D02*
X0096755Y0195220D01*
X0101493Y0190424D02*
X0117461Y0190424D01*
X0117461Y0188826D02*
X0103092Y0188826D01*
X0104690Y0187227D02*
X0117461Y0187227D01*
X0117461Y0185629D02*
X0106289Y0185629D01*
X0107887Y0184030D02*
X0117461Y0184030D01*
X0117461Y0182432D02*
X0114631Y0182432D01*
X0117084Y0180833D02*
X0117461Y0180833D01*
X0113904Y0172700D02*
X0112214Y0172000D01*
X0104707Y0172000D01*
X0102575Y0172883D01*
X0100944Y0174515D01*
X0100061Y0176646D01*
X0100061Y0178954D01*
X0100526Y0180078D01*
X0095804Y0184800D01*
X0073665Y0184800D01*
X0072195Y0185409D01*
X0068195Y0189409D01*
X0067070Y0190534D01*
X0066873Y0191010D01*
X0064863Y0189000D01*
X0060058Y0189000D01*
X0056661Y0192398D01*
X0056661Y0197202D01*
X0059258Y0199800D01*
X0058258Y0200800D01*
X0045663Y0200800D01*
X0044663Y0199800D01*
X0047261Y0197202D01*
X0047261Y0194657D01*
X0057852Y0184066D01*
X0058461Y0182596D01*
X0058461Y0178457D01*
X0060070Y0180066D01*
X0061195Y0181191D01*
X0062665Y0181800D01*
X0071658Y0181800D01*
X0072575Y0182717D01*
X0074707Y0183600D01*
X0082214Y0183600D01*
X0084346Y0182717D01*
X0085978Y0181085D01*
X0086861Y0178954D01*
X0086861Y0176646D01*
X0085978Y0174515D01*
X0084346Y0172883D01*
X0082214Y0172000D01*
X0074707Y0172000D01*
X0072575Y0172883D01*
X0071658Y0173800D01*
X0065117Y0173800D01*
X0058917Y0167600D01*
X0066171Y0167600D01*
X0066950Y0169482D01*
X0068779Y0171310D01*
X0071168Y0172300D01*
X0073754Y0172300D01*
X0076143Y0171310D01*
X0077971Y0169482D01*
X0078961Y0167093D01*
X0078961Y0164507D01*
X0078585Y0163600D01*
X0084216Y0163600D01*
X0085613Y0163021D01*
X0086682Y0161953D01*
X0093035Y0155600D01*
X0100661Y0155600D01*
X0100661Y0157202D01*
X0104058Y0160600D01*
X0108863Y0160600D01*
X0110763Y0158700D01*
X0117461Y0158700D01*
X0117461Y0164767D01*
X0117435Y0164606D01*
X0117187Y0163842D01*
X0116823Y0163127D01*
X0116351Y0162478D01*
X0115783Y0161910D01*
X0115134Y0161438D01*
X0114418Y0161074D01*
X0113655Y0160826D01*
X0112862Y0160700D01*
X0112761Y0160700D01*
X0112761Y0165500D01*
X0112161Y0165500D01*
X0112161Y0160700D01*
X0112059Y0160700D01*
X0111266Y0160826D01*
X0110503Y0161074D01*
X0109788Y0161438D01*
X0109138Y0161910D01*
X0108571Y0162478D01*
X0108099Y0163127D01*
X0107734Y0163842D01*
X0107486Y0164606D01*
X0107361Y0165399D01*
X0107361Y0165500D01*
X0112161Y0165500D01*
X0112161Y0166100D01*
X0112161Y0170900D01*
X0112059Y0170900D01*
X0111266Y0170774D01*
X0110503Y0170526D01*
X0109788Y0170162D01*
X0109138Y0169690D01*
X0108571Y0169122D01*
X0108099Y0168473D01*
X0107734Y0167758D01*
X0107486Y0166994D01*
X0107361Y0166201D01*
X0107361Y0166100D01*
X0112161Y0166100D01*
X0112761Y0166100D01*
X0112761Y0170900D01*
X0112862Y0170900D01*
X0113655Y0170774D01*
X0114418Y0170526D01*
X0115134Y0170162D01*
X0115783Y0169690D01*
X0116351Y0169122D01*
X0116823Y0168473D01*
X0117187Y0167758D01*
X0117435Y0166994D01*
X0117461Y0166833D01*
X0117461Y0169143D01*
X0113904Y0172700D01*
X0115362Y0171242D02*
X0076211Y0171242D01*
X0077809Y0169644D02*
X0109092Y0169644D01*
X0107881Y0168045D02*
X0078566Y0168045D01*
X0078961Y0166447D02*
X0107399Y0166447D01*
X0107448Y0164848D02*
X0078961Y0164848D01*
X0085062Y0163250D02*
X0108036Y0163250D01*
X0109494Y0161651D02*
X0086983Y0161651D01*
X0088582Y0160053D02*
X0103511Y0160053D01*
X0101912Y0158454D02*
X0090181Y0158454D01*
X0091779Y0156856D02*
X0100661Y0156856D01*
X0109410Y0160053D02*
X0117461Y0160053D01*
X0117461Y0161651D02*
X0115427Y0161651D01*
X0116885Y0163250D02*
X0117461Y0163250D01*
X0112761Y0163250D02*
X0112161Y0163250D01*
X0112161Y0164848D02*
X0112761Y0164848D01*
X0112761Y0166447D02*
X0112161Y0166447D01*
X0112161Y0168045D02*
X0112761Y0168045D01*
X0112761Y0169644D02*
X0112161Y0169644D01*
X0115829Y0169644D02*
X0116960Y0169644D01*
X0117041Y0168045D02*
X0117461Y0168045D01*
X0112761Y0161651D02*
X0112161Y0161651D01*
X0102677Y0172841D02*
X0084244Y0172841D01*
X0085902Y0174439D02*
X0101019Y0174439D01*
X0100313Y0176038D02*
X0086609Y0176038D01*
X0086861Y0177636D02*
X0100061Y0177636D01*
X0100177Y0179235D02*
X0086744Y0179235D01*
X0086082Y0180833D02*
X0099770Y0180833D01*
X0098172Y0182432D02*
X0084631Y0182432D01*
X0078461Y0177800D02*
X0063461Y0177800D01*
X0044461Y0158800D01*
X0044461Y0145800D01*
X0051461Y0138800D01*
X0057461Y0138800D01*
X0060004Y0141343D01*
X0060004Y0146879D01*
X0064787Y0142469D02*
X0082061Y0142469D01*
X0082061Y0141977D02*
X0084638Y0139400D01*
X0086461Y0139400D01*
X0088283Y0139400D01*
X0090661Y0141777D01*
X0090661Y0141398D01*
X0094058Y0138000D01*
X0098863Y0138000D01*
X0100013Y0139150D01*
X0103608Y0139150D01*
X0100661Y0136202D01*
X0100661Y0131398D01*
X0103758Y0128300D01*
X0100661Y0125202D01*
X0100661Y0120398D01*
X0100758Y0120300D01*
X0082163Y0120300D01*
X0082261Y0120398D01*
X0082261Y0125202D01*
X0079163Y0128300D01*
X0082261Y0131398D01*
X0082261Y0136202D01*
X0078863Y0139600D01*
X0074058Y0139600D01*
X0072258Y0137800D01*
X0062117Y0137800D01*
X0063395Y0139077D01*
X0064004Y0140548D01*
X0064004Y0141686D01*
X0066504Y0144186D01*
X0066504Y0145276D01*
X0067169Y0145000D01*
X0082061Y0145000D01*
X0082061Y0143800D01*
X0082061Y0141977D01*
X0083168Y0140870D02*
X0064004Y0140870D01*
X0063476Y0139272D02*
X0073730Y0139272D01*
X0079191Y0139272D02*
X0092786Y0139272D01*
X0091188Y0140870D02*
X0089754Y0140870D01*
X0086461Y0140870D02*
X0086461Y0140870D01*
X0086461Y0139400D02*
X0086461Y0143800D01*
X0086461Y0143800D01*
X0086461Y0139400D01*
X0086461Y0142469D02*
X0086461Y0142469D01*
X0086460Y0143800D02*
X0082061Y0143800D01*
X0086460Y0143800D01*
X0086460Y0143800D01*
X0082061Y0144068D02*
X0066385Y0144068D01*
X0069499Y0152600D02*
X0066504Y0155595D01*
X0066504Y0157383D01*
X0067308Y0156579D01*
X0068705Y0156000D01*
X0070661Y0156000D01*
X0070661Y0152600D01*
X0069499Y0152600D01*
X0068441Y0153659D02*
X0070661Y0153659D01*
X0070661Y0155257D02*
X0066842Y0155257D01*
X0067031Y0156856D02*
X0066504Y0156856D01*
X0066355Y0168045D02*
X0059363Y0168045D01*
X0060961Y0169644D02*
X0067112Y0169644D01*
X0068710Y0171242D02*
X0062560Y0171242D01*
X0064158Y0172841D02*
X0072677Y0172841D01*
X0060837Y0180833D02*
X0058461Y0180833D01*
X0058461Y0179235D02*
X0059239Y0179235D01*
X0058461Y0182432D02*
X0072290Y0182432D01*
X0071975Y0185629D02*
X0056289Y0185629D01*
X0057866Y0184030D02*
X0096573Y0184030D01*
X0104154Y0193621D02*
X0108767Y0193621D01*
X0106755Y0195220D02*
X0106166Y0195220D01*
X0079851Y0192800D02*
X0076117Y0192800D01*
X0074461Y0194457D01*
X0074461Y0200596D01*
X0073852Y0202066D01*
X0069517Y0206400D01*
X0076300Y0206400D01*
X0076118Y0206084D01*
X0075361Y0203261D01*
X0075361Y0200339D01*
X0076118Y0197516D01*
X0077579Y0194985D01*
X0079646Y0192918D01*
X0079851Y0192800D01*
X0078943Y0193621D02*
X0075296Y0193621D01*
X0074461Y0195220D02*
X0077443Y0195220D01*
X0076520Y0196818D02*
X0074461Y0196818D01*
X0074461Y0198417D02*
X0075876Y0198417D01*
X0075448Y0200015D02*
X0074461Y0200015D01*
X0074039Y0201614D02*
X0075361Y0201614D01*
X0075361Y0203212D02*
X0072705Y0203212D01*
X0071107Y0204811D02*
X0075777Y0204811D01*
X0067179Y0190424D02*
X0066287Y0190424D01*
X0068778Y0188826D02*
X0053092Y0188826D01*
X0054690Y0187227D02*
X0070376Y0187227D01*
X0058634Y0190424D02*
X0051493Y0190424D01*
X0049895Y0192023D02*
X0057035Y0192023D01*
X0056661Y0193621D02*
X0048296Y0193621D01*
X0047261Y0195220D02*
X0056661Y0195220D01*
X0056661Y0196818D02*
X0047261Y0196818D01*
X0046046Y0198417D02*
X0057875Y0198417D01*
X0059043Y0200015D02*
X0044878Y0200015D01*
X0041461Y0194800D02*
X0054461Y0181800D01*
X0054461Y0174300D01*
X0039961Y0159800D01*
X0039961Y0144300D01*
X0050461Y0133800D01*
X0076461Y0133800D01*
X0080544Y0129681D02*
X0102377Y0129681D01*
X0103541Y0128082D02*
X0079381Y0128082D01*
X0080979Y0126484D02*
X0101942Y0126484D01*
X0100661Y0124885D02*
X0082261Y0124885D01*
X0082261Y0123287D02*
X0100661Y0123287D01*
X0100661Y0121688D02*
X0082261Y0121688D01*
X0073541Y0128082D02*
X0042261Y0128082D01*
X0042261Y0127378D02*
X0042261Y0128978D01*
X0049556Y0128978D01*
X0049452Y0129768D01*
X0049416Y0129903D01*
X0049665Y0129800D01*
X0072258Y0129800D01*
X0073758Y0128300D01*
X0070661Y0125202D01*
X0070661Y0120398D01*
X0070758Y0120300D01*
X0060617Y0120300D01*
X0059852Y0121066D01*
X0058726Y0122191D01*
X0057256Y0122800D01*
X0047581Y0122800D01*
X0047587Y0122805D01*
X0048236Y0123651D01*
X0048768Y0124574D01*
X0049176Y0125559D01*
X0049452Y0126588D01*
X0049556Y0127378D01*
X0042261Y0127378D01*
X0042261Y0128978D02*
X0040661Y0128978D01*
X0040661Y0136273D01*
X0039871Y0136170D01*
X0038841Y0135894D01*
X0037857Y0135486D01*
X0036934Y0134953D01*
X0036088Y0134304D01*
X0035961Y0134176D01*
X0035961Y0169424D01*
X0036088Y0169296D01*
X0036934Y0168647D01*
X0037857Y0168114D01*
X0038841Y0167706D01*
X0039871Y0167430D01*
X0040661Y0167327D01*
X0040661Y0174622D01*
X0042261Y0174622D01*
X0042261Y0176222D01*
X0049556Y0176222D01*
X0049452Y0177012D01*
X0049176Y0178041D01*
X0048768Y0179026D01*
X0048236Y0179949D01*
X0047587Y0180794D01*
X0046833Y0181548D01*
X0045987Y0182197D01*
X0045064Y0182730D01*
X0044080Y0183138D01*
X0043050Y0183414D01*
X0042261Y0183518D01*
X0042261Y0176222D01*
X0040661Y0176222D01*
X0040661Y0183518D01*
X0039871Y0183414D01*
X0038841Y0183138D01*
X0037857Y0182730D01*
X0036934Y0182197D01*
X0036088Y0181548D01*
X0035961Y0181421D01*
X0035961Y0192098D01*
X0039058Y0189000D01*
X0041604Y0189000D01*
X0050461Y0180143D01*
X0050461Y0175957D01*
X0049126Y0174622D01*
X0042261Y0174622D01*
X0042261Y0167757D01*
X0036570Y0162066D01*
X0035961Y0160596D01*
X0035961Y0159004D01*
X0035961Y0143504D01*
X0036570Y0142034D01*
X0037695Y0140909D01*
X0042341Y0136263D01*
X0042261Y0136273D01*
X0042261Y0128978D01*
X0042261Y0129681D02*
X0040661Y0129681D01*
X0040661Y0131279D02*
X0042261Y0131279D01*
X0042261Y0132878D02*
X0040661Y0132878D01*
X0040661Y0134476D02*
X0042261Y0134476D01*
X0042261Y0136075D02*
X0040661Y0136075D01*
X0039518Y0136075D02*
X0035961Y0136075D01*
X0035961Y0137673D02*
X0040930Y0137673D01*
X0039332Y0139272D02*
X0035961Y0139272D01*
X0035961Y0140870D02*
X0037733Y0140870D01*
X0036389Y0142469D02*
X0035961Y0142469D01*
X0035961Y0144068D02*
X0035961Y0144068D01*
X0035961Y0145666D02*
X0035961Y0145666D01*
X0035961Y0147265D02*
X0035961Y0147265D01*
X0035961Y0148863D02*
X0035961Y0148863D01*
X0035961Y0150462D02*
X0035961Y0150462D01*
X0035961Y0152060D02*
X0035961Y0152060D01*
X0035961Y0153659D02*
X0035961Y0153659D01*
X0035961Y0155257D02*
X0035961Y0155257D01*
X0035961Y0156856D02*
X0035961Y0156856D01*
X0035961Y0158454D02*
X0035961Y0158454D01*
X0035961Y0160053D02*
X0035961Y0160053D01*
X0035961Y0161651D02*
X0036398Y0161651D01*
X0035961Y0163250D02*
X0037753Y0163250D01*
X0039352Y0164848D02*
X0035961Y0164848D01*
X0035961Y0166447D02*
X0040950Y0166447D01*
X0040661Y0168045D02*
X0042261Y0168045D01*
X0042261Y0169644D02*
X0040661Y0169644D01*
X0040661Y0171242D02*
X0042261Y0171242D01*
X0042261Y0172841D02*
X0040661Y0172841D01*
X0040661Y0174439D02*
X0042261Y0174439D01*
X0042261Y0176038D02*
X0050461Y0176038D01*
X0050461Y0177636D02*
X0049285Y0177636D01*
X0048648Y0179235D02*
X0050461Y0179235D01*
X0049770Y0180833D02*
X0047548Y0180833D01*
X0048172Y0182432D02*
X0045581Y0182432D01*
X0046573Y0184030D02*
X0035961Y0184030D01*
X0035961Y0182432D02*
X0037340Y0182432D01*
X0040661Y0182432D02*
X0042261Y0182432D01*
X0042261Y0180833D02*
X0040661Y0180833D01*
X0040661Y0179235D02*
X0042261Y0179235D01*
X0042261Y0177636D02*
X0040661Y0177636D01*
X0044975Y0185629D02*
X0035961Y0185629D01*
X0035961Y0187227D02*
X0043376Y0187227D01*
X0041778Y0188826D02*
X0035961Y0188826D01*
X0035961Y0190424D02*
X0037634Y0190424D01*
X0036035Y0192023D02*
X0035961Y0192023D01*
X0031861Y0200857D02*
X0031861Y0205726D01*
X0031861Y0206400D01*
X0035661Y0206400D01*
X0035661Y0204657D01*
X0031861Y0200857D01*
X0031861Y0201614D02*
X0032618Y0201614D01*
X0031861Y0203212D02*
X0034216Y0203212D01*
X0035661Y0204811D02*
X0031861Y0204811D01*
X0035961Y0168045D02*
X0038023Y0168045D01*
X0048461Y0151198D02*
X0048849Y0150810D01*
X0048461Y0150422D01*
X0048461Y0151198D01*
X0048461Y0150462D02*
X0048500Y0150462D01*
X0036313Y0134476D02*
X0035961Y0134476D01*
X0049464Y0129681D02*
X0072377Y0129681D01*
X0071942Y0126484D02*
X0049424Y0126484D01*
X0048897Y0124885D02*
X0070661Y0124885D01*
X0070661Y0123287D02*
X0047956Y0123287D01*
X0059229Y0121688D02*
X0070661Y0121688D01*
X0082142Y0131279D02*
X0100779Y0131279D01*
X0100661Y0132878D02*
X0082261Y0132878D01*
X0082261Y0134476D02*
X0100661Y0134476D01*
X0100661Y0136075D02*
X0082261Y0136075D01*
X0080790Y0137673D02*
X0102132Y0137673D01*
X0109313Y0139150D02*
X0113481Y0139150D01*
X0113261Y0138618D01*
X0113261Y0137046D01*
X0113465Y0136552D01*
X0113261Y0136058D01*
X0113261Y0135515D01*
X0112767Y0136009D01*
X0111670Y0137106D01*
X0111135Y0137328D01*
X0109313Y0139150D01*
X0110790Y0137673D02*
X0113261Y0137673D01*
X0113268Y0136075D02*
X0112701Y0136075D01*
X0109304Y0128441D02*
X0109445Y0128300D01*
X0109304Y0128159D01*
X0109163Y0128300D01*
X0109304Y0128441D01*
X0113864Y0121688D02*
X0114777Y0121688D01*
X0114356Y0120090D02*
X0112266Y0120090D01*
X0113405Y0118491D02*
X0110354Y0118491D01*
X0113261Y0116893D02*
X0106025Y0116893D01*
X0110169Y0115294D02*
X0113261Y0115294D01*
X0113393Y0113696D02*
X0111767Y0113696D01*
X0112261Y0112097D02*
X0114327Y0112097D01*
X0112261Y0110499D02*
X0134161Y0110499D01*
X0134161Y0112097D02*
X0126594Y0112097D01*
X0127529Y0113696D02*
X0134161Y0113696D01*
X0134161Y0115294D02*
X0127661Y0115294D01*
X0127661Y0116893D02*
X0134161Y0116893D01*
X0134161Y0118491D02*
X0127517Y0118491D01*
X0126565Y0120090D02*
X0134161Y0120090D01*
X0134161Y0121688D02*
X0126144Y0121688D01*
X0127261Y0123287D02*
X0134161Y0123287D01*
X0134711Y0124885D02*
X0127661Y0124885D01*
X0127526Y0126484D02*
X0136271Y0126484D01*
X0137869Y0128082D02*
X0127661Y0128082D01*
X0127661Y0129681D02*
X0141799Y0129681D01*
X0141529Y0131279D02*
X0127520Y0131279D01*
X0133110Y0132878D02*
X0141261Y0132878D01*
X0141265Y0134476D02*
X0134652Y0134476D01*
X0135967Y0136075D02*
X0141268Y0136075D01*
X0141261Y0137673D02*
X0136361Y0137673D01*
X0136361Y0139272D02*
X0141399Y0139272D01*
X0141261Y0140870D02*
X0136361Y0140870D01*
X0136361Y0142469D02*
X0141261Y0142469D01*
X0141398Y0144068D02*
X0136361Y0144068D01*
X0136361Y0145666D02*
X0141261Y0145666D01*
X0141268Y0147265D02*
X0136361Y0147265D01*
X0128561Y0147265D02*
X0127653Y0147265D01*
X0127661Y0147282D02*
X0127661Y0148854D01*
X0127059Y0150306D01*
X0126465Y0150900D01*
X0126845Y0150900D01*
X0128561Y0149185D01*
X0128561Y0139415D01*
X0128317Y0139172D01*
X0127431Y0139172D01*
X0127059Y0140069D01*
X0126738Y0140391D01*
X0127059Y0140713D01*
X0127661Y0142164D01*
X0127661Y0143736D01*
X0127456Y0144229D01*
X0127661Y0144722D01*
X0127661Y0146294D01*
X0127456Y0146788D01*
X0127661Y0147282D01*
X0127657Y0148863D02*
X0128561Y0148863D01*
X0127284Y0150462D02*
X0126903Y0150462D01*
X0127661Y0145666D02*
X0128561Y0145666D01*
X0128561Y0144068D02*
X0127523Y0144068D01*
X0127661Y0142469D02*
X0128561Y0142469D01*
X0128561Y0140870D02*
X0127125Y0140870D01*
X0127390Y0139272D02*
X0128417Y0139272D01*
X0135607Y0130153D02*
X0127931Y0122477D01*
X0120461Y0122477D01*
X0120461Y0119918D01*
X0106461Y0110800D02*
X0100961Y0116300D01*
X0101756Y0107302D02*
X0090434Y0107302D01*
X0092033Y0105703D02*
X0103355Y0105703D01*
X0102964Y0102506D02*
X0093161Y0102506D01*
X0093161Y0100908D02*
X0101366Y0100908D01*
X0100661Y0099309D02*
X0092681Y0099309D01*
X0091847Y0097711D02*
X0100661Y0097711D01*
X0100661Y0096112D02*
X0090461Y0096112D01*
X0090461Y0094514D02*
X0101545Y0094514D01*
X0100939Y0092915D02*
X0090461Y0092915D01*
X0090461Y0091317D02*
X0098485Y0091317D01*
X0097334Y0089718D02*
X0090461Y0089718D01*
X0090461Y0088120D02*
X0096672Y0088120D01*
X0096661Y0086521D02*
X0090461Y0086521D01*
X0090461Y0084923D02*
X0096903Y0084923D01*
X0097565Y0083324D02*
X0090461Y0083324D01*
X0090461Y0081726D02*
X0099043Y0081726D01*
X0099275Y0080127D02*
X0090461Y0080127D01*
X0090461Y0078529D02*
X0098360Y0078529D01*
X0098275Y0075332D02*
X0090461Y0075332D01*
X0090461Y0076930D02*
X0106161Y0076930D01*
X0106761Y0076930D02*
X0135824Y0076930D01*
X0135461Y0078529D02*
X0114561Y0078529D01*
X0113646Y0080127D02*
X0135040Y0080127D01*
X0134889Y0081726D02*
X0113879Y0081726D01*
X0115356Y0083324D02*
X0134979Y0083324D01*
X0135461Y0084923D02*
X0116019Y0084923D01*
X0116261Y0086521D02*
X0135762Y0086521D01*
X0136495Y0088120D02*
X0116250Y0088120D01*
X0115587Y0089718D02*
X0138138Y0089718D01*
X0144783Y0089718D02*
X0148138Y0089718D01*
X0146495Y0088120D02*
X0146426Y0088120D01*
X0145203Y0092915D02*
X0111983Y0092915D01*
X0111377Y0094514D02*
X0113524Y0094514D01*
X0116461Y0094514D02*
X0116461Y0094514D01*
X0116461Y0096112D02*
X0116461Y0096112D01*
X0116461Y0097711D02*
X0116461Y0097711D01*
X0116461Y0099309D02*
X0116461Y0099309D01*
X0116461Y0100908D02*
X0116461Y0100908D01*
X0119575Y0100908D02*
X0136979Y0100908D01*
X0135380Y0102506D02*
X0109957Y0102506D01*
X0111555Y0100908D02*
X0113346Y0100908D01*
X0109566Y0105703D02*
X0134161Y0105703D01*
X0134161Y0107302D02*
X0111165Y0107302D01*
X0112261Y0108900D02*
X0134161Y0108900D01*
X0134343Y0104105D02*
X0092758Y0104105D01*
X0073355Y0105703D02*
X0055566Y0105703D01*
X0049355Y0105703D02*
X0031861Y0105703D01*
X0031861Y0107302D02*
X0039736Y0107302D01*
X0038138Y0108900D02*
X0031861Y0108900D01*
X0031861Y0110499D02*
X0038061Y0110499D01*
X0038061Y0110800D02*
X0042460Y0110800D01*
X0042460Y0110800D01*
X0038061Y0110800D01*
X0038061Y0112097D02*
X0031861Y0112097D01*
X0031861Y0113696D02*
X0039134Y0113696D01*
X0044683Y0114800D02*
X0048258Y0114800D01*
X0046661Y0113202D01*
X0046661Y0112823D01*
X0044683Y0114800D01*
X0045787Y0113696D02*
X0047154Y0113696D01*
X0042461Y0110800D02*
X0042461Y0106400D01*
X0042461Y0110800D01*
X0042461Y0110800D01*
X0042461Y0110499D02*
X0042461Y0110499D01*
X0042461Y0108900D02*
X0042461Y0108900D01*
X0042461Y0107302D02*
X0042461Y0107302D01*
X0045185Y0107302D02*
X0047756Y0107302D01*
X0033472Y0115294D02*
X0031861Y0115294D01*
X0082261Y0152600D02*
X0085287Y0152600D01*
X0082261Y0155626D01*
X0082261Y0152600D01*
X0082261Y0153659D02*
X0084228Y0153659D01*
X0082630Y0155257D02*
X0082261Y0155257D01*
X0137461Y0155800D02*
X0199461Y0155800D01*
X0211461Y0143800D01*
X0211461Y0139800D01*
X0217677Y0137300D02*
X0218161Y0138467D01*
X0218161Y0141133D01*
X0217141Y0143595D01*
X0215256Y0145480D01*
X0215061Y0145561D01*
X0214852Y0146066D01*
X0205117Y0155800D01*
X0234804Y0155800D01*
X0257114Y0133490D01*
X0256880Y0133443D01*
X0253845Y0131415D01*
X0253125Y0130338D01*
X0250863Y0132600D01*
X0246058Y0132600D01*
X0242661Y0129202D01*
X0242661Y0125300D01*
X0242617Y0125300D01*
X0231226Y0136691D01*
X0229756Y0137300D01*
X0217677Y0137300D01*
X0217832Y0137673D02*
X0252930Y0137673D01*
X0254529Y0136075D02*
X0231843Y0136075D01*
X0233441Y0134476D02*
X0256127Y0134476D01*
X0256880Y0133443D02*
X0256880Y0133443D01*
X0256034Y0132878D02*
X0235040Y0132878D01*
X0236638Y0131279D02*
X0244738Y0131279D01*
X0243139Y0129681D02*
X0238237Y0129681D01*
X0239835Y0128082D02*
X0242661Y0128082D01*
X0242661Y0126484D02*
X0241434Y0126484D01*
X0233561Y0123043D02*
X0232216Y0123600D01*
X0223463Y0123600D01*
X0224261Y0124398D01*
X0224261Y0129202D01*
X0224163Y0129300D01*
X0227304Y0129300D01*
X0233561Y0123043D01*
X0233317Y0123287D02*
X0232972Y0123287D01*
X0231718Y0124885D02*
X0224261Y0124885D01*
X0224261Y0126484D02*
X0230120Y0126484D01*
X0228521Y0128082D02*
X0224261Y0128082D01*
X0228961Y0133300D02*
X0240961Y0121300D01*
X0249461Y0121300D01*
X0260461Y0110300D01*
X0260461Y0105800D01*
X0266461Y0099800D01*
X0271461Y0099800D01*
X0267258Y0095800D02*
X0269058Y0094000D01*
X0273863Y0094000D01*
X0274461Y0094598D01*
X0274461Y0089852D01*
X0272654Y0090600D01*
X0270267Y0090600D01*
X0268062Y0089687D01*
X0266461Y0088085D01*
X0264859Y0089687D01*
X0262654Y0090600D01*
X0260267Y0090600D01*
X0258062Y0089687D01*
X0256461Y0088085D01*
X0254859Y0089687D01*
X0252654Y0090600D01*
X0250267Y0090600D01*
X0248062Y0089687D01*
X0246461Y0088085D01*
X0244859Y0089687D01*
X0242654Y0090600D01*
X0240267Y0090600D01*
X0238062Y0089687D01*
X0236461Y0088085D01*
X0234859Y0089687D01*
X0234585Y0089800D01*
X0236256Y0089800D01*
X0237726Y0090409D01*
X0241317Y0094000D01*
X0243863Y0094000D01*
X0247261Y0097398D01*
X0247261Y0102202D01*
X0246963Y0102500D01*
X0249716Y0102500D01*
X0251113Y0103079D01*
X0254113Y0106079D01*
X0255182Y0107147D01*
X0255761Y0108544D01*
X0255761Y0109343D01*
X0256461Y0108643D01*
X0256461Y0105004D01*
X0257070Y0103534D01*
X0258195Y0102409D01*
X0264195Y0096409D01*
X0265665Y0095800D01*
X0267258Y0095800D01*
X0268545Y0094514D02*
X0244377Y0094514D01*
X0245975Y0096112D02*
X0264911Y0096112D01*
X0262893Y0097711D02*
X0247261Y0097711D01*
X0247261Y0099309D02*
X0261295Y0099309D01*
X0259696Y0100908D02*
X0247261Y0100908D01*
X0249731Y0102506D02*
X0258098Y0102506D01*
X0256833Y0104105D02*
X0252139Y0104105D01*
X0253738Y0105703D02*
X0256461Y0105703D01*
X0256461Y0107302D02*
X0255246Y0107302D01*
X0255761Y0108900D02*
X0256204Y0108900D01*
X0248087Y0110800D02*
X0247387Y0110100D01*
X0247261Y0110100D01*
X0247261Y0111626D01*
X0248087Y0110800D01*
X0247785Y0110499D02*
X0247261Y0110499D01*
X0235661Y0111374D02*
X0234387Y0110100D01*
X0152361Y0110100D01*
X0152361Y0110850D01*
X0152496Y0110850D01*
X0153948Y0111451D01*
X0155059Y0112562D01*
X0155472Y0113560D01*
X0158776Y0113560D01*
X0160173Y0114138D01*
X0166613Y0120579D01*
X0167682Y0121647D01*
X0168261Y0123044D01*
X0168261Y0127398D01*
X0170261Y0129398D01*
X0170261Y0132800D01*
X0173661Y0132800D01*
X0173661Y0129398D01*
X0177058Y0126000D01*
X0181863Y0126000D01*
X0185261Y0129398D01*
X0185261Y0132800D01*
X0187661Y0132800D01*
X0187661Y0129398D01*
X0191058Y0126000D01*
X0195863Y0126000D01*
X0199261Y0129398D01*
X0199261Y0132800D01*
X0200304Y0132800D01*
X0203195Y0129909D01*
X0204665Y0129300D01*
X0212758Y0129300D01*
X0212661Y0129202D01*
X0212661Y0124398D01*
X0214661Y0122398D01*
X0214661Y0121044D01*
X0215239Y0119647D01*
X0217239Y0117647D01*
X0218308Y0116579D01*
X0219705Y0116000D01*
X0229887Y0116000D01*
X0230239Y0115647D01*
X0231308Y0114579D01*
X0232705Y0114000D01*
X0235661Y0114000D01*
X0235661Y0111374D01*
X0235661Y0112097D02*
X0199460Y0112097D01*
X0199246Y0111883D02*
X0200878Y0113515D01*
X0201761Y0115646D01*
X0201761Y0117954D01*
X0200878Y0120085D01*
X0199246Y0121717D01*
X0197114Y0122600D01*
X0194807Y0122600D01*
X0192675Y0121717D01*
X0191044Y0120085D01*
X0190161Y0117954D01*
X0190161Y0115646D01*
X0191044Y0113515D01*
X0192675Y0111883D01*
X0194807Y0111000D01*
X0197114Y0111000D01*
X0199246Y0111883D01*
X0200953Y0113696D02*
X0235661Y0113696D01*
X0234785Y0110499D02*
X0152361Y0110499D01*
X0154594Y0112097D02*
X0173461Y0112097D01*
X0173675Y0111883D02*
X0175807Y0111000D01*
X0178114Y0111000D01*
X0180246Y0111883D01*
X0181878Y0113515D01*
X0182761Y0115646D01*
X0182761Y0117954D01*
X0181878Y0120085D01*
X0180246Y0121717D01*
X0178114Y0122600D01*
X0175807Y0122600D01*
X0173675Y0121717D01*
X0172044Y0120085D01*
X0171161Y0117954D01*
X0171161Y0115646D01*
X0172044Y0113515D01*
X0173675Y0111883D01*
X0171969Y0113696D02*
X0159105Y0113696D01*
X0161329Y0115294D02*
X0171306Y0115294D01*
X0171161Y0116893D02*
X0162927Y0116893D01*
X0164526Y0118491D02*
X0171383Y0118491D01*
X0172048Y0120090D02*
X0166124Y0120090D01*
X0167699Y0121688D02*
X0173647Y0121688D01*
X0168261Y0123287D02*
X0213771Y0123287D01*
X0214661Y0121688D02*
X0199275Y0121688D01*
X0200873Y0120090D02*
X0215056Y0120090D01*
X0216395Y0118491D02*
X0201538Y0118491D01*
X0201761Y0116893D02*
X0217994Y0116893D01*
X0217239Y0117647D02*
X0217239Y0117647D01*
X0212661Y0124885D02*
X0168261Y0124885D01*
X0168261Y0126484D02*
X0176574Y0126484D01*
X0174976Y0128082D02*
X0168945Y0128082D01*
X0170261Y0129681D02*
X0173661Y0129681D01*
X0173661Y0131279D02*
X0170261Y0131279D01*
X0169461Y0136800D02*
X0164461Y0141800D01*
X0170261Y0141657D02*
X0171117Y0140800D01*
X0175061Y0140800D01*
X0175061Y0141800D01*
X0179460Y0141800D01*
X0179460Y0141800D01*
X0175061Y0141800D01*
X0175061Y0143623D01*
X0177638Y0146200D01*
X0179461Y0146200D01*
X0179461Y0141800D01*
X0183861Y0141800D01*
X0183861Y0143623D01*
X0181283Y0146200D01*
X0179461Y0146200D01*
X0179461Y0141800D01*
X0179461Y0141800D01*
X0183861Y0141800D01*
X0183861Y0140800D01*
X0189061Y0140800D01*
X0189061Y0141800D01*
X0193460Y0141800D01*
X0193460Y0141800D01*
X0189061Y0141800D01*
X0189061Y0143623D01*
X0191638Y0146200D01*
X0193461Y0146200D01*
X0193461Y0141800D01*
X0197861Y0141800D01*
X0197861Y0143623D01*
X0195283Y0146200D01*
X0193461Y0146200D01*
X0193461Y0141800D01*
X0193461Y0141800D01*
X0197861Y0141800D01*
X0197861Y0140800D01*
X0202756Y0140800D01*
X0204226Y0140191D01*
X0204761Y0139657D01*
X0204761Y0141133D01*
X0205781Y0143595D01*
X0205895Y0143709D01*
X0197804Y0151800D01*
X0163245Y0151800D01*
X0163761Y0150556D01*
X0163761Y0147600D01*
X0166863Y0147600D01*
X0170261Y0144202D01*
X0170261Y0141657D01*
X0170261Y0142469D02*
X0175061Y0142469D01*
X0175061Y0140870D02*
X0171047Y0140870D01*
X0169461Y0136800D02*
X0201961Y0136800D01*
X0205461Y0133300D01*
X0228961Y0133300D01*
X0218161Y0139272D02*
X0251332Y0139272D01*
X0249733Y0140870D02*
X0218161Y0140870D01*
X0217607Y0142469D02*
X0248135Y0142469D01*
X0246536Y0144068D02*
X0216668Y0144068D01*
X0215017Y0145666D02*
X0244938Y0145666D01*
X0243339Y0147265D02*
X0213653Y0147265D01*
X0212054Y0148863D02*
X0241741Y0148863D01*
X0240142Y0150462D02*
X0210456Y0150462D01*
X0208857Y0152060D02*
X0238544Y0152060D01*
X0236945Y0153659D02*
X0207259Y0153659D01*
X0205660Y0155257D02*
X0235347Y0155257D01*
X0252872Y0168045D02*
X0281061Y0168045D01*
X0281061Y0166447D02*
X0254471Y0166447D01*
X0256069Y0164848D02*
X0281061Y0164848D01*
X0281061Y0163250D02*
X0257668Y0163250D01*
X0259266Y0161651D02*
X0281061Y0161651D01*
X0281339Y0160053D02*
X0260865Y0160053D01*
X0262463Y0158454D02*
X0282170Y0158454D01*
X0283768Y0156856D02*
X0264062Y0156856D01*
X0265660Y0155257D02*
X0285367Y0155257D01*
X0286965Y0153659D02*
X0267259Y0153659D01*
X0268857Y0152060D02*
X0282033Y0152060D01*
X0279426Y0150462D02*
X0270456Y0150462D01*
X0272054Y0148863D02*
X0277827Y0148863D01*
X0276799Y0147265D02*
X0273653Y0147265D01*
X0275251Y0145666D02*
X0276006Y0145666D01*
X0289732Y0131186D02*
X0290745Y0131457D01*
X0291061Y0131640D01*
X0291061Y0129857D01*
X0289732Y0131186D01*
X0290081Y0131279D02*
X0291061Y0131279D01*
X0273004Y0117600D02*
X0269058Y0117600D01*
X0265661Y0114202D01*
X0265661Y0109398D01*
X0269058Y0106000D01*
X0273863Y0106000D01*
X0274461Y0106598D01*
X0274461Y0105002D01*
X0273863Y0105600D01*
X0269058Y0105600D01*
X0267688Y0104230D01*
X0264461Y0107457D01*
X0264461Y0111096D01*
X0263852Y0112566D01*
X0260888Y0115530D01*
X0264041Y0116157D01*
X0267076Y0118185D01*
X0269104Y0121220D01*
X0269150Y0121453D01*
X0273004Y0117600D01*
X0272112Y0118491D02*
X0267281Y0118491D01*
X0267076Y0118185D02*
X0267076Y0118185D01*
X0268351Y0116893D02*
X0265143Y0116893D01*
X0264041Y0116157D02*
X0264041Y0116157D01*
X0262722Y0113696D02*
X0265661Y0113696D01*
X0265661Y0112097D02*
X0264046Y0112097D01*
X0264461Y0110499D02*
X0265661Y0110499D01*
X0266158Y0108900D02*
X0264461Y0108900D01*
X0264616Y0107302D02*
X0267756Y0107302D01*
X0266214Y0105703D02*
X0274461Y0105703D01*
X0266753Y0115294D02*
X0261123Y0115294D01*
X0268349Y0120090D02*
X0270514Y0120090D01*
X0253754Y0131279D02*
X0252184Y0131279D01*
X0253845Y0131415D02*
X0253845Y0131415D01*
X0253845Y0131415D01*
X0230592Y0115294D02*
X0201615Y0115294D01*
X0192461Y0112097D02*
X0180460Y0112097D01*
X0181953Y0113696D02*
X0190969Y0113696D01*
X0190306Y0115294D02*
X0182615Y0115294D01*
X0182761Y0116893D02*
X0190161Y0116893D01*
X0190383Y0118491D02*
X0182538Y0118491D01*
X0181873Y0120090D02*
X0191048Y0120090D01*
X0192647Y0121688D02*
X0180275Y0121688D01*
X0182347Y0126484D02*
X0190574Y0126484D01*
X0188976Y0128082D02*
X0183945Y0128082D01*
X0185261Y0129681D02*
X0187661Y0129681D01*
X0187661Y0131279D02*
X0185261Y0131279D01*
X0196347Y0126484D02*
X0212661Y0126484D01*
X0212661Y0128082D02*
X0197945Y0128082D01*
X0199261Y0129681D02*
X0203745Y0129681D01*
X0201824Y0131279D02*
X0199261Y0131279D01*
X0197861Y0140870D02*
X0204761Y0140870D01*
X0205314Y0142469D02*
X0197861Y0142469D01*
X0197416Y0144068D02*
X0205536Y0144068D01*
X0203938Y0145666D02*
X0195817Y0145666D01*
X0193461Y0145666D02*
X0193461Y0145666D01*
X0193461Y0144068D02*
X0193461Y0144068D01*
X0193461Y0142469D02*
X0193461Y0142469D01*
X0193461Y0141800D02*
X0193461Y0141800D01*
X0189061Y0142469D02*
X0183861Y0142469D01*
X0183861Y0140870D02*
X0189061Y0140870D01*
X0189506Y0144068D02*
X0183416Y0144068D01*
X0181817Y0145666D02*
X0191104Y0145666D01*
X0199142Y0150462D02*
X0163761Y0150462D01*
X0163761Y0148863D02*
X0200741Y0148863D01*
X0202339Y0147265D02*
X0167199Y0147265D01*
X0168797Y0145666D02*
X0177104Y0145666D01*
X0175506Y0144068D02*
X0170261Y0144068D01*
X0179461Y0144068D02*
X0179461Y0144068D01*
X0179461Y0145666D02*
X0179461Y0145666D01*
X0179461Y0142469D02*
X0179461Y0142469D01*
X0179461Y0141800D02*
X0179461Y0141800D01*
X0156161Y0142469D02*
X0155661Y0142469D01*
X0155661Y0142164D02*
X0155661Y0143736D01*
X0155456Y0144229D01*
X0155661Y0144722D01*
X0155661Y0146294D01*
X0155456Y0146788D01*
X0155661Y0147282D01*
X0155661Y0147500D01*
X0156161Y0147500D01*
X0156161Y0128374D01*
X0155661Y0127874D01*
X0155661Y0128381D01*
X0155059Y0129832D01*
X0154738Y0130154D01*
X0155059Y0130475D01*
X0155661Y0131927D01*
X0155661Y0133499D01*
X0155456Y0133993D01*
X0155661Y0134486D01*
X0155661Y0136058D01*
X0155456Y0136552D01*
X0155661Y0137046D01*
X0155661Y0138618D01*
X0155456Y0139112D01*
X0155661Y0139606D01*
X0155661Y0141178D01*
X0155456Y0141671D01*
X0155661Y0142164D01*
X0155661Y0140870D02*
X0156161Y0140870D01*
X0156161Y0139272D02*
X0155522Y0139272D01*
X0155661Y0137673D02*
X0156161Y0137673D01*
X0156161Y0136075D02*
X0155653Y0136075D01*
X0155657Y0134476D02*
X0156161Y0134476D01*
X0156161Y0132878D02*
X0155661Y0132878D01*
X0155392Y0131279D02*
X0156161Y0131279D01*
X0156161Y0129681D02*
X0155122Y0129681D01*
X0155661Y0128082D02*
X0155869Y0128082D01*
X0144425Y0110850D02*
X0142973Y0111451D01*
X0141862Y0112562D01*
X0141761Y0112807D01*
X0141761Y0106874D01*
X0148535Y0100100D01*
X0185887Y0100100D01*
X0188287Y0102500D01*
X0149205Y0102500D01*
X0147808Y0103079D01*
X0146739Y0104147D01*
X0146493Y0104394D01*
X0146251Y0104494D01*
X0145154Y0105591D01*
X0144561Y0107024D01*
X0144561Y0110850D01*
X0144425Y0110850D01*
X0144561Y0110499D02*
X0141761Y0110499D01*
X0141761Y0112097D02*
X0142327Y0112097D01*
X0141761Y0108900D02*
X0144561Y0108900D01*
X0144561Y0107302D02*
X0141761Y0107302D01*
X0142931Y0105703D02*
X0145108Y0105703D01*
X0144530Y0104105D02*
X0146782Y0104105D01*
X0146128Y0102506D02*
X0149190Y0102506D01*
X0147727Y0100908D02*
X0186694Y0100908D01*
X0192647Y0096112D02*
X0197550Y0096112D01*
X0197061Y0095623D02*
X0197061Y0093800D01*
X0197061Y0091977D01*
X0199638Y0089400D01*
X0201461Y0089400D01*
X0201461Y0093800D01*
X0201461Y0093800D01*
X0201461Y0098200D01*
X0199638Y0098200D01*
X0197061Y0095623D01*
X0197061Y0094514D02*
X0191048Y0094514D01*
X0189219Y0092915D02*
X0197061Y0092915D01*
X0197061Y0093800D02*
X0201460Y0093800D01*
X0201460Y0093800D01*
X0197061Y0093800D01*
X0197721Y0091317D02*
X0114436Y0091317D01*
X0119397Y0094514D02*
X0143373Y0094514D01*
X0141774Y0096112D02*
X0120861Y0096112D01*
X0120861Y0097711D02*
X0140176Y0097711D01*
X0138577Y0099309D02*
X0120861Y0099309D01*
X0114646Y0075332D02*
X0136644Y0075332D01*
X0138498Y0073733D02*
X0113836Y0073733D01*
X0099303Y0072134D02*
X0090461Y0072134D01*
X0090461Y0070536D02*
X0097704Y0070536D01*
X0097010Y0068937D02*
X0090461Y0068937D01*
X0090461Y0067339D02*
X0096661Y0067339D01*
X0096661Y0065740D02*
X0090461Y0065740D01*
X0090461Y0064142D02*
X0097226Y0064142D01*
X0098225Y0062543D02*
X0090461Y0062543D01*
X0090461Y0060945D02*
X0100311Y0060945D01*
X0101661Y0059346D02*
X0090461Y0059346D01*
X0090461Y0057748D02*
X0101661Y0057748D01*
X0101661Y0056149D02*
X0090461Y0056149D01*
X0090461Y0054551D02*
X0101661Y0054551D01*
X0101661Y0052952D02*
X0090461Y0052952D01*
X0090461Y0051354D02*
X0101226Y0051354D01*
X0099628Y0049755D02*
X0090461Y0049755D01*
X0090461Y0048157D02*
X0098029Y0048157D01*
X0096431Y0046558D02*
X0090461Y0046558D01*
X0090461Y0044960D02*
X0093761Y0044960D01*
X0091819Y0043361D02*
X0090461Y0043361D01*
X0090461Y0041763D02*
X0090996Y0041763D01*
X0090661Y0040164D02*
X0090461Y0040164D01*
X0090461Y0038566D02*
X0090694Y0038566D01*
X0090461Y0036967D02*
X0091356Y0036967D01*
X0090461Y0035369D02*
X0092689Y0035369D01*
X0092208Y0033770D02*
X0090461Y0033770D01*
X0090746Y0032172D02*
X0092061Y0032172D01*
X0092061Y0031800D02*
X0096460Y0031800D01*
X0092061Y0031800D01*
X0096460Y0031800D02*
X0096460Y0031800D01*
X0096461Y0031800D02*
X0100861Y0031800D01*
X0100861Y0030800D01*
X0102804Y0030800D01*
X0107195Y0035191D01*
X0108665Y0035800D01*
X0115672Y0035800D01*
X0110391Y0041081D01*
X0109661Y0042845D01*
X0109661Y0045798D01*
X0109544Y0045915D01*
X0109491Y0046042D01*
X0109180Y0045731D01*
X0102261Y0038812D01*
X0102261Y0038646D01*
X0101378Y0036515D01*
X0099746Y0034883D01*
X0099643Y0034840D01*
X0100861Y0033623D01*
X0100861Y0031800D01*
X0096461Y0031800D01*
X0096461Y0031800D01*
X0100861Y0032172D02*
X0104175Y0032172D01*
X0105774Y0033770D02*
X0100713Y0033770D01*
X0100232Y0035369D02*
X0107624Y0035369D01*
X0109461Y0031800D02*
X0104461Y0026800D01*
X0090461Y0026800D01*
X0101565Y0036967D02*
X0114505Y0036967D01*
X0112907Y0038566D02*
X0102227Y0038566D01*
X0103613Y0040164D02*
X0111308Y0040164D01*
X0110109Y0041763D02*
X0105212Y0041763D01*
X0106810Y0043361D02*
X0109661Y0043361D01*
X0109661Y0044960D02*
X0108409Y0044960D01*
X0119644Y0046558D02*
X0135978Y0046558D01*
X0135461Y0048157D02*
X0120261Y0048157D01*
X0120261Y0049755D02*
X0135194Y0049755D01*
X0134889Y0051354D02*
X0120261Y0051354D01*
X0120261Y0052952D02*
X0134889Y0052952D01*
X0135461Y0054551D02*
X0120261Y0054551D01*
X0120014Y0056149D02*
X0135608Y0056149D01*
X0136270Y0057748D02*
X0119315Y0057748D01*
X0117675Y0059346D02*
X0137722Y0059346D01*
X0145199Y0059346D02*
X0147722Y0059346D01*
X0155199Y0059346D02*
X0157722Y0059346D01*
X0165199Y0059346D02*
X0167722Y0059346D01*
X0171461Y0051800D02*
X0171461Y0045800D01*
X0174461Y0042800D01*
X0184461Y0042800D01*
X0186461Y0044800D01*
X0186461Y0058800D01*
X0192461Y0064800D01*
X0188498Y0073733D02*
X0184424Y0073733D01*
X0186277Y0075332D02*
X0186644Y0075332D01*
X0178498Y0073733D02*
X0174424Y0073733D01*
X0176277Y0075332D02*
X0176644Y0075332D01*
X0168498Y0073733D02*
X0164424Y0073733D01*
X0166277Y0075332D02*
X0166644Y0075332D01*
X0158498Y0073733D02*
X0154424Y0073733D01*
X0156277Y0075332D02*
X0156644Y0075332D01*
X0148498Y0073733D02*
X0144424Y0073733D01*
X0146277Y0075332D02*
X0146644Y0075332D01*
X0156426Y0088120D02*
X0156495Y0088120D01*
X0158138Y0089718D02*
X0154783Y0089718D01*
X0164783Y0089718D02*
X0168138Y0089718D01*
X0166495Y0088120D02*
X0166426Y0088120D01*
X0174783Y0089718D02*
X0178138Y0089718D01*
X0176495Y0088120D02*
X0176426Y0088120D01*
X0184783Y0089718D02*
X0188138Y0089718D01*
X0186495Y0088120D02*
X0186426Y0088120D01*
X0194783Y0089718D02*
X0199320Y0089718D01*
X0198479Y0088120D02*
X0196426Y0088120D01*
X0201461Y0089718D02*
X0201461Y0089718D01*
X0201461Y0091317D02*
X0201461Y0091317D01*
X0201461Y0091800D02*
X0201461Y0081800D01*
X0201461Y0076800D01*
X0204237Y0075332D02*
X0206644Y0075332D01*
X0206495Y0088120D02*
X0204442Y0088120D01*
X0203601Y0089718D02*
X0207340Y0089718D01*
X0205742Y0091317D02*
X0205200Y0091317D01*
X0201461Y0092915D02*
X0201461Y0092915D01*
X0201461Y0094514D02*
X0201461Y0094514D01*
X0201461Y0096112D02*
X0201461Y0096112D01*
X0201461Y0097711D02*
X0201461Y0097711D01*
X0203772Y0097711D02*
X0207169Y0097711D01*
X0205661Y0096112D02*
X0205371Y0096112D01*
X0199149Y0097711D02*
X0194245Y0097711D01*
X0211461Y0093800D02*
X0235461Y0093800D01*
X0241461Y0099800D01*
X0234504Y0098500D02*
X0233804Y0097800D01*
X0215663Y0097800D01*
X0214963Y0098500D01*
X0234504Y0098500D01*
X0240233Y0092915D02*
X0274461Y0092915D01*
X0274461Y0091317D02*
X0238634Y0091317D01*
X0238138Y0089718D02*
X0234783Y0089718D01*
X0236426Y0088120D02*
X0236495Y0088120D01*
X0228336Y0089800D02*
X0228062Y0089687D01*
X0226461Y0088085D01*
X0224859Y0089687D01*
X0224585Y0089800D01*
X0228336Y0089800D01*
X0228138Y0089718D02*
X0224783Y0089718D01*
X0226426Y0088120D02*
X0226495Y0088120D01*
X0218336Y0089800D02*
X0218062Y0089687D01*
X0216461Y0088085D01*
X0215204Y0089341D01*
X0215663Y0089800D01*
X0218336Y0089800D01*
X0218138Y0089718D02*
X0215581Y0089718D01*
X0216426Y0088120D02*
X0216495Y0088120D01*
X0244783Y0089718D02*
X0248138Y0089718D01*
X0246495Y0088120D02*
X0246426Y0088120D01*
X0254783Y0089718D02*
X0258138Y0089718D01*
X0256495Y0088120D02*
X0256426Y0088120D01*
X0264783Y0089718D02*
X0268138Y0089718D01*
X0266495Y0088120D02*
X0266426Y0088120D01*
X0274377Y0094514D02*
X0274461Y0094514D01*
X0257722Y0059346D02*
X0255199Y0059346D01*
X0247722Y0059346D02*
X0245199Y0059346D01*
X0237722Y0059346D02*
X0235199Y0059346D01*
X0227722Y0059346D02*
X0225199Y0059346D01*
X0221461Y0051800D02*
X0221461Y0038800D01*
X0226461Y0033800D01*
X0226461Y0011800D01*
X0220461Y0014487D02*
X0220461Y0015793D01*
X0221374Y0017999D01*
X0222461Y0019085D01*
X0222461Y0032143D01*
X0219195Y0035409D01*
X0218070Y0036534D01*
X0217461Y0038004D01*
X0217461Y0044515D01*
X0216374Y0045601D01*
X0215841Y0046887D01*
X0215183Y0046229D01*
X0215112Y0046199D01*
X0214969Y0046003D01*
X0214457Y0045491D01*
X0213872Y0045066D01*
X0213226Y0044737D01*
X0212538Y0044513D01*
X0211823Y0044400D01*
X0211497Y0044400D01*
X0211497Y0045228D01*
X0211424Y0045228D01*
X0211424Y0044400D01*
X0211099Y0044400D01*
X0210383Y0044513D01*
X0209695Y0044737D01*
X0209050Y0045066D01*
X0208464Y0045491D01*
X0207952Y0046003D01*
X0207810Y0046199D01*
X0207738Y0046229D01*
X0207080Y0046887D01*
X0206547Y0045601D01*
X0206261Y0045315D01*
X0206261Y0043202D01*
X0207261Y0042202D01*
X0207261Y0041823D01*
X0209638Y0044200D01*
X0211461Y0044200D01*
X0211461Y0039800D01*
X0211461Y0035400D01*
X0209638Y0035400D01*
X0207261Y0037777D01*
X0207261Y0037398D01*
X0203863Y0034000D01*
X0199058Y0034000D01*
X0195661Y0037398D01*
X0195661Y0042202D01*
X0196661Y0043202D01*
X0196661Y0045315D01*
X0196461Y0045515D01*
X0194859Y0043913D01*
X0192654Y0043000D01*
X0190267Y0043000D01*
X0190077Y0043079D01*
X0189852Y0042534D01*
X0188726Y0041409D01*
X0186726Y0039409D01*
X0185256Y0038800D01*
X0173665Y0038800D01*
X0172195Y0039409D01*
X0171070Y0040534D01*
X0168070Y0043534D01*
X0167807Y0044169D01*
X0166461Y0045515D01*
X0164859Y0043913D01*
X0164103Y0043600D01*
X0165415Y0043600D01*
X0167180Y0042869D01*
X0178449Y0031600D01*
X0202415Y0031600D01*
X0204180Y0030869D01*
X0209180Y0025869D01*
X0209180Y0025869D01*
X0210530Y0024519D01*
X0211261Y0022755D01*
X0211261Y0018285D01*
X0211547Y0017999D01*
X0212461Y0015793D01*
X0212461Y0014487D01*
X0213032Y0013107D01*
X0213032Y0010493D01*
X0212461Y0009113D01*
X0212461Y0007807D01*
X0212209Y0007200D01*
X0220712Y0007200D01*
X0220461Y0007807D01*
X0220461Y0009113D01*
X0219889Y0010493D01*
X0219889Y0013107D01*
X0220461Y0014487D01*
X0220461Y0014588D02*
X0212461Y0014588D01*
X0212298Y0016187D02*
X0220623Y0016187D01*
X0221286Y0017785D02*
X0211636Y0017785D01*
X0211261Y0019384D02*
X0222461Y0019384D01*
X0222461Y0020982D02*
X0211261Y0020982D01*
X0211261Y0022581D02*
X0222461Y0022581D01*
X0222461Y0024179D02*
X0210671Y0024179D01*
X0209271Y0025778D02*
X0222461Y0025778D01*
X0222461Y0027376D02*
X0207673Y0027376D01*
X0206074Y0028975D02*
X0222461Y0028975D01*
X0222461Y0030573D02*
X0204476Y0030573D01*
X0205232Y0035369D02*
X0219235Y0035369D01*
X0217890Y0036967D02*
X0214850Y0036967D01*
X0215861Y0038566D02*
X0217461Y0038566D01*
X0217461Y0040164D02*
X0215861Y0040164D01*
X0215720Y0041763D02*
X0217461Y0041763D01*
X0217461Y0043361D02*
X0214122Y0043361D01*
X0213664Y0044960D02*
X0217016Y0044960D01*
X0215978Y0046558D02*
X0215513Y0046558D01*
X0211497Y0044960D02*
X0211424Y0044960D01*
X0211461Y0043361D02*
X0211461Y0043361D01*
X0211461Y0041763D02*
X0211461Y0041763D01*
X0211461Y0040164D02*
X0211461Y0040164D01*
X0211461Y0038566D02*
X0211461Y0038566D01*
X0211461Y0036967D02*
X0211461Y0036967D01*
X0208071Y0036967D02*
X0206830Y0036967D01*
X0206261Y0043361D02*
X0208799Y0043361D01*
X0209258Y0044960D02*
X0206261Y0044960D01*
X0206944Y0046558D02*
X0207409Y0046558D01*
X0196661Y0044960D02*
X0195906Y0044960D01*
X0196661Y0043361D02*
X0193526Y0043361D01*
X0195661Y0041763D02*
X0189080Y0041763D01*
X0187482Y0040164D02*
X0195661Y0040164D01*
X0195661Y0038566D02*
X0171483Y0038566D01*
X0171439Y0040164D02*
X0169885Y0040164D01*
X0169841Y0041763D02*
X0168286Y0041763D01*
X0168242Y0043361D02*
X0165992Y0043361D01*
X0165906Y0044960D02*
X0167016Y0044960D01*
X0158819Y0043600D02*
X0154103Y0043600D01*
X0154859Y0043913D01*
X0156461Y0045515D01*
X0158062Y0043913D01*
X0158819Y0043600D01*
X0157016Y0044960D02*
X0155906Y0044960D01*
X0148819Y0043600D02*
X0144103Y0043600D01*
X0144859Y0043913D01*
X0146461Y0045515D01*
X0148062Y0043913D01*
X0148819Y0043600D01*
X0147016Y0044960D02*
X0145906Y0044960D01*
X0137016Y0044960D02*
X0120089Y0044960D01*
X0109461Y0031800D02*
X0163461Y0031800D01*
X0166461Y0028800D01*
X0166461Y0011800D01*
X0171461Y0018085D02*
X0170461Y0019085D01*
X0170461Y0026012D01*
X0172391Y0024081D01*
X0173742Y0022731D01*
X0175506Y0022000D01*
X0199472Y0022000D01*
X0201661Y0019812D01*
X0201661Y0018285D01*
X0201374Y0017999D01*
X0200841Y0016713D01*
X0200183Y0017371D01*
X0200112Y0017401D01*
X0199969Y0017597D01*
X0199457Y0018109D01*
X0198872Y0018534D01*
X0198226Y0018863D01*
X0197538Y0019087D01*
X0196823Y0019200D01*
X0196497Y0019200D01*
X0196497Y0018372D01*
X0196424Y0018372D01*
X0196424Y0019200D01*
X0196099Y0019200D01*
X0195383Y0019087D01*
X0194695Y0018863D01*
X0194050Y0018534D01*
X0193464Y0018109D01*
X0192952Y0017597D01*
X0192810Y0017401D01*
X0192738Y0017371D01*
X0191461Y0016094D01*
X0190183Y0017371D01*
X0190112Y0017401D01*
X0189969Y0017597D01*
X0189457Y0018109D01*
X0188872Y0018534D01*
X0188226Y0018863D01*
X0187538Y0019087D01*
X0186823Y0019200D01*
X0186497Y0019200D01*
X0186497Y0018372D01*
X0186424Y0018372D01*
X0186424Y0019200D01*
X0186099Y0019200D01*
X0185383Y0019087D01*
X0184695Y0018863D01*
X0184050Y0018534D01*
X0183464Y0018109D01*
X0182952Y0017597D01*
X0182810Y0017401D01*
X0182738Y0017371D01*
X0182080Y0016713D01*
X0181547Y0017999D01*
X0179859Y0019687D01*
X0177654Y0020600D01*
X0175267Y0020600D01*
X0173062Y0019687D01*
X0171461Y0018085D01*
X0170461Y0019384D02*
X0172759Y0019384D01*
X0170461Y0020982D02*
X0200490Y0020982D01*
X0201661Y0019384D02*
X0180162Y0019384D01*
X0181636Y0017785D02*
X0183140Y0017785D01*
X0189781Y0017785D02*
X0193140Y0017785D01*
X0191554Y0016187D02*
X0191368Y0016187D01*
X0199781Y0017785D02*
X0201286Y0017785D01*
X0213032Y0012990D02*
X0219889Y0012990D01*
X0219889Y0011391D02*
X0213032Y0011391D01*
X0212742Y0009793D02*
X0220179Y0009793D01*
X0220461Y0008194D02*
X0212461Y0008194D01*
X0230461Y0019085D02*
X0230461Y0034143D01*
X0232461Y0032143D01*
X0232461Y0019085D01*
X0231461Y0018085D01*
X0230461Y0019085D01*
X0230461Y0019384D02*
X0232461Y0019384D01*
X0232461Y0020982D02*
X0230461Y0020982D01*
X0230461Y0022581D02*
X0232461Y0022581D01*
X0232461Y0024179D02*
X0230461Y0024179D01*
X0230461Y0025778D02*
X0232461Y0025778D01*
X0232461Y0027376D02*
X0230461Y0027376D01*
X0230461Y0028975D02*
X0232461Y0028975D01*
X0232461Y0030573D02*
X0230461Y0030573D01*
X0230461Y0032172D02*
X0232432Y0032172D01*
X0230834Y0033770D02*
X0230461Y0033770D01*
X0231461Y0038800D02*
X0236461Y0033800D01*
X0236461Y0011800D01*
X0241461Y0018085D02*
X0240461Y0019085D01*
X0240461Y0034143D01*
X0242461Y0032143D01*
X0242461Y0019085D01*
X0241461Y0018085D01*
X0240461Y0019384D02*
X0242461Y0019384D01*
X0242461Y0020982D02*
X0240461Y0020982D01*
X0240461Y0022581D02*
X0242461Y0022581D01*
X0242461Y0024179D02*
X0240461Y0024179D01*
X0240461Y0025778D02*
X0242461Y0025778D01*
X0242461Y0027376D02*
X0240461Y0027376D01*
X0240461Y0028975D02*
X0242461Y0028975D01*
X0242461Y0030573D02*
X0240461Y0030573D01*
X0240461Y0032172D02*
X0242432Y0032172D01*
X0240834Y0033770D02*
X0240461Y0033770D01*
X0241461Y0038800D02*
X0246461Y0033800D01*
X0246461Y0011800D01*
X0251461Y0018085D02*
X0250461Y0019085D01*
X0250461Y0034143D01*
X0252461Y0032143D01*
X0252461Y0019085D01*
X0251461Y0018085D01*
X0250461Y0019384D02*
X0252461Y0019384D01*
X0252461Y0020982D02*
X0250461Y0020982D01*
X0250461Y0022581D02*
X0252461Y0022581D01*
X0252461Y0024179D02*
X0250461Y0024179D01*
X0250461Y0025778D02*
X0252461Y0025778D01*
X0252461Y0027376D02*
X0250461Y0027376D01*
X0250461Y0028975D02*
X0252461Y0028975D01*
X0252461Y0030573D02*
X0250461Y0030573D01*
X0250461Y0032172D02*
X0252432Y0032172D01*
X0250834Y0033770D02*
X0250461Y0033770D01*
X0251461Y0038800D02*
X0256461Y0033800D01*
X0256461Y0011800D01*
X0261461Y0018085D02*
X0260461Y0019085D01*
X0260461Y0034596D01*
X0260073Y0035530D01*
X0262461Y0033143D01*
X0262461Y0019085D01*
X0261461Y0018085D01*
X0260461Y0019384D02*
X0262461Y0019384D01*
X0262461Y0020982D02*
X0260461Y0020982D01*
X0260461Y0022581D02*
X0262461Y0022581D01*
X0262461Y0024179D02*
X0260461Y0024179D01*
X0260461Y0025778D02*
X0262461Y0025778D01*
X0262461Y0027376D02*
X0260461Y0027376D01*
X0260461Y0028975D02*
X0262461Y0028975D01*
X0262461Y0030573D02*
X0260461Y0030573D01*
X0260461Y0032172D02*
X0262461Y0032172D01*
X0261834Y0033770D02*
X0260461Y0033770D01*
X0260235Y0035369D02*
X0260140Y0035369D01*
X0257848Y0038070D02*
X0255461Y0040457D01*
X0255461Y0044515D01*
X0256461Y0045515D01*
X0257461Y0044515D01*
X0257461Y0039004D01*
X0257848Y0038070D01*
X0257642Y0038566D02*
X0257352Y0038566D01*
X0257461Y0040164D02*
X0255753Y0040164D01*
X0255461Y0041763D02*
X0257461Y0041763D01*
X0257461Y0043361D02*
X0255461Y0043361D01*
X0255906Y0044960D02*
X0257016Y0044960D01*
X0251461Y0038800D02*
X0251461Y0051800D01*
X0246461Y0045515D02*
X0245461Y0044515D01*
X0245461Y0040457D01*
X0247461Y0038457D01*
X0247461Y0044515D01*
X0246461Y0045515D01*
X0245906Y0044960D02*
X0247016Y0044960D01*
X0247461Y0043361D02*
X0245461Y0043361D01*
X0245461Y0041763D02*
X0247461Y0041763D01*
X0247461Y0040164D02*
X0245753Y0040164D01*
X0247352Y0038566D02*
X0247461Y0038566D01*
X0241461Y0038800D02*
X0241461Y0051800D01*
X0236461Y0045515D02*
X0235461Y0044515D01*
X0235461Y0040457D01*
X0237461Y0038457D01*
X0237461Y0044515D01*
X0236461Y0045515D01*
X0235906Y0044960D02*
X0237016Y0044960D01*
X0237461Y0043361D02*
X0235461Y0043361D01*
X0235461Y0041763D02*
X0237461Y0041763D01*
X0237461Y0040164D02*
X0235753Y0040164D01*
X0237352Y0038566D02*
X0237461Y0038566D01*
X0231461Y0038800D02*
X0231461Y0051800D01*
X0226461Y0045515D02*
X0225461Y0044515D01*
X0225461Y0040457D01*
X0227461Y0038457D01*
X0227461Y0044515D01*
X0226461Y0045515D01*
X0225906Y0044960D02*
X0227016Y0044960D01*
X0227461Y0043361D02*
X0225461Y0043361D01*
X0225461Y0041763D02*
X0227461Y0041763D01*
X0227461Y0040164D02*
X0225753Y0040164D01*
X0227352Y0038566D02*
X0227461Y0038566D01*
X0222432Y0032172D02*
X0177877Y0032172D01*
X0176279Y0033770D02*
X0220834Y0033770D01*
X0197689Y0035369D02*
X0174680Y0035369D01*
X0173082Y0036967D02*
X0196091Y0036967D01*
X0174104Y0022581D02*
X0170461Y0022581D01*
X0170461Y0024179D02*
X0172293Y0024179D01*
X0170695Y0025778D02*
X0170461Y0025778D01*
X0162461Y0025778D02*
X0120168Y0025778D01*
X0120261Y0025554D02*
X0119378Y0027685D01*
X0119263Y0027800D01*
X0161804Y0027800D01*
X0162461Y0027143D01*
X0162461Y0019085D01*
X0161461Y0018085D01*
X0159859Y0019687D01*
X0157654Y0020600D01*
X0155267Y0020600D01*
X0153062Y0019687D01*
X0151461Y0018085D01*
X0149859Y0019687D01*
X0147654Y0020600D01*
X0145267Y0020600D01*
X0143062Y0019687D01*
X0141461Y0018085D01*
X0139859Y0019687D01*
X0137654Y0020600D01*
X0135267Y0020600D01*
X0133062Y0019687D01*
X0131374Y0017999D01*
X0130461Y0015793D01*
X0130461Y0014487D01*
X0129889Y0013107D01*
X0129889Y0010493D01*
X0130461Y0009113D01*
X0130461Y0007807D01*
X0130712Y0007200D01*
X0109923Y0007200D01*
X0110604Y0008220D01*
X0111316Y0011800D01*
X0110735Y0014724D01*
X0111175Y0014283D01*
X0113307Y0013400D01*
X0115614Y0013400D01*
X0117746Y0014283D01*
X0119378Y0015915D01*
X0120261Y0018046D01*
X0120261Y0025554D01*
X0120261Y0024179D02*
X0162461Y0024179D01*
X0162461Y0022581D02*
X0120261Y0022581D01*
X0120261Y0020982D02*
X0162461Y0020982D01*
X0162461Y0019384D02*
X0160162Y0019384D01*
X0152759Y0019384D02*
X0150162Y0019384D01*
X0142759Y0019384D02*
X0140162Y0019384D01*
X0132759Y0019384D02*
X0120261Y0019384D01*
X0120152Y0017785D02*
X0131286Y0017785D01*
X0130623Y0016187D02*
X0119490Y0016187D01*
X0118051Y0014588D02*
X0130461Y0014588D01*
X0129889Y0012990D02*
X0111080Y0012990D01*
X0111235Y0011391D02*
X0129889Y0011391D01*
X0130179Y0009793D02*
X0110917Y0009793D01*
X0110604Y0008220D02*
X0110604Y0008220D01*
X0110587Y0008194D02*
X0130461Y0008194D01*
X0110870Y0014588D02*
X0110762Y0014588D01*
X0119506Y0027376D02*
X0162228Y0027376D01*
X0191154Y0007200D02*
X0191767Y0007200D01*
X0191461Y0007506D01*
X0191154Y0007200D01*
X0266461Y0011800D02*
X0266461Y0034800D01*
X0267461Y0039457D02*
X0265461Y0041457D01*
X0265461Y0044515D01*
X0266461Y0045515D01*
X0267461Y0044515D01*
X0267461Y0039457D01*
X0267461Y0040164D02*
X0266753Y0040164D01*
X0267461Y0041763D02*
X0265461Y0041763D01*
X0265461Y0043361D02*
X0267461Y0043361D01*
X0267016Y0044960D02*
X0265906Y0044960D01*
X0275461Y0044515D02*
X0275461Y0041457D01*
X0277941Y0038977D01*
X0279365Y0040401D01*
X0278817Y0041220D01*
X0278817Y0041220D01*
X0278105Y0044800D01*
X0278702Y0047800D01*
X0277458Y0047800D01*
X0276547Y0045601D01*
X0275461Y0044515D01*
X0275906Y0044960D02*
X0278137Y0044960D01*
X0278105Y0044800D02*
X0278105Y0044800D01*
X0278391Y0043361D02*
X0275461Y0043361D01*
X0275461Y0041763D02*
X0278709Y0041763D01*
X0279128Y0040164D02*
X0276753Y0040164D01*
X0276944Y0046558D02*
X0278455Y0046558D01*
X0286228Y0053910D02*
X0291061Y0058743D01*
X0291061Y0053430D01*
X0291041Y0053443D01*
X0287461Y0054155D01*
X0287461Y0054155D01*
X0286228Y0053910D01*
X0286868Y0054551D02*
X0291061Y0054551D01*
X0291041Y0053443D02*
X0291041Y0053443D01*
X0291061Y0056149D02*
X0288467Y0056149D01*
X0290065Y0057748D02*
X0291061Y0057748D01*
X0277804Y0056800D02*
X0277266Y0056263D01*
X0277044Y0056800D01*
X0277804Y0056800D01*
X0156161Y0144068D02*
X0155523Y0144068D01*
X0155661Y0145666D02*
X0156161Y0145666D01*
X0156161Y0147265D02*
X0155653Y0147265D01*
X0164154Y0193621D02*
X0168767Y0193621D01*
X0166755Y0195220D02*
X0166166Y0195220D01*
X0174154Y0193621D02*
X0178767Y0193621D01*
X0176755Y0195220D02*
X0176166Y0195220D01*
X0184154Y0193621D02*
X0188767Y0193621D01*
X0186755Y0195220D02*
X0186166Y0195220D01*
X0194154Y0193621D02*
X0203767Y0193621D01*
X0201755Y0195220D02*
X0196166Y0195220D01*
X0197051Y0196818D02*
X0200870Y0196818D01*
X0200461Y0198417D02*
X0197461Y0198417D01*
X0197835Y0200015D02*
X0200087Y0200015D01*
X0199889Y0201614D02*
X0198032Y0201614D01*
X0197989Y0203212D02*
X0199933Y0203212D01*
X0200461Y0204811D02*
X0197461Y0204811D01*
X0211166Y0195220D02*
X0211755Y0195220D01*
X0213767Y0193621D02*
X0209154Y0193621D01*
X0219154Y0193621D02*
X0223767Y0193621D01*
X0221755Y0195220D02*
X0221166Y0195220D01*
X0229154Y0193621D02*
X0233767Y0193621D01*
X0231755Y0195220D02*
X0231166Y0195220D01*
X0239154Y0193621D02*
X0243767Y0193621D01*
X0241755Y0195220D02*
X0241166Y0195220D01*
X0249154Y0193621D02*
X0253767Y0193621D01*
X0251755Y0195220D02*
X0251166Y0195220D01*
X0259154Y0193621D02*
X0263767Y0193621D01*
X0261755Y0195220D02*
X0261166Y0195220D01*
X0269154Y0193621D02*
X0273767Y0193621D01*
X0271755Y0195220D02*
X0271166Y0195220D01*
X0281061Y0185629D02*
X0234670Y0185629D01*
X0236887Y0184030D02*
X0281061Y0184030D01*
X0281061Y0182432D02*
X0238486Y0182432D01*
X0240084Y0180833D02*
X0281061Y0180833D01*
X0281061Y0179235D02*
X0241683Y0179235D01*
X0243281Y0177636D02*
X0281061Y0177636D01*
X0281061Y0176038D02*
X0244880Y0176038D01*
X0246478Y0174439D02*
X0281061Y0174439D01*
X0281061Y0172841D02*
X0248077Y0172841D01*
X0249675Y0171242D02*
X0281061Y0171242D01*
X0281061Y0169644D02*
X0251274Y0169644D01*
X0146490Y0195486D02*
X0145461Y0194457D01*
X0145461Y0194515D01*
X0146461Y0195515D01*
X0146490Y0195486D01*
X0146224Y0195220D02*
X0146166Y0195220D01*
X0099085Y0073733D02*
X0090461Y0073733D01*
X0082461Y0062543D02*
X0031861Y0062543D01*
X0031861Y0060945D02*
X0082461Y0060945D01*
X0082461Y0059346D02*
X0031861Y0059346D01*
X0031861Y0057748D02*
X0082461Y0057748D01*
X0082461Y0056149D02*
X0031861Y0056149D01*
X0031861Y0054551D02*
X0082461Y0054551D01*
X0082461Y0052952D02*
X0031861Y0052952D01*
X0031861Y0051354D02*
X0082461Y0051354D01*
X0082461Y0049755D02*
X0031861Y0049755D01*
X0031861Y0048157D02*
X0082461Y0048157D01*
X0082461Y0046558D02*
X0077063Y0046558D01*
X0078662Y0044960D02*
X0082461Y0044960D01*
X0082461Y0043361D02*
X0080260Y0043361D01*
X0081859Y0041763D02*
X0082461Y0041763D01*
D23*
X0086461Y0101800D03*
X0157461Y0174800D03*
X0151461Y0181800D03*
X0134461Y0175300D03*
X0211461Y0139800D03*
D24*
X0106461Y0066800D02*
X0106461Y0051800D01*
X0114461Y0051800D01*
X0114461Y0043800D01*
X0119461Y0038800D01*
X0164461Y0038800D01*
X0176461Y0026800D01*
X0201461Y0026800D01*
X0206461Y0021800D01*
X0206461Y0011800D01*
X0206461Y0016800D01*
X0201461Y0039800D02*
X0201461Y0051800D01*
X0114461Y0021800D02*
X0086161Y0021800D01*
X0071461Y0036500D01*
X0096461Y0039800D02*
X0106461Y0049800D01*
X0106461Y0051800D01*
D25*
X0148461Y0107800D02*
X0148461Y0114800D01*
X0120461Y0127595D02*
X0114256Y0127595D01*
X0109461Y0122800D01*
X0106461Y0122800D01*
X0113107Y0130153D02*
X0109461Y0133800D01*
X0106461Y0133800D01*
X0113107Y0130153D02*
X0120461Y0130153D01*
X0120461Y0135272D02*
X0129933Y0135272D01*
X0132461Y0137800D01*
X0132461Y0150800D01*
X0129711Y0153550D01*
X0128461Y0154800D01*
X0121461Y0154800D01*
X0106461Y0154800D01*
X0120461Y0135272D02*
X0129989Y0135272D01*
D26*
X0132961Y0132800D02*
X0120548Y0132800D01*
X0120461Y0132713D01*
X0114548Y0132713D01*
X0112961Y0134300D01*
X0112961Y0139300D01*
X0114053Y0140392D01*
X0120461Y0140392D01*
X0120461Y0142950D02*
X0097311Y0142950D01*
X0096461Y0143800D01*
X0098461Y0148800D02*
X0067925Y0148800D01*
X0060004Y0156721D01*
X0052130Y0156721D02*
X0052130Y0162469D01*
X0053461Y0163800D01*
X0065461Y0163800D01*
X0069461Y0159800D01*
X0083461Y0159800D01*
X0091461Y0151800D01*
X0100461Y0151800D01*
X0104193Y0148068D01*
X0120461Y0148068D01*
X0120461Y0145508D02*
X0101753Y0145508D01*
X0098461Y0148800D01*
X0129711Y0153550D02*
X0131961Y0151300D01*
X0158461Y0151300D01*
X0159961Y0149800D01*
X0159961Y0126800D01*
X0155638Y0122477D01*
X0148461Y0122477D01*
X0148461Y0125037D02*
X0140198Y0125037D01*
X0137961Y0122800D01*
X0137961Y0105300D01*
X0146961Y0096300D01*
X0187461Y0096300D01*
X0193461Y0102300D01*
X0236961Y0102300D01*
X0240961Y0106300D01*
X0248961Y0106300D01*
X0251961Y0109300D01*
X0251961Y0112300D01*
X0246461Y0117800D01*
X0233461Y0117800D01*
X0231461Y0119800D01*
X0220461Y0119800D01*
X0218461Y0121800D01*
X0218461Y0126800D01*
X0235961Y0106300D02*
X0241461Y0111800D01*
X0235961Y0106300D02*
X0149961Y0106300D01*
X0148461Y0107800D01*
X0148461Y0117360D02*
X0158020Y0117360D01*
X0164461Y0123800D01*
X0164461Y0131800D01*
X0148461Y0130153D02*
X0135607Y0130153D01*
X0132961Y0132800D01*
X0076461Y0110800D02*
X0052461Y0110800D01*
X0131461Y0178300D02*
X0134461Y0175300D01*
X0131461Y0178300D02*
X0131461Y0201800D01*
M02*
