G75*
%MOIN*%
%OFA0B0*%
%FSLAX25Y25*%
%IPPOS*%
%LPD*%
%AMOC8*
5,1,8,0,0,1.08239X$1,22.5*
%
%ADD10C,0.05600*%
%ADD11C,0.06600*%
%ADD12OC8,0.05200*%
%ADD13C,0.05200*%
%ADD14C,0.06600*%
%ADD15C,0.05200*%
%ADD16OC8,0.15748*%
%ADD17C,0.07677*%
%ADD18OC8,0.06600*%
%ADD19C,0.12661*%
%ADD20C,0.01600*%
%ADD21C,0.01400*%
%ADD22C,0.01200*%
%ADD23C,0.07000*%
%ADD24C,0.03200*%
D10*
X0136461Y0009000D02*
X0136461Y0014600D01*
X0146461Y0014600D02*
X0146461Y0009000D01*
X0156461Y0009000D02*
X0156461Y0014600D01*
X0166461Y0014600D02*
X0166461Y0009000D01*
X0176461Y0009000D02*
X0176461Y0014600D01*
X0186461Y0014600D02*
X0186461Y0009000D01*
X0196461Y0009000D02*
X0196461Y0014600D01*
X0206461Y0014600D02*
X0206461Y0009000D01*
X0226461Y0009000D02*
X0226461Y0014600D01*
X0236461Y0014600D02*
X0236461Y0009000D01*
X0246461Y0009000D02*
X0246461Y0014600D01*
X0256461Y0014600D02*
X0256461Y0009000D01*
X0266461Y0009000D02*
X0266461Y0014600D01*
X0276461Y0014600D02*
X0276461Y0009000D01*
X0271461Y0049000D02*
X0271461Y0054600D01*
X0261461Y0054600D02*
X0261461Y0049000D01*
X0251461Y0049000D02*
X0251461Y0054600D01*
X0241461Y0054600D02*
X0241461Y0049000D01*
X0231461Y0049000D02*
X0231461Y0054600D01*
X0221461Y0054600D02*
X0221461Y0049000D01*
X0211461Y0049000D02*
X0211461Y0054600D01*
X0201461Y0054600D02*
X0201461Y0049000D01*
X0191461Y0049000D02*
X0191461Y0054600D01*
X0181461Y0054600D02*
X0181461Y0049000D01*
X0171461Y0049000D02*
X0171461Y0054600D01*
X0161461Y0054600D02*
X0161461Y0049000D01*
X0151461Y0049000D02*
X0151461Y0054600D01*
X0141461Y0054600D02*
X0141461Y0049000D01*
X0141461Y0079000D02*
X0141461Y0084600D01*
X0151461Y0084600D02*
X0151461Y0079000D01*
X0161461Y0079000D02*
X0161461Y0084600D01*
X0171461Y0084600D02*
X0171461Y0079000D01*
X0181461Y0079000D02*
X0181461Y0084600D01*
X0191461Y0084600D02*
X0191461Y0079000D01*
X0201461Y0079000D02*
X0201461Y0084600D01*
X0211461Y0084600D02*
X0211461Y0079000D01*
X0221461Y0079000D02*
X0221461Y0084600D01*
X0231461Y0084600D02*
X0231461Y0079000D01*
X0241461Y0079000D02*
X0241461Y0084600D01*
X0251461Y0084600D02*
X0251461Y0079000D01*
X0261461Y0079000D02*
X0261461Y0084600D01*
X0271461Y0084600D02*
X0271461Y0079000D01*
X0276461Y0199000D02*
X0276461Y0204600D01*
X0266461Y0204600D02*
X0266461Y0199000D01*
X0256461Y0199000D02*
X0256461Y0204600D01*
X0246461Y0204600D02*
X0246461Y0199000D01*
X0236461Y0199000D02*
X0236461Y0204600D01*
X0226461Y0204600D02*
X0226461Y0199000D01*
X0216461Y0199000D02*
X0216461Y0204600D01*
X0206461Y0204600D02*
X0206461Y0199000D01*
X0191461Y0199000D02*
X0191461Y0204600D01*
X0181461Y0204600D02*
X0181461Y0199000D01*
X0171461Y0199000D02*
X0171461Y0204600D01*
X0161461Y0204600D02*
X0161461Y0199000D01*
X0151461Y0199000D02*
X0151461Y0204600D01*
X0141461Y0204600D02*
X0141461Y0199000D01*
X0131461Y0199000D02*
X0131461Y0204600D01*
X0121461Y0204600D02*
X0121461Y0199000D01*
X0111461Y0199000D02*
X0111461Y0204600D01*
X0101461Y0204600D02*
X0101461Y0199000D01*
D11*
X0103161Y0086800D02*
X0109761Y0086800D01*
X0109761Y0076800D02*
X0103161Y0076800D01*
X0103161Y0066800D02*
X0109761Y0066800D01*
D12*
X0106461Y0097800D03*
X0116461Y0097800D03*
X0106461Y0110800D03*
X0106461Y0122800D03*
X0106461Y0133800D03*
X0096461Y0143800D03*
X0086461Y0143800D03*
X0076461Y0133800D03*
X0076461Y0122800D03*
X0076461Y0110800D03*
X0052461Y0110800D03*
X0042461Y0110800D03*
X0076461Y0154800D03*
X0106461Y0154800D03*
X0062461Y0194800D03*
X0062461Y0204800D03*
X0041461Y0204800D03*
X0041461Y0194800D03*
X0164461Y0141800D03*
X0164461Y0131800D03*
X0179461Y0131800D03*
X0193461Y0131800D03*
X0193461Y0141800D03*
X0179461Y0141800D03*
X0218461Y0126800D03*
X0241461Y0111800D03*
X0241461Y0099800D03*
X0211461Y0093800D03*
X0201461Y0093800D03*
X0248461Y0126800D03*
X0271461Y0111800D03*
X0271461Y0099800D03*
X0211461Y0039800D03*
X0201461Y0039800D03*
X0096461Y0031800D03*
D13*
X0096461Y0039800D03*
X0176961Y0116800D03*
X0195961Y0116800D03*
D14*
X0112461Y0165800D03*
X0072461Y0165800D03*
D15*
X0075861Y0177800D02*
X0081061Y0177800D01*
X0105861Y0177800D02*
X0111061Y0177800D01*
X0114461Y0054400D02*
X0114461Y0049200D01*
X0114461Y0024400D02*
X0114461Y0019200D01*
D16*
X0071461Y0036500D03*
X0047861Y0036500D03*
X0059661Y0016800D03*
D17*
X0062661Y0016800D03*
X0056661Y0016800D03*
X0047861Y0033500D03*
X0047861Y0039500D03*
X0071461Y0039500D03*
X0071461Y0033500D03*
D18*
X0060004Y0146879D03*
X0052130Y0146879D03*
X0052130Y0156721D03*
X0060004Y0156721D03*
D19*
X0041461Y0175422D03*
X0041461Y0128178D03*
D20*
X0031861Y0206400D02*
X0031861Y0007200D01*
X0055580Y0007200D01*
X0049987Y0012793D01*
X0049987Y0014520D01*
X0049622Y0015400D01*
X0049622Y0018200D01*
X0049987Y0019080D01*
X0049987Y0020807D01*
X0055654Y0026474D01*
X0059181Y0026474D01*
X0059181Y0023374D01*
X0059661Y0023176D01*
X0060140Y0023374D01*
X0060140Y0026474D01*
X0063668Y0026474D01*
X0069335Y0020807D01*
X0069335Y0019080D01*
X0069699Y0018200D01*
X0069699Y0015400D01*
X0069335Y0014520D01*
X0069335Y0012793D01*
X0063742Y0007200D01*
X0071300Y0007200D01*
X0071118Y0007516D01*
X0070361Y0010339D01*
X0070361Y0013261D01*
X0071118Y0016084D01*
X0072579Y0018615D01*
X0074646Y0020682D01*
X0077176Y0022143D01*
X0079999Y0022899D01*
X0082922Y0022899D01*
X0085745Y0022143D01*
X0088276Y0020682D01*
X0090342Y0018615D01*
X0091803Y0016084D01*
X0092560Y0013261D01*
X0092560Y0010339D01*
X0091803Y0007516D01*
X0091621Y0007200D01*
X0130712Y0007200D01*
X0130461Y0007807D01*
X0130461Y0009113D01*
X0129889Y0010493D01*
X0129889Y0013107D01*
X0130461Y0014487D01*
X0130461Y0015793D01*
X0131374Y0017999D01*
X0133062Y0019687D01*
X0135267Y0020600D01*
X0137654Y0020600D01*
X0139859Y0019687D01*
X0141461Y0018085D01*
X0141661Y0018285D01*
X0141661Y0026000D01*
X0131506Y0026000D01*
X0129742Y0026731D01*
X0118742Y0037731D01*
X0118742Y0037731D01*
X0117391Y0039081D01*
X0116661Y0040845D01*
X0116661Y0043833D01*
X0115614Y0043400D01*
X0113307Y0043400D01*
X0111175Y0044283D01*
X0109544Y0045915D01*
X0108661Y0048046D01*
X0108661Y0055554D01*
X0109544Y0057685D01*
X0111175Y0059317D01*
X0113307Y0060200D01*
X0115614Y0060200D01*
X0116661Y0059767D01*
X0116661Y0079812D01*
X0114472Y0082000D01*
X0114153Y0082000D01*
X0113443Y0081290D01*
X0112688Y0080977D01*
X0113083Y0080690D01*
X0113651Y0080122D01*
X0114123Y0079473D01*
X0114487Y0078758D01*
X0114735Y0077994D01*
X0114861Y0077201D01*
X0114861Y0077100D01*
X0106761Y0077100D01*
X0106761Y0076500D01*
X0114861Y0076500D01*
X0114861Y0076399D01*
X0114735Y0075606D01*
X0114487Y0074842D01*
X0114123Y0074127D01*
X0113651Y0073478D01*
X0113083Y0072910D01*
X0112688Y0072623D01*
X0113443Y0072310D01*
X0115271Y0070482D01*
X0116261Y0068093D01*
X0116261Y0065507D01*
X0115271Y0063118D01*
X0113443Y0061290D01*
X0111054Y0060300D01*
X0101868Y0060300D01*
X0099479Y0061290D01*
X0097650Y0063118D01*
X0096661Y0065507D01*
X0096661Y0068093D01*
X0097650Y0070482D01*
X0099479Y0072310D01*
X0100233Y0072623D01*
X0099838Y0072910D01*
X0099271Y0073478D01*
X0098799Y0074127D01*
X0098434Y0074842D01*
X0098186Y0075606D01*
X0098061Y0076399D01*
X0098061Y0076500D01*
X0106161Y0076500D01*
X0106161Y0077100D01*
X0098061Y0077100D01*
X0098061Y0077201D01*
X0098186Y0077994D01*
X0098434Y0078758D01*
X0098799Y0079473D01*
X0099271Y0080122D01*
X0099838Y0080690D01*
X0100233Y0080977D01*
X0099479Y0081290D01*
X0097650Y0083118D01*
X0096661Y0085507D01*
X0096661Y0088093D01*
X0097650Y0090482D01*
X0099479Y0092310D01*
X0101661Y0093214D01*
X0101661Y0094398D01*
X0100661Y0095398D01*
X0100661Y0100202D01*
X0101661Y0101202D01*
X0101661Y0107398D01*
X0100661Y0108398D01*
X0100661Y0113202D01*
X0104058Y0116600D01*
X0108863Y0116600D01*
X0112261Y0113202D01*
X0112261Y0108398D01*
X0111261Y0107398D01*
X0111261Y0101202D01*
X0112261Y0100202D01*
X0112261Y0099823D01*
X0114638Y0102200D01*
X0116461Y0102200D01*
X0118283Y0102200D01*
X0120861Y0099623D01*
X0120861Y0097800D01*
X0116461Y0097800D01*
X0116461Y0097800D01*
X0120861Y0097800D01*
X0120861Y0095977D01*
X0118283Y0093400D01*
X0116461Y0093400D01*
X0116461Y0097800D01*
X0116461Y0097800D01*
X0116461Y0102200D01*
X0116461Y0097800D01*
X0116461Y0097800D01*
X0116461Y0093400D01*
X0114638Y0093400D01*
X0112261Y0095777D01*
X0112261Y0095398D01*
X0111261Y0094398D01*
X0111261Y0093214D01*
X0113443Y0092310D01*
X0114153Y0091600D01*
X0117415Y0091600D01*
X0119180Y0090869D01*
X0120530Y0089519D01*
X0122461Y0087588D01*
X0122461Y0142596D01*
X0123070Y0144066D01*
X0150070Y0171066D01*
X0151195Y0172191D01*
X0151275Y0172224D01*
X0150761Y0173467D01*
X0150761Y0175100D01*
X0150128Y0175100D01*
X0147665Y0176120D01*
X0145985Y0177800D01*
X0116861Y0177800D01*
X0116861Y0176646D01*
X0115978Y0174515D01*
X0114346Y0172883D01*
X0112214Y0172000D01*
X0104707Y0172000D01*
X0102575Y0172883D01*
X0100944Y0174515D01*
X0100061Y0176646D01*
X0100061Y0178954D01*
X0100944Y0181085D01*
X0102575Y0182717D01*
X0104707Y0183600D01*
X0110004Y0183600D01*
X0106804Y0186800D01*
X0103665Y0186800D01*
X0102195Y0187409D01*
X0099195Y0190409D01*
X0098070Y0191534D01*
X0097461Y0193004D01*
X0097461Y0194515D01*
X0096374Y0195601D01*
X0096092Y0196283D01*
X0095342Y0194985D01*
X0093276Y0192918D01*
X0090745Y0191457D01*
X0087922Y0190701D01*
X0084999Y0190701D01*
X0082176Y0191457D01*
X0079646Y0192918D01*
X0077579Y0194985D01*
X0076118Y0197516D01*
X0075361Y0200339D01*
X0075361Y0203261D01*
X0076118Y0206084D01*
X0076300Y0206400D01*
X0068261Y0206400D01*
X0068261Y0202398D01*
X0065663Y0199800D01*
X0068261Y0197202D01*
X0068261Y0192398D01*
X0066461Y0190598D01*
X0066461Y0180457D01*
X0069852Y0177066D01*
X0070461Y0175596D01*
X0070461Y0172007D01*
X0071168Y0172300D01*
X0073754Y0172300D01*
X0076143Y0171310D01*
X0077971Y0169482D01*
X0078961Y0167093D01*
X0078961Y0164815D01*
X0079767Y0164009D01*
X0080361Y0162576D01*
X0080361Y0159102D01*
X0082261Y0157202D01*
X0082261Y0152398D01*
X0080261Y0150398D01*
X0080261Y0145374D01*
X0082061Y0143574D01*
X0082061Y0143800D01*
X0086460Y0143800D01*
X0086460Y0143800D01*
X0082061Y0143800D01*
X0082061Y0145623D01*
X0084638Y0148200D01*
X0086461Y0148200D01*
X0086461Y0143800D01*
X0086461Y0143800D01*
X0086461Y0139400D01*
X0088283Y0139400D01*
X0090661Y0141777D01*
X0090661Y0141398D01*
X0094058Y0138000D01*
X0098863Y0138000D01*
X0102261Y0141398D01*
X0102261Y0146202D01*
X0098863Y0149600D01*
X0094058Y0149600D01*
X0090661Y0146202D01*
X0090661Y0145823D01*
X0088283Y0148200D01*
X0086461Y0148200D01*
X0086461Y0143800D01*
X0086461Y0143800D01*
X0086461Y0139400D01*
X0086235Y0139400D01*
X0093613Y0132021D01*
X0094682Y0130953D01*
X0095261Y0129556D01*
X0095261Y0108044D01*
X0094682Y0106647D01*
X0092577Y0104542D01*
X0093161Y0103133D01*
X0093161Y0100467D01*
X0092141Y0098005D01*
X0090256Y0096120D01*
X0087793Y0095100D01*
X0085128Y0095100D01*
X0082665Y0096120D01*
X0080781Y0098005D01*
X0079761Y0100467D01*
X0079761Y0103133D01*
X0080781Y0105595D01*
X0082665Y0107480D01*
X0085128Y0108500D01*
X0085787Y0108500D01*
X0087661Y0110374D01*
X0087661Y0127226D01*
X0082261Y0132626D01*
X0082261Y0131398D01*
X0079163Y0128300D01*
X0082261Y0125202D01*
X0082261Y0120398D01*
X0078863Y0117000D01*
X0074058Y0117000D01*
X0072258Y0118800D01*
X0070665Y0118800D01*
X0069195Y0119409D01*
X0064195Y0124409D01*
X0063070Y0125534D01*
X0062461Y0127004D01*
X0062461Y0140379D01*
X0057312Y0140379D01*
X0055077Y0142613D01*
X0054242Y0141779D01*
X0052265Y0141779D01*
X0052265Y0146744D01*
X0051995Y0146744D01*
X0047030Y0146744D01*
X0047030Y0144766D01*
X0050017Y0141779D01*
X0051995Y0141779D01*
X0051995Y0146744D01*
X0051995Y0147014D01*
X0047030Y0147014D01*
X0047030Y0148991D01*
X0048849Y0150810D01*
X0045630Y0154029D01*
X0045630Y0159414D01*
X0049438Y0163221D01*
X0054822Y0163221D01*
X0056067Y0161977D01*
X0057312Y0163221D01*
X0062461Y0163221D01*
X0062461Y0173143D01*
X0060195Y0175409D01*
X0059070Y0176534D01*
X0058461Y0178004D01*
X0058461Y0190598D01*
X0056661Y0192398D01*
X0056661Y0197202D01*
X0059258Y0199800D01*
X0056661Y0202398D01*
X0056661Y0206400D01*
X0047261Y0206400D01*
X0047261Y0202398D01*
X0044663Y0199800D01*
X0047261Y0197202D01*
X0047261Y0192398D01*
X0043863Y0189000D01*
X0039058Y0189000D01*
X0035661Y0192398D01*
X0035661Y0197202D01*
X0038258Y0199800D01*
X0035661Y0202398D01*
X0035661Y0206400D01*
X0031861Y0206400D01*
X0031861Y0204811D02*
X0035661Y0204811D01*
X0035661Y0203212D02*
X0031861Y0203212D01*
X0031861Y0201614D02*
X0036444Y0201614D01*
X0038043Y0200015D02*
X0031861Y0200015D01*
X0031861Y0198417D02*
X0036875Y0198417D01*
X0035661Y0196818D02*
X0031861Y0196818D01*
X0031861Y0195220D02*
X0035661Y0195220D01*
X0035661Y0193621D02*
X0031861Y0193621D01*
X0031861Y0192023D02*
X0036035Y0192023D01*
X0037634Y0190424D02*
X0031861Y0190424D01*
X0031861Y0188826D02*
X0058461Y0188826D01*
X0058461Y0190424D02*
X0045287Y0190424D01*
X0046886Y0192023D02*
X0057035Y0192023D01*
X0056661Y0193621D02*
X0047261Y0193621D01*
X0047261Y0195220D02*
X0056661Y0195220D01*
X0056661Y0196818D02*
X0047261Y0196818D01*
X0046046Y0198417D02*
X0057875Y0198417D01*
X0059043Y0200015D02*
X0044878Y0200015D01*
X0046477Y0201614D02*
X0057444Y0201614D01*
X0056661Y0203212D02*
X0047261Y0203212D01*
X0047261Y0204811D02*
X0056661Y0204811D01*
X0065878Y0200015D02*
X0075448Y0200015D01*
X0075361Y0201614D02*
X0067477Y0201614D01*
X0068261Y0203212D02*
X0075361Y0203212D01*
X0075777Y0204811D02*
X0068261Y0204811D01*
X0067046Y0198417D02*
X0075876Y0198417D01*
X0076520Y0196818D02*
X0068261Y0196818D01*
X0068261Y0195220D02*
X0077443Y0195220D01*
X0078943Y0193621D02*
X0068261Y0193621D01*
X0067886Y0192023D02*
X0081197Y0192023D01*
X0091725Y0192023D02*
X0097867Y0192023D01*
X0097461Y0193621D02*
X0093979Y0193621D01*
X0095478Y0195220D02*
X0096755Y0195220D01*
X0101461Y0193800D02*
X0101461Y0201800D01*
X0106461Y0195515D02*
X0105932Y0194986D01*
X0106117Y0194800D01*
X0107175Y0194800D01*
X0106461Y0195515D01*
X0106755Y0195220D02*
X0106166Y0195220D01*
X0104461Y0190800D02*
X0101461Y0193800D01*
X0099179Y0190424D02*
X0066461Y0190424D01*
X0066461Y0188826D02*
X0100778Y0188826D01*
X0102633Y0187227D02*
X0066461Y0187227D01*
X0066461Y0185629D02*
X0107975Y0185629D01*
X0109573Y0184030D02*
X0066461Y0184030D01*
X0066461Y0182432D02*
X0072290Y0182432D01*
X0072575Y0182717D02*
X0070944Y0181085D01*
X0070061Y0178954D01*
X0070061Y0176646D01*
X0070944Y0174515D01*
X0072575Y0172883D01*
X0074707Y0172000D01*
X0082214Y0172000D01*
X0084346Y0172883D01*
X0085978Y0174515D01*
X0086861Y0176646D01*
X0086861Y0178954D01*
X0085978Y0181085D01*
X0084346Y0182717D01*
X0082214Y0183600D01*
X0074707Y0183600D01*
X0072575Y0182717D01*
X0070839Y0180833D02*
X0066461Y0180833D01*
X0067683Y0179235D02*
X0070177Y0179235D01*
X0070061Y0177636D02*
X0069281Y0177636D01*
X0070278Y0176038D02*
X0070313Y0176038D01*
X0070461Y0174439D02*
X0071019Y0174439D01*
X0070461Y0172841D02*
X0072677Y0172841D01*
X0076211Y0171242D02*
X0150246Y0171242D01*
X0151020Y0172841D02*
X0114244Y0172841D01*
X0113655Y0170774D02*
X0112862Y0170900D01*
X0112761Y0170900D01*
X0112761Y0166100D01*
X0117561Y0166100D01*
X0117561Y0166201D01*
X0117435Y0166994D01*
X0117187Y0167758D01*
X0116823Y0168473D01*
X0116351Y0169122D01*
X0115783Y0169690D01*
X0115134Y0170162D01*
X0114418Y0170526D01*
X0113655Y0170774D01*
X0112761Y0169644D02*
X0112161Y0169644D01*
X0112161Y0170900D02*
X0112059Y0170900D01*
X0111266Y0170774D01*
X0110503Y0170526D01*
X0109788Y0170162D01*
X0109138Y0169690D01*
X0108571Y0169122D01*
X0108099Y0168473D01*
X0107734Y0167758D01*
X0107486Y0166994D01*
X0107361Y0166201D01*
X0107361Y0166100D01*
X0112161Y0166100D01*
X0112161Y0170900D01*
X0109092Y0169644D02*
X0077809Y0169644D01*
X0078566Y0168045D02*
X0107881Y0168045D01*
X0107399Y0166447D02*
X0078961Y0166447D01*
X0078961Y0164848D02*
X0107448Y0164848D01*
X0107486Y0164606D02*
X0107734Y0163842D01*
X0108099Y0163127D01*
X0108571Y0162478D01*
X0109138Y0161910D01*
X0109788Y0161438D01*
X0110503Y0161074D01*
X0111266Y0160826D01*
X0112059Y0160700D01*
X0112161Y0160700D01*
X0112161Y0165500D01*
X0112761Y0165500D01*
X0112761Y0166100D01*
X0112161Y0166100D01*
X0112161Y0165500D01*
X0107361Y0165500D01*
X0107361Y0165399D01*
X0107486Y0164606D01*
X0108036Y0163250D02*
X0080081Y0163250D01*
X0080361Y0161651D02*
X0109494Y0161651D01*
X0108863Y0160600D02*
X0104058Y0160600D01*
X0100661Y0157202D01*
X0100661Y0152398D01*
X0104058Y0149000D01*
X0108863Y0149000D01*
X0112261Y0152398D01*
X0112261Y0157202D01*
X0108863Y0160600D01*
X0109410Y0160053D02*
X0139056Y0160053D01*
X0137458Y0158454D02*
X0111009Y0158454D01*
X0112261Y0156856D02*
X0135859Y0156856D01*
X0134261Y0155257D02*
X0112261Y0155257D01*
X0112261Y0153659D02*
X0132662Y0153659D01*
X0131064Y0152060D02*
X0111923Y0152060D01*
X0110325Y0150462D02*
X0129465Y0150462D01*
X0127867Y0148863D02*
X0099600Y0148863D01*
X0101199Y0147265D02*
X0126268Y0147265D01*
X0124670Y0145666D02*
X0102261Y0145666D01*
X0102261Y0144068D02*
X0123071Y0144068D01*
X0122461Y0142469D02*
X0102261Y0142469D01*
X0101734Y0140870D02*
X0122461Y0140870D01*
X0122461Y0139272D02*
X0109191Y0139272D01*
X0108863Y0139600D02*
X0104058Y0139600D01*
X0100661Y0136202D01*
X0100661Y0131398D01*
X0103758Y0128300D01*
X0100661Y0125202D01*
X0100661Y0120398D01*
X0104058Y0117000D01*
X0108863Y0117000D01*
X0112261Y0120398D01*
X0112261Y0125202D01*
X0109163Y0128300D01*
X0112261Y0131398D01*
X0112261Y0136202D01*
X0108863Y0139600D01*
X0110790Y0137673D02*
X0122461Y0137673D01*
X0122461Y0136075D02*
X0112261Y0136075D01*
X0112261Y0134476D02*
X0122461Y0134476D01*
X0122461Y0132878D02*
X0112261Y0132878D01*
X0112142Y0131279D02*
X0122461Y0131279D01*
X0122461Y0129681D02*
X0110544Y0129681D01*
X0109381Y0128082D02*
X0122461Y0128082D01*
X0122461Y0126484D02*
X0110979Y0126484D01*
X0112261Y0124885D02*
X0122461Y0124885D01*
X0122461Y0123287D02*
X0112261Y0123287D01*
X0112261Y0121688D02*
X0122461Y0121688D01*
X0122461Y0120090D02*
X0111953Y0120090D01*
X0110354Y0118491D02*
X0122461Y0118491D01*
X0122461Y0116893D02*
X0095261Y0116893D01*
X0095261Y0118491D02*
X0102567Y0118491D01*
X0100968Y0120090D02*
X0095261Y0120090D01*
X0095261Y0121688D02*
X0100661Y0121688D01*
X0100661Y0123287D02*
X0095261Y0123287D01*
X0095261Y0124885D02*
X0100661Y0124885D01*
X0101942Y0126484D02*
X0095261Y0126484D01*
X0095261Y0128082D02*
X0103541Y0128082D01*
X0102377Y0129681D02*
X0095209Y0129681D01*
X0094355Y0131279D02*
X0100779Y0131279D01*
X0100661Y0132878D02*
X0092757Y0132878D01*
X0091158Y0134476D02*
X0100661Y0134476D01*
X0100661Y0136075D02*
X0089560Y0136075D01*
X0087961Y0137673D02*
X0102132Y0137673D01*
X0103730Y0139272D02*
X0100135Y0139272D01*
X0092786Y0139272D02*
X0086363Y0139272D01*
X0086461Y0140870D02*
X0086461Y0140870D01*
X0086461Y0142469D02*
X0086461Y0142469D01*
X0086461Y0144068D02*
X0086461Y0144068D01*
X0086461Y0145666D02*
X0086461Y0145666D01*
X0086461Y0147265D02*
X0086461Y0147265D01*
X0089219Y0147265D02*
X0091723Y0147265D01*
X0093321Y0148863D02*
X0080261Y0148863D01*
X0080261Y0147265D02*
X0083703Y0147265D01*
X0082104Y0145666D02*
X0080261Y0145666D01*
X0081567Y0144068D02*
X0082061Y0144068D01*
X0075287Y0139600D02*
X0074058Y0139600D01*
X0070661Y0136202D01*
X0070661Y0131398D01*
X0073758Y0128300D01*
X0072688Y0127230D01*
X0070461Y0129457D01*
X0070461Y0159593D01*
X0071168Y0159300D01*
X0072561Y0159300D01*
X0072561Y0159102D01*
X0070661Y0157202D01*
X0070661Y0152398D01*
X0072661Y0150398D01*
X0072661Y0143044D01*
X0073239Y0141647D01*
X0075287Y0139600D01*
X0073730Y0139272D02*
X0070461Y0139272D01*
X0070461Y0140870D02*
X0074016Y0140870D01*
X0072899Y0142469D02*
X0070461Y0142469D01*
X0070461Y0144068D02*
X0072661Y0144068D01*
X0072661Y0145666D02*
X0070461Y0145666D01*
X0070461Y0147265D02*
X0072661Y0147265D01*
X0072661Y0148863D02*
X0070461Y0148863D01*
X0070461Y0150462D02*
X0072597Y0150462D01*
X0070998Y0152060D02*
X0070461Y0152060D01*
X0070461Y0153659D02*
X0070661Y0153659D01*
X0070661Y0155257D02*
X0070461Y0155257D01*
X0070461Y0156856D02*
X0070661Y0156856D01*
X0070461Y0158454D02*
X0071912Y0158454D01*
X0080361Y0160053D02*
X0103511Y0160053D01*
X0101912Y0158454D02*
X0081009Y0158454D01*
X0082261Y0156856D02*
X0100661Y0156856D01*
X0100661Y0155257D02*
X0082261Y0155257D01*
X0082261Y0153659D02*
X0100661Y0153659D01*
X0100998Y0152060D02*
X0081923Y0152060D01*
X0080325Y0150462D02*
X0102597Y0150462D01*
X0112761Y0160700D02*
X0112862Y0160700D01*
X0113655Y0160826D01*
X0114418Y0161074D01*
X0115134Y0161438D01*
X0115783Y0161910D01*
X0116351Y0162478D01*
X0116823Y0163127D01*
X0117187Y0163842D01*
X0117435Y0164606D01*
X0117561Y0165399D01*
X0117561Y0165500D01*
X0112761Y0165500D01*
X0112761Y0160700D01*
X0112761Y0161651D02*
X0112161Y0161651D01*
X0112161Y0163250D02*
X0112761Y0163250D01*
X0112761Y0164848D02*
X0112161Y0164848D01*
X0112161Y0166447D02*
X0112761Y0166447D01*
X0112761Y0168045D02*
X0112161Y0168045D01*
X0115829Y0169644D02*
X0148647Y0169644D01*
X0147049Y0168045D02*
X0117041Y0168045D01*
X0117522Y0166447D02*
X0145450Y0166447D01*
X0143852Y0164848D02*
X0117473Y0164848D01*
X0116885Y0163250D02*
X0142253Y0163250D01*
X0140655Y0161651D02*
X0115427Y0161651D01*
X0102677Y0172841D02*
X0084244Y0172841D01*
X0085902Y0174439D02*
X0101019Y0174439D01*
X0100313Y0176038D02*
X0086609Y0176038D01*
X0086861Y0177636D02*
X0100061Y0177636D01*
X0100177Y0179235D02*
X0086744Y0179235D01*
X0086082Y0180833D02*
X0100839Y0180833D01*
X0102290Y0182432D02*
X0084631Y0182432D01*
X0066461Y0174800D02*
X0062461Y0178800D01*
X0062461Y0194800D01*
X0058461Y0187227D02*
X0031861Y0187227D01*
X0031861Y0185629D02*
X0058461Y0185629D01*
X0058461Y0184030D02*
X0031861Y0184030D01*
X0031861Y0182432D02*
X0037340Y0182432D01*
X0036934Y0182197D02*
X0036088Y0181548D01*
X0035335Y0180794D01*
X0034686Y0179949D01*
X0034153Y0179026D01*
X0033745Y0178041D01*
X0033469Y0177012D01*
X0033365Y0176222D01*
X0040661Y0176222D01*
X0040661Y0183518D01*
X0039871Y0183414D01*
X0038841Y0183138D01*
X0037857Y0182730D01*
X0036934Y0182197D01*
X0035373Y0180833D02*
X0031861Y0180833D01*
X0031861Y0179235D02*
X0034273Y0179235D01*
X0033636Y0177636D02*
X0031861Y0177636D01*
X0031861Y0176038D02*
X0040661Y0176038D01*
X0040661Y0176222D02*
X0040661Y0174622D01*
X0042261Y0174622D01*
X0042261Y0176222D01*
X0049556Y0176222D01*
X0049452Y0177012D01*
X0049176Y0178041D01*
X0048768Y0179026D01*
X0048236Y0179949D01*
X0047587Y0180794D01*
X0046833Y0181548D01*
X0045987Y0182197D01*
X0045064Y0182730D01*
X0044080Y0183138D01*
X0043050Y0183414D01*
X0042261Y0183518D01*
X0042261Y0176222D01*
X0040661Y0176222D01*
X0040661Y0177636D02*
X0042261Y0177636D01*
X0042261Y0176038D02*
X0059566Y0176038D01*
X0058613Y0177636D02*
X0049285Y0177636D01*
X0048648Y0179235D02*
X0058461Y0179235D01*
X0058461Y0180833D02*
X0047548Y0180833D01*
X0045581Y0182432D02*
X0058461Y0182432D01*
X0061165Y0174439D02*
X0049532Y0174439D01*
X0049556Y0174622D02*
X0042261Y0174622D01*
X0042261Y0167327D01*
X0043050Y0167430D01*
X0044080Y0167706D01*
X0045064Y0168114D01*
X0045987Y0168647D01*
X0046833Y0169296D01*
X0047587Y0170050D01*
X0048236Y0170895D01*
X0048768Y0171818D01*
X0049176Y0172803D01*
X0049452Y0173832D01*
X0049556Y0174622D01*
X0049186Y0172841D02*
X0062461Y0172841D01*
X0062461Y0171242D02*
X0048436Y0171242D01*
X0047181Y0169644D02*
X0062461Y0169644D01*
X0062461Y0168045D02*
X0044898Y0168045D01*
X0042261Y0168045D02*
X0040661Y0168045D01*
X0040661Y0167327D02*
X0040661Y0174622D01*
X0033365Y0174622D01*
X0033469Y0173832D01*
X0033745Y0172803D01*
X0034153Y0171818D01*
X0034686Y0170895D01*
X0035335Y0170050D01*
X0036088Y0169296D01*
X0036934Y0168647D01*
X0037857Y0168114D01*
X0038841Y0167706D01*
X0039871Y0167430D01*
X0040661Y0167327D01*
X0040661Y0169644D02*
X0042261Y0169644D01*
X0042261Y0171242D02*
X0040661Y0171242D01*
X0040661Y0172841D02*
X0042261Y0172841D01*
X0042261Y0174439D02*
X0040661Y0174439D01*
X0040661Y0179235D02*
X0042261Y0179235D01*
X0042261Y0180833D02*
X0040661Y0180833D01*
X0040661Y0182432D02*
X0042261Y0182432D01*
X0033389Y0174439D02*
X0031861Y0174439D01*
X0031861Y0172841D02*
X0033735Y0172841D01*
X0034485Y0171242D02*
X0031861Y0171242D01*
X0031861Y0169644D02*
X0035740Y0169644D01*
X0038023Y0168045D02*
X0031861Y0168045D01*
X0031861Y0166447D02*
X0062461Y0166447D01*
X0062461Y0164848D02*
X0031861Y0164848D01*
X0031861Y0163250D02*
X0062461Y0163250D01*
X0047867Y0161651D02*
X0031861Y0161651D01*
X0031861Y0160053D02*
X0046269Y0160053D01*
X0045630Y0158454D02*
X0031861Y0158454D01*
X0031861Y0156856D02*
X0045630Y0156856D01*
X0045630Y0155257D02*
X0031861Y0155257D01*
X0031861Y0153659D02*
X0046000Y0153659D01*
X0047599Y0152060D02*
X0031861Y0152060D01*
X0031861Y0150462D02*
X0048500Y0150462D01*
X0047030Y0148863D02*
X0031861Y0148863D01*
X0031861Y0147265D02*
X0047030Y0147265D01*
X0047030Y0145666D02*
X0031861Y0145666D01*
X0031861Y0144068D02*
X0047729Y0144068D01*
X0049327Y0142469D02*
X0031861Y0142469D01*
X0031861Y0140870D02*
X0056820Y0140870D01*
X0055221Y0142469D02*
X0054933Y0142469D01*
X0052265Y0142469D02*
X0051995Y0142469D01*
X0051995Y0144068D02*
X0052265Y0144068D01*
X0052265Y0145666D02*
X0051995Y0145666D01*
X0062461Y0139272D02*
X0031861Y0139272D01*
X0031861Y0137673D02*
X0062461Y0137673D01*
X0062461Y0136075D02*
X0043403Y0136075D01*
X0043050Y0136170D02*
X0042261Y0136273D01*
X0042261Y0128978D01*
X0049556Y0128978D01*
X0049452Y0129768D01*
X0049176Y0130797D01*
X0048768Y0131782D01*
X0048236Y0132705D01*
X0047587Y0133550D01*
X0046833Y0134304D01*
X0045987Y0134953D01*
X0045064Y0135486D01*
X0044080Y0135894D01*
X0043050Y0136170D01*
X0042261Y0136075D02*
X0040661Y0136075D01*
X0040661Y0136273D02*
X0039871Y0136170D01*
X0038841Y0135894D01*
X0037857Y0135486D01*
X0036934Y0134953D01*
X0036088Y0134304D01*
X0035335Y0133550D01*
X0034686Y0132705D01*
X0034153Y0131782D01*
X0033745Y0130797D01*
X0033469Y0129768D01*
X0033365Y0128978D01*
X0040661Y0128978D01*
X0040661Y0136273D01*
X0039518Y0136075D02*
X0031861Y0136075D01*
X0031861Y0134476D02*
X0036313Y0134476D01*
X0034819Y0132878D02*
X0031861Y0132878D01*
X0031861Y0131279D02*
X0033945Y0131279D01*
X0033458Y0129681D02*
X0031861Y0129681D01*
X0031861Y0128082D02*
X0040661Y0128082D01*
X0040661Y0127378D02*
X0033365Y0127378D01*
X0033469Y0126588D01*
X0033745Y0125559D01*
X0034153Y0124574D01*
X0034686Y0123651D01*
X0035335Y0122805D01*
X0036088Y0122052D01*
X0036934Y0121403D01*
X0037857Y0120870D01*
X0038841Y0120462D01*
X0039871Y0120186D01*
X0040661Y0120082D01*
X0040661Y0127378D01*
X0042261Y0127378D01*
X0042261Y0128978D01*
X0040661Y0128978D01*
X0040661Y0127378D01*
X0040661Y0126484D02*
X0042261Y0126484D01*
X0042261Y0127378D02*
X0042261Y0120082D01*
X0043050Y0120186D01*
X0044080Y0120462D01*
X0045064Y0120870D01*
X0045987Y0121403D01*
X0046833Y0122052D01*
X0047587Y0122805D01*
X0048236Y0123651D01*
X0048768Y0124574D01*
X0049176Y0125559D01*
X0049452Y0126588D01*
X0049556Y0127378D01*
X0042261Y0127378D01*
X0042261Y0128082D02*
X0062461Y0128082D01*
X0062461Y0129681D02*
X0049464Y0129681D01*
X0048977Y0131279D02*
X0062461Y0131279D01*
X0062461Y0132878D02*
X0048103Y0132878D01*
X0046608Y0134476D02*
X0062461Y0134476D01*
X0066461Y0127800D02*
X0066461Y0174800D01*
X0104461Y0190800D02*
X0108461Y0190800D01*
X0117461Y0181800D01*
X0151461Y0181800D01*
X0148438Y0187800D02*
X0117117Y0187800D01*
X0119117Y0185800D01*
X0145985Y0185800D01*
X0147665Y0187480D01*
X0148438Y0187800D01*
X0147413Y0187227D02*
X0117690Y0187227D01*
X0115461Y0191800D02*
X0154461Y0191800D01*
X0157461Y0188800D01*
X0157461Y0174800D01*
X0150761Y0174439D02*
X0115902Y0174439D01*
X0116609Y0176038D02*
X0147864Y0176038D01*
X0146149Y0177636D02*
X0116861Y0177636D01*
X0115461Y0191800D02*
X0111461Y0195800D01*
X0111461Y0201800D01*
X0126629Y0195800D02*
X0127080Y0196887D01*
X0127738Y0196229D01*
X0127810Y0196199D01*
X0127952Y0196003D01*
X0128155Y0195800D01*
X0126629Y0195800D01*
X0127051Y0196818D02*
X0127149Y0196818D01*
X0134766Y0195800D02*
X0134969Y0196003D01*
X0135112Y0196199D01*
X0135183Y0196229D01*
X0135841Y0196887D01*
X0136292Y0195800D01*
X0134766Y0195800D01*
X0135773Y0196818D02*
X0135870Y0196818D01*
X0156310Y0195364D02*
X0156461Y0195515D01*
X0157461Y0194515D01*
X0157461Y0194457D01*
X0156726Y0195191D01*
X0156310Y0195364D01*
X0156657Y0195220D02*
X0156755Y0195220D01*
X0161461Y0190800D02*
X0161461Y0201800D01*
X0166461Y0195515D02*
X0165461Y0194515D01*
X0165461Y0192457D01*
X0167461Y0190457D01*
X0167461Y0194515D01*
X0166461Y0195515D01*
X0166755Y0195220D02*
X0166166Y0195220D01*
X0165461Y0193621D02*
X0167461Y0193621D01*
X0167461Y0192023D02*
X0165895Y0192023D01*
X0161461Y0190800D02*
X0165461Y0186800D01*
X0165461Y0172800D01*
X0161461Y0168800D01*
X0153461Y0168800D01*
X0126461Y0141800D01*
X0126461Y0047800D01*
X0136461Y0037800D01*
X0157461Y0037800D01*
X0161461Y0041800D01*
X0161461Y0051800D01*
X0166461Y0058085D02*
X0164859Y0059687D01*
X0162654Y0060600D01*
X0160267Y0060600D01*
X0158062Y0059687D01*
X0156461Y0058085D01*
X0154859Y0059687D01*
X0152654Y0060600D01*
X0150267Y0060600D01*
X0148062Y0059687D01*
X0146461Y0058085D01*
X0144859Y0059687D01*
X0142654Y0060600D01*
X0140267Y0060600D01*
X0138461Y0059852D01*
X0138461Y0073748D01*
X0140267Y0073000D01*
X0142654Y0073000D01*
X0144859Y0073913D01*
X0146461Y0075515D01*
X0148062Y0073913D01*
X0150267Y0073000D01*
X0152654Y0073000D01*
X0154859Y0073913D01*
X0156461Y0075515D01*
X0158062Y0073913D01*
X0160267Y0073000D01*
X0162654Y0073000D01*
X0164859Y0073913D01*
X0166461Y0075515D01*
X0168062Y0073913D01*
X0170267Y0073000D01*
X0172654Y0073000D01*
X0174859Y0073913D01*
X0176461Y0075515D01*
X0178062Y0073913D01*
X0180267Y0073000D01*
X0182654Y0073000D01*
X0184859Y0073913D01*
X0186461Y0075515D01*
X0188062Y0073913D01*
X0190267Y0073000D01*
X0192654Y0073000D01*
X0194859Y0073913D01*
X0196547Y0075601D01*
X0197080Y0076887D01*
X0197738Y0076229D01*
X0197810Y0076199D01*
X0197952Y0076003D01*
X0198464Y0075491D01*
X0199050Y0075066D01*
X0199695Y0074737D01*
X0200383Y0074513D01*
X0201099Y0074400D01*
X0201424Y0074400D01*
X0201424Y0075228D01*
X0201497Y0075228D01*
X0201497Y0074400D01*
X0201823Y0074400D01*
X0202538Y0074513D01*
X0203226Y0074737D01*
X0203872Y0075066D01*
X0204457Y0075491D01*
X0204969Y0076003D01*
X0205112Y0076199D01*
X0205183Y0076229D01*
X0205841Y0076887D01*
X0206374Y0075601D01*
X0206661Y0075315D01*
X0206661Y0073788D01*
X0205472Y0072600D01*
X0198506Y0072600D01*
X0196742Y0071869D01*
X0195391Y0070519D01*
X0187391Y0062519D01*
X0186661Y0060755D01*
X0186661Y0058285D01*
X0186461Y0058085D01*
X0184859Y0059687D01*
X0182654Y0060600D01*
X0180267Y0060600D01*
X0178062Y0059687D01*
X0176461Y0058085D01*
X0174859Y0059687D01*
X0172654Y0060600D01*
X0170267Y0060600D01*
X0168062Y0059687D01*
X0166461Y0058085D01*
X0167722Y0059346D02*
X0165199Y0059346D01*
X0157722Y0059346D02*
X0155199Y0059346D01*
X0147722Y0059346D02*
X0145199Y0059346D01*
X0138461Y0060945D02*
X0186739Y0060945D01*
X0186661Y0059346D02*
X0185199Y0059346D01*
X0187416Y0062543D02*
X0138461Y0062543D01*
X0138461Y0064142D02*
X0189014Y0064142D01*
X0190613Y0065740D02*
X0138461Y0065740D01*
X0138461Y0067339D02*
X0192211Y0067339D01*
X0193810Y0068937D02*
X0138461Y0068937D01*
X0138461Y0070536D02*
X0195408Y0070536D01*
X0197382Y0072134D02*
X0138461Y0072134D01*
X0138461Y0073733D02*
X0138498Y0073733D01*
X0144424Y0073733D02*
X0148498Y0073733D01*
X0146644Y0075332D02*
X0146277Y0075332D01*
X0154424Y0073733D02*
X0158498Y0073733D01*
X0156644Y0075332D02*
X0156277Y0075332D01*
X0151461Y0081800D02*
X0151461Y0145800D01*
X0160461Y0154800D01*
X0200461Y0154800D01*
X0206461Y0160800D01*
X0206461Y0201800D01*
X0200461Y0204487D02*
X0200461Y0205793D01*
X0200712Y0206400D01*
X0197209Y0206400D01*
X0197461Y0205793D01*
X0197461Y0204487D01*
X0198032Y0203107D01*
X0198032Y0200493D01*
X0197461Y0199113D01*
X0197461Y0197807D01*
X0196547Y0195601D01*
X0195461Y0194515D01*
X0195461Y0161004D01*
X0194852Y0159534D01*
X0194117Y0158800D01*
X0198804Y0158800D01*
X0202461Y0162457D01*
X0202461Y0194515D01*
X0201374Y0195601D01*
X0200461Y0197807D01*
X0200461Y0199113D01*
X0199889Y0200493D01*
X0199889Y0203107D01*
X0200461Y0204487D01*
X0200461Y0204811D02*
X0197461Y0204811D01*
X0197989Y0203212D02*
X0199933Y0203212D01*
X0199889Y0201614D02*
X0198032Y0201614D01*
X0197835Y0200015D02*
X0200087Y0200015D01*
X0200461Y0198417D02*
X0197461Y0198417D01*
X0197051Y0196818D02*
X0200870Y0196818D01*
X0201755Y0195220D02*
X0196166Y0195220D01*
X0195461Y0193621D02*
X0202461Y0193621D01*
X0202461Y0192023D02*
X0195461Y0192023D01*
X0195461Y0190424D02*
X0202461Y0190424D01*
X0202461Y0188826D02*
X0195461Y0188826D01*
X0195461Y0187227D02*
X0202461Y0187227D01*
X0202461Y0185629D02*
X0195461Y0185629D01*
X0195461Y0184030D02*
X0202461Y0184030D01*
X0202461Y0182432D02*
X0195461Y0182432D01*
X0195461Y0180833D02*
X0202461Y0180833D01*
X0202461Y0179235D02*
X0195461Y0179235D01*
X0195461Y0177636D02*
X0202461Y0177636D01*
X0202461Y0176038D02*
X0195461Y0176038D01*
X0195461Y0174439D02*
X0202461Y0174439D01*
X0202461Y0172841D02*
X0195461Y0172841D01*
X0195461Y0171242D02*
X0202461Y0171242D01*
X0202461Y0169644D02*
X0195461Y0169644D01*
X0195461Y0168045D02*
X0202461Y0168045D01*
X0202461Y0166447D02*
X0195461Y0166447D01*
X0195461Y0164848D02*
X0202461Y0164848D01*
X0202461Y0163250D02*
X0195461Y0163250D01*
X0195461Y0161651D02*
X0201655Y0161651D01*
X0200056Y0160053D02*
X0195066Y0160053D01*
X0191461Y0161800D02*
X0188461Y0158800D01*
X0160461Y0158800D01*
X0141461Y0139800D01*
X0141461Y0081800D01*
X0146461Y0088085D02*
X0145461Y0089085D01*
X0145461Y0138143D01*
X0147461Y0140143D01*
X0147461Y0089085D01*
X0146461Y0088085D01*
X0146495Y0088120D02*
X0146426Y0088120D01*
X0145461Y0089718D02*
X0147461Y0089718D01*
X0147461Y0091317D02*
X0145461Y0091317D01*
X0145461Y0092915D02*
X0147461Y0092915D01*
X0147461Y0094514D02*
X0145461Y0094514D01*
X0145461Y0096112D02*
X0147461Y0096112D01*
X0147461Y0097711D02*
X0145461Y0097711D01*
X0145461Y0099309D02*
X0147461Y0099309D01*
X0147461Y0100908D02*
X0145461Y0100908D01*
X0145461Y0102506D02*
X0147461Y0102506D01*
X0147461Y0104105D02*
X0145461Y0104105D01*
X0145461Y0105703D02*
X0147461Y0105703D01*
X0147461Y0107302D02*
X0145461Y0107302D01*
X0145461Y0108900D02*
X0147461Y0108900D01*
X0147461Y0110499D02*
X0145461Y0110499D01*
X0145461Y0112097D02*
X0147461Y0112097D01*
X0147461Y0113696D02*
X0145461Y0113696D01*
X0145461Y0115294D02*
X0147461Y0115294D01*
X0147461Y0116893D02*
X0145461Y0116893D01*
X0145461Y0118491D02*
X0147461Y0118491D01*
X0147461Y0120090D02*
X0145461Y0120090D01*
X0145461Y0121688D02*
X0147461Y0121688D01*
X0147461Y0123287D02*
X0145461Y0123287D01*
X0145461Y0124885D02*
X0147461Y0124885D01*
X0147461Y0126484D02*
X0145461Y0126484D01*
X0145461Y0128082D02*
X0147461Y0128082D01*
X0147461Y0129681D02*
X0145461Y0129681D01*
X0145461Y0131279D02*
X0147461Y0131279D01*
X0147461Y0132878D02*
X0145461Y0132878D01*
X0145461Y0134476D02*
X0147461Y0134476D01*
X0147461Y0136075D02*
X0145461Y0136075D01*
X0145461Y0137673D02*
X0147461Y0137673D01*
X0147461Y0139272D02*
X0146589Y0139272D01*
X0155461Y0139272D02*
X0155461Y0139272D01*
X0155461Y0140870D02*
X0155461Y0140870D01*
X0155461Y0142469D02*
X0155461Y0142469D01*
X0155461Y0144068D02*
X0155461Y0144068D01*
X0155461Y0144143D02*
X0155461Y0144143D01*
X0155461Y0089085D01*
X0156461Y0088085D01*
X0156990Y0088614D01*
X0156070Y0089534D01*
X0155461Y0091004D01*
X0155461Y0144143D01*
X0159461Y0145800D02*
X0159461Y0091800D01*
X0161461Y0089800D01*
X0161461Y0081800D01*
X0166461Y0088085D02*
X0165461Y0089085D01*
X0165461Y0090596D01*
X0164852Y0092066D01*
X0163726Y0093191D01*
X0163461Y0093457D01*
X0163461Y0126000D01*
X0166863Y0126000D01*
X0167461Y0126598D01*
X0167461Y0089085D01*
X0166461Y0088085D01*
X0166495Y0088120D02*
X0166426Y0088120D01*
X0165461Y0089718D02*
X0167461Y0089718D01*
X0167461Y0091317D02*
X0165162Y0091317D01*
X0164002Y0092915D02*
X0167461Y0092915D01*
X0167461Y0094514D02*
X0163461Y0094514D01*
X0163461Y0096112D02*
X0167461Y0096112D01*
X0167461Y0097711D02*
X0163461Y0097711D01*
X0163461Y0099309D02*
X0167461Y0099309D01*
X0167461Y0100908D02*
X0163461Y0100908D01*
X0163461Y0102506D02*
X0167461Y0102506D01*
X0167461Y0104105D02*
X0163461Y0104105D01*
X0163461Y0105703D02*
X0167461Y0105703D01*
X0167461Y0107302D02*
X0163461Y0107302D01*
X0163461Y0108900D02*
X0167461Y0108900D01*
X0167461Y0110499D02*
X0163461Y0110499D01*
X0163461Y0112097D02*
X0167461Y0112097D01*
X0167461Y0113696D02*
X0163461Y0113696D01*
X0163461Y0115294D02*
X0167461Y0115294D01*
X0167461Y0116893D02*
X0163461Y0116893D01*
X0163461Y0118491D02*
X0167461Y0118491D01*
X0167461Y0120090D02*
X0163461Y0120090D01*
X0163461Y0121688D02*
X0167461Y0121688D01*
X0167461Y0123287D02*
X0163461Y0123287D01*
X0163461Y0124885D02*
X0167461Y0124885D01*
X0167461Y0126484D02*
X0167347Y0126484D01*
X0155461Y0126484D02*
X0155461Y0126484D01*
X0155461Y0128082D02*
X0155461Y0128082D01*
X0155461Y0129681D02*
X0155461Y0129681D01*
X0155461Y0131279D02*
X0155461Y0131279D01*
X0155461Y0132878D02*
X0155461Y0132878D01*
X0155461Y0134476D02*
X0155461Y0134476D01*
X0155461Y0136075D02*
X0155461Y0136075D01*
X0155461Y0137673D02*
X0155461Y0137673D01*
X0159461Y0145800D02*
X0164461Y0150800D01*
X0207461Y0150800D01*
X0216461Y0159800D01*
X0216461Y0201800D01*
X0221461Y0195515D02*
X0220461Y0194515D01*
X0220461Y0161457D01*
X0222461Y0163457D01*
X0222461Y0194515D01*
X0221461Y0195515D01*
X0221755Y0195220D02*
X0221166Y0195220D01*
X0220461Y0193621D02*
X0222461Y0193621D01*
X0222461Y0192023D02*
X0220461Y0192023D01*
X0220461Y0190424D02*
X0222461Y0190424D01*
X0222461Y0188826D02*
X0220461Y0188826D01*
X0220461Y0187227D02*
X0222461Y0187227D01*
X0222461Y0185629D02*
X0220461Y0185629D01*
X0220461Y0184030D02*
X0222461Y0184030D01*
X0222461Y0182432D02*
X0220461Y0182432D01*
X0220461Y0180833D02*
X0222461Y0180833D01*
X0222461Y0179235D02*
X0220461Y0179235D01*
X0220461Y0177636D02*
X0222461Y0177636D01*
X0222461Y0176038D02*
X0220461Y0176038D01*
X0220461Y0174439D02*
X0222461Y0174439D01*
X0222461Y0172841D02*
X0220461Y0172841D01*
X0220461Y0171242D02*
X0222461Y0171242D01*
X0222461Y0169644D02*
X0220461Y0169644D01*
X0220461Y0168045D02*
X0222461Y0168045D01*
X0222461Y0166447D02*
X0220461Y0166447D01*
X0220461Y0164848D02*
X0222461Y0164848D01*
X0222253Y0163250D02*
X0220461Y0163250D01*
X0220461Y0161651D02*
X0220655Y0161651D01*
X0226461Y0161800D02*
X0211461Y0146800D01*
X0175461Y0146800D01*
X0171461Y0142800D01*
X0171461Y0081800D01*
X0171461Y0079800D01*
X0176277Y0075332D02*
X0176644Y0075332D01*
X0178498Y0073733D02*
X0174424Y0073733D01*
X0168498Y0073733D02*
X0164424Y0073733D01*
X0166277Y0075332D02*
X0166644Y0075332D01*
X0176461Y0088085D02*
X0175461Y0089085D01*
X0175461Y0099012D01*
X0176661Y0097812D01*
X0176661Y0088285D01*
X0176461Y0088085D01*
X0176495Y0088120D02*
X0176426Y0088120D01*
X0176661Y0089718D02*
X0175461Y0089718D01*
X0175461Y0091317D02*
X0176661Y0091317D01*
X0176661Y0092915D02*
X0175461Y0092915D01*
X0175461Y0094514D02*
X0176661Y0094514D01*
X0176661Y0096112D02*
X0175461Y0096112D01*
X0175461Y0097711D02*
X0176661Y0097711D01*
X0186261Y0097711D02*
X0186661Y0097711D01*
X0186661Y0099309D02*
X0186261Y0099309D01*
X0186661Y0099755D02*
X0186661Y0088285D01*
X0186461Y0088085D01*
X0186261Y0088285D01*
X0186261Y0100755D01*
X0185530Y0102519D01*
X0181761Y0106288D01*
X0181761Y0113398D01*
X0181878Y0113515D01*
X0182761Y0115646D01*
X0182761Y0117954D01*
X0181878Y0120085D01*
X0181761Y0120202D01*
X0181761Y0126000D01*
X0181863Y0126000D01*
X0185261Y0129398D01*
X0185261Y0134202D01*
X0181863Y0137600D01*
X0181483Y0137600D01*
X0183861Y0139977D01*
X0183861Y0141800D01*
X0183861Y0142800D01*
X0189061Y0142800D01*
X0189061Y0141800D01*
X0189061Y0139977D01*
X0191438Y0137600D01*
X0191058Y0137600D01*
X0187661Y0134202D01*
X0187661Y0129398D01*
X0191058Y0126000D01*
X0191161Y0126000D01*
X0191161Y0120202D01*
X0191044Y0120085D01*
X0190161Y0117954D01*
X0190161Y0115646D01*
X0191044Y0113515D01*
X0191161Y0113398D01*
X0191161Y0105288D01*
X0188742Y0102869D01*
X0188742Y0102869D01*
X0187391Y0101519D01*
X0186661Y0099755D01*
X0186197Y0100908D02*
X0187138Y0100908D01*
X0188379Y0102506D02*
X0185535Y0102506D01*
X0183944Y0104105D02*
X0189977Y0104105D01*
X0191161Y0105703D02*
X0182346Y0105703D01*
X0181761Y0107302D02*
X0191161Y0107302D01*
X0191161Y0108900D02*
X0181761Y0108900D01*
X0181761Y0110499D02*
X0191161Y0110499D01*
X0191161Y0112097D02*
X0181761Y0112097D01*
X0181953Y0113696D02*
X0190969Y0113696D01*
X0190306Y0115294D02*
X0182615Y0115294D01*
X0182761Y0116893D02*
X0190161Y0116893D01*
X0190383Y0118491D02*
X0182538Y0118491D01*
X0181873Y0120090D02*
X0191048Y0120090D01*
X0191161Y0121688D02*
X0181761Y0121688D01*
X0181761Y0123287D02*
X0191161Y0123287D01*
X0191161Y0124885D02*
X0181761Y0124885D01*
X0182347Y0126484D02*
X0190574Y0126484D01*
X0188976Y0128082D02*
X0183945Y0128082D01*
X0185261Y0129681D02*
X0187661Y0129681D01*
X0187661Y0131279D02*
X0185261Y0131279D01*
X0185261Y0132878D02*
X0187661Y0132878D01*
X0187935Y0134476D02*
X0184987Y0134476D01*
X0183388Y0136075D02*
X0189533Y0136075D01*
X0191365Y0137673D02*
X0181557Y0137673D01*
X0183155Y0139272D02*
X0189766Y0139272D01*
X0189061Y0140870D02*
X0183861Y0140870D01*
X0183861Y0141800D02*
X0179461Y0141800D01*
X0183861Y0141800D01*
X0183861Y0142469D02*
X0189061Y0142469D01*
X0189061Y0141800D02*
X0193460Y0141800D01*
X0189061Y0141800D01*
X0193460Y0141800D02*
X0193460Y0141800D01*
X0193461Y0141800D02*
X0197861Y0141800D01*
X0197861Y0142800D01*
X0205451Y0142800D01*
X0204761Y0141133D01*
X0204761Y0138467D01*
X0205781Y0136005D01*
X0207461Y0134325D01*
X0207461Y0117004D01*
X0208070Y0115534D01*
X0209195Y0114409D01*
X0212461Y0111143D01*
X0212461Y0099600D01*
X0209058Y0099600D01*
X0205661Y0096202D01*
X0205661Y0095823D01*
X0203283Y0098200D01*
X0201461Y0098200D01*
X0201461Y0093800D01*
X0201461Y0093800D01*
X0201461Y0089400D01*
X0203283Y0089400D01*
X0205661Y0091777D01*
X0205661Y0091398D01*
X0206661Y0090398D01*
X0206661Y0088285D01*
X0206374Y0087999D01*
X0205841Y0086713D01*
X0205183Y0087371D01*
X0205112Y0087401D01*
X0204969Y0087597D01*
X0204457Y0088109D01*
X0203872Y0088534D01*
X0203226Y0088863D01*
X0202538Y0089087D01*
X0201823Y0089200D01*
X0201497Y0089200D01*
X0201497Y0088372D01*
X0201424Y0088372D01*
X0201424Y0089200D01*
X0201099Y0089200D01*
X0200383Y0089087D01*
X0199695Y0088863D01*
X0199050Y0088534D01*
X0198464Y0088109D01*
X0197952Y0087597D01*
X0197810Y0087401D01*
X0197738Y0087371D01*
X0197080Y0086713D01*
X0196547Y0087999D01*
X0196261Y0088285D01*
X0196261Y0096812D01*
X0198680Y0099231D01*
X0200030Y0100581D01*
X0200761Y0102345D01*
X0200761Y0113398D01*
X0200878Y0113515D01*
X0201761Y0115646D01*
X0201761Y0117954D01*
X0200878Y0120085D01*
X0200761Y0120202D01*
X0200761Y0130255D01*
X0200030Y0132019D01*
X0199261Y0132788D01*
X0199261Y0134202D01*
X0195863Y0137600D01*
X0195483Y0137600D01*
X0197861Y0139977D01*
X0197861Y0141800D01*
X0193461Y0141800D01*
X0193461Y0141800D01*
X0197861Y0142469D02*
X0205314Y0142469D01*
X0204761Y0140870D02*
X0197861Y0140870D01*
X0197155Y0139272D02*
X0204761Y0139272D01*
X0205089Y0137673D02*
X0195557Y0137673D01*
X0197388Y0136075D02*
X0205752Y0136075D01*
X0207309Y0134476D02*
X0198987Y0134476D01*
X0199261Y0132878D02*
X0207461Y0132878D01*
X0207461Y0131279D02*
X0200336Y0131279D01*
X0200761Y0129681D02*
X0207461Y0129681D01*
X0207461Y0128082D02*
X0200761Y0128082D01*
X0200761Y0126484D02*
X0207461Y0126484D01*
X0207461Y0124885D02*
X0200761Y0124885D01*
X0200761Y0123287D02*
X0207461Y0123287D01*
X0207461Y0121688D02*
X0200761Y0121688D01*
X0200873Y0120090D02*
X0207461Y0120090D01*
X0207461Y0118491D02*
X0201538Y0118491D01*
X0201761Y0116893D02*
X0207507Y0116893D01*
X0208309Y0115294D02*
X0201615Y0115294D01*
X0200953Y0113696D02*
X0209908Y0113696D01*
X0211506Y0112097D02*
X0200761Y0112097D01*
X0200761Y0110499D02*
X0212461Y0110499D01*
X0212461Y0108900D02*
X0200761Y0108900D01*
X0200761Y0107302D02*
X0212461Y0107302D01*
X0212461Y0105703D02*
X0200761Y0105703D01*
X0200761Y0104105D02*
X0212461Y0104105D01*
X0212461Y0102506D02*
X0200761Y0102506D01*
X0200165Y0100908D02*
X0212461Y0100908D01*
X0208767Y0099309D02*
X0198758Y0099309D01*
X0198680Y0099231D02*
X0198680Y0099231D01*
X0199638Y0098200D02*
X0197061Y0095623D01*
X0197061Y0093800D01*
X0197061Y0091977D01*
X0199638Y0089400D01*
X0201461Y0089400D01*
X0201461Y0093800D01*
X0201461Y0093800D01*
X0201461Y0081800D01*
X0204442Y0088120D02*
X0206495Y0088120D01*
X0206661Y0089718D02*
X0203601Y0089718D01*
X0201461Y0089718D02*
X0201461Y0089718D01*
X0201461Y0091317D02*
X0201461Y0091317D01*
X0201461Y0092915D02*
X0201461Y0092915D01*
X0201460Y0093800D02*
X0197061Y0093800D01*
X0201460Y0093800D01*
X0201460Y0093800D01*
X0201461Y0093800D02*
X0201461Y0098200D01*
X0199638Y0098200D01*
X0199149Y0097711D02*
X0197160Y0097711D01*
X0197550Y0096112D02*
X0196261Y0096112D01*
X0196261Y0094514D02*
X0197061Y0094514D01*
X0197061Y0092915D02*
X0196261Y0092915D01*
X0196261Y0091317D02*
X0197721Y0091317D01*
X0196261Y0089718D02*
X0199320Y0089718D01*
X0198479Y0088120D02*
X0196426Y0088120D01*
X0201461Y0094514D02*
X0201461Y0094514D01*
X0201461Y0096112D02*
X0201461Y0096112D01*
X0201461Y0097711D02*
X0201461Y0097711D01*
X0203772Y0097711D02*
X0207169Y0097711D01*
X0205661Y0096112D02*
X0205371Y0096112D01*
X0205200Y0091317D02*
X0205742Y0091317D01*
X0221461Y0099800D02*
X0221461Y0081800D01*
X0226461Y0075515D02*
X0228062Y0073913D01*
X0230267Y0073000D01*
X0232654Y0073000D01*
X0234859Y0073913D01*
X0236461Y0075515D01*
X0238062Y0073913D01*
X0240267Y0073000D01*
X0242654Y0073000D01*
X0244859Y0073913D01*
X0246461Y0075515D01*
X0248062Y0073913D01*
X0250267Y0073000D01*
X0252654Y0073000D01*
X0254859Y0073913D01*
X0256461Y0075515D01*
X0258062Y0073913D01*
X0260267Y0073000D01*
X0262654Y0073000D01*
X0264859Y0073913D01*
X0266461Y0075515D01*
X0268062Y0073913D01*
X0270267Y0073000D01*
X0272654Y0073000D01*
X0274233Y0073654D01*
X0279661Y0068226D01*
X0279661Y0051374D01*
X0277504Y0049217D01*
X0278032Y0050493D01*
X0278032Y0053107D01*
X0277461Y0054487D01*
X0277461Y0055793D01*
X0276547Y0057999D01*
X0274859Y0059687D01*
X0272654Y0060600D01*
X0270267Y0060600D01*
X0268062Y0059687D01*
X0266461Y0058085D01*
X0264859Y0059687D01*
X0262654Y0060600D01*
X0260267Y0060600D01*
X0258062Y0059687D01*
X0256461Y0058085D01*
X0254859Y0059687D01*
X0252654Y0060600D01*
X0250267Y0060600D01*
X0248062Y0059687D01*
X0246461Y0058085D01*
X0244859Y0059687D01*
X0242654Y0060600D01*
X0240267Y0060600D01*
X0238062Y0059687D01*
X0236461Y0058085D01*
X0234859Y0059687D01*
X0232654Y0060600D01*
X0230267Y0060600D01*
X0228062Y0059687D01*
X0226461Y0058085D01*
X0224859Y0059687D01*
X0222654Y0060600D01*
X0220267Y0060600D01*
X0218062Y0059687D01*
X0216374Y0057999D01*
X0215841Y0056713D01*
X0215183Y0057371D01*
X0215112Y0057401D01*
X0214969Y0057597D01*
X0214457Y0058109D01*
X0213872Y0058534D01*
X0213308Y0058821D01*
X0214726Y0059409D01*
X0218726Y0063409D01*
X0219852Y0064534D01*
X0220461Y0066004D01*
X0220461Y0073000D01*
X0222654Y0073000D01*
X0224859Y0073913D01*
X0226461Y0075515D01*
X0226644Y0075332D02*
X0226277Y0075332D01*
X0224424Y0073733D02*
X0228498Y0073733D01*
X0234424Y0073733D02*
X0238498Y0073733D01*
X0236644Y0075332D02*
X0236277Y0075332D01*
X0244424Y0073733D02*
X0248498Y0073733D01*
X0246644Y0075332D02*
X0246277Y0075332D01*
X0241461Y0081800D02*
X0241461Y0090800D01*
X0236461Y0095800D01*
X0236461Y0147800D01*
X0256461Y0167800D01*
X0256461Y0201800D01*
X0261461Y0195515D02*
X0262461Y0194515D01*
X0262461Y0163457D01*
X0248070Y0149066D01*
X0247461Y0147596D01*
X0247461Y0132600D01*
X0246058Y0132600D01*
X0242661Y0129202D01*
X0242661Y0124398D01*
X0246058Y0121000D01*
X0247461Y0121000D01*
X0247461Y0089085D01*
X0246461Y0088085D01*
X0245461Y0089085D01*
X0245461Y0091596D01*
X0244852Y0093066D01*
X0243890Y0094027D01*
X0247261Y0097398D01*
X0247261Y0102202D01*
X0243863Y0105600D01*
X0240461Y0105600D01*
X0240461Y0106000D01*
X0243863Y0106000D01*
X0247261Y0109398D01*
X0247261Y0114202D01*
X0243863Y0117600D01*
X0240461Y0117600D01*
X0240461Y0146143D01*
X0259852Y0165534D01*
X0260461Y0167004D01*
X0260461Y0194515D01*
X0261461Y0195515D01*
X0261755Y0195220D02*
X0261166Y0195220D01*
X0260461Y0193621D02*
X0262461Y0193621D01*
X0262461Y0192023D02*
X0260461Y0192023D01*
X0260461Y0190424D02*
X0262461Y0190424D01*
X0262461Y0188826D02*
X0260461Y0188826D01*
X0260461Y0187227D02*
X0262461Y0187227D01*
X0262461Y0185629D02*
X0260461Y0185629D01*
X0260461Y0184030D02*
X0262461Y0184030D01*
X0262461Y0182432D02*
X0260461Y0182432D01*
X0260461Y0180833D02*
X0262461Y0180833D01*
X0262461Y0179235D02*
X0260461Y0179235D01*
X0260461Y0177636D02*
X0262461Y0177636D01*
X0262461Y0176038D02*
X0260461Y0176038D01*
X0260461Y0174439D02*
X0262461Y0174439D01*
X0262461Y0172841D02*
X0260461Y0172841D01*
X0260461Y0171242D02*
X0262461Y0171242D01*
X0262461Y0169644D02*
X0260461Y0169644D01*
X0260461Y0168045D02*
X0262461Y0168045D01*
X0262461Y0166447D02*
X0260230Y0166447D01*
X0259166Y0164848D02*
X0262461Y0164848D01*
X0262253Y0163250D02*
X0257567Y0163250D01*
X0255969Y0161651D02*
X0260655Y0161651D01*
X0259056Y0160053D02*
X0254370Y0160053D01*
X0252772Y0158454D02*
X0257458Y0158454D01*
X0255859Y0156856D02*
X0251173Y0156856D01*
X0249575Y0155257D02*
X0254261Y0155257D01*
X0252662Y0153659D02*
X0247976Y0153659D01*
X0246378Y0152060D02*
X0251064Y0152060D01*
X0249465Y0150462D02*
X0244779Y0150462D01*
X0243181Y0148863D02*
X0247986Y0148863D01*
X0247461Y0147265D02*
X0241582Y0147265D01*
X0240461Y0145666D02*
X0247461Y0145666D01*
X0247461Y0144068D02*
X0240461Y0144068D01*
X0240461Y0142469D02*
X0247461Y0142469D01*
X0247461Y0140870D02*
X0240461Y0140870D01*
X0240461Y0139272D02*
X0247461Y0139272D01*
X0247461Y0137673D02*
X0240461Y0137673D01*
X0240461Y0136075D02*
X0247461Y0136075D01*
X0247461Y0134476D02*
X0240461Y0134476D01*
X0240461Y0132878D02*
X0247461Y0132878D01*
X0244738Y0131279D02*
X0240461Y0131279D01*
X0240461Y0129681D02*
X0243139Y0129681D01*
X0242661Y0128082D02*
X0240461Y0128082D01*
X0240461Y0126484D02*
X0242661Y0126484D01*
X0242661Y0124885D02*
X0240461Y0124885D01*
X0240461Y0123287D02*
X0243771Y0123287D01*
X0245370Y0121688D02*
X0240461Y0121688D01*
X0240461Y0120090D02*
X0247461Y0120090D01*
X0247461Y0118491D02*
X0240461Y0118491D01*
X0244570Y0116893D02*
X0247461Y0116893D01*
X0247461Y0115294D02*
X0246169Y0115294D01*
X0247261Y0113696D02*
X0247461Y0113696D01*
X0247461Y0112097D02*
X0247261Y0112097D01*
X0247261Y0110499D02*
X0247461Y0110499D01*
X0247461Y0108900D02*
X0246763Y0108900D01*
X0247461Y0107302D02*
X0245165Y0107302D01*
X0247461Y0105703D02*
X0240461Y0105703D01*
X0245358Y0104105D02*
X0247461Y0104105D01*
X0247461Y0102506D02*
X0246957Y0102506D01*
X0247261Y0100908D02*
X0247461Y0100908D01*
X0247461Y0099309D02*
X0247261Y0099309D01*
X0247261Y0097711D02*
X0247461Y0097711D01*
X0247461Y0096112D02*
X0245975Y0096112D01*
X0247461Y0094514D02*
X0244377Y0094514D01*
X0244914Y0092915D02*
X0247461Y0092915D01*
X0247461Y0091317D02*
X0245461Y0091317D01*
X0245461Y0089718D02*
X0247461Y0089718D01*
X0246495Y0088120D02*
X0246426Y0088120D01*
X0251461Y0081800D02*
X0251461Y0126800D01*
X0248461Y0126800D01*
X0251461Y0126800D02*
X0251461Y0146800D01*
X0266461Y0161800D01*
X0266461Y0201800D01*
X0271461Y0195515D02*
X0270461Y0194515D01*
X0270461Y0161004D01*
X0269852Y0159534D01*
X0268726Y0158409D01*
X0255461Y0145143D01*
X0255461Y0089085D01*
X0256461Y0088085D01*
X0258062Y0089687D01*
X0258561Y0089893D01*
X0258561Y0103576D01*
X0259154Y0105009D01*
X0265661Y0111515D01*
X0265661Y0114202D01*
X0267461Y0116002D01*
X0267461Y0155596D01*
X0268070Y0157066D01*
X0272461Y0161457D01*
X0272461Y0194515D01*
X0271461Y0195515D01*
X0271755Y0195220D02*
X0271166Y0195220D01*
X0270461Y0193621D02*
X0272461Y0193621D01*
X0272461Y0192023D02*
X0270461Y0192023D01*
X0270461Y0190424D02*
X0272461Y0190424D01*
X0272461Y0188826D02*
X0270461Y0188826D01*
X0270461Y0187227D02*
X0272461Y0187227D01*
X0272461Y0185629D02*
X0270461Y0185629D01*
X0270461Y0184030D02*
X0272461Y0184030D01*
X0272461Y0182432D02*
X0270461Y0182432D01*
X0270461Y0180833D02*
X0272461Y0180833D01*
X0272461Y0179235D02*
X0270461Y0179235D01*
X0270461Y0177636D02*
X0272461Y0177636D01*
X0272461Y0176038D02*
X0270461Y0176038D01*
X0270461Y0174439D02*
X0272461Y0174439D01*
X0272461Y0172841D02*
X0270461Y0172841D01*
X0270461Y0171242D02*
X0272461Y0171242D01*
X0272461Y0169644D02*
X0270461Y0169644D01*
X0270461Y0168045D02*
X0272461Y0168045D01*
X0272461Y0166447D02*
X0270461Y0166447D01*
X0270461Y0164848D02*
X0272461Y0164848D01*
X0272461Y0163250D02*
X0270461Y0163250D01*
X0270461Y0161651D02*
X0272461Y0161651D01*
X0271056Y0160053D02*
X0270066Y0160053D01*
X0269458Y0158454D02*
X0268772Y0158454D01*
X0267983Y0156856D02*
X0267173Y0156856D01*
X0267461Y0155257D02*
X0265575Y0155257D01*
X0263976Y0153659D02*
X0267461Y0153659D01*
X0267461Y0152060D02*
X0262378Y0152060D01*
X0260779Y0150462D02*
X0267461Y0150462D01*
X0267461Y0148863D02*
X0259181Y0148863D01*
X0257582Y0147265D02*
X0267461Y0147265D01*
X0267461Y0145666D02*
X0255984Y0145666D01*
X0255461Y0144068D02*
X0267461Y0144068D01*
X0267461Y0142469D02*
X0255461Y0142469D01*
X0255461Y0140870D02*
X0267461Y0140870D01*
X0267461Y0139272D02*
X0255461Y0139272D01*
X0255461Y0137673D02*
X0267461Y0137673D01*
X0267461Y0136075D02*
X0255461Y0136075D01*
X0255461Y0134476D02*
X0267461Y0134476D01*
X0267461Y0132878D02*
X0255461Y0132878D01*
X0255461Y0131279D02*
X0267461Y0131279D01*
X0267461Y0129681D02*
X0255461Y0129681D01*
X0255461Y0128082D02*
X0267461Y0128082D01*
X0267461Y0126484D02*
X0255461Y0126484D01*
X0255461Y0124885D02*
X0267461Y0124885D01*
X0267461Y0123287D02*
X0255461Y0123287D01*
X0255461Y0121688D02*
X0267461Y0121688D01*
X0267461Y0120090D02*
X0255461Y0120090D01*
X0255461Y0118491D02*
X0267461Y0118491D01*
X0267461Y0116893D02*
X0255461Y0116893D01*
X0255461Y0115294D02*
X0266753Y0115294D01*
X0265661Y0113696D02*
X0255461Y0113696D01*
X0255461Y0112097D02*
X0265661Y0112097D01*
X0264644Y0110499D02*
X0255461Y0110499D01*
X0255461Y0108900D02*
X0263045Y0108900D01*
X0261447Y0107302D02*
X0255461Y0107302D01*
X0255461Y0105703D02*
X0259848Y0105703D01*
X0258780Y0104105D02*
X0255461Y0104105D01*
X0255461Y0102506D02*
X0258561Y0102506D01*
X0258561Y0100908D02*
X0255461Y0100908D01*
X0255461Y0099309D02*
X0258561Y0099309D01*
X0258561Y0097711D02*
X0255461Y0097711D01*
X0255461Y0096112D02*
X0258561Y0096112D01*
X0258561Y0094514D02*
X0255461Y0094514D01*
X0255461Y0092915D02*
X0258561Y0092915D01*
X0258561Y0091317D02*
X0255461Y0091317D01*
X0255461Y0089718D02*
X0258138Y0089718D01*
X0256495Y0088120D02*
X0256426Y0088120D01*
X0266361Y0088185D02*
X0266361Y0096698D01*
X0267561Y0095498D01*
X0267561Y0089185D01*
X0266461Y0088085D01*
X0266361Y0088185D01*
X0266426Y0088120D02*
X0266495Y0088120D01*
X0266361Y0089718D02*
X0267561Y0089718D01*
X0267561Y0091317D02*
X0266361Y0091317D01*
X0266361Y0092915D02*
X0267561Y0092915D01*
X0267561Y0094514D02*
X0266361Y0094514D01*
X0266361Y0096112D02*
X0266946Y0096112D01*
X0275361Y0095498D02*
X0275361Y0089185D01*
X0276547Y0087999D01*
X0277461Y0085793D01*
X0277461Y0084487D01*
X0278032Y0083107D01*
X0278032Y0080602D01*
X0286682Y0071953D01*
X0287261Y0070556D01*
X0287261Y0049044D01*
X0286682Y0047647D01*
X0285613Y0046579D01*
X0279813Y0040778D01*
X0282176Y0042143D01*
X0284999Y0042899D01*
X0287922Y0042899D01*
X0290745Y0042143D01*
X0291061Y0041960D01*
X0291061Y0131640D01*
X0290745Y0131457D01*
X0287922Y0130701D01*
X0284999Y0130701D01*
X0282176Y0131457D01*
X0279646Y0132918D01*
X0277579Y0134985D01*
X0276118Y0137516D01*
X0275461Y0139969D01*
X0275461Y0116002D01*
X0277261Y0114202D01*
X0277261Y0109398D01*
X0273863Y0106000D01*
X0271176Y0106000D01*
X0270776Y0105600D01*
X0273863Y0105600D01*
X0277261Y0102202D01*
X0277261Y0097398D01*
X0275361Y0095498D01*
X0275975Y0096112D02*
X0291061Y0096112D01*
X0291061Y0094514D02*
X0275361Y0094514D01*
X0275361Y0092915D02*
X0291061Y0092915D01*
X0291061Y0091317D02*
X0275361Y0091317D01*
X0275361Y0089718D02*
X0291061Y0089718D01*
X0291061Y0088120D02*
X0276426Y0088120D01*
X0277159Y0086521D02*
X0291061Y0086521D01*
X0291061Y0084923D02*
X0277461Y0084923D01*
X0277942Y0083324D02*
X0291061Y0083324D01*
X0291061Y0081726D02*
X0278032Y0081726D01*
X0278508Y0080127D02*
X0291061Y0080127D01*
X0291061Y0078529D02*
X0280106Y0078529D01*
X0281705Y0076930D02*
X0291061Y0076930D01*
X0291061Y0075332D02*
X0283303Y0075332D01*
X0284902Y0073733D02*
X0291061Y0073733D01*
X0291061Y0072134D02*
X0286500Y0072134D01*
X0287261Y0070536D02*
X0291061Y0070536D01*
X0291061Y0068937D02*
X0287261Y0068937D01*
X0287261Y0067339D02*
X0291061Y0067339D01*
X0291061Y0065740D02*
X0287261Y0065740D01*
X0287261Y0064142D02*
X0291061Y0064142D01*
X0291061Y0062543D02*
X0287261Y0062543D01*
X0287261Y0060945D02*
X0291061Y0060945D01*
X0291061Y0059346D02*
X0287261Y0059346D01*
X0287261Y0057748D02*
X0291061Y0057748D01*
X0291061Y0056149D02*
X0287261Y0056149D01*
X0287261Y0054551D02*
X0291061Y0054551D01*
X0291061Y0052952D02*
X0287261Y0052952D01*
X0287261Y0051354D02*
X0291061Y0051354D01*
X0291061Y0049755D02*
X0287261Y0049755D01*
X0286893Y0048157D02*
X0291061Y0048157D01*
X0291061Y0046558D02*
X0285593Y0046558D01*
X0283994Y0044960D02*
X0291061Y0044960D01*
X0291061Y0043361D02*
X0282396Y0043361D01*
X0281518Y0041763D02*
X0280797Y0041763D01*
X0277483Y0038448D02*
X0276118Y0036084D01*
X0275361Y0033261D01*
X0275361Y0030339D01*
X0276118Y0027516D01*
X0277579Y0024985D01*
X0279646Y0022918D01*
X0282176Y0021457D01*
X0284999Y0020701D01*
X0287725Y0020701D01*
X0282461Y0015437D01*
X0282461Y0015793D01*
X0281547Y0017999D01*
X0279859Y0019687D01*
X0277654Y0020600D01*
X0275267Y0020600D01*
X0273062Y0019687D01*
X0271461Y0018085D01*
X0269859Y0019687D01*
X0267654Y0020600D01*
X0265267Y0020600D01*
X0263062Y0019687D01*
X0261461Y0018085D01*
X0259859Y0019687D01*
X0257654Y0020600D01*
X0255267Y0020600D01*
X0253062Y0019687D01*
X0251461Y0018085D01*
X0249859Y0019687D01*
X0247654Y0020600D01*
X0245267Y0020600D01*
X0243062Y0019687D01*
X0241461Y0018085D01*
X0239859Y0019687D01*
X0237654Y0020600D01*
X0235267Y0020600D01*
X0233062Y0019687D01*
X0231461Y0018085D01*
X0229859Y0019687D01*
X0227654Y0020600D01*
X0225267Y0020600D01*
X0223062Y0019687D01*
X0221374Y0017999D01*
X0221261Y0017725D01*
X0221261Y0026226D01*
X0230035Y0035000D01*
X0273216Y0035000D01*
X0274613Y0035579D01*
X0277483Y0038448D01*
X0276628Y0036967D02*
X0276002Y0036967D01*
X0275926Y0035369D02*
X0274107Y0035369D01*
X0275498Y0033770D02*
X0228805Y0033770D01*
X0227206Y0032172D02*
X0275361Y0032172D01*
X0275361Y0030573D02*
X0225608Y0030573D01*
X0224009Y0028975D02*
X0275727Y0028975D01*
X0276198Y0027376D02*
X0222411Y0027376D01*
X0221261Y0025778D02*
X0277121Y0025778D01*
X0278385Y0024179D02*
X0221261Y0024179D01*
X0221261Y0022581D02*
X0280231Y0022581D01*
X0280162Y0019384D02*
X0286408Y0019384D01*
X0284809Y0017785D02*
X0281636Y0017785D01*
X0282298Y0016187D02*
X0283210Y0016187D01*
X0283949Y0020982D02*
X0221261Y0020982D01*
X0221261Y0019384D02*
X0222759Y0019384D01*
X0221286Y0017785D02*
X0221261Y0017785D01*
X0213661Y0017785D02*
X0211636Y0017785D01*
X0211547Y0017999D02*
X0209859Y0019687D01*
X0207654Y0020600D01*
X0205267Y0020600D01*
X0203062Y0019687D01*
X0201374Y0017999D01*
X0200841Y0016713D01*
X0200183Y0017371D01*
X0200112Y0017401D01*
X0199969Y0017597D01*
X0199457Y0018109D01*
X0198872Y0018534D01*
X0198226Y0018863D01*
X0197538Y0019087D01*
X0196823Y0019200D01*
X0196497Y0019200D01*
X0196497Y0018372D01*
X0196424Y0018372D01*
X0196424Y0019200D01*
X0196099Y0019200D01*
X0195383Y0019087D01*
X0194695Y0018863D01*
X0194050Y0018534D01*
X0193464Y0018109D01*
X0192952Y0017597D01*
X0192810Y0017401D01*
X0192738Y0017371D01*
X0191461Y0016094D01*
X0190183Y0017371D01*
X0190112Y0017401D01*
X0189969Y0017597D01*
X0189457Y0018109D01*
X0188872Y0018534D01*
X0188226Y0018863D01*
X0187538Y0019087D01*
X0186823Y0019200D01*
X0186497Y0019200D01*
X0186497Y0018372D01*
X0186424Y0018372D01*
X0186424Y0019200D01*
X0186099Y0019200D01*
X0185383Y0019087D01*
X0184695Y0018863D01*
X0184050Y0018534D01*
X0183464Y0018109D01*
X0182952Y0017597D01*
X0182810Y0017401D01*
X0182738Y0017371D01*
X0182080Y0016713D01*
X0181547Y0017999D01*
X0181261Y0018285D01*
X0181261Y0029845D01*
X0181261Y0031812D01*
X0185449Y0036000D01*
X0188415Y0036000D01*
X0190180Y0036731D01*
X0195530Y0042081D01*
X0196261Y0043845D01*
X0196261Y0045315D01*
X0196461Y0045515D01*
X0197717Y0044259D01*
X0195661Y0042202D01*
X0195661Y0037398D01*
X0199058Y0034000D01*
X0203863Y0034000D01*
X0207261Y0037398D01*
X0207261Y0037777D01*
X0209638Y0035400D01*
X0211461Y0035400D01*
X0213283Y0035400D01*
X0215861Y0037977D01*
X0215861Y0039800D01*
X0215861Y0041623D01*
X0213283Y0044200D01*
X0211461Y0044200D01*
X0211461Y0039800D01*
X0215861Y0039800D01*
X0211461Y0039800D01*
X0211461Y0039800D01*
X0211461Y0039800D01*
X0211461Y0035400D01*
X0211461Y0039800D01*
X0211461Y0039800D01*
X0211461Y0031800D01*
X0206461Y0026800D01*
X0201461Y0026800D01*
X0196461Y0021800D01*
X0196461Y0011800D01*
X0186461Y0011800D01*
X0191368Y0016187D02*
X0191554Y0016187D01*
X0193140Y0017785D02*
X0189781Y0017785D01*
X0183140Y0017785D02*
X0181636Y0017785D01*
X0181261Y0019384D02*
X0202759Y0019384D01*
X0201286Y0017785D02*
X0199781Y0017785D01*
X0210162Y0019384D02*
X0213661Y0019384D01*
X0213661Y0020982D02*
X0181261Y0020982D01*
X0181261Y0022581D02*
X0213661Y0022581D01*
X0213661Y0024179D02*
X0181261Y0024179D01*
X0181261Y0025778D02*
X0213661Y0025778D01*
X0213661Y0027376D02*
X0181261Y0027376D01*
X0181261Y0028975D02*
X0213834Y0028975D01*
X0213661Y0028556D02*
X0213661Y0009574D01*
X0212461Y0008374D01*
X0212461Y0009113D01*
X0213032Y0010493D01*
X0213032Y0013107D01*
X0212461Y0014487D01*
X0212461Y0015793D01*
X0211547Y0017999D01*
X0212298Y0016187D02*
X0213661Y0016187D01*
X0213661Y0014588D02*
X0212461Y0014588D01*
X0213032Y0012990D02*
X0213661Y0012990D01*
X0213661Y0011391D02*
X0213032Y0011391D01*
X0212742Y0009793D02*
X0213661Y0009793D01*
X0230162Y0019384D02*
X0232759Y0019384D01*
X0240162Y0019384D02*
X0242759Y0019384D01*
X0250162Y0019384D02*
X0252759Y0019384D01*
X0260162Y0019384D02*
X0262759Y0019384D01*
X0270162Y0019384D02*
X0272759Y0019384D01*
X0270887Y0042600D02*
X0227705Y0042600D01*
X0226308Y0042021D01*
X0225239Y0040953D01*
X0225239Y0040953D01*
X0214239Y0029953D01*
X0213661Y0028556D01*
X0214860Y0030573D02*
X0181261Y0030573D01*
X0181621Y0032172D02*
X0216458Y0032172D01*
X0218057Y0033770D02*
X0183219Y0033770D01*
X0184818Y0035369D02*
X0197689Y0035369D01*
X0196091Y0036967D02*
X0190416Y0036967D01*
X0192015Y0038566D02*
X0195661Y0038566D01*
X0195661Y0040164D02*
X0193613Y0040164D01*
X0195212Y0041763D02*
X0195661Y0041763D01*
X0196060Y0043361D02*
X0196820Y0043361D01*
X0197016Y0044960D02*
X0196261Y0044960D01*
X0201461Y0051800D02*
X0201461Y0059800D01*
X0204461Y0062800D01*
X0212461Y0062800D01*
X0216461Y0066800D01*
X0216461Y0112800D01*
X0211461Y0117800D01*
X0211461Y0139800D01*
X0217607Y0142469D02*
X0222461Y0142469D01*
X0222461Y0140870D02*
X0218161Y0140870D01*
X0218161Y0141133D02*
X0218161Y0138467D01*
X0217141Y0136005D01*
X0215461Y0134325D01*
X0215461Y0132002D01*
X0216058Y0132600D01*
X0220863Y0132600D01*
X0222461Y0131002D01*
X0222461Y0152143D01*
X0215527Y0145209D01*
X0217141Y0143595D01*
X0218161Y0141133D01*
X0218161Y0139272D02*
X0222461Y0139272D01*
X0222461Y0137673D02*
X0217832Y0137673D01*
X0217170Y0136075D02*
X0222461Y0136075D01*
X0222461Y0134476D02*
X0215612Y0134476D01*
X0215461Y0132878D02*
X0222461Y0132878D01*
X0222461Y0131279D02*
X0222184Y0131279D01*
X0222461Y0122598D02*
X0222461Y0106457D01*
X0220461Y0104457D01*
X0220461Y0113596D01*
X0219852Y0115066D01*
X0215461Y0119457D01*
X0215461Y0121598D01*
X0216058Y0121000D01*
X0220863Y0121000D01*
X0222461Y0122598D01*
X0222461Y0121688D02*
X0221551Y0121688D01*
X0222461Y0120090D02*
X0215461Y0120090D01*
X0216426Y0118491D02*
X0222461Y0118491D01*
X0222461Y0116893D02*
X0218025Y0116893D01*
X0219623Y0115294D02*
X0222461Y0115294D01*
X0222461Y0113696D02*
X0220419Y0113696D01*
X0220461Y0112097D02*
X0222461Y0112097D01*
X0222461Y0110499D02*
X0220461Y0110499D01*
X0220461Y0108900D02*
X0222461Y0108900D01*
X0222461Y0107302D02*
X0220461Y0107302D01*
X0220461Y0105703D02*
X0221707Y0105703D01*
X0226461Y0104800D02*
X0226461Y0152800D01*
X0236461Y0162800D01*
X0236461Y0201800D01*
X0241461Y0195515D02*
X0240461Y0194515D01*
X0240461Y0164457D01*
X0242461Y0166457D01*
X0242461Y0194515D01*
X0241461Y0195515D01*
X0241755Y0195220D02*
X0241166Y0195220D01*
X0240461Y0193621D02*
X0242461Y0193621D01*
X0242461Y0192023D02*
X0240461Y0192023D01*
X0240461Y0190424D02*
X0242461Y0190424D01*
X0242461Y0188826D02*
X0240461Y0188826D01*
X0240461Y0187227D02*
X0242461Y0187227D01*
X0242461Y0185629D02*
X0240461Y0185629D01*
X0240461Y0184030D02*
X0242461Y0184030D01*
X0242461Y0182432D02*
X0240461Y0182432D01*
X0240461Y0180833D02*
X0242461Y0180833D01*
X0242461Y0179235D02*
X0240461Y0179235D01*
X0240461Y0177636D02*
X0242461Y0177636D01*
X0242461Y0176038D02*
X0240461Y0176038D01*
X0240461Y0174439D02*
X0242461Y0174439D01*
X0242461Y0172841D02*
X0240461Y0172841D01*
X0240461Y0171242D02*
X0242461Y0171242D01*
X0242461Y0169644D02*
X0240461Y0169644D01*
X0240461Y0168045D02*
X0242461Y0168045D01*
X0242450Y0166447D02*
X0240461Y0166447D01*
X0240461Y0164848D02*
X0240852Y0164848D01*
X0246461Y0164800D02*
X0246461Y0201800D01*
X0251461Y0195515D02*
X0250461Y0194515D01*
X0250461Y0167457D01*
X0252461Y0169457D01*
X0252461Y0194515D01*
X0251461Y0195515D01*
X0251755Y0195220D02*
X0251166Y0195220D01*
X0250461Y0193621D02*
X0252461Y0193621D01*
X0252461Y0192023D02*
X0250461Y0192023D01*
X0250461Y0190424D02*
X0252461Y0190424D01*
X0252461Y0188826D02*
X0250461Y0188826D01*
X0250461Y0187227D02*
X0252461Y0187227D01*
X0252461Y0185629D02*
X0250461Y0185629D01*
X0250461Y0184030D02*
X0252461Y0184030D01*
X0252461Y0182432D02*
X0250461Y0182432D01*
X0250461Y0180833D02*
X0252461Y0180833D01*
X0252461Y0179235D02*
X0250461Y0179235D01*
X0250461Y0177636D02*
X0252461Y0177636D01*
X0252461Y0176038D02*
X0250461Y0176038D01*
X0250461Y0174439D02*
X0252461Y0174439D01*
X0252461Y0172841D02*
X0250461Y0172841D01*
X0250461Y0171242D02*
X0252461Y0171242D01*
X0252461Y0169644D02*
X0250461Y0169644D01*
X0250461Y0168045D02*
X0251049Y0168045D01*
X0246461Y0164800D02*
X0231461Y0149800D01*
X0231461Y0081800D01*
X0236461Y0088085D02*
X0235461Y0089085D01*
X0235461Y0091143D01*
X0237461Y0089143D01*
X0237461Y0089085D01*
X0236461Y0088085D01*
X0236495Y0088120D02*
X0236426Y0088120D01*
X0236886Y0089718D02*
X0235461Y0089718D01*
X0227461Y0089718D02*
X0225461Y0089718D01*
X0225461Y0089085D02*
X0225461Y0098143D01*
X0227461Y0100143D01*
X0227461Y0089085D01*
X0226461Y0088085D01*
X0225461Y0089085D01*
X0226426Y0088120D02*
X0226495Y0088120D01*
X0227461Y0091317D02*
X0225461Y0091317D01*
X0225461Y0092915D02*
X0227461Y0092915D01*
X0227461Y0094514D02*
X0225461Y0094514D01*
X0225461Y0096112D02*
X0227461Y0096112D01*
X0227461Y0097711D02*
X0225461Y0097711D01*
X0226627Y0099309D02*
X0227461Y0099309D01*
X0226461Y0104800D02*
X0221461Y0099800D01*
X0206644Y0075332D02*
X0204237Y0075332D01*
X0206605Y0073733D02*
X0194424Y0073733D01*
X0196277Y0075332D02*
X0198684Y0075332D01*
X0188498Y0073733D02*
X0184424Y0073733D01*
X0186277Y0075332D02*
X0186644Y0075332D01*
X0186495Y0088120D02*
X0186426Y0088120D01*
X0186261Y0089718D02*
X0186661Y0089718D01*
X0186661Y0091317D02*
X0186261Y0091317D01*
X0186261Y0092915D02*
X0186661Y0092915D01*
X0186661Y0094514D02*
X0186261Y0094514D01*
X0186261Y0096112D02*
X0186661Y0096112D01*
X0155461Y0096112D02*
X0155461Y0096112D01*
X0155461Y0094514D02*
X0155461Y0094514D01*
X0155461Y0092915D02*
X0155461Y0092915D01*
X0155461Y0091317D02*
X0155461Y0091317D01*
X0155461Y0089718D02*
X0155993Y0089718D01*
X0156426Y0088120D02*
X0156495Y0088120D01*
X0155461Y0097711D02*
X0155461Y0097711D01*
X0155461Y0099309D02*
X0155461Y0099309D01*
X0155461Y0100908D02*
X0155461Y0100908D01*
X0155461Y0102506D02*
X0155461Y0102506D01*
X0155461Y0104105D02*
X0155461Y0104105D01*
X0155461Y0105703D02*
X0155461Y0105703D01*
X0155461Y0107302D02*
X0155461Y0107302D01*
X0155461Y0108900D02*
X0155461Y0108900D01*
X0155461Y0110499D02*
X0155461Y0110499D01*
X0155461Y0112097D02*
X0155461Y0112097D01*
X0155461Y0113696D02*
X0155461Y0113696D01*
X0155461Y0115294D02*
X0155461Y0115294D01*
X0155461Y0116893D02*
X0155461Y0116893D01*
X0155461Y0118491D02*
X0155461Y0118491D01*
X0155461Y0120090D02*
X0155461Y0120090D01*
X0155461Y0121688D02*
X0155461Y0121688D01*
X0155461Y0123287D02*
X0155461Y0123287D01*
X0155461Y0124885D02*
X0155461Y0124885D01*
X0175461Y0136002D02*
X0175461Y0139577D01*
X0177438Y0137600D01*
X0177058Y0137600D01*
X0175461Y0136002D01*
X0175461Y0136075D02*
X0175533Y0136075D01*
X0175461Y0137673D02*
X0177365Y0137673D01*
X0175766Y0139272D02*
X0175461Y0139272D01*
X0179461Y0141800D02*
X0179461Y0141800D01*
X0169804Y0146800D02*
X0168733Y0145730D01*
X0167663Y0146800D01*
X0169804Y0146800D01*
X0178461Y0162800D02*
X0159461Y0162800D01*
X0134461Y0137800D01*
X0134461Y0057800D01*
X0140461Y0051800D01*
X0141461Y0051800D01*
X0134889Y0051715D02*
X0134889Y0051028D01*
X0134461Y0051457D01*
X0134461Y0052143D01*
X0134889Y0051715D01*
X0134889Y0051354D02*
X0134564Y0051354D01*
X0130461Y0049800D02*
X0138461Y0041800D01*
X0149461Y0041800D01*
X0151461Y0043800D01*
X0151461Y0051800D01*
X0156461Y0045515D02*
X0157461Y0044515D01*
X0157461Y0043457D01*
X0155804Y0041800D01*
X0154962Y0041800D01*
X0155461Y0043004D01*
X0155461Y0044515D01*
X0156461Y0045515D01*
X0155906Y0044960D02*
X0157016Y0044960D01*
X0157365Y0043361D02*
X0155461Y0043361D01*
X0163883Y0038566D02*
X0174438Y0038566D01*
X0176037Y0040164D02*
X0165113Y0040164D01*
X0164852Y0039534D02*
X0165461Y0041004D01*
X0165461Y0042596D01*
X0165461Y0044515D01*
X0166461Y0045515D01*
X0168062Y0043913D01*
X0170267Y0043000D01*
X0172654Y0043000D01*
X0174859Y0043913D01*
X0176461Y0045515D01*
X0178062Y0043913D01*
X0179281Y0043409D01*
X0172391Y0036519D01*
X0172011Y0035600D01*
X0160917Y0035600D01*
X0164852Y0039534D01*
X0165461Y0041763D02*
X0177635Y0041763D01*
X0179234Y0043361D02*
X0173526Y0043361D01*
X0175906Y0044960D02*
X0177016Y0044960D01*
X0169395Y0043361D02*
X0165461Y0043361D01*
X0165906Y0044960D02*
X0167016Y0044960D01*
X0162285Y0036967D02*
X0172840Y0036967D01*
X0171661Y0026000D02*
X0171661Y0018285D01*
X0171461Y0018085D01*
X0169859Y0019687D01*
X0167654Y0020600D01*
X0165267Y0020600D01*
X0163062Y0019687D01*
X0161461Y0018085D01*
X0159859Y0019687D01*
X0157654Y0020600D01*
X0155267Y0020600D01*
X0153062Y0019687D01*
X0151461Y0018085D01*
X0151261Y0018285D01*
X0151261Y0026000D01*
X0171661Y0026000D01*
X0171661Y0025778D02*
X0151261Y0025778D01*
X0151261Y0024179D02*
X0171661Y0024179D01*
X0171661Y0022581D02*
X0151261Y0022581D01*
X0151261Y0020982D02*
X0171661Y0020982D01*
X0171661Y0019384D02*
X0170162Y0019384D01*
X0162759Y0019384D02*
X0160162Y0019384D01*
X0152759Y0019384D02*
X0151261Y0019384D01*
X0141661Y0019384D02*
X0140162Y0019384D01*
X0141661Y0020982D02*
X0120261Y0020982D01*
X0120261Y0019384D02*
X0132759Y0019384D01*
X0131286Y0017785D02*
X0120152Y0017785D01*
X0120261Y0018046D02*
X0119378Y0015915D01*
X0117746Y0014283D01*
X0115614Y0013400D01*
X0113307Y0013400D01*
X0111175Y0014283D01*
X0109544Y0015915D01*
X0108661Y0018046D01*
X0108661Y0025554D01*
X0109544Y0027685D01*
X0111175Y0029317D01*
X0113307Y0030200D01*
X0115614Y0030200D01*
X0117746Y0029317D01*
X0119378Y0027685D01*
X0120261Y0025554D01*
X0120261Y0018046D01*
X0119490Y0016187D02*
X0130623Y0016187D01*
X0130461Y0014588D02*
X0118051Y0014588D01*
X0110870Y0014588D02*
X0092204Y0014588D01*
X0092560Y0012990D02*
X0129889Y0012990D01*
X0129889Y0011391D02*
X0092560Y0011391D01*
X0092413Y0009793D02*
X0130179Y0009793D01*
X0130461Y0008194D02*
X0091985Y0008194D01*
X0091744Y0016187D02*
X0109431Y0016187D01*
X0108769Y0017785D02*
X0090821Y0017785D01*
X0089574Y0019384D02*
X0108661Y0019384D01*
X0108661Y0020982D02*
X0087755Y0020982D01*
X0084111Y0022581D02*
X0108661Y0022581D01*
X0108661Y0024179D02*
X0065963Y0024179D01*
X0066874Y0025426D02*
X0076048Y0025426D01*
X0082535Y0031913D01*
X0082535Y0041087D01*
X0076048Y0047574D01*
X0066874Y0047574D01*
X0060387Y0041087D01*
X0060387Y0031913D01*
X0066874Y0025426D01*
X0066522Y0025778D02*
X0064364Y0025778D01*
X0064923Y0027376D02*
X0052418Y0027376D01*
X0051868Y0026826D02*
X0057535Y0032493D01*
X0057535Y0036020D01*
X0054435Y0036020D01*
X0054236Y0036500D01*
X0054435Y0036980D01*
X0057535Y0036980D01*
X0057535Y0040507D01*
X0051868Y0046174D01*
X0050141Y0046174D01*
X0049261Y0046539D01*
X0046461Y0046539D01*
X0045580Y0046174D01*
X0043854Y0046174D01*
X0038187Y0040507D01*
X0038187Y0036980D01*
X0041286Y0036980D01*
X0041485Y0036500D01*
X0041286Y0036020D01*
X0038187Y0036020D01*
X0038187Y0032493D01*
X0043854Y0026826D01*
X0045580Y0026826D01*
X0046461Y0026461D01*
X0049261Y0026461D01*
X0050141Y0026826D01*
X0051868Y0026826D01*
X0053359Y0024179D02*
X0031861Y0024179D01*
X0031861Y0022581D02*
X0051760Y0022581D01*
X0050162Y0020982D02*
X0031861Y0020982D01*
X0031861Y0019384D02*
X0049987Y0019384D01*
X0049622Y0017785D02*
X0031861Y0017785D01*
X0031861Y0016187D02*
X0049622Y0016187D01*
X0049958Y0014588D02*
X0031861Y0014588D01*
X0031861Y0012990D02*
X0049987Y0012990D01*
X0051388Y0011391D02*
X0031861Y0011391D01*
X0031861Y0009793D02*
X0052987Y0009793D01*
X0054585Y0008194D02*
X0031861Y0008194D01*
X0031861Y0025778D02*
X0054957Y0025778D01*
X0054016Y0028975D02*
X0063325Y0028975D01*
X0061726Y0030573D02*
X0055615Y0030573D01*
X0057213Y0032172D02*
X0060387Y0032172D01*
X0060387Y0033770D02*
X0057535Y0033770D01*
X0057535Y0035369D02*
X0060387Y0035369D01*
X0060387Y0036967D02*
X0054430Y0036967D01*
X0057535Y0038566D02*
X0060387Y0038566D01*
X0060387Y0040164D02*
X0057535Y0040164D01*
X0056279Y0041763D02*
X0061062Y0041763D01*
X0062661Y0043361D02*
X0054680Y0043361D01*
X0053082Y0044960D02*
X0064259Y0044960D01*
X0065858Y0046558D02*
X0031861Y0046558D01*
X0031861Y0044960D02*
X0042639Y0044960D01*
X0041041Y0043361D02*
X0031861Y0043361D01*
X0031861Y0041763D02*
X0039442Y0041763D01*
X0038187Y0040164D02*
X0031861Y0040164D01*
X0031861Y0038566D02*
X0038187Y0038566D01*
X0041291Y0036967D02*
X0031861Y0036967D01*
X0031861Y0035369D02*
X0038187Y0035369D01*
X0038187Y0033770D02*
X0031861Y0033770D01*
X0031861Y0032172D02*
X0038508Y0032172D01*
X0040106Y0030573D02*
X0031861Y0030573D01*
X0031861Y0028975D02*
X0041705Y0028975D01*
X0043303Y0027376D02*
X0031861Y0027376D01*
X0059181Y0025778D02*
X0060140Y0025778D01*
X0060140Y0024179D02*
X0059181Y0024179D01*
X0067561Y0022581D02*
X0078811Y0022581D01*
X0075166Y0020982D02*
X0069160Y0020982D01*
X0069335Y0019384D02*
X0073348Y0019384D01*
X0072100Y0017785D02*
X0069699Y0017785D01*
X0069699Y0016187D02*
X0071177Y0016187D01*
X0070717Y0014588D02*
X0069363Y0014588D01*
X0069335Y0012990D02*
X0070361Y0012990D01*
X0070361Y0011391D02*
X0067933Y0011391D01*
X0066334Y0009793D02*
X0070508Y0009793D01*
X0070936Y0008194D02*
X0064736Y0008194D01*
X0076399Y0025778D02*
X0108753Y0025778D01*
X0109416Y0027376D02*
X0077998Y0027376D01*
X0079596Y0028975D02*
X0093063Y0028975D01*
X0092061Y0029977D02*
X0094638Y0027400D01*
X0096461Y0027400D01*
X0098283Y0027400D01*
X0100861Y0029977D01*
X0100861Y0031800D01*
X0100861Y0033623D01*
X0099643Y0034840D01*
X0099746Y0034883D01*
X0101378Y0036515D01*
X0102261Y0038646D01*
X0102261Y0040954D01*
X0101378Y0043085D01*
X0099746Y0044717D01*
X0097614Y0045600D01*
X0095307Y0045600D01*
X0093175Y0044717D01*
X0091544Y0043085D01*
X0090661Y0040954D01*
X0090661Y0038646D01*
X0091544Y0036515D01*
X0093175Y0034883D01*
X0093278Y0034840D01*
X0092061Y0033623D01*
X0092061Y0031800D01*
X0092061Y0029977D01*
X0092061Y0030573D02*
X0081195Y0030573D01*
X0082535Y0032172D02*
X0092061Y0032172D01*
X0092061Y0031800D02*
X0096460Y0031800D01*
X0092061Y0031800D01*
X0092208Y0033770D02*
X0082535Y0033770D01*
X0082535Y0035369D02*
X0092689Y0035369D01*
X0091356Y0036967D02*
X0082535Y0036967D01*
X0082535Y0038566D02*
X0090694Y0038566D01*
X0090661Y0040164D02*
X0082535Y0040164D01*
X0081859Y0041763D02*
X0090996Y0041763D01*
X0091819Y0043361D02*
X0080260Y0043361D01*
X0078662Y0044960D02*
X0093761Y0044960D01*
X0099160Y0044960D02*
X0110498Y0044960D01*
X0109277Y0046558D02*
X0077063Y0046558D01*
X0096460Y0031800D02*
X0096460Y0031800D01*
X0096461Y0031800D02*
X0096461Y0031800D01*
X0100861Y0031800D01*
X0096461Y0031800D01*
X0096461Y0031800D01*
X0096461Y0027400D01*
X0096461Y0031800D01*
X0096461Y0030573D02*
X0096461Y0030573D01*
X0096461Y0028975D02*
X0096461Y0028975D01*
X0099858Y0028975D02*
X0110833Y0028975D01*
X0118088Y0028975D02*
X0127498Y0028975D01*
X0125899Y0030573D02*
X0100861Y0030573D01*
X0100861Y0032172D02*
X0124301Y0032172D01*
X0122702Y0033770D02*
X0100713Y0033770D01*
X0100232Y0035369D02*
X0121104Y0035369D01*
X0119505Y0036967D02*
X0101565Y0036967D01*
X0102227Y0038566D02*
X0117907Y0038566D01*
X0116943Y0040164D02*
X0102261Y0040164D01*
X0101925Y0041763D02*
X0116661Y0041763D01*
X0116661Y0043361D02*
X0101102Y0043361D01*
X0108661Y0048157D02*
X0031861Y0048157D01*
X0031861Y0049755D02*
X0108661Y0049755D01*
X0108661Y0051354D02*
X0031861Y0051354D01*
X0031861Y0052952D02*
X0108661Y0052952D01*
X0108661Y0054551D02*
X0031861Y0054551D01*
X0031861Y0056149D02*
X0108907Y0056149D01*
X0109606Y0057748D02*
X0031861Y0057748D01*
X0031861Y0059346D02*
X0111246Y0059346D01*
X0112611Y0060945D02*
X0116661Y0060945D01*
X0116661Y0062543D02*
X0114696Y0062543D01*
X0115695Y0064142D02*
X0116661Y0064142D01*
X0116661Y0065740D02*
X0116261Y0065740D01*
X0116261Y0067339D02*
X0116661Y0067339D01*
X0116661Y0068937D02*
X0115911Y0068937D01*
X0115217Y0070536D02*
X0116661Y0070536D01*
X0116661Y0072134D02*
X0113619Y0072134D01*
X0113836Y0073733D02*
X0116661Y0073733D01*
X0116661Y0075332D02*
X0114646Y0075332D01*
X0116661Y0076930D02*
X0106761Y0076930D01*
X0106161Y0076930D02*
X0060661Y0076930D01*
X0060661Y0075332D02*
X0098275Y0075332D01*
X0099085Y0073733D02*
X0060304Y0073733D01*
X0060661Y0075062D02*
X0059761Y0071705D01*
X0058023Y0068695D01*
X0055566Y0066237D01*
X0052556Y0064500D01*
X0049198Y0063600D01*
X0045723Y0063600D01*
X0042366Y0064500D01*
X0039356Y0066237D01*
X0036898Y0068695D01*
X0035160Y0071705D01*
X0034261Y0075062D01*
X0034261Y0078538D01*
X0035160Y0081895D01*
X0036898Y0084905D01*
X0039356Y0087363D01*
X0042366Y0089100D01*
X0045723Y0090000D01*
X0049198Y0090000D01*
X0052556Y0089100D01*
X0055566Y0087363D01*
X0058023Y0084905D01*
X0059761Y0081895D01*
X0060661Y0078538D01*
X0060661Y0075062D01*
X0060661Y0078529D02*
X0098360Y0078529D01*
X0099275Y0080127D02*
X0060235Y0080127D01*
X0059806Y0081726D02*
X0099043Y0081726D01*
X0097565Y0083324D02*
X0058936Y0083324D01*
X0058006Y0084923D02*
X0096903Y0084923D01*
X0096661Y0086521D02*
X0056407Y0086521D01*
X0054254Y0088120D02*
X0096672Y0088120D01*
X0097334Y0089718D02*
X0050250Y0089718D01*
X0044671Y0089718D02*
X0031861Y0089718D01*
X0031861Y0088120D02*
X0040667Y0088120D01*
X0038514Y0086521D02*
X0031861Y0086521D01*
X0031861Y0084923D02*
X0036916Y0084923D01*
X0035985Y0083324D02*
X0031861Y0083324D01*
X0031861Y0081726D02*
X0035115Y0081726D01*
X0034686Y0080127D02*
X0031861Y0080127D01*
X0031861Y0078529D02*
X0034261Y0078529D01*
X0034261Y0076930D02*
X0031861Y0076930D01*
X0031861Y0075332D02*
X0034261Y0075332D01*
X0034617Y0073733D02*
X0031861Y0073733D01*
X0031861Y0072134D02*
X0035045Y0072134D01*
X0035835Y0070536D02*
X0031861Y0070536D01*
X0031861Y0068937D02*
X0036758Y0068937D01*
X0038254Y0067339D02*
X0031861Y0067339D01*
X0031861Y0065740D02*
X0040216Y0065740D01*
X0043700Y0064142D02*
X0031861Y0064142D01*
X0031861Y0062543D02*
X0098225Y0062543D01*
X0097226Y0064142D02*
X0051221Y0064142D01*
X0054705Y0065740D02*
X0096661Y0065740D01*
X0096661Y0067339D02*
X0056667Y0067339D01*
X0058163Y0068937D02*
X0097010Y0068937D01*
X0097704Y0070536D02*
X0059086Y0070536D01*
X0059876Y0072134D02*
X0099303Y0072134D01*
X0100311Y0060945D02*
X0031861Y0060945D01*
X0031861Y0091317D02*
X0098485Y0091317D01*
X0100939Y0092915D02*
X0031861Y0092915D01*
X0031861Y0094514D02*
X0101545Y0094514D01*
X0100661Y0096112D02*
X0090237Y0096112D01*
X0091847Y0097711D02*
X0100661Y0097711D01*
X0100661Y0099309D02*
X0092681Y0099309D01*
X0093161Y0100908D02*
X0101366Y0100908D01*
X0101661Y0102506D02*
X0093161Y0102506D01*
X0092758Y0104105D02*
X0101661Y0104105D01*
X0101661Y0105703D02*
X0093738Y0105703D01*
X0094953Y0107302D02*
X0101661Y0107302D01*
X0100661Y0108900D02*
X0095261Y0108900D01*
X0095261Y0110499D02*
X0100661Y0110499D01*
X0100661Y0112097D02*
X0095261Y0112097D01*
X0095261Y0113696D02*
X0101154Y0113696D01*
X0102753Y0115294D02*
X0095261Y0115294D01*
X0087661Y0115294D02*
X0080169Y0115294D01*
X0078863Y0116600D02*
X0074058Y0116600D01*
X0070661Y0113202D01*
X0070661Y0108398D01*
X0074058Y0105000D01*
X0078863Y0105000D01*
X0082261Y0108398D01*
X0082261Y0113202D01*
X0078863Y0116600D01*
X0080354Y0118491D02*
X0087661Y0118491D01*
X0087661Y0116893D02*
X0031861Y0116893D01*
X0031861Y0118491D02*
X0072567Y0118491D01*
X0072753Y0115294D02*
X0056169Y0115294D01*
X0054863Y0116600D02*
X0050058Y0116600D01*
X0046661Y0113202D01*
X0046661Y0112823D01*
X0044283Y0115200D01*
X0042461Y0115200D01*
X0042461Y0110800D01*
X0042461Y0110800D01*
X0042461Y0106400D01*
X0044283Y0106400D01*
X0046661Y0108777D01*
X0046661Y0108398D01*
X0050058Y0105000D01*
X0054863Y0105000D01*
X0058261Y0108398D01*
X0058261Y0113202D01*
X0054863Y0116600D01*
X0057767Y0113696D02*
X0071154Y0113696D01*
X0070661Y0112097D02*
X0058261Y0112097D01*
X0058261Y0110499D02*
X0070661Y0110499D01*
X0070661Y0108900D02*
X0058261Y0108900D01*
X0057165Y0107302D02*
X0071756Y0107302D01*
X0073355Y0105703D02*
X0055566Y0105703D01*
X0049355Y0105703D02*
X0031861Y0105703D01*
X0031861Y0104105D02*
X0080163Y0104105D01*
X0079761Y0102506D02*
X0031861Y0102506D01*
X0031861Y0100908D02*
X0079761Y0100908D01*
X0080240Y0099309D02*
X0031861Y0099309D01*
X0031861Y0097711D02*
X0081075Y0097711D01*
X0082684Y0096112D02*
X0031861Y0096112D01*
X0040638Y0106400D02*
X0042461Y0106400D01*
X0042461Y0110800D01*
X0042461Y0110800D01*
X0042461Y0115200D01*
X0040638Y0115200D01*
X0038061Y0112623D01*
X0038061Y0110800D01*
X0038061Y0108977D01*
X0040638Y0106400D01*
X0039736Y0107302D02*
X0031861Y0107302D01*
X0031861Y0108900D02*
X0038138Y0108900D01*
X0038061Y0110499D02*
X0031861Y0110499D01*
X0031861Y0112097D02*
X0038061Y0112097D01*
X0038061Y0110800D02*
X0042460Y0110800D01*
X0038061Y0110800D01*
X0039134Y0113696D02*
X0031861Y0113696D01*
X0031861Y0115294D02*
X0048753Y0115294D01*
X0047154Y0113696D02*
X0045787Y0113696D01*
X0042461Y0113696D02*
X0042461Y0113696D01*
X0042461Y0112097D02*
X0042461Y0112097D01*
X0042460Y0110800D02*
X0042460Y0110800D01*
X0042461Y0110499D02*
X0042461Y0110499D01*
X0042461Y0108900D02*
X0042461Y0108900D01*
X0042461Y0107302D02*
X0042461Y0107302D01*
X0045185Y0107302D02*
X0047756Y0107302D01*
X0042317Y0120090D02*
X0068514Y0120090D01*
X0066915Y0121688D02*
X0046359Y0121688D01*
X0047956Y0123287D02*
X0065317Y0123287D01*
X0063718Y0124885D02*
X0048897Y0124885D01*
X0049424Y0126484D02*
X0062676Y0126484D01*
X0066461Y0127800D02*
X0071461Y0122800D01*
X0076461Y0122800D01*
X0082261Y0123287D02*
X0087661Y0123287D01*
X0087661Y0124885D02*
X0082261Y0124885D01*
X0080979Y0126484D02*
X0087661Y0126484D01*
X0086804Y0128082D02*
X0079381Y0128082D01*
X0080544Y0129681D02*
X0085206Y0129681D01*
X0083607Y0131279D02*
X0082142Y0131279D01*
X0073541Y0128082D02*
X0071835Y0128082D01*
X0072377Y0129681D02*
X0070461Y0129681D01*
X0070461Y0131279D02*
X0070779Y0131279D01*
X0070661Y0132878D02*
X0070461Y0132878D01*
X0070461Y0134476D02*
X0070661Y0134476D01*
X0070661Y0136075D02*
X0070461Y0136075D01*
X0070461Y0137673D02*
X0072132Y0137673D01*
X0089754Y0140870D02*
X0091188Y0140870D01*
X0087661Y0121688D02*
X0082261Y0121688D01*
X0081953Y0120090D02*
X0087661Y0120090D01*
X0087661Y0113696D02*
X0081767Y0113696D01*
X0082261Y0112097D02*
X0087661Y0112097D01*
X0087661Y0110499D02*
X0082261Y0110499D01*
X0082261Y0108900D02*
X0086187Y0108900D01*
X0082487Y0107302D02*
X0081165Y0107302D01*
X0080889Y0105703D02*
X0079566Y0105703D01*
X0110169Y0115294D02*
X0122461Y0115294D01*
X0122461Y0113696D02*
X0111767Y0113696D01*
X0112261Y0112097D02*
X0122461Y0112097D01*
X0122461Y0110499D02*
X0112261Y0110499D01*
X0112261Y0108900D02*
X0122461Y0108900D01*
X0122461Y0107302D02*
X0111261Y0107302D01*
X0111261Y0105703D02*
X0122461Y0105703D01*
X0122461Y0104105D02*
X0111261Y0104105D01*
X0111261Y0102506D02*
X0122461Y0102506D01*
X0122461Y0100908D02*
X0119575Y0100908D01*
X0120861Y0099309D02*
X0122461Y0099309D01*
X0122461Y0097711D02*
X0120861Y0097711D01*
X0120861Y0096112D02*
X0122461Y0096112D01*
X0122461Y0094514D02*
X0119397Y0094514D01*
X0116461Y0094514D02*
X0116461Y0094514D01*
X0116461Y0096112D02*
X0116461Y0096112D01*
X0116461Y0097711D02*
X0116461Y0097711D01*
X0116461Y0099309D02*
X0116461Y0099309D01*
X0116461Y0100908D02*
X0116461Y0100908D01*
X0113346Y0100908D02*
X0111555Y0100908D01*
X0111377Y0094514D02*
X0113524Y0094514D01*
X0111983Y0092915D02*
X0122461Y0092915D01*
X0122461Y0091317D02*
X0118099Y0091317D01*
X0120331Y0089718D02*
X0122461Y0089718D01*
X0122461Y0088120D02*
X0121929Y0088120D01*
X0114747Y0081726D02*
X0113879Y0081726D01*
X0113646Y0080127D02*
X0116345Y0080127D01*
X0116661Y0078529D02*
X0114561Y0078529D01*
X0130461Y0049800D02*
X0130461Y0138800D01*
X0157461Y0165800D01*
X0168461Y0165800D01*
X0171461Y0168800D01*
X0171461Y0201800D01*
X0176461Y0195515D02*
X0175461Y0194515D01*
X0175461Y0168004D01*
X0174962Y0166800D01*
X0176804Y0166800D01*
X0177461Y0167457D01*
X0177461Y0194515D01*
X0176461Y0195515D01*
X0176755Y0195220D02*
X0176166Y0195220D01*
X0175461Y0193621D02*
X0177461Y0193621D01*
X0177461Y0192023D02*
X0175461Y0192023D01*
X0175461Y0190424D02*
X0177461Y0190424D01*
X0177461Y0188826D02*
X0175461Y0188826D01*
X0175461Y0187227D02*
X0177461Y0187227D01*
X0177461Y0185629D02*
X0175461Y0185629D01*
X0175461Y0184030D02*
X0177461Y0184030D01*
X0177461Y0182432D02*
X0175461Y0182432D01*
X0175461Y0180833D02*
X0177461Y0180833D01*
X0177461Y0179235D02*
X0175461Y0179235D01*
X0175461Y0177636D02*
X0177461Y0177636D01*
X0177461Y0176038D02*
X0175461Y0176038D01*
X0175461Y0174439D02*
X0177461Y0174439D01*
X0177461Y0172841D02*
X0175461Y0172841D01*
X0175461Y0171242D02*
X0177461Y0171242D01*
X0177461Y0169644D02*
X0175461Y0169644D01*
X0175461Y0168045D02*
X0177461Y0168045D01*
X0181461Y0165800D02*
X0178461Y0162800D01*
X0181461Y0165800D02*
X0181461Y0201800D01*
X0186461Y0195515D02*
X0185461Y0194515D01*
X0185461Y0165004D01*
X0184852Y0163534D01*
X0184117Y0162800D01*
X0186804Y0162800D01*
X0187461Y0163457D01*
X0187461Y0194515D01*
X0186461Y0195515D01*
X0186755Y0195220D02*
X0186166Y0195220D01*
X0185461Y0193621D02*
X0187461Y0193621D01*
X0187461Y0192023D02*
X0185461Y0192023D01*
X0185461Y0190424D02*
X0187461Y0190424D01*
X0187461Y0188826D02*
X0185461Y0188826D01*
X0185461Y0187227D02*
X0187461Y0187227D01*
X0187461Y0185629D02*
X0185461Y0185629D01*
X0185461Y0184030D02*
X0187461Y0184030D01*
X0187461Y0182432D02*
X0185461Y0182432D01*
X0185461Y0180833D02*
X0187461Y0180833D01*
X0187461Y0179235D02*
X0185461Y0179235D01*
X0185461Y0177636D02*
X0187461Y0177636D01*
X0187461Y0176038D02*
X0185461Y0176038D01*
X0185461Y0174439D02*
X0187461Y0174439D01*
X0187461Y0172841D02*
X0185461Y0172841D01*
X0185461Y0171242D02*
X0187461Y0171242D01*
X0187461Y0169644D02*
X0185461Y0169644D01*
X0185461Y0168045D02*
X0187461Y0168045D01*
X0187461Y0166447D02*
X0185461Y0166447D01*
X0185396Y0164848D02*
X0187461Y0164848D01*
X0187253Y0163250D02*
X0184567Y0163250D01*
X0191461Y0161800D02*
X0191461Y0201800D01*
X0210461Y0194515D02*
X0211461Y0195515D01*
X0212461Y0194515D01*
X0212461Y0161457D01*
X0210073Y0159070D01*
X0210461Y0160004D01*
X0210461Y0194515D01*
X0210461Y0193621D02*
X0212461Y0193621D01*
X0212461Y0192023D02*
X0210461Y0192023D01*
X0210461Y0190424D02*
X0212461Y0190424D01*
X0212461Y0188826D02*
X0210461Y0188826D01*
X0210461Y0187227D02*
X0212461Y0187227D01*
X0212461Y0185629D02*
X0210461Y0185629D01*
X0210461Y0184030D02*
X0212461Y0184030D01*
X0212461Y0182432D02*
X0210461Y0182432D01*
X0210461Y0180833D02*
X0212461Y0180833D01*
X0212461Y0179235D02*
X0210461Y0179235D01*
X0210461Y0177636D02*
X0212461Y0177636D01*
X0212461Y0176038D02*
X0210461Y0176038D01*
X0210461Y0174439D02*
X0212461Y0174439D01*
X0212461Y0172841D02*
X0210461Y0172841D01*
X0210461Y0171242D02*
X0212461Y0171242D01*
X0212461Y0169644D02*
X0210461Y0169644D01*
X0210461Y0168045D02*
X0212461Y0168045D01*
X0212461Y0166447D02*
X0210461Y0166447D01*
X0210461Y0164848D02*
X0212461Y0164848D01*
X0212461Y0163250D02*
X0210461Y0163250D01*
X0210461Y0161651D02*
X0212461Y0161651D01*
X0211056Y0160053D02*
X0210461Y0160053D01*
X0220779Y0150462D02*
X0222461Y0150462D01*
X0222461Y0152060D02*
X0222378Y0152060D01*
X0222461Y0148863D02*
X0219181Y0148863D01*
X0217582Y0147265D02*
X0222461Y0147265D01*
X0222461Y0145666D02*
X0215983Y0145666D01*
X0216668Y0144068D02*
X0222461Y0144068D01*
X0226461Y0161800D02*
X0226461Y0201800D01*
X0231461Y0195515D02*
X0232461Y0194515D01*
X0232461Y0164457D01*
X0230461Y0162457D01*
X0230461Y0162596D01*
X0230461Y0194515D01*
X0231461Y0195515D01*
X0231755Y0195220D02*
X0231166Y0195220D01*
X0230461Y0193621D02*
X0232461Y0193621D01*
X0232461Y0192023D02*
X0230461Y0192023D01*
X0230461Y0190424D02*
X0232461Y0190424D01*
X0232461Y0188826D02*
X0230461Y0188826D01*
X0230461Y0187227D02*
X0232461Y0187227D01*
X0232461Y0185629D02*
X0230461Y0185629D01*
X0230461Y0184030D02*
X0232461Y0184030D01*
X0232461Y0182432D02*
X0230461Y0182432D01*
X0230461Y0180833D02*
X0232461Y0180833D01*
X0232461Y0179235D02*
X0230461Y0179235D01*
X0230461Y0177636D02*
X0232461Y0177636D01*
X0232461Y0176038D02*
X0230461Y0176038D01*
X0230461Y0174439D02*
X0232461Y0174439D01*
X0232461Y0172841D02*
X0230461Y0172841D01*
X0230461Y0171242D02*
X0232461Y0171242D01*
X0232461Y0169644D02*
X0230461Y0169644D01*
X0230461Y0168045D02*
X0232461Y0168045D01*
X0232461Y0166447D02*
X0230461Y0166447D01*
X0230461Y0164848D02*
X0232461Y0164848D01*
X0231253Y0163250D02*
X0230461Y0163250D01*
X0271461Y0154800D02*
X0276461Y0159800D01*
X0276461Y0201800D01*
X0281061Y0195115D02*
X0280461Y0194515D01*
X0280461Y0159004D01*
X0279852Y0157534D01*
X0278726Y0156409D01*
X0275461Y0153143D01*
X0275461Y0143631D01*
X0276118Y0146084D01*
X0277579Y0148615D01*
X0279646Y0150682D01*
X0282176Y0152143D01*
X0284999Y0152899D01*
X0287725Y0152899D01*
X0283402Y0157222D01*
X0281883Y0158741D01*
X0281061Y0160726D01*
X0281061Y0195115D01*
X0281061Y0193621D02*
X0280461Y0193621D01*
X0280461Y0192023D02*
X0281061Y0192023D01*
X0281061Y0190424D02*
X0280461Y0190424D01*
X0280461Y0188826D02*
X0281061Y0188826D01*
X0281061Y0187227D02*
X0280461Y0187227D01*
X0280461Y0185629D02*
X0281061Y0185629D01*
X0281061Y0184030D02*
X0280461Y0184030D01*
X0280461Y0182432D02*
X0281061Y0182432D01*
X0281061Y0180833D02*
X0280461Y0180833D01*
X0280461Y0179235D02*
X0281061Y0179235D01*
X0281061Y0177636D02*
X0280461Y0177636D01*
X0280461Y0176038D02*
X0281061Y0176038D01*
X0281061Y0174439D02*
X0280461Y0174439D01*
X0280461Y0172841D02*
X0281061Y0172841D01*
X0281061Y0171242D02*
X0280461Y0171242D01*
X0280461Y0169644D02*
X0281061Y0169644D01*
X0281061Y0168045D02*
X0280461Y0168045D01*
X0280461Y0166447D02*
X0281061Y0166447D01*
X0281061Y0164848D02*
X0280461Y0164848D01*
X0280461Y0163250D02*
X0281061Y0163250D01*
X0281061Y0161651D02*
X0280461Y0161651D01*
X0280461Y0160053D02*
X0281339Y0160053D01*
X0282170Y0158454D02*
X0280233Y0158454D01*
X0279173Y0156856D02*
X0283768Y0156856D01*
X0285367Y0155257D02*
X0277575Y0155257D01*
X0275976Y0153659D02*
X0286965Y0153659D01*
X0282033Y0152060D02*
X0275461Y0152060D01*
X0275461Y0150462D02*
X0279426Y0150462D01*
X0277827Y0148863D02*
X0275461Y0148863D01*
X0275461Y0147265D02*
X0276799Y0147265D01*
X0276006Y0145666D02*
X0275461Y0145666D01*
X0275461Y0144068D02*
X0275577Y0144068D01*
X0275647Y0139272D02*
X0275461Y0139272D01*
X0275461Y0137673D02*
X0276076Y0137673D01*
X0275461Y0136075D02*
X0276950Y0136075D01*
X0278088Y0134476D02*
X0275461Y0134476D01*
X0275461Y0132878D02*
X0279716Y0132878D01*
X0282840Y0131279D02*
X0275461Y0131279D01*
X0275461Y0129681D02*
X0291061Y0129681D01*
X0291061Y0131279D02*
X0290081Y0131279D01*
X0291061Y0128082D02*
X0275461Y0128082D01*
X0275461Y0126484D02*
X0291061Y0126484D01*
X0291061Y0124885D02*
X0275461Y0124885D01*
X0275461Y0123287D02*
X0291061Y0123287D01*
X0291061Y0121688D02*
X0275461Y0121688D01*
X0275461Y0120090D02*
X0291061Y0120090D01*
X0291061Y0118491D02*
X0275461Y0118491D01*
X0275461Y0116893D02*
X0291061Y0116893D01*
X0291061Y0115294D02*
X0276169Y0115294D01*
X0277261Y0113696D02*
X0291061Y0113696D01*
X0291061Y0112097D02*
X0277261Y0112097D01*
X0277261Y0110499D02*
X0291061Y0110499D01*
X0291061Y0108900D02*
X0276763Y0108900D01*
X0275165Y0107302D02*
X0291061Y0107302D01*
X0291061Y0105703D02*
X0270879Y0105703D01*
X0275358Y0104105D02*
X0291061Y0104105D01*
X0291061Y0102506D02*
X0276957Y0102506D01*
X0277261Y0100908D02*
X0291061Y0100908D01*
X0291061Y0099309D02*
X0277261Y0099309D01*
X0277261Y0097711D02*
X0291061Y0097711D01*
X0271461Y0111800D02*
X0271461Y0154800D01*
X0211755Y0195220D02*
X0211166Y0195220D01*
X0161461Y0185143D02*
X0161461Y0180275D01*
X0161461Y0180275D01*
X0161461Y0185143D01*
X0161461Y0185143D01*
X0161461Y0184030D02*
X0161461Y0184030D01*
X0161461Y0182432D02*
X0161461Y0182432D01*
X0161461Y0180833D02*
X0161461Y0180833D01*
X0042261Y0134476D02*
X0040661Y0134476D01*
X0040661Y0132878D02*
X0042261Y0132878D01*
X0042261Y0131279D02*
X0040661Y0131279D01*
X0040661Y0129681D02*
X0042261Y0129681D01*
X0042261Y0124885D02*
X0040661Y0124885D01*
X0040661Y0123287D02*
X0042261Y0123287D01*
X0042261Y0121688D02*
X0040661Y0121688D01*
X0040661Y0120090D02*
X0042261Y0120090D01*
X0040604Y0120090D02*
X0031861Y0120090D01*
X0031861Y0121688D02*
X0036562Y0121688D01*
X0034965Y0123287D02*
X0031861Y0123287D01*
X0031861Y0124885D02*
X0034024Y0124885D01*
X0033497Y0126484D02*
X0031861Y0126484D01*
X0119506Y0027376D02*
X0129096Y0027376D01*
X0120168Y0025778D02*
X0141661Y0025778D01*
X0141661Y0024179D02*
X0120261Y0024179D01*
X0120261Y0022581D02*
X0141661Y0022581D01*
X0175199Y0059346D02*
X0177722Y0059346D01*
X0205204Y0044259D02*
X0206547Y0045601D01*
X0207080Y0046887D01*
X0207738Y0046229D01*
X0207810Y0046199D01*
X0207952Y0046003D01*
X0208464Y0045491D01*
X0209050Y0045066D01*
X0209695Y0044737D01*
X0210383Y0044513D01*
X0211099Y0044400D01*
X0211424Y0044400D01*
X0211424Y0045228D01*
X0211497Y0045228D01*
X0211497Y0044400D01*
X0211823Y0044400D01*
X0212538Y0044513D01*
X0213226Y0044737D01*
X0213872Y0045066D01*
X0214457Y0045491D01*
X0214969Y0046003D01*
X0215112Y0046199D01*
X0215183Y0046229D01*
X0215841Y0046887D01*
X0216374Y0045601D01*
X0218062Y0043913D01*
X0220267Y0043000D01*
X0222654Y0043000D01*
X0224859Y0043913D01*
X0226461Y0045515D01*
X0228062Y0043913D01*
X0230267Y0043000D01*
X0232654Y0043000D01*
X0234859Y0043913D01*
X0236461Y0045515D01*
X0238062Y0043913D01*
X0240267Y0043000D01*
X0242654Y0043000D01*
X0244859Y0043913D01*
X0246461Y0045515D01*
X0248062Y0043913D01*
X0250267Y0043000D01*
X0252654Y0043000D01*
X0254859Y0043913D01*
X0256461Y0045515D01*
X0258062Y0043913D01*
X0260267Y0043000D01*
X0262654Y0043000D01*
X0264859Y0043913D01*
X0266461Y0045515D01*
X0268062Y0043913D01*
X0270267Y0043000D01*
X0271287Y0043000D01*
X0270887Y0042600D01*
X0269395Y0043361D02*
X0263526Y0043361D01*
X0265906Y0044960D02*
X0267016Y0044960D01*
X0259395Y0043361D02*
X0253526Y0043361D01*
X0255906Y0044960D02*
X0257016Y0044960D01*
X0249395Y0043361D02*
X0243526Y0043361D01*
X0245906Y0044960D02*
X0247016Y0044960D01*
X0239395Y0043361D02*
X0233526Y0043361D01*
X0235906Y0044960D02*
X0237016Y0044960D01*
X0229395Y0043361D02*
X0223526Y0043361D01*
X0225906Y0044960D02*
X0227016Y0044960D01*
X0226049Y0041763D02*
X0215720Y0041763D01*
X0215861Y0040164D02*
X0224451Y0040164D01*
X0222852Y0038566D02*
X0215861Y0038566D01*
X0214850Y0036967D02*
X0221254Y0036967D01*
X0219655Y0035369D02*
X0205232Y0035369D01*
X0206830Y0036967D02*
X0208071Y0036967D01*
X0211461Y0036967D02*
X0211461Y0036967D01*
X0211461Y0038566D02*
X0211461Y0038566D01*
X0211461Y0039800D02*
X0211461Y0051800D01*
X0207080Y0056713D02*
X0206547Y0057999D01*
X0205932Y0058614D01*
X0206117Y0058800D01*
X0209571Y0058800D01*
X0209050Y0058534D01*
X0208464Y0058109D01*
X0207952Y0057597D01*
X0207810Y0057401D01*
X0207738Y0057371D01*
X0207080Y0056713D01*
X0206651Y0057748D02*
X0208103Y0057748D01*
X0211424Y0058372D02*
X0211424Y0058800D01*
X0211497Y0058800D01*
X0211497Y0058372D01*
X0211424Y0058372D01*
X0214575Y0059346D02*
X0217722Y0059346D01*
X0216270Y0057748D02*
X0214818Y0057748D01*
X0216262Y0060945D02*
X0279661Y0060945D01*
X0279661Y0062543D02*
X0217861Y0062543D01*
X0219459Y0064142D02*
X0279661Y0064142D01*
X0279661Y0065740D02*
X0220351Y0065740D01*
X0220461Y0067339D02*
X0279661Y0067339D01*
X0278949Y0068937D02*
X0220461Y0068937D01*
X0220461Y0070536D02*
X0277351Y0070536D01*
X0275752Y0072134D02*
X0220461Y0072134D01*
X0225199Y0059346D02*
X0227722Y0059346D01*
X0235199Y0059346D02*
X0237722Y0059346D01*
X0245199Y0059346D02*
X0247722Y0059346D01*
X0255199Y0059346D02*
X0257722Y0059346D01*
X0265199Y0059346D02*
X0267722Y0059346D01*
X0275199Y0059346D02*
X0279661Y0059346D01*
X0279661Y0057748D02*
X0276651Y0057748D01*
X0277313Y0056149D02*
X0279661Y0056149D01*
X0279661Y0054551D02*
X0277461Y0054551D01*
X0278032Y0052952D02*
X0279661Y0052952D01*
X0279640Y0051354D02*
X0278032Y0051354D01*
X0278042Y0049755D02*
X0277727Y0049755D01*
X0268498Y0073733D02*
X0264424Y0073733D01*
X0266277Y0075332D02*
X0266644Y0075332D01*
X0258498Y0073733D02*
X0254424Y0073733D01*
X0256277Y0075332D02*
X0256644Y0075332D01*
X0215978Y0046558D02*
X0215513Y0046558D01*
X0217016Y0044960D02*
X0213664Y0044960D01*
X0214122Y0043361D02*
X0219395Y0043361D01*
X0211461Y0043361D02*
X0211461Y0043361D01*
X0211461Y0044200D02*
X0209638Y0044200D01*
X0207261Y0041823D01*
X0207261Y0042202D01*
X0205204Y0044259D01*
X0205906Y0044960D02*
X0209258Y0044960D01*
X0208799Y0043361D02*
X0206102Y0043361D01*
X0206944Y0046558D02*
X0207409Y0046558D01*
X0211424Y0044960D02*
X0211497Y0044960D01*
X0211461Y0044200D02*
X0211461Y0039800D01*
X0211461Y0040164D02*
X0211461Y0040164D01*
X0211461Y0041763D02*
X0211461Y0041763D01*
D21*
X0261461Y0081800D02*
X0262461Y0082800D01*
X0262461Y0102800D01*
X0271461Y0111800D01*
X0271461Y0099800D02*
X0271461Y0081800D01*
X0076461Y0154800D02*
X0076461Y0161800D01*
X0072461Y0165800D01*
D22*
X0076461Y0154800D02*
X0076461Y0143800D01*
X0091461Y0128800D01*
X0091461Y0108800D01*
X0086461Y0103800D01*
X0086461Y0101800D01*
X0112461Y0165800D02*
X0124961Y0165800D01*
X0134461Y0175300D01*
X0271461Y0081800D02*
X0283461Y0069800D01*
X0283461Y0049800D01*
X0272461Y0038800D01*
X0228461Y0038800D01*
X0217461Y0027800D01*
X0217461Y0008000D01*
X0213961Y0004500D01*
X0158761Y0004500D01*
X0156461Y0006800D01*
X0156461Y0011800D01*
D23*
X0086461Y0101800D03*
X0157461Y0174800D03*
X0151461Y0181800D03*
X0134461Y0175300D03*
X0211461Y0139800D03*
D24*
X0195961Y0129300D02*
X0195961Y0116800D01*
X0195961Y0103300D01*
X0191461Y0098800D01*
X0191461Y0081800D01*
X0181461Y0081800D02*
X0181461Y0099800D01*
X0176961Y0104300D01*
X0176961Y0116800D01*
X0176961Y0129300D01*
X0179461Y0131800D01*
X0193461Y0131800D02*
X0195961Y0129300D01*
X0211461Y0093800D02*
X0211461Y0081800D01*
X0211461Y0071800D01*
X0207461Y0067800D01*
X0199461Y0067800D01*
X0191461Y0059800D01*
X0191461Y0051800D01*
X0191461Y0044800D01*
X0187461Y0040800D01*
X0183461Y0040800D01*
X0176461Y0033800D01*
X0176461Y0030800D01*
X0146461Y0030800D01*
X0132461Y0030800D01*
X0121461Y0041800D01*
X0121461Y0081800D01*
X0116461Y0086800D01*
X0106461Y0086800D01*
X0106461Y0097800D01*
X0106461Y0110800D01*
X0146461Y0030800D02*
X0146461Y0011800D01*
X0176461Y0011800D02*
X0176461Y0030800D01*
M02*
