G75*
%MOIN*%
%OFA0B0*%
%FSLAX25Y25*%
%IPPOS*%
%LPD*%
%AMOC8*
5,1,8,0,0,1.08239X$1,22.5*
%
%ADD10C,0.13398*%
%ADD11C,0.04343*%
%ADD12C,0.06400*%
%ADD13C,0.07400*%
%ADD14C,0.13800*%
%ADD15OC8,0.06000*%
%ADD16C,0.06000*%
%ADD17C,0.07400*%
%ADD18C,0.06000*%
%ADD19OC8,0.16548*%
%ADD20C,0.08477*%
%ADD21OC8,0.07400*%
%ADD22C,0.13461*%
%ADD23C,0.07800*%
D10*
X0081461Y0011800D03*
X0286461Y0031800D03*
X0286461Y0141800D03*
X0086461Y0201800D03*
D11*
X0101461Y0201800D03*
X0111461Y0201800D03*
X0121461Y0201800D03*
X0131461Y0201800D03*
X0141461Y0201800D03*
X0151461Y0201800D03*
X0161461Y0201800D03*
X0171461Y0201800D03*
X0181461Y0201800D03*
X0191461Y0201800D03*
X0206461Y0201800D03*
X0216461Y0201800D03*
X0226461Y0201800D03*
X0236461Y0201800D03*
X0246461Y0201800D03*
X0256461Y0201800D03*
X0266461Y0201800D03*
X0276461Y0201800D03*
X0271461Y0081800D03*
X0261461Y0081800D03*
X0251461Y0081800D03*
X0241461Y0081800D03*
X0231461Y0081800D03*
X0221461Y0081800D03*
X0211461Y0081800D03*
X0201461Y0081800D03*
X0191461Y0081800D03*
X0181461Y0081800D03*
X0171461Y0081800D03*
X0161461Y0081800D03*
X0151461Y0081800D03*
X0141461Y0081800D03*
X0141461Y0051800D03*
X0151461Y0051800D03*
X0161461Y0051800D03*
X0171461Y0051800D03*
X0181461Y0051800D03*
X0191461Y0051800D03*
X0201461Y0051800D03*
X0211461Y0051800D03*
X0221461Y0051800D03*
X0231461Y0051800D03*
X0241461Y0051800D03*
X0251461Y0051800D03*
X0261461Y0051800D03*
X0271461Y0051800D03*
X0276461Y0011800D03*
X0266461Y0011800D03*
X0256461Y0011800D03*
X0246461Y0011800D03*
X0236461Y0011800D03*
X0226461Y0011800D03*
X0206461Y0011800D03*
X0196461Y0011800D03*
X0186461Y0011800D03*
X0176461Y0011800D03*
X0166461Y0011800D03*
X0156461Y0011800D03*
X0146461Y0011800D03*
X0136461Y0011800D03*
D12*
X0136461Y0009000D02*
X0136461Y0014600D01*
X0146461Y0014600D02*
X0146461Y0009000D01*
X0156461Y0009000D02*
X0156461Y0014600D01*
X0166461Y0014600D02*
X0166461Y0009000D01*
X0176461Y0009000D02*
X0176461Y0014600D01*
X0186461Y0014600D02*
X0186461Y0009000D01*
X0196461Y0009000D02*
X0196461Y0014600D01*
X0206461Y0014600D02*
X0206461Y0009000D01*
X0226461Y0009000D02*
X0226461Y0014600D01*
X0236461Y0014600D02*
X0236461Y0009000D01*
X0246461Y0009000D02*
X0246461Y0014600D01*
X0256461Y0014600D02*
X0256461Y0009000D01*
X0266461Y0009000D02*
X0266461Y0014600D01*
X0276461Y0014600D02*
X0276461Y0009000D01*
X0271461Y0049000D02*
X0271461Y0054600D01*
X0261461Y0054600D02*
X0261461Y0049000D01*
X0251461Y0049000D02*
X0251461Y0054600D01*
X0241461Y0054600D02*
X0241461Y0049000D01*
X0231461Y0049000D02*
X0231461Y0054600D01*
X0221461Y0054600D02*
X0221461Y0049000D01*
X0211461Y0049000D02*
X0211461Y0054600D01*
X0201461Y0054600D02*
X0201461Y0049000D01*
X0191461Y0049000D02*
X0191461Y0054600D01*
X0181461Y0054600D02*
X0181461Y0049000D01*
X0171461Y0049000D02*
X0171461Y0054600D01*
X0161461Y0054600D02*
X0161461Y0049000D01*
X0151461Y0049000D02*
X0151461Y0054600D01*
X0141461Y0054600D02*
X0141461Y0049000D01*
X0141461Y0079000D02*
X0141461Y0084600D01*
X0151461Y0084600D02*
X0151461Y0079000D01*
X0161461Y0079000D02*
X0161461Y0084600D01*
X0171461Y0084600D02*
X0171461Y0079000D01*
X0181461Y0079000D02*
X0181461Y0084600D01*
X0191461Y0084600D02*
X0191461Y0079000D01*
X0201461Y0079000D02*
X0201461Y0084600D01*
X0211461Y0084600D02*
X0211461Y0079000D01*
X0221461Y0079000D02*
X0221461Y0084600D01*
X0231461Y0084600D02*
X0231461Y0079000D01*
X0241461Y0079000D02*
X0241461Y0084600D01*
X0251461Y0084600D02*
X0251461Y0079000D01*
X0261461Y0079000D02*
X0261461Y0084600D01*
X0271461Y0084600D02*
X0271461Y0079000D01*
X0276461Y0199000D02*
X0276461Y0204600D01*
X0266461Y0204600D02*
X0266461Y0199000D01*
X0256461Y0199000D02*
X0256461Y0204600D01*
X0246461Y0204600D02*
X0246461Y0199000D01*
X0236461Y0199000D02*
X0236461Y0204600D01*
X0226461Y0204600D02*
X0226461Y0199000D01*
X0216461Y0199000D02*
X0216461Y0204600D01*
X0206461Y0204600D02*
X0206461Y0199000D01*
X0191461Y0199000D02*
X0191461Y0204600D01*
X0181461Y0204600D02*
X0181461Y0199000D01*
X0171461Y0199000D02*
X0171461Y0204600D01*
X0161461Y0204600D02*
X0161461Y0199000D01*
X0151461Y0199000D02*
X0151461Y0204600D01*
X0141461Y0204600D02*
X0141461Y0199000D01*
X0131461Y0199000D02*
X0131461Y0204600D01*
X0121461Y0204600D02*
X0121461Y0199000D01*
X0111461Y0199000D02*
X0111461Y0204600D01*
X0101461Y0204600D02*
X0101461Y0199000D01*
D13*
X0103161Y0086800D02*
X0109761Y0086800D01*
X0109761Y0076800D02*
X0103161Y0076800D01*
X0103161Y0066800D02*
X0109761Y0066800D01*
D14*
X0047461Y0076800D03*
D15*
X0052461Y0110800D03*
X0042461Y0110800D03*
X0076461Y0110800D03*
X0076461Y0122800D03*
X0076461Y0133800D03*
X0086461Y0143800D03*
X0096461Y0143800D03*
X0106461Y0133800D03*
X0106461Y0122800D03*
X0106461Y0110800D03*
X0106461Y0097800D03*
X0116461Y0097800D03*
X0164461Y0131800D03*
X0164461Y0141800D03*
X0179461Y0141800D03*
X0193461Y0141800D03*
X0193461Y0131800D03*
X0179461Y0131800D03*
X0218461Y0126800D03*
X0241461Y0111800D03*
X0241461Y0099800D03*
X0211461Y0093800D03*
X0201461Y0093800D03*
X0248461Y0126800D03*
X0271461Y0111800D03*
X0271461Y0099800D03*
X0211461Y0039800D03*
X0201461Y0039800D03*
X0096461Y0031800D03*
X0106461Y0154800D03*
X0076461Y0154800D03*
X0062461Y0194800D03*
X0062461Y0204800D03*
X0041461Y0204800D03*
X0041461Y0194800D03*
D16*
X0176961Y0116800D03*
X0195961Y0116800D03*
X0096461Y0039800D03*
D17*
X0112461Y0165800D03*
X0072461Y0165800D03*
D18*
X0075861Y0177800D02*
X0081061Y0177800D01*
X0105861Y0177800D02*
X0111061Y0177800D01*
X0114461Y0054400D02*
X0114461Y0049200D01*
X0114461Y0024400D02*
X0114461Y0019200D01*
D19*
X0071461Y0036500D03*
X0047861Y0036500D03*
X0059661Y0016800D03*
D20*
X0047861Y0033500D03*
X0047861Y0039500D03*
X0071461Y0039500D03*
X0071461Y0033500D03*
X0062661Y0016800D03*
X0056661Y0016800D03*
D21*
X0060004Y0146879D03*
X0052130Y0146879D03*
X0052130Y0156721D03*
X0060004Y0156721D03*
D22*
X0041461Y0175422D03*
X0041461Y0128178D03*
D23*
X0086461Y0101800D03*
X0157461Y0174800D03*
X0151461Y0181800D03*
X0134461Y0175300D03*
X0211461Y0139800D03*
M02*
