%
M48
M72
T01C0.03200
T02C0.03346
T03C0.03543
T04C0.03740
T05C0.04400
T06C0.05118
T07C0.08661
T08C0.12598
T09C0.13000
%
T01
X96461Y31800
X96461Y39800
X114461Y51800
X114461Y21800
X201461Y39800
X211461Y39800
X211461Y93800
X201461Y93800
X195961Y116800
X176961Y116800
X179461Y131800
X193461Y131800
X193461Y141800
X179461Y141800
X164461Y141800
X164461Y131800
X211461Y139800
X218461Y126800
X241461Y111800
X241461Y99800
X271461Y99800
X271461Y111800
X248461Y126800
X157461Y174800
X151461Y181800
X134461Y175300
X108461Y177800
X78461Y177800
X62461Y194800
X62461Y204800
X41461Y204800
X41461Y194800
X76461Y154800
X86461Y143800
X96461Y143800
X106461Y133800
X106461Y122800
X106461Y110800
X106461Y97800
X116461Y97800
X86461Y101800
X76461Y110800
X76461Y122800
X76461Y133800
X106461Y154800
X52461Y110800
X42461Y110800
T02
X141461Y81800
X151461Y81800
X161461Y81800
X171461Y81800
X181461Y81800
X191461Y81800
X201461Y81800
X211461Y81800
X221461Y81800
X231461Y81800
X241461Y81800
X251461Y81800
X261461Y81800
X271461Y81800
X271461Y51800
X261461Y51800
X251461Y51800
X241461Y51800
X231461Y51800
X221461Y51800
X211461Y51800
X201461Y51800
X191461Y51800
X181461Y51800
X171461Y51800
X161461Y51800
X151461Y51800
X141461Y51800
X146461Y11800
X156461Y11800
X166461Y11800
X176461Y11800
X186461Y11800
X196461Y11800
X206461Y11800
X226461Y11800
X236461Y11800
X246461Y11800
X256461Y11800
X266461Y11800
X276461Y11800
X136461Y11800
X141461Y201800
X151461Y201800
X161461Y201800
X171461Y201800
X181461Y201800
X191461Y201800
X206461Y201800
X216461Y201800
X226461Y201800
X236461Y201800
X246461Y201800
X256461Y201800
X266461Y201800
X276461Y201800
X131461Y201800
X121461Y201800
X111461Y201800
X101461Y201800
T03
X101461Y201800
X111461Y201800
X121461Y201800
X131461Y201800
X141461Y201800
X151461Y201800
X161461Y201800
X171461Y201800
X181461Y201800
X191461Y201800
X206461Y201800
X216461Y201800
X226461Y201800
X236461Y201800
X246461Y201800
X256461Y201800
X266461Y201800
X276461Y201800
X271461Y81800
X261461Y81800
X251461Y81800
X241461Y81800
X231461Y81800
X221461Y81800
X211461Y81800
X201461Y81800
X191461Y81800
X181461Y81800
X171461Y81800
X161461Y81800
X151461Y81800
X141461Y81800
X141461Y51800
X151461Y51800
X161461Y51800
X171461Y51800
X181461Y51800
X191461Y51800
X201461Y51800
X211461Y51800
X221461Y51800
X231461Y51800
X241461Y51800
X251461Y51800
X261461Y51800
X271461Y51800
X276461Y11800
X266461Y11800
X256461Y11800
X246461Y11800
X236461Y11800
X226461Y11800
X206461Y11800
X196461Y11800
X186461Y11800
X176461Y11800
X166461Y11800
X156461Y11800
X146461Y11800
X136461Y11800
T04
X60004Y146879
X52130Y146879
X52130Y156721
X60004Y156721
T05
X72461Y165800
X112461Y165800
X106461Y86800
X106461Y76800
X106461Y66800
T06
X47861Y33500
X47861Y36500
X47861Y39500
X71461Y39500
X71461Y36500
X71461Y33500
X62661Y16800
X59661Y16800
X56661Y16800
T07
X41461Y128178
X41461Y175422
T08
X86461Y201800
X286461Y141800
X286461Y31800
X81461Y11800
T09
X47461Y76800
M30
