G04 EAGLE Gerber RS-274X export*
G75*
%MOMM*%
%FSLAX34Y34*%
%LPD*%
%INSoldermask Top*%
%IPPOS*%
%AMOC8*
5,1,8,0,0,1.08239X$1,22.5*%
G01*
%ADD10C,3.403200*%
%ADD11C,1.103200*%
%ADD12C,1.625600*%
%ADD13C,1.879600*%
%ADD14C,3.505200*%
%ADD15P,1.649562X8X22.500000*%
%ADD16P,1.649562X8X202.500000*%
%ADD17C,1.524000*%
%ADD18P,1.649562X8X292.500000*%
%ADD19C,1.879600*%
%ADD20P,1.649562X8X112.500000*%
%ADD21C,1.524000*%
%ADD22P,4.549502X8X202.500000*%
%ADD23P,4.549502X8X112.500000*%
%ADD24C,2.153200*%
%ADD25P,2.034460X8X292.500000*%
%ADD26C,3.419200*%
%ADD27C,2.184400*%
%ADD28C,1.219200*%
%ADD29R,1.403200X0.803200*%
%ADD30C,1.203200*%
%ADD31C,1.981200*%


D10*
X139700Y25400D03*
X660400Y76200D03*
X660400Y355600D03*
X152400Y508000D03*
D11*
X190500Y508000D03*
X215900Y508000D03*
X241300Y508000D03*
X266700Y508000D03*
X292100Y508000D03*
X317500Y508000D03*
X342900Y508000D03*
X368300Y508000D03*
X393700Y508000D03*
X419100Y508000D03*
X457200Y508000D03*
X482600Y508000D03*
X508000Y508000D03*
X533400Y508000D03*
X558800Y508000D03*
X584200Y508000D03*
X609600Y508000D03*
X635000Y508000D03*
X622300Y203200D03*
X596900Y203200D03*
X571500Y203200D03*
X546100Y203200D03*
X520700Y203200D03*
X495300Y203200D03*
X469900Y203200D03*
X444500Y203200D03*
X419100Y203200D03*
X393700Y203200D03*
X368300Y203200D03*
X342900Y203200D03*
X317500Y203200D03*
X292100Y203200D03*
X292100Y127000D03*
X317500Y127000D03*
X342900Y127000D03*
X368300Y127000D03*
X393700Y127000D03*
X419100Y127000D03*
X444500Y127000D03*
X469900Y127000D03*
X495300Y127000D03*
X520700Y127000D03*
X546100Y127000D03*
X571500Y127000D03*
X596900Y127000D03*
X622300Y127000D03*
X508000Y25400D03*
X533400Y25400D03*
X558800Y25400D03*
X584200Y25400D03*
X609600Y25400D03*
X635000Y25400D03*
X279400Y25400D03*
X304800Y25400D03*
X330200Y25400D03*
X355600Y25400D03*
X381000Y25400D03*
X406400Y25400D03*
X431800Y25400D03*
X457200Y25400D03*
D12*
X622300Y196088D02*
X622300Y210312D01*
X596900Y210312D02*
X596900Y196088D01*
X571500Y196088D02*
X571500Y210312D01*
X546100Y210312D02*
X546100Y196088D01*
X520700Y196088D02*
X520700Y210312D01*
X495300Y210312D02*
X495300Y196088D01*
X469900Y196088D02*
X469900Y210312D01*
X444500Y210312D02*
X444500Y196088D01*
X419100Y196088D02*
X419100Y210312D01*
X393700Y210312D02*
X393700Y196088D01*
X368300Y196088D02*
X368300Y210312D01*
X342900Y210312D02*
X342900Y196088D01*
X317500Y196088D02*
X317500Y210312D01*
X292100Y210312D02*
X292100Y196088D01*
X292100Y134112D02*
X292100Y119888D01*
X317500Y119888D02*
X317500Y134112D01*
X342900Y134112D02*
X342900Y119888D01*
X368300Y119888D02*
X368300Y134112D01*
X393700Y134112D02*
X393700Y119888D01*
X419100Y119888D02*
X419100Y134112D01*
X444500Y134112D02*
X444500Y119888D01*
X469900Y119888D02*
X469900Y134112D01*
X495300Y134112D02*
X495300Y119888D01*
X520700Y119888D02*
X520700Y134112D01*
X546100Y134112D02*
X546100Y119888D01*
X571500Y119888D02*
X571500Y134112D01*
X596900Y134112D02*
X596900Y119888D01*
X622300Y119888D02*
X622300Y134112D01*
D13*
X211582Y165100D02*
X194818Y165100D01*
X194818Y190500D02*
X211582Y190500D01*
X211582Y215900D02*
X194818Y215900D01*
D14*
X53340Y190500D03*
D15*
X203200Y243840D03*
X228600Y243840D03*
X444500Y96520D03*
X469900Y96520D03*
X476250Y318770D03*
X552450Y318770D03*
X546100Y279400D03*
X622300Y279400D03*
X127000Y276860D03*
X203200Y276860D03*
D16*
X66040Y276860D03*
X40640Y276860D03*
D17*
X430530Y292100D03*
X382270Y292100D03*
D18*
X388620Y355600D03*
X388620Y330200D03*
X424180Y355600D03*
X424180Y330200D03*
D16*
X622300Y248920D03*
X546100Y248920D03*
D15*
X127000Y388620D03*
X203200Y388620D03*
D19*
X116840Y416560D03*
X218440Y416560D03*
D18*
X177800Y76200D03*
D17*
X177800Y96520D03*
D20*
X355600Y331470D03*
X355600Y356870D03*
D16*
X203200Y307340D03*
X127000Y307340D03*
D18*
X91440Y515620D03*
X91440Y490220D03*
D16*
X205740Y472440D03*
X129540Y472440D03*
D18*
X38100Y515620D03*
X38100Y490220D03*
D21*
X125476Y447040D02*
X138684Y447040D01*
X201676Y447040D02*
X214884Y447040D01*
D15*
X152400Y363220D03*
X177800Y363220D03*
D12*
X635000Y500888D02*
X635000Y515112D01*
X609600Y515112D02*
X609600Y500888D01*
X584200Y500888D02*
X584200Y515112D01*
X558800Y515112D02*
X558800Y500888D01*
X533400Y500888D02*
X533400Y515112D01*
X508000Y515112D02*
X508000Y500888D01*
X482600Y500888D02*
X482600Y515112D01*
X457200Y515112D02*
X457200Y500888D01*
X419100Y500888D02*
X419100Y515112D01*
X393700Y515112D02*
X393700Y500888D01*
X368300Y500888D02*
X368300Y515112D01*
X342900Y515112D02*
X342900Y500888D01*
X317500Y500888D02*
X317500Y515112D01*
X292100Y515112D02*
X292100Y500888D01*
X266700Y500888D02*
X266700Y515112D01*
X241300Y515112D02*
X241300Y500888D01*
X215900Y500888D02*
X215900Y515112D01*
X190500Y515112D02*
X190500Y500888D01*
X508000Y32512D02*
X508000Y18288D01*
X533400Y18288D02*
X533400Y32512D01*
X558800Y32512D02*
X558800Y18288D01*
X584200Y18288D02*
X584200Y32512D01*
X609600Y32512D02*
X609600Y18288D01*
X635000Y18288D02*
X635000Y32512D01*
D22*
X84328Y38100D03*
D23*
X114300Y88138D03*
X54356Y88138D03*
D24*
X91948Y38100D03*
X76708Y38100D03*
X54356Y80518D03*
X54356Y95758D03*
X114300Y80518D03*
X114300Y95758D03*
D21*
X223520Y120396D02*
X223520Y133604D01*
X223520Y57404D02*
X223520Y44196D01*
D25*
X85200Y368500D03*
X85200Y393500D03*
X65200Y393500D03*
X65200Y368500D03*
D26*
X38100Y441000D03*
X38100Y321000D03*
D27*
X657940Y109220D02*
X657942Y109361D01*
X657948Y109502D01*
X657958Y109642D01*
X657972Y109782D01*
X657990Y109922D01*
X658011Y110061D01*
X658037Y110200D01*
X658066Y110338D01*
X658100Y110474D01*
X658137Y110610D01*
X658178Y110745D01*
X658223Y110879D01*
X658272Y111011D01*
X658324Y111142D01*
X658380Y111271D01*
X658440Y111398D01*
X658503Y111524D01*
X658569Y111648D01*
X658640Y111771D01*
X658713Y111891D01*
X658790Y112009D01*
X658870Y112125D01*
X658954Y112238D01*
X659040Y112349D01*
X659130Y112458D01*
X659223Y112564D01*
X659318Y112667D01*
X659417Y112768D01*
X659518Y112866D01*
X659622Y112961D01*
X659729Y113053D01*
X659838Y113142D01*
X659950Y113227D01*
X660064Y113310D01*
X660180Y113390D01*
X660299Y113466D01*
X660420Y113538D01*
X660542Y113608D01*
X660667Y113673D01*
X660793Y113736D01*
X660921Y113794D01*
X661051Y113849D01*
X661182Y113901D01*
X661315Y113948D01*
X661449Y113992D01*
X661584Y114033D01*
X661720Y114069D01*
X661857Y114101D01*
X661995Y114130D01*
X662133Y114155D01*
X662273Y114175D01*
X662413Y114192D01*
X662553Y114205D01*
X662694Y114214D01*
X662834Y114219D01*
X662975Y114220D01*
X663116Y114217D01*
X663257Y114210D01*
X663397Y114199D01*
X663537Y114184D01*
X663677Y114165D01*
X663816Y114143D01*
X663954Y114116D01*
X664092Y114086D01*
X664228Y114051D01*
X664364Y114013D01*
X664498Y113971D01*
X664632Y113925D01*
X664764Y113876D01*
X664894Y113822D01*
X665023Y113765D01*
X665150Y113705D01*
X665276Y113641D01*
X665399Y113573D01*
X665521Y113502D01*
X665641Y113428D01*
X665758Y113350D01*
X665873Y113269D01*
X665986Y113185D01*
X666097Y113098D01*
X666205Y113007D01*
X666310Y112914D01*
X666413Y112817D01*
X666513Y112718D01*
X666610Y112616D01*
X666704Y112511D01*
X666795Y112404D01*
X666883Y112294D01*
X666968Y112182D01*
X667050Y112067D01*
X667129Y111950D01*
X667204Y111831D01*
X667276Y111710D01*
X667344Y111587D01*
X667409Y111462D01*
X667471Y111335D01*
X667528Y111206D01*
X667583Y111076D01*
X667633Y110945D01*
X667680Y110812D01*
X667723Y110678D01*
X667762Y110542D01*
X667797Y110406D01*
X667829Y110269D01*
X667856Y110131D01*
X667880Y109992D01*
X667900Y109852D01*
X667916Y109712D01*
X667928Y109572D01*
X667936Y109431D01*
X667940Y109290D01*
X667940Y109150D01*
X667936Y109009D01*
X667928Y108868D01*
X667916Y108728D01*
X667900Y108588D01*
X667880Y108448D01*
X667856Y108309D01*
X667829Y108171D01*
X667797Y108034D01*
X667762Y107898D01*
X667723Y107762D01*
X667680Y107628D01*
X667633Y107495D01*
X667583Y107364D01*
X667528Y107234D01*
X667471Y107105D01*
X667409Y106978D01*
X667344Y106853D01*
X667276Y106730D01*
X667204Y106609D01*
X667129Y106490D01*
X667050Y106373D01*
X666968Y106258D01*
X666883Y106146D01*
X666795Y106036D01*
X666704Y105929D01*
X666610Y105824D01*
X666513Y105722D01*
X666413Y105623D01*
X666310Y105526D01*
X666205Y105433D01*
X666097Y105342D01*
X665986Y105255D01*
X665873Y105171D01*
X665758Y105090D01*
X665641Y105012D01*
X665521Y104938D01*
X665399Y104867D01*
X665276Y104799D01*
X665150Y104735D01*
X665023Y104675D01*
X664894Y104618D01*
X664764Y104564D01*
X664632Y104515D01*
X664498Y104469D01*
X664364Y104427D01*
X664228Y104389D01*
X664092Y104354D01*
X663954Y104324D01*
X663816Y104297D01*
X663677Y104275D01*
X663537Y104256D01*
X663397Y104241D01*
X663257Y104230D01*
X663116Y104223D01*
X662975Y104220D01*
X662834Y104221D01*
X662694Y104226D01*
X662553Y104235D01*
X662413Y104248D01*
X662273Y104265D01*
X662133Y104285D01*
X661995Y104310D01*
X661857Y104339D01*
X661720Y104371D01*
X661584Y104407D01*
X661449Y104448D01*
X661315Y104492D01*
X661182Y104539D01*
X661051Y104591D01*
X660921Y104646D01*
X660793Y104704D01*
X660667Y104767D01*
X660542Y104832D01*
X660420Y104902D01*
X660299Y104974D01*
X660180Y105050D01*
X660064Y105130D01*
X659950Y105213D01*
X659838Y105298D01*
X659729Y105387D01*
X659622Y105479D01*
X659518Y105574D01*
X659417Y105672D01*
X659318Y105773D01*
X659223Y105876D01*
X659130Y105982D01*
X659040Y106091D01*
X658954Y106202D01*
X658870Y106315D01*
X658790Y106431D01*
X658713Y106549D01*
X658640Y106669D01*
X658569Y106792D01*
X658503Y106916D01*
X658440Y107042D01*
X658380Y107169D01*
X658324Y107298D01*
X658272Y107429D01*
X658223Y107561D01*
X658178Y107695D01*
X658137Y107830D01*
X658100Y107966D01*
X658066Y108102D01*
X658037Y108240D01*
X658011Y108379D01*
X657990Y108518D01*
X657972Y108658D01*
X657958Y108798D01*
X657948Y108938D01*
X657942Y109079D01*
X657940Y109220D01*
D28*
X662940Y109220D03*
D27*
X177880Y20320D02*
X177882Y20461D01*
X177888Y20602D01*
X177898Y20742D01*
X177912Y20882D01*
X177930Y21022D01*
X177951Y21161D01*
X177977Y21300D01*
X178006Y21438D01*
X178040Y21574D01*
X178077Y21710D01*
X178118Y21845D01*
X178163Y21979D01*
X178212Y22111D01*
X178264Y22242D01*
X178320Y22371D01*
X178380Y22498D01*
X178443Y22624D01*
X178509Y22748D01*
X178580Y22871D01*
X178653Y22991D01*
X178730Y23109D01*
X178810Y23225D01*
X178894Y23338D01*
X178980Y23449D01*
X179070Y23558D01*
X179163Y23664D01*
X179258Y23767D01*
X179357Y23868D01*
X179458Y23966D01*
X179562Y24061D01*
X179669Y24153D01*
X179778Y24242D01*
X179890Y24327D01*
X180004Y24410D01*
X180120Y24490D01*
X180239Y24566D01*
X180360Y24638D01*
X180482Y24708D01*
X180607Y24773D01*
X180733Y24836D01*
X180861Y24894D01*
X180991Y24949D01*
X181122Y25001D01*
X181255Y25048D01*
X181389Y25092D01*
X181524Y25133D01*
X181660Y25169D01*
X181797Y25201D01*
X181935Y25230D01*
X182073Y25255D01*
X182213Y25275D01*
X182353Y25292D01*
X182493Y25305D01*
X182634Y25314D01*
X182774Y25319D01*
X182915Y25320D01*
X183056Y25317D01*
X183197Y25310D01*
X183337Y25299D01*
X183477Y25284D01*
X183617Y25265D01*
X183756Y25243D01*
X183894Y25216D01*
X184032Y25186D01*
X184168Y25151D01*
X184304Y25113D01*
X184438Y25071D01*
X184572Y25025D01*
X184704Y24976D01*
X184834Y24922D01*
X184963Y24865D01*
X185090Y24805D01*
X185216Y24741D01*
X185339Y24673D01*
X185461Y24602D01*
X185581Y24528D01*
X185698Y24450D01*
X185813Y24369D01*
X185926Y24285D01*
X186037Y24198D01*
X186145Y24107D01*
X186250Y24014D01*
X186353Y23917D01*
X186453Y23818D01*
X186550Y23716D01*
X186644Y23611D01*
X186735Y23504D01*
X186823Y23394D01*
X186908Y23282D01*
X186990Y23167D01*
X187069Y23050D01*
X187144Y22931D01*
X187216Y22810D01*
X187284Y22687D01*
X187349Y22562D01*
X187411Y22435D01*
X187468Y22306D01*
X187523Y22176D01*
X187573Y22045D01*
X187620Y21912D01*
X187663Y21778D01*
X187702Y21642D01*
X187737Y21506D01*
X187769Y21369D01*
X187796Y21231D01*
X187820Y21092D01*
X187840Y20952D01*
X187856Y20812D01*
X187868Y20672D01*
X187876Y20531D01*
X187880Y20390D01*
X187880Y20250D01*
X187876Y20109D01*
X187868Y19968D01*
X187856Y19828D01*
X187840Y19688D01*
X187820Y19548D01*
X187796Y19409D01*
X187769Y19271D01*
X187737Y19134D01*
X187702Y18998D01*
X187663Y18862D01*
X187620Y18728D01*
X187573Y18595D01*
X187523Y18464D01*
X187468Y18334D01*
X187411Y18205D01*
X187349Y18078D01*
X187284Y17953D01*
X187216Y17830D01*
X187144Y17709D01*
X187069Y17590D01*
X186990Y17473D01*
X186908Y17358D01*
X186823Y17246D01*
X186735Y17136D01*
X186644Y17029D01*
X186550Y16924D01*
X186453Y16822D01*
X186353Y16723D01*
X186250Y16626D01*
X186145Y16533D01*
X186037Y16442D01*
X185926Y16355D01*
X185813Y16271D01*
X185698Y16190D01*
X185581Y16112D01*
X185461Y16038D01*
X185339Y15967D01*
X185216Y15899D01*
X185090Y15835D01*
X184963Y15775D01*
X184834Y15718D01*
X184704Y15664D01*
X184572Y15615D01*
X184438Y15569D01*
X184304Y15527D01*
X184168Y15489D01*
X184032Y15454D01*
X183894Y15424D01*
X183756Y15397D01*
X183617Y15375D01*
X183477Y15356D01*
X183337Y15341D01*
X183197Y15330D01*
X183056Y15323D01*
X182915Y15320D01*
X182774Y15321D01*
X182634Y15326D01*
X182493Y15335D01*
X182353Y15348D01*
X182213Y15365D01*
X182073Y15385D01*
X181935Y15410D01*
X181797Y15439D01*
X181660Y15471D01*
X181524Y15507D01*
X181389Y15548D01*
X181255Y15592D01*
X181122Y15639D01*
X180991Y15691D01*
X180861Y15746D01*
X180733Y15804D01*
X180607Y15867D01*
X180482Y15932D01*
X180360Y16002D01*
X180239Y16074D01*
X180120Y16150D01*
X180004Y16230D01*
X179890Y16313D01*
X179778Y16398D01*
X179669Y16487D01*
X179562Y16579D01*
X179458Y16674D01*
X179357Y16772D01*
X179258Y16873D01*
X179163Y16976D01*
X179070Y17082D01*
X178980Y17191D01*
X178894Y17302D01*
X178810Y17415D01*
X178730Y17531D01*
X178653Y17649D01*
X178580Y17769D01*
X178509Y17892D01*
X178443Y18016D01*
X178380Y18142D01*
X178320Y18269D01*
X178264Y18398D01*
X178212Y18529D01*
X178163Y18661D01*
X178118Y18795D01*
X178077Y18930D01*
X178040Y19066D01*
X178006Y19202D01*
X177977Y19340D01*
X177951Y19479D01*
X177930Y19618D01*
X177912Y19758D01*
X177898Y19898D01*
X177888Y20038D01*
X177882Y20179D01*
X177880Y20320D01*
D28*
X182880Y20320D03*
D12*
X279400Y18288D02*
X279400Y32512D01*
X304800Y32512D02*
X304800Y18288D01*
X330200Y18288D02*
X330200Y32512D01*
X355600Y32512D02*
X355600Y18288D01*
X381000Y18288D02*
X381000Y32512D01*
X406400Y32512D02*
X406400Y18288D01*
X431800Y18288D02*
X431800Y32512D01*
X457200Y32512D02*
X457200Y18288D01*
D16*
X469900Y233680D03*
X444500Y233680D03*
D29*
X242510Y411480D03*
X242510Y398780D03*
X242510Y386080D03*
X242510Y373380D03*
X242510Y360680D03*
X242510Y347980D03*
X242510Y335280D03*
X242510Y322580D03*
X298510Y322580D03*
X298510Y335280D03*
X298510Y347980D03*
X298510Y360680D03*
X298510Y373380D03*
X298510Y386080D03*
X298510Y398780D03*
X298510Y411480D03*
D17*
X303530Y284480D03*
X255270Y284480D03*
D15*
X255270Y243840D03*
X280670Y243840D03*
X304800Y242570D03*
X330200Y242570D03*
D27*
X643970Y389890D02*
X643972Y390031D01*
X643978Y390172D01*
X643988Y390312D01*
X644002Y390452D01*
X644020Y390592D01*
X644041Y390731D01*
X644067Y390870D01*
X644096Y391008D01*
X644130Y391144D01*
X644167Y391280D01*
X644208Y391415D01*
X644253Y391549D01*
X644302Y391681D01*
X644354Y391812D01*
X644410Y391941D01*
X644470Y392068D01*
X644533Y392194D01*
X644599Y392318D01*
X644670Y392441D01*
X644743Y392561D01*
X644820Y392679D01*
X644900Y392795D01*
X644984Y392908D01*
X645070Y393019D01*
X645160Y393128D01*
X645253Y393234D01*
X645348Y393337D01*
X645447Y393438D01*
X645548Y393536D01*
X645652Y393631D01*
X645759Y393723D01*
X645868Y393812D01*
X645980Y393897D01*
X646094Y393980D01*
X646210Y394060D01*
X646329Y394136D01*
X646450Y394208D01*
X646572Y394278D01*
X646697Y394343D01*
X646823Y394406D01*
X646951Y394464D01*
X647081Y394519D01*
X647212Y394571D01*
X647345Y394618D01*
X647479Y394662D01*
X647614Y394703D01*
X647750Y394739D01*
X647887Y394771D01*
X648025Y394800D01*
X648163Y394825D01*
X648303Y394845D01*
X648443Y394862D01*
X648583Y394875D01*
X648724Y394884D01*
X648864Y394889D01*
X649005Y394890D01*
X649146Y394887D01*
X649287Y394880D01*
X649427Y394869D01*
X649567Y394854D01*
X649707Y394835D01*
X649846Y394813D01*
X649984Y394786D01*
X650122Y394756D01*
X650258Y394721D01*
X650394Y394683D01*
X650528Y394641D01*
X650662Y394595D01*
X650794Y394546D01*
X650924Y394492D01*
X651053Y394435D01*
X651180Y394375D01*
X651306Y394311D01*
X651429Y394243D01*
X651551Y394172D01*
X651671Y394098D01*
X651788Y394020D01*
X651903Y393939D01*
X652016Y393855D01*
X652127Y393768D01*
X652235Y393677D01*
X652340Y393584D01*
X652443Y393487D01*
X652543Y393388D01*
X652640Y393286D01*
X652734Y393181D01*
X652825Y393074D01*
X652913Y392964D01*
X652998Y392852D01*
X653080Y392737D01*
X653159Y392620D01*
X653234Y392501D01*
X653306Y392380D01*
X653374Y392257D01*
X653439Y392132D01*
X653501Y392005D01*
X653558Y391876D01*
X653613Y391746D01*
X653663Y391615D01*
X653710Y391482D01*
X653753Y391348D01*
X653792Y391212D01*
X653827Y391076D01*
X653859Y390939D01*
X653886Y390801D01*
X653910Y390662D01*
X653930Y390522D01*
X653946Y390382D01*
X653958Y390242D01*
X653966Y390101D01*
X653970Y389960D01*
X653970Y389820D01*
X653966Y389679D01*
X653958Y389538D01*
X653946Y389398D01*
X653930Y389258D01*
X653910Y389118D01*
X653886Y388979D01*
X653859Y388841D01*
X653827Y388704D01*
X653792Y388568D01*
X653753Y388432D01*
X653710Y388298D01*
X653663Y388165D01*
X653613Y388034D01*
X653558Y387904D01*
X653501Y387775D01*
X653439Y387648D01*
X653374Y387523D01*
X653306Y387400D01*
X653234Y387279D01*
X653159Y387160D01*
X653080Y387043D01*
X652998Y386928D01*
X652913Y386816D01*
X652825Y386706D01*
X652734Y386599D01*
X652640Y386494D01*
X652543Y386392D01*
X652443Y386293D01*
X652340Y386196D01*
X652235Y386103D01*
X652127Y386012D01*
X652016Y385925D01*
X651903Y385841D01*
X651788Y385760D01*
X651671Y385682D01*
X651551Y385608D01*
X651429Y385537D01*
X651306Y385469D01*
X651180Y385405D01*
X651053Y385345D01*
X650924Y385288D01*
X650794Y385234D01*
X650662Y385185D01*
X650528Y385139D01*
X650394Y385097D01*
X650258Y385059D01*
X650122Y385024D01*
X649984Y384994D01*
X649846Y384967D01*
X649707Y384945D01*
X649567Y384926D01*
X649427Y384911D01*
X649287Y384900D01*
X649146Y384893D01*
X649005Y384890D01*
X648864Y384891D01*
X648724Y384896D01*
X648583Y384905D01*
X648443Y384918D01*
X648303Y384935D01*
X648163Y384955D01*
X648025Y384980D01*
X647887Y385009D01*
X647750Y385041D01*
X647614Y385077D01*
X647479Y385118D01*
X647345Y385162D01*
X647212Y385209D01*
X647081Y385261D01*
X646951Y385316D01*
X646823Y385374D01*
X646697Y385437D01*
X646572Y385502D01*
X646450Y385572D01*
X646329Y385644D01*
X646210Y385720D01*
X646094Y385800D01*
X645980Y385883D01*
X645868Y385968D01*
X645759Y386057D01*
X645652Y386149D01*
X645548Y386244D01*
X645447Y386342D01*
X645348Y386443D01*
X645253Y386546D01*
X645160Y386652D01*
X645070Y386761D01*
X644984Y386872D01*
X644900Y386985D01*
X644820Y387101D01*
X644743Y387219D01*
X644670Y387339D01*
X644599Y387462D01*
X644533Y387586D01*
X644470Y387712D01*
X644410Y387839D01*
X644354Y387968D01*
X644302Y388099D01*
X644253Y388231D01*
X644208Y388365D01*
X644167Y388500D01*
X644130Y388636D01*
X644096Y388772D01*
X644067Y388910D01*
X644041Y389049D01*
X644020Y389188D01*
X644002Y389328D01*
X643988Y389468D01*
X643978Y389608D01*
X643972Y389749D01*
X643970Y389890D01*
D28*
X648970Y389890D03*
D30*
X345440Y440690D03*
X327660Y457200D03*
D31*
X491490Y359410D03*
X284480Y445770D03*
X152400Y254000D03*
M02*
