G04 EAGLE Gerber RS-274X export*
G75*
%MOMM*%
%FSLAX34Y34*%
%LPD*%
%INSoldermask Bottom*%
%IPPOS*%
%AMOC8*
5,1,8,0,0,1.08239X$1,22.5*%
G01*
%ADD10C,3.403200*%
%ADD11C,1.103200*%
%ADD12C,1.625600*%
%ADD13C,1.879600*%
%ADD14C,3.505200*%
%ADD15P,1.649562X8X22.500000*%
%ADD16P,1.649562X8X202.500000*%
%ADD17C,1.524000*%
%ADD18P,1.649562X8X292.500000*%
%ADD19C,1.879600*%
%ADD20P,1.649562X8X112.500000*%
%ADD21C,1.524000*%
%ADD22P,4.549502X8X202.500000*%
%ADD23P,4.549502X8X112.500000*%
%ADD24C,2.153200*%
%ADD25P,2.034460X8X292.500000*%
%ADD26C,3.419200*%
%ADD27C,1.203200*%
%ADD28C,1.981200*%


D10*
X139700Y25400D03*
X660400Y76200D03*
X660400Y355600D03*
X152400Y508000D03*
D11*
X190500Y508000D03*
X215900Y508000D03*
X241300Y508000D03*
X266700Y508000D03*
X292100Y508000D03*
X317500Y508000D03*
X342900Y508000D03*
X368300Y508000D03*
X393700Y508000D03*
X419100Y508000D03*
X457200Y508000D03*
X482600Y508000D03*
X508000Y508000D03*
X533400Y508000D03*
X558800Y508000D03*
X584200Y508000D03*
X609600Y508000D03*
X635000Y508000D03*
X622300Y203200D03*
X596900Y203200D03*
X571500Y203200D03*
X546100Y203200D03*
X520700Y203200D03*
X495300Y203200D03*
X469900Y203200D03*
X444500Y203200D03*
X419100Y203200D03*
X393700Y203200D03*
X368300Y203200D03*
X342900Y203200D03*
X317500Y203200D03*
X292100Y203200D03*
X292100Y127000D03*
X317500Y127000D03*
X342900Y127000D03*
X368300Y127000D03*
X393700Y127000D03*
X419100Y127000D03*
X444500Y127000D03*
X469900Y127000D03*
X495300Y127000D03*
X520700Y127000D03*
X546100Y127000D03*
X571500Y127000D03*
X596900Y127000D03*
X622300Y127000D03*
X508000Y25400D03*
X533400Y25400D03*
X558800Y25400D03*
X584200Y25400D03*
X609600Y25400D03*
X635000Y25400D03*
X279400Y25400D03*
X304800Y25400D03*
X330200Y25400D03*
X355600Y25400D03*
X381000Y25400D03*
X406400Y25400D03*
X431800Y25400D03*
X457200Y25400D03*
D12*
X622300Y196088D02*
X622300Y210312D01*
X596900Y210312D02*
X596900Y196088D01*
X571500Y196088D02*
X571500Y210312D01*
X546100Y210312D02*
X546100Y196088D01*
X520700Y196088D02*
X520700Y210312D01*
X495300Y210312D02*
X495300Y196088D01*
X469900Y196088D02*
X469900Y210312D01*
X444500Y210312D02*
X444500Y196088D01*
X419100Y196088D02*
X419100Y210312D01*
X393700Y210312D02*
X393700Y196088D01*
X368300Y196088D02*
X368300Y210312D01*
X342900Y210312D02*
X342900Y196088D01*
X317500Y196088D02*
X317500Y210312D01*
X292100Y210312D02*
X292100Y196088D01*
X292100Y134112D02*
X292100Y119888D01*
X317500Y119888D02*
X317500Y134112D01*
X342900Y134112D02*
X342900Y119888D01*
X368300Y119888D02*
X368300Y134112D01*
X393700Y134112D02*
X393700Y119888D01*
X419100Y119888D02*
X419100Y134112D01*
X444500Y134112D02*
X444500Y119888D01*
X469900Y119888D02*
X469900Y134112D01*
X495300Y134112D02*
X495300Y119888D01*
X520700Y119888D02*
X520700Y134112D01*
X546100Y134112D02*
X546100Y119888D01*
X571500Y119888D02*
X571500Y134112D01*
X596900Y134112D02*
X596900Y119888D01*
X622300Y119888D02*
X622300Y134112D01*
D13*
X211582Y165100D02*
X194818Y165100D01*
X194818Y190500D02*
X211582Y190500D01*
X211582Y215900D02*
X194818Y215900D01*
D14*
X53340Y190500D03*
D15*
X203200Y243840D03*
X228600Y243840D03*
X444500Y96520D03*
X469900Y96520D03*
X476250Y318770D03*
X552450Y318770D03*
X546100Y279400D03*
X622300Y279400D03*
X127000Y276860D03*
X203200Y276860D03*
D16*
X66040Y276860D03*
X40640Y276860D03*
D17*
X430530Y292100D03*
X382270Y292100D03*
D18*
X388620Y355600D03*
X388620Y330200D03*
X424180Y355600D03*
X424180Y330200D03*
D16*
X622300Y248920D03*
X546100Y248920D03*
D15*
X127000Y388620D03*
X203200Y388620D03*
D19*
X116840Y416560D03*
X218440Y416560D03*
D18*
X177800Y76200D03*
D17*
X177800Y96520D03*
D20*
X355600Y331470D03*
X355600Y356870D03*
D16*
X203200Y307340D03*
X127000Y307340D03*
D18*
X91440Y515620D03*
X91440Y490220D03*
D16*
X205740Y472440D03*
X129540Y472440D03*
D18*
X38100Y515620D03*
X38100Y490220D03*
D21*
X125476Y447040D02*
X138684Y447040D01*
X201676Y447040D02*
X214884Y447040D01*
D15*
X152400Y363220D03*
X177800Y363220D03*
D12*
X635000Y500888D02*
X635000Y515112D01*
X609600Y515112D02*
X609600Y500888D01*
X584200Y500888D02*
X584200Y515112D01*
X558800Y515112D02*
X558800Y500888D01*
X533400Y500888D02*
X533400Y515112D01*
X508000Y515112D02*
X508000Y500888D01*
X482600Y500888D02*
X482600Y515112D01*
X457200Y515112D02*
X457200Y500888D01*
X419100Y500888D02*
X419100Y515112D01*
X393700Y515112D02*
X393700Y500888D01*
X368300Y500888D02*
X368300Y515112D01*
X342900Y515112D02*
X342900Y500888D01*
X317500Y500888D02*
X317500Y515112D01*
X292100Y515112D02*
X292100Y500888D01*
X266700Y500888D02*
X266700Y515112D01*
X241300Y515112D02*
X241300Y500888D01*
X215900Y500888D02*
X215900Y515112D01*
X190500Y515112D02*
X190500Y500888D01*
X508000Y32512D02*
X508000Y18288D01*
X533400Y18288D02*
X533400Y32512D01*
X558800Y32512D02*
X558800Y18288D01*
X584200Y18288D02*
X584200Y32512D01*
X609600Y32512D02*
X609600Y18288D01*
X635000Y18288D02*
X635000Y32512D01*
D22*
X84328Y38100D03*
D23*
X114300Y88138D03*
X54356Y88138D03*
D24*
X91948Y38100D03*
X76708Y38100D03*
X54356Y80518D03*
X54356Y95758D03*
X114300Y80518D03*
X114300Y95758D03*
D21*
X223520Y120396D02*
X223520Y133604D01*
X223520Y57404D02*
X223520Y44196D01*
D25*
X85200Y368500D03*
X85200Y393500D03*
X65200Y393500D03*
X65200Y368500D03*
D26*
X38100Y441000D03*
X38100Y321000D03*
D12*
X279400Y32512D02*
X279400Y18288D01*
X304800Y18288D02*
X304800Y32512D01*
X330200Y32512D02*
X330200Y18288D01*
X355600Y18288D02*
X355600Y32512D01*
X381000Y32512D02*
X381000Y18288D01*
X406400Y18288D02*
X406400Y32512D01*
X431800Y32512D02*
X431800Y18288D01*
X457200Y18288D02*
X457200Y32512D01*
D16*
X469900Y233680D03*
X444500Y233680D03*
D17*
X303530Y284480D03*
X255270Y284480D03*
D15*
X255270Y243840D03*
X280670Y243840D03*
X304800Y242570D03*
X330200Y242570D03*
D27*
X345440Y440690D03*
X327660Y457200D03*
D28*
X491490Y359410D03*
X284480Y445770D03*
X152400Y254000D03*
M02*
