G04 EAGLE Gerber RS-274X export*
G75*
%MOMM*%
%FSLAX34Y34*%
%LPD*%
%IN*%
%IPPOS*%
%AMOC8*
5,1,8,0,0,1.08239X$1,22.5*%
G01*
%ADD10C,0.254000*%


D10*
X0Y12700D02*
X48Y11593D01*
X193Y10495D01*
X433Y9413D01*
X766Y8356D01*
X1190Y7333D01*
X1701Y6350D01*
X2297Y5416D01*
X2971Y4537D01*
X3720Y3720D01*
X4537Y2971D01*
X5416Y2297D01*
X6350Y1701D01*
X7333Y1190D01*
X8356Y766D01*
X9413Y433D01*
X10495Y193D01*
X11593Y48D01*
X12700Y0D01*
X647700Y0D01*
X648807Y48D01*
X649905Y193D01*
X650987Y433D01*
X652044Y766D01*
X653067Y1190D01*
X654050Y1701D01*
X654984Y2297D01*
X655863Y2971D01*
X656680Y3720D01*
X657429Y4537D01*
X658103Y5416D01*
X658699Y6350D01*
X659210Y7333D01*
X659634Y8356D01*
X659967Y9413D01*
X660207Y10495D01*
X660352Y11593D01*
X660400Y12700D01*
X660400Y25400D01*
X685800Y50800D01*
X685800Y381000D01*
X660400Y406400D01*
X660400Y520700D01*
X647700Y533400D01*
X12700Y533400D01*
X11593Y533352D01*
X10495Y533207D01*
X9413Y532967D01*
X8356Y532634D01*
X7333Y532210D01*
X6350Y531699D01*
X5416Y531103D01*
X4537Y530429D01*
X3720Y529680D01*
X2971Y528863D01*
X2297Y527984D01*
X1701Y527050D01*
X1190Y526067D01*
X766Y525044D01*
X433Y523987D01*
X193Y522905D01*
X48Y521807D01*
X0Y520700D01*
X0Y12700D01*
X155700Y24876D02*
X155632Y23831D01*
X155495Y22792D01*
X155290Y21765D01*
X155019Y20753D01*
X154683Y19761D01*
X154282Y18793D01*
X153818Y17854D01*
X153295Y16946D01*
X152713Y16075D01*
X152075Y15244D01*
X151384Y14457D01*
X150643Y13716D01*
X149856Y13025D01*
X149025Y12388D01*
X148154Y11806D01*
X147246Y11282D01*
X146307Y10818D01*
X145339Y10417D01*
X144347Y10081D01*
X143335Y9810D01*
X142308Y9605D01*
X141269Y9469D01*
X140224Y9400D01*
X139176Y9400D01*
X138131Y9469D01*
X137092Y9605D01*
X136065Y9810D01*
X135053Y10081D01*
X134061Y10417D01*
X133093Y10818D01*
X132154Y11282D01*
X131246Y11806D01*
X130375Y12388D01*
X129544Y13025D01*
X128757Y13716D01*
X128016Y14457D01*
X127325Y15244D01*
X126688Y16075D01*
X126106Y16946D01*
X125582Y17854D01*
X125118Y18793D01*
X124717Y19761D01*
X124381Y20753D01*
X124110Y21765D01*
X123905Y22792D01*
X123769Y23831D01*
X123700Y24876D01*
X123700Y25924D01*
X123769Y26969D01*
X123905Y28008D01*
X124110Y29035D01*
X124381Y30047D01*
X124717Y31039D01*
X125118Y32007D01*
X125582Y32946D01*
X126106Y33854D01*
X126688Y34725D01*
X127325Y35556D01*
X128016Y36343D01*
X128757Y37084D01*
X129544Y37775D01*
X130375Y38413D01*
X131246Y38995D01*
X132154Y39518D01*
X133093Y39982D01*
X134061Y40383D01*
X135053Y40719D01*
X136065Y40990D01*
X137092Y41195D01*
X138131Y41332D01*
X139176Y41400D01*
X140224Y41400D01*
X141269Y41332D01*
X142308Y41195D01*
X143335Y40990D01*
X144347Y40719D01*
X145339Y40383D01*
X146307Y39982D01*
X147246Y39518D01*
X148154Y38995D01*
X149025Y38413D01*
X149856Y37775D01*
X150643Y37084D01*
X151384Y36343D01*
X152075Y35556D01*
X152713Y34725D01*
X153295Y33854D01*
X153818Y32946D01*
X154282Y32007D01*
X154683Y31039D01*
X155019Y30047D01*
X155290Y29035D01*
X155495Y28008D01*
X155632Y26969D01*
X155700Y25924D01*
X155700Y24876D01*
X676400Y75676D02*
X676332Y74631D01*
X676195Y73592D01*
X675990Y72565D01*
X675719Y71553D01*
X675383Y70561D01*
X674982Y69593D01*
X674518Y68654D01*
X673995Y67746D01*
X673413Y66875D01*
X672775Y66044D01*
X672084Y65257D01*
X671343Y64516D01*
X670556Y63825D01*
X669725Y63188D01*
X668854Y62606D01*
X667946Y62082D01*
X667007Y61618D01*
X666039Y61217D01*
X665047Y60881D01*
X664035Y60610D01*
X663008Y60405D01*
X661969Y60269D01*
X660924Y60200D01*
X659876Y60200D01*
X658831Y60269D01*
X657792Y60405D01*
X656765Y60610D01*
X655753Y60881D01*
X654761Y61217D01*
X653793Y61618D01*
X652854Y62082D01*
X651946Y62606D01*
X651075Y63188D01*
X650244Y63825D01*
X649457Y64516D01*
X648716Y65257D01*
X648025Y66044D01*
X647388Y66875D01*
X646806Y67746D01*
X646282Y68654D01*
X645818Y69593D01*
X645417Y70561D01*
X645081Y71553D01*
X644810Y72565D01*
X644605Y73592D01*
X644469Y74631D01*
X644400Y75676D01*
X644400Y76724D01*
X644469Y77769D01*
X644605Y78808D01*
X644810Y79835D01*
X645081Y80847D01*
X645417Y81839D01*
X645818Y82807D01*
X646282Y83746D01*
X646806Y84654D01*
X647388Y85525D01*
X648025Y86356D01*
X648716Y87143D01*
X649457Y87884D01*
X650244Y88575D01*
X651075Y89213D01*
X651946Y89795D01*
X652854Y90318D01*
X653793Y90782D01*
X654761Y91183D01*
X655753Y91519D01*
X656765Y91790D01*
X657792Y91995D01*
X658831Y92132D01*
X659876Y92200D01*
X660924Y92200D01*
X661969Y92132D01*
X663008Y91995D01*
X664035Y91790D01*
X665047Y91519D01*
X666039Y91183D01*
X667007Y90782D01*
X667946Y90318D01*
X668854Y89795D01*
X669725Y89213D01*
X670556Y88575D01*
X671343Y87884D01*
X672084Y87143D01*
X672775Y86356D01*
X673413Y85525D01*
X673995Y84654D01*
X674518Y83746D01*
X674982Y82807D01*
X675383Y81839D01*
X675719Y80847D01*
X675990Y79835D01*
X676195Y78808D01*
X676332Y77769D01*
X676400Y76724D01*
X676400Y75676D01*
X676400Y355076D02*
X676332Y354031D01*
X676195Y352992D01*
X675990Y351965D01*
X675719Y350953D01*
X675383Y349961D01*
X674982Y348993D01*
X674518Y348054D01*
X673995Y347146D01*
X673413Y346275D01*
X672775Y345444D01*
X672084Y344657D01*
X671343Y343916D01*
X670556Y343225D01*
X669725Y342588D01*
X668854Y342006D01*
X667946Y341482D01*
X667007Y341018D01*
X666039Y340617D01*
X665047Y340281D01*
X664035Y340010D01*
X663008Y339805D01*
X661969Y339669D01*
X660924Y339600D01*
X659876Y339600D01*
X658831Y339669D01*
X657792Y339805D01*
X656765Y340010D01*
X655753Y340281D01*
X654761Y340617D01*
X653793Y341018D01*
X652854Y341482D01*
X651946Y342006D01*
X651075Y342588D01*
X650244Y343225D01*
X649457Y343916D01*
X648716Y344657D01*
X648025Y345444D01*
X647388Y346275D01*
X646806Y347146D01*
X646282Y348054D01*
X645818Y348993D01*
X645417Y349961D01*
X645081Y350953D01*
X644810Y351965D01*
X644605Y352992D01*
X644469Y354031D01*
X644400Y355076D01*
X644400Y356124D01*
X644469Y357169D01*
X644605Y358208D01*
X644810Y359235D01*
X645081Y360247D01*
X645417Y361239D01*
X645818Y362207D01*
X646282Y363146D01*
X646806Y364054D01*
X647388Y364925D01*
X648025Y365756D01*
X648716Y366543D01*
X649457Y367284D01*
X650244Y367975D01*
X651075Y368613D01*
X651946Y369195D01*
X652854Y369718D01*
X653793Y370182D01*
X654761Y370583D01*
X655753Y370919D01*
X656765Y371190D01*
X657792Y371395D01*
X658831Y371532D01*
X659876Y371600D01*
X660924Y371600D01*
X661969Y371532D01*
X663008Y371395D01*
X664035Y371190D01*
X665047Y370919D01*
X666039Y370583D01*
X667007Y370182D01*
X667946Y369718D01*
X668854Y369195D01*
X669725Y368613D01*
X670556Y367975D01*
X671343Y367284D01*
X672084Y366543D01*
X672775Y365756D01*
X673413Y364925D01*
X673995Y364054D01*
X674518Y363146D01*
X674982Y362207D01*
X675383Y361239D01*
X675719Y360247D01*
X675990Y359235D01*
X676195Y358208D01*
X676332Y357169D01*
X676400Y356124D01*
X676400Y355076D01*
X168400Y507476D02*
X168332Y506431D01*
X168195Y505392D01*
X167990Y504365D01*
X167719Y503353D01*
X167383Y502361D01*
X166982Y501393D01*
X166518Y500454D01*
X165995Y499546D01*
X165413Y498675D01*
X164775Y497844D01*
X164084Y497057D01*
X163343Y496316D01*
X162556Y495625D01*
X161725Y494988D01*
X160854Y494406D01*
X159946Y493882D01*
X159007Y493418D01*
X158039Y493017D01*
X157047Y492681D01*
X156035Y492410D01*
X155008Y492205D01*
X153969Y492069D01*
X152924Y492000D01*
X151876Y492000D01*
X150831Y492069D01*
X149792Y492205D01*
X148765Y492410D01*
X147753Y492681D01*
X146761Y493017D01*
X145793Y493418D01*
X144854Y493882D01*
X143946Y494406D01*
X143075Y494988D01*
X142244Y495625D01*
X141457Y496316D01*
X140716Y497057D01*
X140025Y497844D01*
X139388Y498675D01*
X138806Y499546D01*
X138282Y500454D01*
X137818Y501393D01*
X137417Y502361D01*
X137081Y503353D01*
X136810Y504365D01*
X136605Y505392D01*
X136469Y506431D01*
X136400Y507476D01*
X136400Y508524D01*
X136469Y509569D01*
X136605Y510608D01*
X136810Y511635D01*
X137081Y512647D01*
X137417Y513639D01*
X137818Y514607D01*
X138282Y515546D01*
X138806Y516454D01*
X139388Y517325D01*
X140025Y518156D01*
X140716Y518943D01*
X141457Y519684D01*
X142244Y520375D01*
X143075Y521013D01*
X143946Y521595D01*
X144854Y522118D01*
X145793Y522582D01*
X146761Y522983D01*
X147753Y523319D01*
X148765Y523590D01*
X149792Y523795D01*
X150831Y523932D01*
X151876Y524000D01*
X152924Y524000D01*
X153969Y523932D01*
X155008Y523795D01*
X156035Y523590D01*
X157047Y523319D01*
X158039Y522983D01*
X159007Y522582D01*
X159946Y522118D01*
X160854Y521595D01*
X161725Y521013D01*
X162556Y520375D01*
X163343Y519684D01*
X164084Y518943D01*
X164775Y518156D01*
X165413Y517325D01*
X165995Y516454D01*
X166518Y515546D01*
X166982Y514607D01*
X167383Y513639D01*
X167719Y512647D01*
X167990Y511635D01*
X168195Y510608D01*
X168332Y509569D01*
X168400Y508524D01*
X168400Y507476D01*
X195000Y507705D02*
X194923Y507120D01*
X194770Y506550D01*
X194545Y506005D01*
X194250Y505495D01*
X193891Y505027D01*
X193473Y504609D01*
X193005Y504250D01*
X192495Y503955D01*
X191950Y503730D01*
X191380Y503577D01*
X190795Y503500D01*
X190205Y503500D01*
X189620Y503577D01*
X189050Y503730D01*
X188505Y503955D01*
X187995Y504250D01*
X187527Y504609D01*
X187109Y505027D01*
X186750Y505495D01*
X186455Y506005D01*
X186230Y506550D01*
X186077Y507120D01*
X186000Y507705D01*
X186000Y508295D01*
X186077Y508880D01*
X186230Y509450D01*
X186455Y509995D01*
X186750Y510505D01*
X187109Y510973D01*
X187527Y511391D01*
X187995Y511750D01*
X188505Y512045D01*
X189050Y512270D01*
X189620Y512423D01*
X190205Y512500D01*
X190795Y512500D01*
X191380Y512423D01*
X191950Y512270D01*
X192495Y512045D01*
X193005Y511750D01*
X193473Y511391D01*
X193891Y510973D01*
X194250Y510505D01*
X194545Y509995D01*
X194770Y509450D01*
X194923Y508880D01*
X195000Y508295D01*
X195000Y507705D01*
X220400Y507705D02*
X220323Y507120D01*
X220170Y506550D01*
X219945Y506005D01*
X219650Y505495D01*
X219291Y505027D01*
X218873Y504609D01*
X218405Y504250D01*
X217895Y503955D01*
X217350Y503730D01*
X216780Y503577D01*
X216195Y503500D01*
X215605Y503500D01*
X215020Y503577D01*
X214450Y503730D01*
X213905Y503955D01*
X213395Y504250D01*
X212927Y504609D01*
X212509Y505027D01*
X212150Y505495D01*
X211855Y506005D01*
X211630Y506550D01*
X211477Y507120D01*
X211400Y507705D01*
X211400Y508295D01*
X211477Y508880D01*
X211630Y509450D01*
X211855Y509995D01*
X212150Y510505D01*
X212509Y510973D01*
X212927Y511391D01*
X213395Y511750D01*
X213905Y512045D01*
X214450Y512270D01*
X215020Y512423D01*
X215605Y512500D01*
X216195Y512500D01*
X216780Y512423D01*
X217350Y512270D01*
X217895Y512045D01*
X218405Y511750D01*
X218873Y511391D01*
X219291Y510973D01*
X219650Y510505D01*
X219945Y509995D01*
X220170Y509450D01*
X220323Y508880D01*
X220400Y508295D01*
X220400Y507705D01*
X245800Y507705D02*
X245723Y507120D01*
X245570Y506550D01*
X245345Y506005D01*
X245050Y505495D01*
X244691Y505027D01*
X244273Y504609D01*
X243805Y504250D01*
X243295Y503955D01*
X242750Y503730D01*
X242180Y503577D01*
X241595Y503500D01*
X241005Y503500D01*
X240420Y503577D01*
X239850Y503730D01*
X239305Y503955D01*
X238795Y504250D01*
X238327Y504609D01*
X237909Y505027D01*
X237550Y505495D01*
X237255Y506005D01*
X237030Y506550D01*
X236877Y507120D01*
X236800Y507705D01*
X236800Y508295D01*
X236877Y508880D01*
X237030Y509450D01*
X237255Y509995D01*
X237550Y510505D01*
X237909Y510973D01*
X238327Y511391D01*
X238795Y511750D01*
X239305Y512045D01*
X239850Y512270D01*
X240420Y512423D01*
X241005Y512500D01*
X241595Y512500D01*
X242180Y512423D01*
X242750Y512270D01*
X243295Y512045D01*
X243805Y511750D01*
X244273Y511391D01*
X244691Y510973D01*
X245050Y510505D01*
X245345Y509995D01*
X245570Y509450D01*
X245723Y508880D01*
X245800Y508295D01*
X245800Y507705D01*
X271200Y507705D02*
X271123Y507120D01*
X270970Y506550D01*
X270745Y506005D01*
X270450Y505495D01*
X270091Y505027D01*
X269673Y504609D01*
X269205Y504250D01*
X268695Y503955D01*
X268150Y503730D01*
X267580Y503577D01*
X266995Y503500D01*
X266405Y503500D01*
X265820Y503577D01*
X265250Y503730D01*
X264705Y503955D01*
X264195Y504250D01*
X263727Y504609D01*
X263309Y505027D01*
X262950Y505495D01*
X262655Y506005D01*
X262430Y506550D01*
X262277Y507120D01*
X262200Y507705D01*
X262200Y508295D01*
X262277Y508880D01*
X262430Y509450D01*
X262655Y509995D01*
X262950Y510505D01*
X263309Y510973D01*
X263727Y511391D01*
X264195Y511750D01*
X264705Y512045D01*
X265250Y512270D01*
X265820Y512423D01*
X266405Y512500D01*
X266995Y512500D01*
X267580Y512423D01*
X268150Y512270D01*
X268695Y512045D01*
X269205Y511750D01*
X269673Y511391D01*
X270091Y510973D01*
X270450Y510505D01*
X270745Y509995D01*
X270970Y509450D01*
X271123Y508880D01*
X271200Y508295D01*
X271200Y507705D01*
X296600Y507705D02*
X296523Y507120D01*
X296370Y506550D01*
X296145Y506005D01*
X295850Y505495D01*
X295491Y505027D01*
X295073Y504609D01*
X294605Y504250D01*
X294095Y503955D01*
X293550Y503730D01*
X292980Y503577D01*
X292395Y503500D01*
X291805Y503500D01*
X291220Y503577D01*
X290650Y503730D01*
X290105Y503955D01*
X289595Y504250D01*
X289127Y504609D01*
X288709Y505027D01*
X288350Y505495D01*
X288055Y506005D01*
X287830Y506550D01*
X287677Y507120D01*
X287600Y507705D01*
X287600Y508295D01*
X287677Y508880D01*
X287830Y509450D01*
X288055Y509995D01*
X288350Y510505D01*
X288709Y510973D01*
X289127Y511391D01*
X289595Y511750D01*
X290105Y512045D01*
X290650Y512270D01*
X291220Y512423D01*
X291805Y512500D01*
X292395Y512500D01*
X292980Y512423D01*
X293550Y512270D01*
X294095Y512045D01*
X294605Y511750D01*
X295073Y511391D01*
X295491Y510973D01*
X295850Y510505D01*
X296145Y509995D01*
X296370Y509450D01*
X296523Y508880D01*
X296600Y508295D01*
X296600Y507705D01*
X322000Y507705D02*
X321923Y507120D01*
X321770Y506550D01*
X321545Y506005D01*
X321250Y505495D01*
X320891Y505027D01*
X320473Y504609D01*
X320005Y504250D01*
X319495Y503955D01*
X318950Y503730D01*
X318380Y503577D01*
X317795Y503500D01*
X317205Y503500D01*
X316620Y503577D01*
X316050Y503730D01*
X315505Y503955D01*
X314995Y504250D01*
X314527Y504609D01*
X314109Y505027D01*
X313750Y505495D01*
X313455Y506005D01*
X313230Y506550D01*
X313077Y507120D01*
X313000Y507705D01*
X313000Y508295D01*
X313077Y508880D01*
X313230Y509450D01*
X313455Y509995D01*
X313750Y510505D01*
X314109Y510973D01*
X314527Y511391D01*
X314995Y511750D01*
X315505Y512045D01*
X316050Y512270D01*
X316620Y512423D01*
X317205Y512500D01*
X317795Y512500D01*
X318380Y512423D01*
X318950Y512270D01*
X319495Y512045D01*
X320005Y511750D01*
X320473Y511391D01*
X320891Y510973D01*
X321250Y510505D01*
X321545Y509995D01*
X321770Y509450D01*
X321923Y508880D01*
X322000Y508295D01*
X322000Y507705D01*
X347400Y507705D02*
X347323Y507120D01*
X347170Y506550D01*
X346945Y506005D01*
X346650Y505495D01*
X346291Y505027D01*
X345873Y504609D01*
X345405Y504250D01*
X344895Y503955D01*
X344350Y503730D01*
X343780Y503577D01*
X343195Y503500D01*
X342605Y503500D01*
X342020Y503577D01*
X341450Y503730D01*
X340905Y503955D01*
X340395Y504250D01*
X339927Y504609D01*
X339509Y505027D01*
X339150Y505495D01*
X338855Y506005D01*
X338630Y506550D01*
X338477Y507120D01*
X338400Y507705D01*
X338400Y508295D01*
X338477Y508880D01*
X338630Y509450D01*
X338855Y509995D01*
X339150Y510505D01*
X339509Y510973D01*
X339927Y511391D01*
X340395Y511750D01*
X340905Y512045D01*
X341450Y512270D01*
X342020Y512423D01*
X342605Y512500D01*
X343195Y512500D01*
X343780Y512423D01*
X344350Y512270D01*
X344895Y512045D01*
X345405Y511750D01*
X345873Y511391D01*
X346291Y510973D01*
X346650Y510505D01*
X346945Y509995D01*
X347170Y509450D01*
X347323Y508880D01*
X347400Y508295D01*
X347400Y507705D01*
X372800Y507705D02*
X372723Y507120D01*
X372570Y506550D01*
X372345Y506005D01*
X372050Y505495D01*
X371691Y505027D01*
X371273Y504609D01*
X370805Y504250D01*
X370295Y503955D01*
X369750Y503730D01*
X369180Y503577D01*
X368595Y503500D01*
X368005Y503500D01*
X367420Y503577D01*
X366850Y503730D01*
X366305Y503955D01*
X365795Y504250D01*
X365327Y504609D01*
X364909Y505027D01*
X364550Y505495D01*
X364255Y506005D01*
X364030Y506550D01*
X363877Y507120D01*
X363800Y507705D01*
X363800Y508295D01*
X363877Y508880D01*
X364030Y509450D01*
X364255Y509995D01*
X364550Y510505D01*
X364909Y510973D01*
X365327Y511391D01*
X365795Y511750D01*
X366305Y512045D01*
X366850Y512270D01*
X367420Y512423D01*
X368005Y512500D01*
X368595Y512500D01*
X369180Y512423D01*
X369750Y512270D01*
X370295Y512045D01*
X370805Y511750D01*
X371273Y511391D01*
X371691Y510973D01*
X372050Y510505D01*
X372345Y509995D01*
X372570Y509450D01*
X372723Y508880D01*
X372800Y508295D01*
X372800Y507705D01*
X398200Y507705D02*
X398123Y507120D01*
X397970Y506550D01*
X397745Y506005D01*
X397450Y505495D01*
X397091Y505027D01*
X396673Y504609D01*
X396205Y504250D01*
X395695Y503955D01*
X395150Y503730D01*
X394580Y503577D01*
X393995Y503500D01*
X393405Y503500D01*
X392820Y503577D01*
X392250Y503730D01*
X391705Y503955D01*
X391195Y504250D01*
X390727Y504609D01*
X390309Y505027D01*
X389950Y505495D01*
X389655Y506005D01*
X389430Y506550D01*
X389277Y507120D01*
X389200Y507705D01*
X389200Y508295D01*
X389277Y508880D01*
X389430Y509450D01*
X389655Y509995D01*
X389950Y510505D01*
X390309Y510973D01*
X390727Y511391D01*
X391195Y511750D01*
X391705Y512045D01*
X392250Y512270D01*
X392820Y512423D01*
X393405Y512500D01*
X393995Y512500D01*
X394580Y512423D01*
X395150Y512270D01*
X395695Y512045D01*
X396205Y511750D01*
X396673Y511391D01*
X397091Y510973D01*
X397450Y510505D01*
X397745Y509995D01*
X397970Y509450D01*
X398123Y508880D01*
X398200Y508295D01*
X398200Y507705D01*
X423600Y507705D02*
X423523Y507120D01*
X423370Y506550D01*
X423145Y506005D01*
X422850Y505495D01*
X422491Y505027D01*
X422073Y504609D01*
X421605Y504250D01*
X421095Y503955D01*
X420550Y503730D01*
X419980Y503577D01*
X419395Y503500D01*
X418805Y503500D01*
X418220Y503577D01*
X417650Y503730D01*
X417105Y503955D01*
X416595Y504250D01*
X416127Y504609D01*
X415709Y505027D01*
X415350Y505495D01*
X415055Y506005D01*
X414830Y506550D01*
X414677Y507120D01*
X414600Y507705D01*
X414600Y508295D01*
X414677Y508880D01*
X414830Y509450D01*
X415055Y509995D01*
X415350Y510505D01*
X415709Y510973D01*
X416127Y511391D01*
X416595Y511750D01*
X417105Y512045D01*
X417650Y512270D01*
X418220Y512423D01*
X418805Y512500D01*
X419395Y512500D01*
X419980Y512423D01*
X420550Y512270D01*
X421095Y512045D01*
X421605Y511750D01*
X422073Y511391D01*
X422491Y510973D01*
X422850Y510505D01*
X423145Y509995D01*
X423370Y509450D01*
X423523Y508880D01*
X423600Y508295D01*
X423600Y507705D01*
X461700Y507705D02*
X461623Y507120D01*
X461470Y506550D01*
X461245Y506005D01*
X460950Y505495D01*
X460591Y505027D01*
X460173Y504609D01*
X459705Y504250D01*
X459195Y503955D01*
X458650Y503730D01*
X458080Y503577D01*
X457495Y503500D01*
X456905Y503500D01*
X456320Y503577D01*
X455750Y503730D01*
X455205Y503955D01*
X454695Y504250D01*
X454227Y504609D01*
X453809Y505027D01*
X453450Y505495D01*
X453155Y506005D01*
X452930Y506550D01*
X452777Y507120D01*
X452700Y507705D01*
X452700Y508295D01*
X452777Y508880D01*
X452930Y509450D01*
X453155Y509995D01*
X453450Y510505D01*
X453809Y510973D01*
X454227Y511391D01*
X454695Y511750D01*
X455205Y512045D01*
X455750Y512270D01*
X456320Y512423D01*
X456905Y512500D01*
X457495Y512500D01*
X458080Y512423D01*
X458650Y512270D01*
X459195Y512045D01*
X459705Y511750D01*
X460173Y511391D01*
X460591Y510973D01*
X460950Y510505D01*
X461245Y509995D01*
X461470Y509450D01*
X461623Y508880D01*
X461700Y508295D01*
X461700Y507705D01*
X487100Y507705D02*
X487023Y507120D01*
X486870Y506550D01*
X486645Y506005D01*
X486350Y505495D01*
X485991Y505027D01*
X485573Y504609D01*
X485105Y504250D01*
X484595Y503955D01*
X484050Y503730D01*
X483480Y503577D01*
X482895Y503500D01*
X482305Y503500D01*
X481720Y503577D01*
X481150Y503730D01*
X480605Y503955D01*
X480095Y504250D01*
X479627Y504609D01*
X479209Y505027D01*
X478850Y505495D01*
X478555Y506005D01*
X478330Y506550D01*
X478177Y507120D01*
X478100Y507705D01*
X478100Y508295D01*
X478177Y508880D01*
X478330Y509450D01*
X478555Y509995D01*
X478850Y510505D01*
X479209Y510973D01*
X479627Y511391D01*
X480095Y511750D01*
X480605Y512045D01*
X481150Y512270D01*
X481720Y512423D01*
X482305Y512500D01*
X482895Y512500D01*
X483480Y512423D01*
X484050Y512270D01*
X484595Y512045D01*
X485105Y511750D01*
X485573Y511391D01*
X485991Y510973D01*
X486350Y510505D01*
X486645Y509995D01*
X486870Y509450D01*
X487023Y508880D01*
X487100Y508295D01*
X487100Y507705D01*
X512500Y507705D02*
X512423Y507120D01*
X512270Y506550D01*
X512045Y506005D01*
X511750Y505495D01*
X511391Y505027D01*
X510973Y504609D01*
X510505Y504250D01*
X509995Y503955D01*
X509450Y503730D01*
X508880Y503577D01*
X508295Y503500D01*
X507705Y503500D01*
X507120Y503577D01*
X506550Y503730D01*
X506005Y503955D01*
X505495Y504250D01*
X505027Y504609D01*
X504609Y505027D01*
X504250Y505495D01*
X503955Y506005D01*
X503730Y506550D01*
X503577Y507120D01*
X503500Y507705D01*
X503500Y508295D01*
X503577Y508880D01*
X503730Y509450D01*
X503955Y509995D01*
X504250Y510505D01*
X504609Y510973D01*
X505027Y511391D01*
X505495Y511750D01*
X506005Y512045D01*
X506550Y512270D01*
X507120Y512423D01*
X507705Y512500D01*
X508295Y512500D01*
X508880Y512423D01*
X509450Y512270D01*
X509995Y512045D01*
X510505Y511750D01*
X510973Y511391D01*
X511391Y510973D01*
X511750Y510505D01*
X512045Y509995D01*
X512270Y509450D01*
X512423Y508880D01*
X512500Y508295D01*
X512500Y507705D01*
X537900Y507705D02*
X537823Y507120D01*
X537670Y506550D01*
X537445Y506005D01*
X537150Y505495D01*
X536791Y505027D01*
X536373Y504609D01*
X535905Y504250D01*
X535395Y503955D01*
X534850Y503730D01*
X534280Y503577D01*
X533695Y503500D01*
X533105Y503500D01*
X532520Y503577D01*
X531950Y503730D01*
X531405Y503955D01*
X530895Y504250D01*
X530427Y504609D01*
X530009Y505027D01*
X529650Y505495D01*
X529355Y506005D01*
X529130Y506550D01*
X528977Y507120D01*
X528900Y507705D01*
X528900Y508295D01*
X528977Y508880D01*
X529130Y509450D01*
X529355Y509995D01*
X529650Y510505D01*
X530009Y510973D01*
X530427Y511391D01*
X530895Y511750D01*
X531405Y512045D01*
X531950Y512270D01*
X532520Y512423D01*
X533105Y512500D01*
X533695Y512500D01*
X534280Y512423D01*
X534850Y512270D01*
X535395Y512045D01*
X535905Y511750D01*
X536373Y511391D01*
X536791Y510973D01*
X537150Y510505D01*
X537445Y509995D01*
X537670Y509450D01*
X537823Y508880D01*
X537900Y508295D01*
X537900Y507705D01*
X563300Y507705D02*
X563223Y507120D01*
X563070Y506550D01*
X562845Y506005D01*
X562550Y505495D01*
X562191Y505027D01*
X561773Y504609D01*
X561305Y504250D01*
X560795Y503955D01*
X560250Y503730D01*
X559680Y503577D01*
X559095Y503500D01*
X558505Y503500D01*
X557920Y503577D01*
X557350Y503730D01*
X556805Y503955D01*
X556295Y504250D01*
X555827Y504609D01*
X555409Y505027D01*
X555050Y505495D01*
X554755Y506005D01*
X554530Y506550D01*
X554377Y507120D01*
X554300Y507705D01*
X554300Y508295D01*
X554377Y508880D01*
X554530Y509450D01*
X554755Y509995D01*
X555050Y510505D01*
X555409Y510973D01*
X555827Y511391D01*
X556295Y511750D01*
X556805Y512045D01*
X557350Y512270D01*
X557920Y512423D01*
X558505Y512500D01*
X559095Y512500D01*
X559680Y512423D01*
X560250Y512270D01*
X560795Y512045D01*
X561305Y511750D01*
X561773Y511391D01*
X562191Y510973D01*
X562550Y510505D01*
X562845Y509995D01*
X563070Y509450D01*
X563223Y508880D01*
X563300Y508295D01*
X563300Y507705D01*
X588700Y507705D02*
X588623Y507120D01*
X588470Y506550D01*
X588245Y506005D01*
X587950Y505495D01*
X587591Y505027D01*
X587173Y504609D01*
X586705Y504250D01*
X586195Y503955D01*
X585650Y503730D01*
X585080Y503577D01*
X584495Y503500D01*
X583905Y503500D01*
X583320Y503577D01*
X582750Y503730D01*
X582205Y503955D01*
X581695Y504250D01*
X581227Y504609D01*
X580809Y505027D01*
X580450Y505495D01*
X580155Y506005D01*
X579930Y506550D01*
X579777Y507120D01*
X579700Y507705D01*
X579700Y508295D01*
X579777Y508880D01*
X579930Y509450D01*
X580155Y509995D01*
X580450Y510505D01*
X580809Y510973D01*
X581227Y511391D01*
X581695Y511750D01*
X582205Y512045D01*
X582750Y512270D01*
X583320Y512423D01*
X583905Y512500D01*
X584495Y512500D01*
X585080Y512423D01*
X585650Y512270D01*
X586195Y512045D01*
X586705Y511750D01*
X587173Y511391D01*
X587591Y510973D01*
X587950Y510505D01*
X588245Y509995D01*
X588470Y509450D01*
X588623Y508880D01*
X588700Y508295D01*
X588700Y507705D01*
X614100Y507705D02*
X614023Y507120D01*
X613870Y506550D01*
X613645Y506005D01*
X613350Y505495D01*
X612991Y505027D01*
X612573Y504609D01*
X612105Y504250D01*
X611595Y503955D01*
X611050Y503730D01*
X610480Y503577D01*
X609895Y503500D01*
X609305Y503500D01*
X608720Y503577D01*
X608150Y503730D01*
X607605Y503955D01*
X607095Y504250D01*
X606627Y504609D01*
X606209Y505027D01*
X605850Y505495D01*
X605555Y506005D01*
X605330Y506550D01*
X605177Y507120D01*
X605100Y507705D01*
X605100Y508295D01*
X605177Y508880D01*
X605330Y509450D01*
X605555Y509995D01*
X605850Y510505D01*
X606209Y510973D01*
X606627Y511391D01*
X607095Y511750D01*
X607605Y512045D01*
X608150Y512270D01*
X608720Y512423D01*
X609305Y512500D01*
X609895Y512500D01*
X610480Y512423D01*
X611050Y512270D01*
X611595Y512045D01*
X612105Y511750D01*
X612573Y511391D01*
X612991Y510973D01*
X613350Y510505D01*
X613645Y509995D01*
X613870Y509450D01*
X614023Y508880D01*
X614100Y508295D01*
X614100Y507705D01*
X639500Y507705D02*
X639423Y507120D01*
X639270Y506550D01*
X639045Y506005D01*
X638750Y505495D01*
X638391Y505027D01*
X637973Y504609D01*
X637505Y504250D01*
X636995Y503955D01*
X636450Y503730D01*
X635880Y503577D01*
X635295Y503500D01*
X634705Y503500D01*
X634120Y503577D01*
X633550Y503730D01*
X633005Y503955D01*
X632495Y504250D01*
X632027Y504609D01*
X631609Y505027D01*
X631250Y505495D01*
X630955Y506005D01*
X630730Y506550D01*
X630577Y507120D01*
X630500Y507705D01*
X630500Y508295D01*
X630577Y508880D01*
X630730Y509450D01*
X630955Y509995D01*
X631250Y510505D01*
X631609Y510973D01*
X632027Y511391D01*
X632495Y511750D01*
X633005Y512045D01*
X633550Y512270D01*
X634120Y512423D01*
X634705Y512500D01*
X635295Y512500D01*
X635880Y512423D01*
X636450Y512270D01*
X636995Y512045D01*
X637505Y511750D01*
X637973Y511391D01*
X638391Y510973D01*
X638750Y510505D01*
X639045Y509995D01*
X639270Y509450D01*
X639423Y508880D01*
X639500Y508295D01*
X639500Y507705D01*
X626800Y202905D02*
X626723Y202320D01*
X626570Y201750D01*
X626345Y201205D01*
X626050Y200695D01*
X625691Y200227D01*
X625273Y199809D01*
X624805Y199450D01*
X624295Y199155D01*
X623750Y198930D01*
X623180Y198777D01*
X622595Y198700D01*
X622005Y198700D01*
X621420Y198777D01*
X620850Y198930D01*
X620305Y199155D01*
X619795Y199450D01*
X619327Y199809D01*
X618909Y200227D01*
X618550Y200695D01*
X618255Y201205D01*
X618030Y201750D01*
X617877Y202320D01*
X617800Y202905D01*
X617800Y203495D01*
X617877Y204080D01*
X618030Y204650D01*
X618255Y205195D01*
X618550Y205705D01*
X618909Y206173D01*
X619327Y206591D01*
X619795Y206950D01*
X620305Y207245D01*
X620850Y207470D01*
X621420Y207623D01*
X622005Y207700D01*
X622595Y207700D01*
X623180Y207623D01*
X623750Y207470D01*
X624295Y207245D01*
X624805Y206950D01*
X625273Y206591D01*
X625691Y206173D01*
X626050Y205705D01*
X626345Y205195D01*
X626570Y204650D01*
X626723Y204080D01*
X626800Y203495D01*
X626800Y202905D01*
X601400Y202905D02*
X601323Y202320D01*
X601170Y201750D01*
X600945Y201205D01*
X600650Y200695D01*
X600291Y200227D01*
X599873Y199809D01*
X599405Y199450D01*
X598895Y199155D01*
X598350Y198930D01*
X597780Y198777D01*
X597195Y198700D01*
X596605Y198700D01*
X596020Y198777D01*
X595450Y198930D01*
X594905Y199155D01*
X594395Y199450D01*
X593927Y199809D01*
X593509Y200227D01*
X593150Y200695D01*
X592855Y201205D01*
X592630Y201750D01*
X592477Y202320D01*
X592400Y202905D01*
X592400Y203495D01*
X592477Y204080D01*
X592630Y204650D01*
X592855Y205195D01*
X593150Y205705D01*
X593509Y206173D01*
X593927Y206591D01*
X594395Y206950D01*
X594905Y207245D01*
X595450Y207470D01*
X596020Y207623D01*
X596605Y207700D01*
X597195Y207700D01*
X597780Y207623D01*
X598350Y207470D01*
X598895Y207245D01*
X599405Y206950D01*
X599873Y206591D01*
X600291Y206173D01*
X600650Y205705D01*
X600945Y205195D01*
X601170Y204650D01*
X601323Y204080D01*
X601400Y203495D01*
X601400Y202905D01*
X576000Y202905D02*
X575923Y202320D01*
X575770Y201750D01*
X575545Y201205D01*
X575250Y200695D01*
X574891Y200227D01*
X574473Y199809D01*
X574005Y199450D01*
X573495Y199155D01*
X572950Y198930D01*
X572380Y198777D01*
X571795Y198700D01*
X571205Y198700D01*
X570620Y198777D01*
X570050Y198930D01*
X569505Y199155D01*
X568995Y199450D01*
X568527Y199809D01*
X568109Y200227D01*
X567750Y200695D01*
X567455Y201205D01*
X567230Y201750D01*
X567077Y202320D01*
X567000Y202905D01*
X567000Y203495D01*
X567077Y204080D01*
X567230Y204650D01*
X567455Y205195D01*
X567750Y205705D01*
X568109Y206173D01*
X568527Y206591D01*
X568995Y206950D01*
X569505Y207245D01*
X570050Y207470D01*
X570620Y207623D01*
X571205Y207700D01*
X571795Y207700D01*
X572380Y207623D01*
X572950Y207470D01*
X573495Y207245D01*
X574005Y206950D01*
X574473Y206591D01*
X574891Y206173D01*
X575250Y205705D01*
X575545Y205195D01*
X575770Y204650D01*
X575923Y204080D01*
X576000Y203495D01*
X576000Y202905D01*
X550600Y202905D02*
X550523Y202320D01*
X550370Y201750D01*
X550145Y201205D01*
X549850Y200695D01*
X549491Y200227D01*
X549073Y199809D01*
X548605Y199450D01*
X548095Y199155D01*
X547550Y198930D01*
X546980Y198777D01*
X546395Y198700D01*
X545805Y198700D01*
X545220Y198777D01*
X544650Y198930D01*
X544105Y199155D01*
X543595Y199450D01*
X543127Y199809D01*
X542709Y200227D01*
X542350Y200695D01*
X542055Y201205D01*
X541830Y201750D01*
X541677Y202320D01*
X541600Y202905D01*
X541600Y203495D01*
X541677Y204080D01*
X541830Y204650D01*
X542055Y205195D01*
X542350Y205705D01*
X542709Y206173D01*
X543127Y206591D01*
X543595Y206950D01*
X544105Y207245D01*
X544650Y207470D01*
X545220Y207623D01*
X545805Y207700D01*
X546395Y207700D01*
X546980Y207623D01*
X547550Y207470D01*
X548095Y207245D01*
X548605Y206950D01*
X549073Y206591D01*
X549491Y206173D01*
X549850Y205705D01*
X550145Y205195D01*
X550370Y204650D01*
X550523Y204080D01*
X550600Y203495D01*
X550600Y202905D01*
X525200Y202905D02*
X525123Y202320D01*
X524970Y201750D01*
X524745Y201205D01*
X524450Y200695D01*
X524091Y200227D01*
X523673Y199809D01*
X523205Y199450D01*
X522695Y199155D01*
X522150Y198930D01*
X521580Y198777D01*
X520995Y198700D01*
X520405Y198700D01*
X519820Y198777D01*
X519250Y198930D01*
X518705Y199155D01*
X518195Y199450D01*
X517727Y199809D01*
X517309Y200227D01*
X516950Y200695D01*
X516655Y201205D01*
X516430Y201750D01*
X516277Y202320D01*
X516200Y202905D01*
X516200Y203495D01*
X516277Y204080D01*
X516430Y204650D01*
X516655Y205195D01*
X516950Y205705D01*
X517309Y206173D01*
X517727Y206591D01*
X518195Y206950D01*
X518705Y207245D01*
X519250Y207470D01*
X519820Y207623D01*
X520405Y207700D01*
X520995Y207700D01*
X521580Y207623D01*
X522150Y207470D01*
X522695Y207245D01*
X523205Y206950D01*
X523673Y206591D01*
X524091Y206173D01*
X524450Y205705D01*
X524745Y205195D01*
X524970Y204650D01*
X525123Y204080D01*
X525200Y203495D01*
X525200Y202905D01*
X499800Y202905D02*
X499723Y202320D01*
X499570Y201750D01*
X499345Y201205D01*
X499050Y200695D01*
X498691Y200227D01*
X498273Y199809D01*
X497805Y199450D01*
X497295Y199155D01*
X496750Y198930D01*
X496180Y198777D01*
X495595Y198700D01*
X495005Y198700D01*
X494420Y198777D01*
X493850Y198930D01*
X493305Y199155D01*
X492795Y199450D01*
X492327Y199809D01*
X491909Y200227D01*
X491550Y200695D01*
X491255Y201205D01*
X491030Y201750D01*
X490877Y202320D01*
X490800Y202905D01*
X490800Y203495D01*
X490877Y204080D01*
X491030Y204650D01*
X491255Y205195D01*
X491550Y205705D01*
X491909Y206173D01*
X492327Y206591D01*
X492795Y206950D01*
X493305Y207245D01*
X493850Y207470D01*
X494420Y207623D01*
X495005Y207700D01*
X495595Y207700D01*
X496180Y207623D01*
X496750Y207470D01*
X497295Y207245D01*
X497805Y206950D01*
X498273Y206591D01*
X498691Y206173D01*
X499050Y205705D01*
X499345Y205195D01*
X499570Y204650D01*
X499723Y204080D01*
X499800Y203495D01*
X499800Y202905D01*
X474400Y202905D02*
X474323Y202320D01*
X474170Y201750D01*
X473945Y201205D01*
X473650Y200695D01*
X473291Y200227D01*
X472873Y199809D01*
X472405Y199450D01*
X471895Y199155D01*
X471350Y198930D01*
X470780Y198777D01*
X470195Y198700D01*
X469605Y198700D01*
X469020Y198777D01*
X468450Y198930D01*
X467905Y199155D01*
X467395Y199450D01*
X466927Y199809D01*
X466509Y200227D01*
X466150Y200695D01*
X465855Y201205D01*
X465630Y201750D01*
X465477Y202320D01*
X465400Y202905D01*
X465400Y203495D01*
X465477Y204080D01*
X465630Y204650D01*
X465855Y205195D01*
X466150Y205705D01*
X466509Y206173D01*
X466927Y206591D01*
X467395Y206950D01*
X467905Y207245D01*
X468450Y207470D01*
X469020Y207623D01*
X469605Y207700D01*
X470195Y207700D01*
X470780Y207623D01*
X471350Y207470D01*
X471895Y207245D01*
X472405Y206950D01*
X472873Y206591D01*
X473291Y206173D01*
X473650Y205705D01*
X473945Y205195D01*
X474170Y204650D01*
X474323Y204080D01*
X474400Y203495D01*
X474400Y202905D01*
X449000Y202905D02*
X448923Y202320D01*
X448770Y201750D01*
X448545Y201205D01*
X448250Y200695D01*
X447891Y200227D01*
X447473Y199809D01*
X447005Y199450D01*
X446495Y199155D01*
X445950Y198930D01*
X445380Y198777D01*
X444795Y198700D01*
X444205Y198700D01*
X443620Y198777D01*
X443050Y198930D01*
X442505Y199155D01*
X441995Y199450D01*
X441527Y199809D01*
X441109Y200227D01*
X440750Y200695D01*
X440455Y201205D01*
X440230Y201750D01*
X440077Y202320D01*
X440000Y202905D01*
X440000Y203495D01*
X440077Y204080D01*
X440230Y204650D01*
X440455Y205195D01*
X440750Y205705D01*
X441109Y206173D01*
X441527Y206591D01*
X441995Y206950D01*
X442505Y207245D01*
X443050Y207470D01*
X443620Y207623D01*
X444205Y207700D01*
X444795Y207700D01*
X445380Y207623D01*
X445950Y207470D01*
X446495Y207245D01*
X447005Y206950D01*
X447473Y206591D01*
X447891Y206173D01*
X448250Y205705D01*
X448545Y205195D01*
X448770Y204650D01*
X448923Y204080D01*
X449000Y203495D01*
X449000Y202905D01*
X423600Y202905D02*
X423523Y202320D01*
X423370Y201750D01*
X423145Y201205D01*
X422850Y200695D01*
X422491Y200227D01*
X422073Y199809D01*
X421605Y199450D01*
X421095Y199155D01*
X420550Y198930D01*
X419980Y198777D01*
X419395Y198700D01*
X418805Y198700D01*
X418220Y198777D01*
X417650Y198930D01*
X417105Y199155D01*
X416595Y199450D01*
X416127Y199809D01*
X415709Y200227D01*
X415350Y200695D01*
X415055Y201205D01*
X414830Y201750D01*
X414677Y202320D01*
X414600Y202905D01*
X414600Y203495D01*
X414677Y204080D01*
X414830Y204650D01*
X415055Y205195D01*
X415350Y205705D01*
X415709Y206173D01*
X416127Y206591D01*
X416595Y206950D01*
X417105Y207245D01*
X417650Y207470D01*
X418220Y207623D01*
X418805Y207700D01*
X419395Y207700D01*
X419980Y207623D01*
X420550Y207470D01*
X421095Y207245D01*
X421605Y206950D01*
X422073Y206591D01*
X422491Y206173D01*
X422850Y205705D01*
X423145Y205195D01*
X423370Y204650D01*
X423523Y204080D01*
X423600Y203495D01*
X423600Y202905D01*
X398200Y202905D02*
X398123Y202320D01*
X397970Y201750D01*
X397745Y201205D01*
X397450Y200695D01*
X397091Y200227D01*
X396673Y199809D01*
X396205Y199450D01*
X395695Y199155D01*
X395150Y198930D01*
X394580Y198777D01*
X393995Y198700D01*
X393405Y198700D01*
X392820Y198777D01*
X392250Y198930D01*
X391705Y199155D01*
X391195Y199450D01*
X390727Y199809D01*
X390309Y200227D01*
X389950Y200695D01*
X389655Y201205D01*
X389430Y201750D01*
X389277Y202320D01*
X389200Y202905D01*
X389200Y203495D01*
X389277Y204080D01*
X389430Y204650D01*
X389655Y205195D01*
X389950Y205705D01*
X390309Y206173D01*
X390727Y206591D01*
X391195Y206950D01*
X391705Y207245D01*
X392250Y207470D01*
X392820Y207623D01*
X393405Y207700D01*
X393995Y207700D01*
X394580Y207623D01*
X395150Y207470D01*
X395695Y207245D01*
X396205Y206950D01*
X396673Y206591D01*
X397091Y206173D01*
X397450Y205705D01*
X397745Y205195D01*
X397970Y204650D01*
X398123Y204080D01*
X398200Y203495D01*
X398200Y202905D01*
X372800Y202905D02*
X372723Y202320D01*
X372570Y201750D01*
X372345Y201205D01*
X372050Y200695D01*
X371691Y200227D01*
X371273Y199809D01*
X370805Y199450D01*
X370295Y199155D01*
X369750Y198930D01*
X369180Y198777D01*
X368595Y198700D01*
X368005Y198700D01*
X367420Y198777D01*
X366850Y198930D01*
X366305Y199155D01*
X365795Y199450D01*
X365327Y199809D01*
X364909Y200227D01*
X364550Y200695D01*
X364255Y201205D01*
X364030Y201750D01*
X363877Y202320D01*
X363800Y202905D01*
X363800Y203495D01*
X363877Y204080D01*
X364030Y204650D01*
X364255Y205195D01*
X364550Y205705D01*
X364909Y206173D01*
X365327Y206591D01*
X365795Y206950D01*
X366305Y207245D01*
X366850Y207470D01*
X367420Y207623D01*
X368005Y207700D01*
X368595Y207700D01*
X369180Y207623D01*
X369750Y207470D01*
X370295Y207245D01*
X370805Y206950D01*
X371273Y206591D01*
X371691Y206173D01*
X372050Y205705D01*
X372345Y205195D01*
X372570Y204650D01*
X372723Y204080D01*
X372800Y203495D01*
X372800Y202905D01*
X347400Y202905D02*
X347323Y202320D01*
X347170Y201750D01*
X346945Y201205D01*
X346650Y200695D01*
X346291Y200227D01*
X345873Y199809D01*
X345405Y199450D01*
X344895Y199155D01*
X344350Y198930D01*
X343780Y198777D01*
X343195Y198700D01*
X342605Y198700D01*
X342020Y198777D01*
X341450Y198930D01*
X340905Y199155D01*
X340395Y199450D01*
X339927Y199809D01*
X339509Y200227D01*
X339150Y200695D01*
X338855Y201205D01*
X338630Y201750D01*
X338477Y202320D01*
X338400Y202905D01*
X338400Y203495D01*
X338477Y204080D01*
X338630Y204650D01*
X338855Y205195D01*
X339150Y205705D01*
X339509Y206173D01*
X339927Y206591D01*
X340395Y206950D01*
X340905Y207245D01*
X341450Y207470D01*
X342020Y207623D01*
X342605Y207700D01*
X343195Y207700D01*
X343780Y207623D01*
X344350Y207470D01*
X344895Y207245D01*
X345405Y206950D01*
X345873Y206591D01*
X346291Y206173D01*
X346650Y205705D01*
X346945Y205195D01*
X347170Y204650D01*
X347323Y204080D01*
X347400Y203495D01*
X347400Y202905D01*
X322000Y202905D02*
X321923Y202320D01*
X321770Y201750D01*
X321545Y201205D01*
X321250Y200695D01*
X320891Y200227D01*
X320473Y199809D01*
X320005Y199450D01*
X319495Y199155D01*
X318950Y198930D01*
X318380Y198777D01*
X317795Y198700D01*
X317205Y198700D01*
X316620Y198777D01*
X316050Y198930D01*
X315505Y199155D01*
X314995Y199450D01*
X314527Y199809D01*
X314109Y200227D01*
X313750Y200695D01*
X313455Y201205D01*
X313230Y201750D01*
X313077Y202320D01*
X313000Y202905D01*
X313000Y203495D01*
X313077Y204080D01*
X313230Y204650D01*
X313455Y205195D01*
X313750Y205705D01*
X314109Y206173D01*
X314527Y206591D01*
X314995Y206950D01*
X315505Y207245D01*
X316050Y207470D01*
X316620Y207623D01*
X317205Y207700D01*
X317795Y207700D01*
X318380Y207623D01*
X318950Y207470D01*
X319495Y207245D01*
X320005Y206950D01*
X320473Y206591D01*
X320891Y206173D01*
X321250Y205705D01*
X321545Y205195D01*
X321770Y204650D01*
X321923Y204080D01*
X322000Y203495D01*
X322000Y202905D01*
X296600Y202905D02*
X296523Y202320D01*
X296370Y201750D01*
X296145Y201205D01*
X295850Y200695D01*
X295491Y200227D01*
X295073Y199809D01*
X294605Y199450D01*
X294095Y199155D01*
X293550Y198930D01*
X292980Y198777D01*
X292395Y198700D01*
X291805Y198700D01*
X291220Y198777D01*
X290650Y198930D01*
X290105Y199155D01*
X289595Y199450D01*
X289127Y199809D01*
X288709Y200227D01*
X288350Y200695D01*
X288055Y201205D01*
X287830Y201750D01*
X287677Y202320D01*
X287600Y202905D01*
X287600Y203495D01*
X287677Y204080D01*
X287830Y204650D01*
X288055Y205195D01*
X288350Y205705D01*
X288709Y206173D01*
X289127Y206591D01*
X289595Y206950D01*
X290105Y207245D01*
X290650Y207470D01*
X291220Y207623D01*
X291805Y207700D01*
X292395Y207700D01*
X292980Y207623D01*
X293550Y207470D01*
X294095Y207245D01*
X294605Y206950D01*
X295073Y206591D01*
X295491Y206173D01*
X295850Y205705D01*
X296145Y205195D01*
X296370Y204650D01*
X296523Y204080D01*
X296600Y203495D01*
X296600Y202905D01*
X296600Y126705D02*
X296523Y126120D01*
X296370Y125550D01*
X296145Y125005D01*
X295850Y124495D01*
X295491Y124027D01*
X295073Y123609D01*
X294605Y123250D01*
X294095Y122955D01*
X293550Y122730D01*
X292980Y122577D01*
X292395Y122500D01*
X291805Y122500D01*
X291220Y122577D01*
X290650Y122730D01*
X290105Y122955D01*
X289595Y123250D01*
X289127Y123609D01*
X288709Y124027D01*
X288350Y124495D01*
X288055Y125005D01*
X287830Y125550D01*
X287677Y126120D01*
X287600Y126705D01*
X287600Y127295D01*
X287677Y127880D01*
X287830Y128450D01*
X288055Y128995D01*
X288350Y129505D01*
X288709Y129973D01*
X289127Y130391D01*
X289595Y130750D01*
X290105Y131045D01*
X290650Y131270D01*
X291220Y131423D01*
X291805Y131500D01*
X292395Y131500D01*
X292980Y131423D01*
X293550Y131270D01*
X294095Y131045D01*
X294605Y130750D01*
X295073Y130391D01*
X295491Y129973D01*
X295850Y129505D01*
X296145Y128995D01*
X296370Y128450D01*
X296523Y127880D01*
X296600Y127295D01*
X296600Y126705D01*
X322000Y126705D02*
X321923Y126120D01*
X321770Y125550D01*
X321545Y125005D01*
X321250Y124495D01*
X320891Y124027D01*
X320473Y123609D01*
X320005Y123250D01*
X319495Y122955D01*
X318950Y122730D01*
X318380Y122577D01*
X317795Y122500D01*
X317205Y122500D01*
X316620Y122577D01*
X316050Y122730D01*
X315505Y122955D01*
X314995Y123250D01*
X314527Y123609D01*
X314109Y124027D01*
X313750Y124495D01*
X313455Y125005D01*
X313230Y125550D01*
X313077Y126120D01*
X313000Y126705D01*
X313000Y127295D01*
X313077Y127880D01*
X313230Y128450D01*
X313455Y128995D01*
X313750Y129505D01*
X314109Y129973D01*
X314527Y130391D01*
X314995Y130750D01*
X315505Y131045D01*
X316050Y131270D01*
X316620Y131423D01*
X317205Y131500D01*
X317795Y131500D01*
X318380Y131423D01*
X318950Y131270D01*
X319495Y131045D01*
X320005Y130750D01*
X320473Y130391D01*
X320891Y129973D01*
X321250Y129505D01*
X321545Y128995D01*
X321770Y128450D01*
X321923Y127880D01*
X322000Y127295D01*
X322000Y126705D01*
X347400Y126705D02*
X347323Y126120D01*
X347170Y125550D01*
X346945Y125005D01*
X346650Y124495D01*
X346291Y124027D01*
X345873Y123609D01*
X345405Y123250D01*
X344895Y122955D01*
X344350Y122730D01*
X343780Y122577D01*
X343195Y122500D01*
X342605Y122500D01*
X342020Y122577D01*
X341450Y122730D01*
X340905Y122955D01*
X340395Y123250D01*
X339927Y123609D01*
X339509Y124027D01*
X339150Y124495D01*
X338855Y125005D01*
X338630Y125550D01*
X338477Y126120D01*
X338400Y126705D01*
X338400Y127295D01*
X338477Y127880D01*
X338630Y128450D01*
X338855Y128995D01*
X339150Y129505D01*
X339509Y129973D01*
X339927Y130391D01*
X340395Y130750D01*
X340905Y131045D01*
X341450Y131270D01*
X342020Y131423D01*
X342605Y131500D01*
X343195Y131500D01*
X343780Y131423D01*
X344350Y131270D01*
X344895Y131045D01*
X345405Y130750D01*
X345873Y130391D01*
X346291Y129973D01*
X346650Y129505D01*
X346945Y128995D01*
X347170Y128450D01*
X347323Y127880D01*
X347400Y127295D01*
X347400Y126705D01*
X372800Y126705D02*
X372723Y126120D01*
X372570Y125550D01*
X372345Y125005D01*
X372050Y124495D01*
X371691Y124027D01*
X371273Y123609D01*
X370805Y123250D01*
X370295Y122955D01*
X369750Y122730D01*
X369180Y122577D01*
X368595Y122500D01*
X368005Y122500D01*
X367420Y122577D01*
X366850Y122730D01*
X366305Y122955D01*
X365795Y123250D01*
X365327Y123609D01*
X364909Y124027D01*
X364550Y124495D01*
X364255Y125005D01*
X364030Y125550D01*
X363877Y126120D01*
X363800Y126705D01*
X363800Y127295D01*
X363877Y127880D01*
X364030Y128450D01*
X364255Y128995D01*
X364550Y129505D01*
X364909Y129973D01*
X365327Y130391D01*
X365795Y130750D01*
X366305Y131045D01*
X366850Y131270D01*
X367420Y131423D01*
X368005Y131500D01*
X368595Y131500D01*
X369180Y131423D01*
X369750Y131270D01*
X370295Y131045D01*
X370805Y130750D01*
X371273Y130391D01*
X371691Y129973D01*
X372050Y129505D01*
X372345Y128995D01*
X372570Y128450D01*
X372723Y127880D01*
X372800Y127295D01*
X372800Y126705D01*
X398200Y126705D02*
X398123Y126120D01*
X397970Y125550D01*
X397745Y125005D01*
X397450Y124495D01*
X397091Y124027D01*
X396673Y123609D01*
X396205Y123250D01*
X395695Y122955D01*
X395150Y122730D01*
X394580Y122577D01*
X393995Y122500D01*
X393405Y122500D01*
X392820Y122577D01*
X392250Y122730D01*
X391705Y122955D01*
X391195Y123250D01*
X390727Y123609D01*
X390309Y124027D01*
X389950Y124495D01*
X389655Y125005D01*
X389430Y125550D01*
X389277Y126120D01*
X389200Y126705D01*
X389200Y127295D01*
X389277Y127880D01*
X389430Y128450D01*
X389655Y128995D01*
X389950Y129505D01*
X390309Y129973D01*
X390727Y130391D01*
X391195Y130750D01*
X391705Y131045D01*
X392250Y131270D01*
X392820Y131423D01*
X393405Y131500D01*
X393995Y131500D01*
X394580Y131423D01*
X395150Y131270D01*
X395695Y131045D01*
X396205Y130750D01*
X396673Y130391D01*
X397091Y129973D01*
X397450Y129505D01*
X397745Y128995D01*
X397970Y128450D01*
X398123Y127880D01*
X398200Y127295D01*
X398200Y126705D01*
X423600Y126705D02*
X423523Y126120D01*
X423370Y125550D01*
X423145Y125005D01*
X422850Y124495D01*
X422491Y124027D01*
X422073Y123609D01*
X421605Y123250D01*
X421095Y122955D01*
X420550Y122730D01*
X419980Y122577D01*
X419395Y122500D01*
X418805Y122500D01*
X418220Y122577D01*
X417650Y122730D01*
X417105Y122955D01*
X416595Y123250D01*
X416127Y123609D01*
X415709Y124027D01*
X415350Y124495D01*
X415055Y125005D01*
X414830Y125550D01*
X414677Y126120D01*
X414600Y126705D01*
X414600Y127295D01*
X414677Y127880D01*
X414830Y128450D01*
X415055Y128995D01*
X415350Y129505D01*
X415709Y129973D01*
X416127Y130391D01*
X416595Y130750D01*
X417105Y131045D01*
X417650Y131270D01*
X418220Y131423D01*
X418805Y131500D01*
X419395Y131500D01*
X419980Y131423D01*
X420550Y131270D01*
X421095Y131045D01*
X421605Y130750D01*
X422073Y130391D01*
X422491Y129973D01*
X422850Y129505D01*
X423145Y128995D01*
X423370Y128450D01*
X423523Y127880D01*
X423600Y127295D01*
X423600Y126705D01*
X449000Y126705D02*
X448923Y126120D01*
X448770Y125550D01*
X448545Y125005D01*
X448250Y124495D01*
X447891Y124027D01*
X447473Y123609D01*
X447005Y123250D01*
X446495Y122955D01*
X445950Y122730D01*
X445380Y122577D01*
X444795Y122500D01*
X444205Y122500D01*
X443620Y122577D01*
X443050Y122730D01*
X442505Y122955D01*
X441995Y123250D01*
X441527Y123609D01*
X441109Y124027D01*
X440750Y124495D01*
X440455Y125005D01*
X440230Y125550D01*
X440077Y126120D01*
X440000Y126705D01*
X440000Y127295D01*
X440077Y127880D01*
X440230Y128450D01*
X440455Y128995D01*
X440750Y129505D01*
X441109Y129973D01*
X441527Y130391D01*
X441995Y130750D01*
X442505Y131045D01*
X443050Y131270D01*
X443620Y131423D01*
X444205Y131500D01*
X444795Y131500D01*
X445380Y131423D01*
X445950Y131270D01*
X446495Y131045D01*
X447005Y130750D01*
X447473Y130391D01*
X447891Y129973D01*
X448250Y129505D01*
X448545Y128995D01*
X448770Y128450D01*
X448923Y127880D01*
X449000Y127295D01*
X449000Y126705D01*
X474400Y126705D02*
X474323Y126120D01*
X474170Y125550D01*
X473945Y125005D01*
X473650Y124495D01*
X473291Y124027D01*
X472873Y123609D01*
X472405Y123250D01*
X471895Y122955D01*
X471350Y122730D01*
X470780Y122577D01*
X470195Y122500D01*
X469605Y122500D01*
X469020Y122577D01*
X468450Y122730D01*
X467905Y122955D01*
X467395Y123250D01*
X466927Y123609D01*
X466509Y124027D01*
X466150Y124495D01*
X465855Y125005D01*
X465630Y125550D01*
X465477Y126120D01*
X465400Y126705D01*
X465400Y127295D01*
X465477Y127880D01*
X465630Y128450D01*
X465855Y128995D01*
X466150Y129505D01*
X466509Y129973D01*
X466927Y130391D01*
X467395Y130750D01*
X467905Y131045D01*
X468450Y131270D01*
X469020Y131423D01*
X469605Y131500D01*
X470195Y131500D01*
X470780Y131423D01*
X471350Y131270D01*
X471895Y131045D01*
X472405Y130750D01*
X472873Y130391D01*
X473291Y129973D01*
X473650Y129505D01*
X473945Y128995D01*
X474170Y128450D01*
X474323Y127880D01*
X474400Y127295D01*
X474400Y126705D01*
X499800Y126705D02*
X499723Y126120D01*
X499570Y125550D01*
X499345Y125005D01*
X499050Y124495D01*
X498691Y124027D01*
X498273Y123609D01*
X497805Y123250D01*
X497295Y122955D01*
X496750Y122730D01*
X496180Y122577D01*
X495595Y122500D01*
X495005Y122500D01*
X494420Y122577D01*
X493850Y122730D01*
X493305Y122955D01*
X492795Y123250D01*
X492327Y123609D01*
X491909Y124027D01*
X491550Y124495D01*
X491255Y125005D01*
X491030Y125550D01*
X490877Y126120D01*
X490800Y126705D01*
X490800Y127295D01*
X490877Y127880D01*
X491030Y128450D01*
X491255Y128995D01*
X491550Y129505D01*
X491909Y129973D01*
X492327Y130391D01*
X492795Y130750D01*
X493305Y131045D01*
X493850Y131270D01*
X494420Y131423D01*
X495005Y131500D01*
X495595Y131500D01*
X496180Y131423D01*
X496750Y131270D01*
X497295Y131045D01*
X497805Y130750D01*
X498273Y130391D01*
X498691Y129973D01*
X499050Y129505D01*
X499345Y128995D01*
X499570Y128450D01*
X499723Y127880D01*
X499800Y127295D01*
X499800Y126705D01*
X525200Y126705D02*
X525123Y126120D01*
X524970Y125550D01*
X524745Y125005D01*
X524450Y124495D01*
X524091Y124027D01*
X523673Y123609D01*
X523205Y123250D01*
X522695Y122955D01*
X522150Y122730D01*
X521580Y122577D01*
X520995Y122500D01*
X520405Y122500D01*
X519820Y122577D01*
X519250Y122730D01*
X518705Y122955D01*
X518195Y123250D01*
X517727Y123609D01*
X517309Y124027D01*
X516950Y124495D01*
X516655Y125005D01*
X516430Y125550D01*
X516277Y126120D01*
X516200Y126705D01*
X516200Y127295D01*
X516277Y127880D01*
X516430Y128450D01*
X516655Y128995D01*
X516950Y129505D01*
X517309Y129973D01*
X517727Y130391D01*
X518195Y130750D01*
X518705Y131045D01*
X519250Y131270D01*
X519820Y131423D01*
X520405Y131500D01*
X520995Y131500D01*
X521580Y131423D01*
X522150Y131270D01*
X522695Y131045D01*
X523205Y130750D01*
X523673Y130391D01*
X524091Y129973D01*
X524450Y129505D01*
X524745Y128995D01*
X524970Y128450D01*
X525123Y127880D01*
X525200Y127295D01*
X525200Y126705D01*
X550600Y126705D02*
X550523Y126120D01*
X550370Y125550D01*
X550145Y125005D01*
X549850Y124495D01*
X549491Y124027D01*
X549073Y123609D01*
X548605Y123250D01*
X548095Y122955D01*
X547550Y122730D01*
X546980Y122577D01*
X546395Y122500D01*
X545805Y122500D01*
X545220Y122577D01*
X544650Y122730D01*
X544105Y122955D01*
X543595Y123250D01*
X543127Y123609D01*
X542709Y124027D01*
X542350Y124495D01*
X542055Y125005D01*
X541830Y125550D01*
X541677Y126120D01*
X541600Y126705D01*
X541600Y127295D01*
X541677Y127880D01*
X541830Y128450D01*
X542055Y128995D01*
X542350Y129505D01*
X542709Y129973D01*
X543127Y130391D01*
X543595Y130750D01*
X544105Y131045D01*
X544650Y131270D01*
X545220Y131423D01*
X545805Y131500D01*
X546395Y131500D01*
X546980Y131423D01*
X547550Y131270D01*
X548095Y131045D01*
X548605Y130750D01*
X549073Y130391D01*
X549491Y129973D01*
X549850Y129505D01*
X550145Y128995D01*
X550370Y128450D01*
X550523Y127880D01*
X550600Y127295D01*
X550600Y126705D01*
X576000Y126705D02*
X575923Y126120D01*
X575770Y125550D01*
X575545Y125005D01*
X575250Y124495D01*
X574891Y124027D01*
X574473Y123609D01*
X574005Y123250D01*
X573495Y122955D01*
X572950Y122730D01*
X572380Y122577D01*
X571795Y122500D01*
X571205Y122500D01*
X570620Y122577D01*
X570050Y122730D01*
X569505Y122955D01*
X568995Y123250D01*
X568527Y123609D01*
X568109Y124027D01*
X567750Y124495D01*
X567455Y125005D01*
X567230Y125550D01*
X567077Y126120D01*
X567000Y126705D01*
X567000Y127295D01*
X567077Y127880D01*
X567230Y128450D01*
X567455Y128995D01*
X567750Y129505D01*
X568109Y129973D01*
X568527Y130391D01*
X568995Y130750D01*
X569505Y131045D01*
X570050Y131270D01*
X570620Y131423D01*
X571205Y131500D01*
X571795Y131500D01*
X572380Y131423D01*
X572950Y131270D01*
X573495Y131045D01*
X574005Y130750D01*
X574473Y130391D01*
X574891Y129973D01*
X575250Y129505D01*
X575545Y128995D01*
X575770Y128450D01*
X575923Y127880D01*
X576000Y127295D01*
X576000Y126705D01*
X601400Y126705D02*
X601323Y126120D01*
X601170Y125550D01*
X600945Y125005D01*
X600650Y124495D01*
X600291Y124027D01*
X599873Y123609D01*
X599405Y123250D01*
X598895Y122955D01*
X598350Y122730D01*
X597780Y122577D01*
X597195Y122500D01*
X596605Y122500D01*
X596020Y122577D01*
X595450Y122730D01*
X594905Y122955D01*
X594395Y123250D01*
X593927Y123609D01*
X593509Y124027D01*
X593150Y124495D01*
X592855Y125005D01*
X592630Y125550D01*
X592477Y126120D01*
X592400Y126705D01*
X592400Y127295D01*
X592477Y127880D01*
X592630Y128450D01*
X592855Y128995D01*
X593150Y129505D01*
X593509Y129973D01*
X593927Y130391D01*
X594395Y130750D01*
X594905Y131045D01*
X595450Y131270D01*
X596020Y131423D01*
X596605Y131500D01*
X597195Y131500D01*
X597780Y131423D01*
X598350Y131270D01*
X598895Y131045D01*
X599405Y130750D01*
X599873Y130391D01*
X600291Y129973D01*
X600650Y129505D01*
X600945Y128995D01*
X601170Y128450D01*
X601323Y127880D01*
X601400Y127295D01*
X601400Y126705D01*
X626800Y126705D02*
X626723Y126120D01*
X626570Y125550D01*
X626345Y125005D01*
X626050Y124495D01*
X625691Y124027D01*
X625273Y123609D01*
X624805Y123250D01*
X624295Y122955D01*
X623750Y122730D01*
X623180Y122577D01*
X622595Y122500D01*
X622005Y122500D01*
X621420Y122577D01*
X620850Y122730D01*
X620305Y122955D01*
X619795Y123250D01*
X619327Y123609D01*
X618909Y124027D01*
X618550Y124495D01*
X618255Y125005D01*
X618030Y125550D01*
X617877Y126120D01*
X617800Y126705D01*
X617800Y127295D01*
X617877Y127880D01*
X618030Y128450D01*
X618255Y128995D01*
X618550Y129505D01*
X618909Y129973D01*
X619327Y130391D01*
X619795Y130750D01*
X620305Y131045D01*
X620850Y131270D01*
X621420Y131423D01*
X622005Y131500D01*
X622595Y131500D01*
X623180Y131423D01*
X623750Y131270D01*
X624295Y131045D01*
X624805Y130750D01*
X625273Y130391D01*
X625691Y129973D01*
X626050Y129505D01*
X626345Y128995D01*
X626570Y128450D01*
X626723Y127880D01*
X626800Y127295D01*
X626800Y126705D01*
X512500Y25105D02*
X512423Y24520D01*
X512270Y23950D01*
X512045Y23405D01*
X511750Y22895D01*
X511391Y22427D01*
X510973Y22009D01*
X510505Y21650D01*
X509995Y21355D01*
X509450Y21130D01*
X508880Y20977D01*
X508295Y20900D01*
X507705Y20900D01*
X507120Y20977D01*
X506550Y21130D01*
X506005Y21355D01*
X505495Y21650D01*
X505027Y22009D01*
X504609Y22427D01*
X504250Y22895D01*
X503955Y23405D01*
X503730Y23950D01*
X503577Y24520D01*
X503500Y25105D01*
X503500Y25695D01*
X503577Y26280D01*
X503730Y26850D01*
X503955Y27395D01*
X504250Y27905D01*
X504609Y28373D01*
X505027Y28791D01*
X505495Y29150D01*
X506005Y29445D01*
X506550Y29670D01*
X507120Y29823D01*
X507705Y29900D01*
X508295Y29900D01*
X508880Y29823D01*
X509450Y29670D01*
X509995Y29445D01*
X510505Y29150D01*
X510973Y28791D01*
X511391Y28373D01*
X511750Y27905D01*
X512045Y27395D01*
X512270Y26850D01*
X512423Y26280D01*
X512500Y25695D01*
X512500Y25105D01*
X537900Y25105D02*
X537823Y24520D01*
X537670Y23950D01*
X537445Y23405D01*
X537150Y22895D01*
X536791Y22427D01*
X536373Y22009D01*
X535905Y21650D01*
X535395Y21355D01*
X534850Y21130D01*
X534280Y20977D01*
X533695Y20900D01*
X533105Y20900D01*
X532520Y20977D01*
X531950Y21130D01*
X531405Y21355D01*
X530895Y21650D01*
X530427Y22009D01*
X530009Y22427D01*
X529650Y22895D01*
X529355Y23405D01*
X529130Y23950D01*
X528977Y24520D01*
X528900Y25105D01*
X528900Y25695D01*
X528977Y26280D01*
X529130Y26850D01*
X529355Y27395D01*
X529650Y27905D01*
X530009Y28373D01*
X530427Y28791D01*
X530895Y29150D01*
X531405Y29445D01*
X531950Y29670D01*
X532520Y29823D01*
X533105Y29900D01*
X533695Y29900D01*
X534280Y29823D01*
X534850Y29670D01*
X535395Y29445D01*
X535905Y29150D01*
X536373Y28791D01*
X536791Y28373D01*
X537150Y27905D01*
X537445Y27395D01*
X537670Y26850D01*
X537823Y26280D01*
X537900Y25695D01*
X537900Y25105D01*
X563300Y25105D02*
X563223Y24520D01*
X563070Y23950D01*
X562845Y23405D01*
X562550Y22895D01*
X562191Y22427D01*
X561773Y22009D01*
X561305Y21650D01*
X560795Y21355D01*
X560250Y21130D01*
X559680Y20977D01*
X559095Y20900D01*
X558505Y20900D01*
X557920Y20977D01*
X557350Y21130D01*
X556805Y21355D01*
X556295Y21650D01*
X555827Y22009D01*
X555409Y22427D01*
X555050Y22895D01*
X554755Y23405D01*
X554530Y23950D01*
X554377Y24520D01*
X554300Y25105D01*
X554300Y25695D01*
X554377Y26280D01*
X554530Y26850D01*
X554755Y27395D01*
X555050Y27905D01*
X555409Y28373D01*
X555827Y28791D01*
X556295Y29150D01*
X556805Y29445D01*
X557350Y29670D01*
X557920Y29823D01*
X558505Y29900D01*
X559095Y29900D01*
X559680Y29823D01*
X560250Y29670D01*
X560795Y29445D01*
X561305Y29150D01*
X561773Y28791D01*
X562191Y28373D01*
X562550Y27905D01*
X562845Y27395D01*
X563070Y26850D01*
X563223Y26280D01*
X563300Y25695D01*
X563300Y25105D01*
X588700Y25105D02*
X588623Y24520D01*
X588470Y23950D01*
X588245Y23405D01*
X587950Y22895D01*
X587591Y22427D01*
X587173Y22009D01*
X586705Y21650D01*
X586195Y21355D01*
X585650Y21130D01*
X585080Y20977D01*
X584495Y20900D01*
X583905Y20900D01*
X583320Y20977D01*
X582750Y21130D01*
X582205Y21355D01*
X581695Y21650D01*
X581227Y22009D01*
X580809Y22427D01*
X580450Y22895D01*
X580155Y23405D01*
X579930Y23950D01*
X579777Y24520D01*
X579700Y25105D01*
X579700Y25695D01*
X579777Y26280D01*
X579930Y26850D01*
X580155Y27395D01*
X580450Y27905D01*
X580809Y28373D01*
X581227Y28791D01*
X581695Y29150D01*
X582205Y29445D01*
X582750Y29670D01*
X583320Y29823D01*
X583905Y29900D01*
X584495Y29900D01*
X585080Y29823D01*
X585650Y29670D01*
X586195Y29445D01*
X586705Y29150D01*
X587173Y28791D01*
X587591Y28373D01*
X587950Y27905D01*
X588245Y27395D01*
X588470Y26850D01*
X588623Y26280D01*
X588700Y25695D01*
X588700Y25105D01*
X614100Y25105D02*
X614023Y24520D01*
X613870Y23950D01*
X613645Y23405D01*
X613350Y22895D01*
X612991Y22427D01*
X612573Y22009D01*
X612105Y21650D01*
X611595Y21355D01*
X611050Y21130D01*
X610480Y20977D01*
X609895Y20900D01*
X609305Y20900D01*
X608720Y20977D01*
X608150Y21130D01*
X607605Y21355D01*
X607095Y21650D01*
X606627Y22009D01*
X606209Y22427D01*
X605850Y22895D01*
X605555Y23405D01*
X605330Y23950D01*
X605177Y24520D01*
X605100Y25105D01*
X605100Y25695D01*
X605177Y26280D01*
X605330Y26850D01*
X605555Y27395D01*
X605850Y27905D01*
X606209Y28373D01*
X606627Y28791D01*
X607095Y29150D01*
X607605Y29445D01*
X608150Y29670D01*
X608720Y29823D01*
X609305Y29900D01*
X609895Y29900D01*
X610480Y29823D01*
X611050Y29670D01*
X611595Y29445D01*
X612105Y29150D01*
X612573Y28791D01*
X612991Y28373D01*
X613350Y27905D01*
X613645Y27395D01*
X613870Y26850D01*
X614023Y26280D01*
X614100Y25695D01*
X614100Y25105D01*
X639500Y25105D02*
X639423Y24520D01*
X639270Y23950D01*
X639045Y23405D01*
X638750Y22895D01*
X638391Y22427D01*
X637973Y22009D01*
X637505Y21650D01*
X636995Y21355D01*
X636450Y21130D01*
X635880Y20977D01*
X635295Y20900D01*
X634705Y20900D01*
X634120Y20977D01*
X633550Y21130D01*
X633005Y21355D01*
X632495Y21650D01*
X632027Y22009D01*
X631609Y22427D01*
X631250Y22895D01*
X630955Y23405D01*
X630730Y23950D01*
X630577Y24520D01*
X630500Y25105D01*
X630500Y25695D01*
X630577Y26280D01*
X630730Y26850D01*
X630955Y27395D01*
X631250Y27905D01*
X631609Y28373D01*
X632027Y28791D01*
X632495Y29150D01*
X633005Y29445D01*
X633550Y29670D01*
X634120Y29823D01*
X634705Y29900D01*
X635295Y29900D01*
X635880Y29823D01*
X636450Y29670D01*
X636995Y29445D01*
X637505Y29150D01*
X637973Y28791D01*
X638391Y28373D01*
X638750Y27905D01*
X639045Y27395D01*
X639270Y26850D01*
X639423Y26280D01*
X639500Y25695D01*
X639500Y25105D01*
X283900Y25105D02*
X283823Y24520D01*
X283670Y23950D01*
X283445Y23405D01*
X283150Y22895D01*
X282791Y22427D01*
X282373Y22009D01*
X281905Y21650D01*
X281395Y21355D01*
X280850Y21130D01*
X280280Y20977D01*
X279695Y20900D01*
X279105Y20900D01*
X278520Y20977D01*
X277950Y21130D01*
X277405Y21355D01*
X276895Y21650D01*
X276427Y22009D01*
X276009Y22427D01*
X275650Y22895D01*
X275355Y23405D01*
X275130Y23950D01*
X274977Y24520D01*
X274900Y25105D01*
X274900Y25695D01*
X274977Y26280D01*
X275130Y26850D01*
X275355Y27395D01*
X275650Y27905D01*
X276009Y28373D01*
X276427Y28791D01*
X276895Y29150D01*
X277405Y29445D01*
X277950Y29670D01*
X278520Y29823D01*
X279105Y29900D01*
X279695Y29900D01*
X280280Y29823D01*
X280850Y29670D01*
X281395Y29445D01*
X281905Y29150D01*
X282373Y28791D01*
X282791Y28373D01*
X283150Y27905D01*
X283445Y27395D01*
X283670Y26850D01*
X283823Y26280D01*
X283900Y25695D01*
X283900Y25105D01*
X309300Y25105D02*
X309223Y24520D01*
X309070Y23950D01*
X308845Y23405D01*
X308550Y22895D01*
X308191Y22427D01*
X307773Y22009D01*
X307305Y21650D01*
X306795Y21355D01*
X306250Y21130D01*
X305680Y20977D01*
X305095Y20900D01*
X304505Y20900D01*
X303920Y20977D01*
X303350Y21130D01*
X302805Y21355D01*
X302295Y21650D01*
X301827Y22009D01*
X301409Y22427D01*
X301050Y22895D01*
X300755Y23405D01*
X300530Y23950D01*
X300377Y24520D01*
X300300Y25105D01*
X300300Y25695D01*
X300377Y26280D01*
X300530Y26850D01*
X300755Y27395D01*
X301050Y27905D01*
X301409Y28373D01*
X301827Y28791D01*
X302295Y29150D01*
X302805Y29445D01*
X303350Y29670D01*
X303920Y29823D01*
X304505Y29900D01*
X305095Y29900D01*
X305680Y29823D01*
X306250Y29670D01*
X306795Y29445D01*
X307305Y29150D01*
X307773Y28791D01*
X308191Y28373D01*
X308550Y27905D01*
X308845Y27395D01*
X309070Y26850D01*
X309223Y26280D01*
X309300Y25695D01*
X309300Y25105D01*
X334700Y25105D02*
X334623Y24520D01*
X334470Y23950D01*
X334245Y23405D01*
X333950Y22895D01*
X333591Y22427D01*
X333173Y22009D01*
X332705Y21650D01*
X332195Y21355D01*
X331650Y21130D01*
X331080Y20977D01*
X330495Y20900D01*
X329905Y20900D01*
X329320Y20977D01*
X328750Y21130D01*
X328205Y21355D01*
X327695Y21650D01*
X327227Y22009D01*
X326809Y22427D01*
X326450Y22895D01*
X326155Y23405D01*
X325930Y23950D01*
X325777Y24520D01*
X325700Y25105D01*
X325700Y25695D01*
X325777Y26280D01*
X325930Y26850D01*
X326155Y27395D01*
X326450Y27905D01*
X326809Y28373D01*
X327227Y28791D01*
X327695Y29150D01*
X328205Y29445D01*
X328750Y29670D01*
X329320Y29823D01*
X329905Y29900D01*
X330495Y29900D01*
X331080Y29823D01*
X331650Y29670D01*
X332195Y29445D01*
X332705Y29150D01*
X333173Y28791D01*
X333591Y28373D01*
X333950Y27905D01*
X334245Y27395D01*
X334470Y26850D01*
X334623Y26280D01*
X334700Y25695D01*
X334700Y25105D01*
X360100Y25105D02*
X360023Y24520D01*
X359870Y23950D01*
X359645Y23405D01*
X359350Y22895D01*
X358991Y22427D01*
X358573Y22009D01*
X358105Y21650D01*
X357595Y21355D01*
X357050Y21130D01*
X356480Y20977D01*
X355895Y20900D01*
X355305Y20900D01*
X354720Y20977D01*
X354150Y21130D01*
X353605Y21355D01*
X353095Y21650D01*
X352627Y22009D01*
X352209Y22427D01*
X351850Y22895D01*
X351555Y23405D01*
X351330Y23950D01*
X351177Y24520D01*
X351100Y25105D01*
X351100Y25695D01*
X351177Y26280D01*
X351330Y26850D01*
X351555Y27395D01*
X351850Y27905D01*
X352209Y28373D01*
X352627Y28791D01*
X353095Y29150D01*
X353605Y29445D01*
X354150Y29670D01*
X354720Y29823D01*
X355305Y29900D01*
X355895Y29900D01*
X356480Y29823D01*
X357050Y29670D01*
X357595Y29445D01*
X358105Y29150D01*
X358573Y28791D01*
X358991Y28373D01*
X359350Y27905D01*
X359645Y27395D01*
X359870Y26850D01*
X360023Y26280D01*
X360100Y25695D01*
X360100Y25105D01*
X385500Y25105D02*
X385423Y24520D01*
X385270Y23950D01*
X385045Y23405D01*
X384750Y22895D01*
X384391Y22427D01*
X383973Y22009D01*
X383505Y21650D01*
X382995Y21355D01*
X382450Y21130D01*
X381880Y20977D01*
X381295Y20900D01*
X380705Y20900D01*
X380120Y20977D01*
X379550Y21130D01*
X379005Y21355D01*
X378495Y21650D01*
X378027Y22009D01*
X377609Y22427D01*
X377250Y22895D01*
X376955Y23405D01*
X376730Y23950D01*
X376577Y24520D01*
X376500Y25105D01*
X376500Y25695D01*
X376577Y26280D01*
X376730Y26850D01*
X376955Y27395D01*
X377250Y27905D01*
X377609Y28373D01*
X378027Y28791D01*
X378495Y29150D01*
X379005Y29445D01*
X379550Y29670D01*
X380120Y29823D01*
X380705Y29900D01*
X381295Y29900D01*
X381880Y29823D01*
X382450Y29670D01*
X382995Y29445D01*
X383505Y29150D01*
X383973Y28791D01*
X384391Y28373D01*
X384750Y27905D01*
X385045Y27395D01*
X385270Y26850D01*
X385423Y26280D01*
X385500Y25695D01*
X385500Y25105D01*
X410900Y25105D02*
X410823Y24520D01*
X410670Y23950D01*
X410445Y23405D01*
X410150Y22895D01*
X409791Y22427D01*
X409373Y22009D01*
X408905Y21650D01*
X408395Y21355D01*
X407850Y21130D01*
X407280Y20977D01*
X406695Y20900D01*
X406105Y20900D01*
X405520Y20977D01*
X404950Y21130D01*
X404405Y21355D01*
X403895Y21650D01*
X403427Y22009D01*
X403009Y22427D01*
X402650Y22895D01*
X402355Y23405D01*
X402130Y23950D01*
X401977Y24520D01*
X401900Y25105D01*
X401900Y25695D01*
X401977Y26280D01*
X402130Y26850D01*
X402355Y27395D01*
X402650Y27905D01*
X403009Y28373D01*
X403427Y28791D01*
X403895Y29150D01*
X404405Y29445D01*
X404950Y29670D01*
X405520Y29823D01*
X406105Y29900D01*
X406695Y29900D01*
X407280Y29823D01*
X407850Y29670D01*
X408395Y29445D01*
X408905Y29150D01*
X409373Y28791D01*
X409791Y28373D01*
X410150Y27905D01*
X410445Y27395D01*
X410670Y26850D01*
X410823Y26280D01*
X410900Y25695D01*
X410900Y25105D01*
X436300Y25105D02*
X436223Y24520D01*
X436070Y23950D01*
X435845Y23405D01*
X435550Y22895D01*
X435191Y22427D01*
X434773Y22009D01*
X434305Y21650D01*
X433795Y21355D01*
X433250Y21130D01*
X432680Y20977D01*
X432095Y20900D01*
X431505Y20900D01*
X430920Y20977D01*
X430350Y21130D01*
X429805Y21355D01*
X429295Y21650D01*
X428827Y22009D01*
X428409Y22427D01*
X428050Y22895D01*
X427755Y23405D01*
X427530Y23950D01*
X427377Y24520D01*
X427300Y25105D01*
X427300Y25695D01*
X427377Y26280D01*
X427530Y26850D01*
X427755Y27395D01*
X428050Y27905D01*
X428409Y28373D01*
X428827Y28791D01*
X429295Y29150D01*
X429805Y29445D01*
X430350Y29670D01*
X430920Y29823D01*
X431505Y29900D01*
X432095Y29900D01*
X432680Y29823D01*
X433250Y29670D01*
X433795Y29445D01*
X434305Y29150D01*
X434773Y28791D01*
X435191Y28373D01*
X435550Y27905D01*
X435845Y27395D01*
X436070Y26850D01*
X436223Y26280D01*
X436300Y25695D01*
X436300Y25105D01*
X461700Y25105D02*
X461623Y24520D01*
X461470Y23950D01*
X461245Y23405D01*
X460950Y22895D01*
X460591Y22427D01*
X460173Y22009D01*
X459705Y21650D01*
X459195Y21355D01*
X458650Y21130D01*
X458080Y20977D01*
X457495Y20900D01*
X456905Y20900D01*
X456320Y20977D01*
X455750Y21130D01*
X455205Y21355D01*
X454695Y21650D01*
X454227Y22009D01*
X453809Y22427D01*
X453450Y22895D01*
X453155Y23405D01*
X452930Y23950D01*
X452777Y24520D01*
X452700Y25105D01*
X452700Y25695D01*
X452777Y26280D01*
X452930Y26850D01*
X453155Y27395D01*
X453450Y27905D01*
X453809Y28373D01*
X454227Y28791D01*
X454695Y29150D01*
X455205Y29445D01*
X455750Y29670D01*
X456320Y29823D01*
X456905Y29900D01*
X457495Y29900D01*
X458080Y29823D01*
X458650Y29670D01*
X459195Y29445D01*
X459705Y29150D01*
X460173Y28791D01*
X460591Y28373D01*
X460950Y27905D01*
X461245Y27395D01*
X461470Y26850D01*
X461623Y26280D01*
X461700Y25695D01*
X461700Y25105D01*
X53880Y207010D02*
X54959Y206939D01*
X56031Y206798D01*
X57091Y206587D01*
X58135Y206308D01*
X59159Y205960D01*
X60157Y205546D01*
X61127Y205068D01*
X62063Y204528D01*
X62962Y203927D01*
X63819Y203269D01*
X64632Y202557D01*
X65397Y201792D01*
X66109Y200979D01*
X66767Y200122D01*
X67368Y199223D01*
X67908Y198287D01*
X68386Y197317D01*
X68800Y196319D01*
X69148Y195295D01*
X69427Y194251D01*
X69638Y193191D01*
X69779Y192119D01*
X69850Y191040D01*
X69850Y189960D01*
X69779Y188881D01*
X69638Y187809D01*
X69427Y186749D01*
X69148Y185705D01*
X68800Y184681D01*
X68386Y183683D01*
X67908Y182713D01*
X67368Y181777D01*
X66767Y180878D01*
X66109Y180021D01*
X65397Y179208D01*
X64632Y178444D01*
X63819Y177731D01*
X62962Y177073D01*
X62063Y176472D01*
X61127Y175932D01*
X60157Y175454D01*
X59159Y175040D01*
X58135Y174692D01*
X57091Y174413D01*
X56031Y174202D01*
X54959Y174061D01*
X53880Y173990D01*
X52800Y173990D01*
X51721Y174061D01*
X50649Y174202D01*
X49589Y174413D01*
X48545Y174692D01*
X47521Y175040D01*
X46523Y175454D01*
X45553Y175932D01*
X44617Y176472D01*
X43718Y177073D01*
X42861Y177731D01*
X42048Y178444D01*
X41284Y179208D01*
X40571Y180021D01*
X39913Y180878D01*
X39312Y181777D01*
X38772Y182713D01*
X38294Y183683D01*
X37880Y184681D01*
X37532Y185705D01*
X37253Y186749D01*
X37042Y187809D01*
X36901Y188881D01*
X36830Y189960D01*
X36830Y191040D01*
X36901Y192119D01*
X37042Y193191D01*
X37253Y194251D01*
X37532Y195295D01*
X37880Y196319D01*
X38294Y197317D01*
X38772Y198287D01*
X39312Y199223D01*
X39913Y200122D01*
X40571Y200979D01*
X41284Y201792D01*
X42048Y202557D01*
X42861Y203269D01*
X43718Y203927D01*
X44617Y204528D01*
X45553Y205068D01*
X46523Y205546D01*
X47521Y205960D01*
X48545Y206308D01*
X49589Y206587D01*
X50649Y206798D01*
X51721Y206939D01*
X52800Y207010D01*
X53880Y207010D01*
M02*
